M48
; DRILL file {KiCad (5.1.6)-1} date 11/01/20 08:40:05
; FORMAT={-:-/ absolute / inch / decimal}
; #@! TF.CreationDate,2020-11-01T08:40:05-08:00
; #@! TF.GenerationSoftware,Kicad,Pcbnew,(5.1.6)-1
FMAT,2
INCH
T1C0.0295
T2C0.0315
T3C0.0394
T4C0.0398
T5C0.0433
T6C0.0512
%
G90
G05
T1
X3.4646Y-2.4409
X3.4646Y-2.5591
X3.4646Y-2.874
X3.5039Y-4.252
X3.5039Y-4.3701
X3.5827Y-2.4409
X3.5827Y-2.5591
X3.5827Y-2.874
X3.622Y-3.3071
X3.622Y-3.4252
X3.622Y-3.5433
X3.622Y-3.6614
X3.622Y-3.7795
X3.622Y-3.8976
X3.622Y-4.252
X3.622Y-4.3701
X3.7008Y-2.4409
X3.7008Y-2.5591
X3.7008Y-2.9528
X3.7008Y-3.0709
X3.7402Y-3.4252
X3.7402Y-3.5433
X3.7402Y-3.6614
X3.7402Y-3.7795
X3.7402Y-3.8976
X3.7402Y-4.0157
X3.7402Y-4.1339
X3.7402Y-4.252
X3.7402Y-4.3701
X3.8189Y-2.4409
X3.8189Y-2.5591
X3.8189Y-2.9528
X3.8189Y-3.0709
X3.8583Y-3.7795
X3.8583Y-3.8976
X3.8583Y-4.0157
X3.8583Y-4.1339
X3.8583Y-4.252
X3.8583Y-4.3701
X3.937Y-2.4409
X3.937Y-2.5591
X3.937Y-2.8346
X3.937Y-2.9528
X3.937Y-3.0709
X3.9764Y-4.3701
X4.0551Y-2.4409
X4.0551Y-2.5591
X4.0551Y-2.8346
X4.0551Y-2.9528
X4.0551Y-3.0709
X4.0945Y-4.3701
X4.1732Y-2.5591
X4.1732Y-2.6772
X4.1732Y-2.9528
X4.1732Y-3.0709
X4.1732Y-3.189
X4.1732Y-3.6614
X4.1732Y-3.7795
X4.1732Y-3.8976
X4.21Y-3.46
X4.2126Y-4.252
X4.2126Y-4.3701
X4.2913Y-2.5197
X4.3307Y-4.252
X4.3307Y-4.3701
X4.4488Y-2.4409
X4.4488Y-2.9528
X4.4488Y-3.0709
X4.4488Y-3.189
X4.4488Y-3.3071
X4.4488Y-3.4252
X4.4488Y-3.5433
X4.4488Y-3.7795
X4.4488Y-3.8976
X4.4488Y-4.0157
X4.4488Y-4.1339
X4.4488Y-4.252
X4.4488Y-4.3701
X4.5669Y-2.4409
X4.5669Y-2.5591
X4.5669Y-2.9528
X4.5669Y-3.0709
X4.5669Y-3.189
X4.5669Y-3.3071
X4.5669Y-3.4252
X4.5669Y-3.5433
X4.5669Y-3.8976
X4.5669Y-4.0157
X4.5669Y-4.1339
X4.5669Y-4.252
X4.5669Y-4.3701
X4.5943Y-2.6417
X4.685Y-2.4409
X4.685Y-2.5591
X4.685Y-2.6772
X4.685Y-2.9528
X4.685Y-3.0709
X4.685Y-3.189
X4.685Y-3.3071
X4.685Y-3.4252
X4.685Y-3.5433
X4.685Y-3.6614
X4.685Y-3.7795
X4.685Y-4.0157
X4.685Y-4.1339
X4.685Y-4.252
X4.685Y-4.3701
X4.8031Y-2.4409
X4.8031Y-2.5591
X4.8031Y-2.6772
X4.8031Y-2.9528
X4.8031Y-3.0709
X4.8031Y-3.189
X4.8031Y-3.3071
X4.8031Y-3.4252
X4.8031Y-3.5433
X4.8031Y-3.6614
X4.8031Y-3.7795
X4.8031Y-3.8976
X4.8031Y-4.1339
X4.8031Y-4.252
X4.8031Y-4.3701
X4.9213Y-2.4409
X4.9213Y-2.5591
X4.9213Y-2.6772
X4.9213Y-2.9528
X4.9213Y-3.0709
X4.9213Y-3.189
X4.9213Y-3.3071
X4.9213Y-3.4252
X4.9213Y-3.5433
X4.9213Y-3.6614
X4.9213Y-3.7795
X4.9213Y-3.8976
X4.9213Y-4.0157
X4.9213Y-4.252
X4.9213Y-4.3701
X5.0394Y-2.4409
X5.0394Y-2.5591
X5.0394Y-2.9528
X5.0394Y-3.0709
X5.0394Y-3.189
X5.0394Y-3.3071
X5.0394Y-3.4252
X5.0394Y-3.5433
X5.0394Y-3.6614
X5.0394Y-3.7795
X5.0394Y-3.8976
X5.0394Y-4.0157
X5.0394Y-4.252
X5.0394Y-4.3701
X5.1575Y-2.4409
X5.1575Y-4.252
X5.1575Y-4.3701
X5.2756Y-2.4409
X5.2756Y-4.252
X5.2756Y-4.3701
X5.3543Y-2.6378
X5.3543Y-3.3071
X5.3937Y-2.4409
X5.3937Y-4.0157
X5.3937Y-4.1339
X5.3937Y-4.252
X5.3937Y-4.3701
X5.5118Y-4.0157
X5.5118Y-4.1339
X5.5118Y-4.252
X5.5118Y-4.3701
T2
X4.3594Y-2.6994
X4.3594Y-2.7994
X4.3594Y-2.8994
X4.3594Y-2.9994
X4.3594Y-3.0994
X4.3594Y-3.1994
X4.3594Y-3.2994
X4.3594Y-3.3994
X4.3594Y-3.4994
X4.3594Y-3.5994
X4.3594Y-3.6994
X4.3594Y-3.7994
X4.3594Y-3.8994
X4.3594Y-3.9994
X4.3594Y-4.0994
X5.2649Y-2.6994
X5.2649Y-2.7994
X5.2649Y-2.8994
X5.2649Y-2.9994
X5.2649Y-3.0994
X5.2649Y-3.1994
X5.2649Y-3.2994
X5.2649Y-3.3994
X5.2649Y-3.4994
X5.2649Y-3.5994
X5.2649Y-3.6994
X5.2649Y-3.7994
X5.2649Y-3.8994
X5.2649Y-3.9994
X5.2649Y-4.0994
X4.17Y-2.43
X4.17Y-2.83
T3
X5.46Y-3.8
X5.46Y-3.9
X3.8731Y-3.61
X4.07Y-3.61
X5.46Y-2.8
X5.46Y-2.9
X5.46Y-3.0
X5.46Y-3.1
X5.46Y-3.2
X5.46Y-3.3
X5.46Y-3.4
X5.46Y-3.5
X5.46Y-3.6
X3.48Y-3.15
X3.48Y-3.25
X5.46Y-2.54
X5.46Y-2.64
T4
X3.8696Y-3.25
X3.97Y-3.25
X4.0704Y-3.25
T5
X3.5433Y-3.9339
X3.5433Y-4.0339
X3.5433Y-4.1339
T6
X3.5363Y-2.74
X3.7331Y-2.74
X3.93Y-2.74
T3
G00X3.9406Y-3.937
M15
G01X4.0194Y-3.937
M16
G05
G00X3.9406Y-4.1732
M15
G01X4.0194Y-4.1732
M16
G05
G00X4.165Y-4.0945
M15
G01X4.165Y-4.0157
M16
G05
T0
M30
