%TF.GenerationSoftware,KiCad,Pcbnew,(5.1.6)-1*%
%TF.CreationDate,2020-11-01T08:40:04-08:00*%
%TF.ProjectId,CentralController,43656e74-7261-46c4-936f-6e74726f6c6c,rev?*%
%TF.SameCoordinates,Original*%
%TF.FileFunction,Copper,L2,Bot*%
%TF.FilePolarity,Positive*%
%FSLAX46Y46*%
G04 Gerber Fmt 4.6, Leading zero omitted, Abs format (unit mm)*
G04 Created by KiCad (PCBNEW (5.1.6)-1) date 2020-11-01 08:40:04*
%MOMM*%
%LPD*%
G01*
G04 APERTURE LIST*
%TA.AperFunction,ComponentPad*%
%ADD10R,2.000000X2.000000*%
%TD*%
%TA.AperFunction,ComponentPad*%
%ADD11C,2.000000*%
%TD*%
%TA.AperFunction,ComponentPad*%
%ADD12R,3.500000X3.500000*%
%TD*%
%TA.AperFunction,ComponentPad*%
%ADD13R,1.700000X1.700000*%
%TD*%
%TA.AperFunction,ComponentPad*%
%ADD14O,1.700000X1.700000*%
%TD*%
%TA.AperFunction,ComponentPad*%
%ADD15C,1.600000*%
%TD*%
%TA.AperFunction,ComponentPad*%
%ADD16R,2.000000X1.905000*%
%TD*%
%TA.AperFunction,ComponentPad*%
%ADD17O,2.000000X1.905000*%
%TD*%
%TA.AperFunction,ComponentPad*%
%ADD18O,1.600000X1.600000*%
%TD*%
%TA.AperFunction,ComponentPad*%
%ADD19C,2.340000*%
%TD*%
%TA.AperFunction,ComponentPad*%
%ADD20O,2.000000X1.500000*%
%TD*%
%TA.AperFunction,ViaPad*%
%ADD21C,1.000000*%
%TD*%
%TA.AperFunction,Conductor*%
%ADD22C,0.500000*%
%TD*%
%TA.AperFunction,Conductor*%
%ADD23C,0.254000*%
%TD*%
G04 APERTURE END LIST*
D10*
%TO.P,C1,1*%
%TO.N,/15V*%
X103378000Y-91694000D03*
D11*
%TO.P,C1,2*%
%TO.N,/GND*%
X98378000Y-91694000D03*
%TD*%
D12*
%TO.P,J1,1*%
%TO.N,/15V*%
X101092000Y-100000000D03*
%TO.P,J1,2*%
%TO.N,/GND*%
%TA.AperFunction,ComponentPad*%
G36*
G01*
X102092000Y-107500000D02*
X100092000Y-107500000D01*
G75*
G02*
X99342000Y-106750000I0J750000D01*
G01*
X99342000Y-105250000D01*
G75*
G02*
X100092000Y-104500000I750000J0D01*
G01*
X102092000Y-104500000D01*
G75*
G02*
X102842000Y-105250000I0J-750000D01*
G01*
X102842000Y-106750000D01*
G75*
G02*
X102092000Y-107500000I-750000J0D01*
G01*
G37*
%TD.AperFunction*%
%TO.P,J1,3*%
%TA.AperFunction,ComponentPad*%
G36*
G01*
X106667000Y-104750000D02*
X104917000Y-104750000D01*
G75*
G02*
X104042000Y-103875000I0J875000D01*
G01*
X104042000Y-102125000D01*
G75*
G02*
X104917000Y-101250000I875000J0D01*
G01*
X106667000Y-101250000D01*
G75*
G02*
X107542000Y-102125000I0J-875000D01*
G01*
X107542000Y-103875000D01*
G75*
G02*
X106667000Y-104750000I-875000J0D01*
G01*
G37*
%TD.AperFunction*%
%TD*%
D13*
%TO.P,J2,1*%
%TO.N,/RX*%
X138684000Y-96520000D03*
D14*
%TO.P,J2,2*%
%TO.N,/TX*%
X138684000Y-99060000D03*
%TD*%
D13*
%TO.P,J3,1*%
%TO.N,/15V*%
X88392000Y-80010000D03*
D14*
%TO.P,J3,2*%
%TO.N,/SPKR_IN*%
X88392000Y-82550000D03*
%TD*%
D13*
%TO.P,J4,1*%
%TO.N,/3V3*%
X138684000Y-71120000D03*
D14*
%TO.P,J4,2*%
%TO.N,/GND*%
X138684000Y-73660000D03*
%TO.P,J4,3*%
%TO.N,/SER*%
X138684000Y-76200000D03*
%TO.P,J4,4*%
%TO.N,/RCLK*%
X138684000Y-78740000D03*
%TO.P,J4,5*%
%TO.N,/SRCLK*%
X138684000Y-81280000D03*
%TO.P,J4,6*%
%TO.N,/ADDR0*%
X138684000Y-83820000D03*
%TO.P,J4,7*%
%TO.N,/ADDR1*%
X138684000Y-86360000D03*
%TO.P,J4,8*%
%TO.N,/ADDR2*%
X138684000Y-88900000D03*
%TO.P,J4,9*%
%TO.N,/ADDR3*%
X138684000Y-91440000D03*
%TD*%
%TO.P,J5,2*%
%TO.N,/15V*%
X138684000Y-64516000D03*
D13*
%TO.P,J5,1*%
%TO.N,/GND*%
X138684000Y-67056000D03*
%TD*%
D15*
%TO.P,PS1,1*%
%TO.N,/15V*%
X98288000Y-82550000D03*
%TO.P,PS1,2*%
%TO.N,/GND*%
X100838000Y-82550000D03*
%TO.P,PS1,3*%
%TO.N,/3V3*%
X103388000Y-82550000D03*
%TD*%
D16*
%TO.P,Q1,1*%
%TO.N,Net-(Q1-Pad1)*%
X90000000Y-105000000D03*
D17*
%TO.P,Q1,2*%
%TO.N,/SPKR_IN*%
X90000000Y-102460000D03*
%TO.P,Q1,3*%
%TO.N,/GND*%
X90000000Y-99920000D03*
%TD*%
D15*
%TO.P,R1,1*%
%TO.N,Net-(R1-Pad1)*%
X105918000Y-71882000D03*
D18*
%TO.P,R1,2*%
%TO.N,/SPKR_CTRL*%
X105918000Y-61722000D03*
%TD*%
D19*
%TO.P,RV1,3*%
%TO.N,Net-(RV1-Pad3)*%
X89822000Y-69596000D03*
%TO.P,RV1,2*%
%TO.N,Net-(R1-Pad1)*%
X94822000Y-69596000D03*
%TO.P,RV1,1*%
%TO.N,Net-(Q1-Pad1)*%
X99822000Y-69596000D03*
%TD*%
D20*
%TO.P,U1,7*%
%TO.N,/ADDR2*%
X133728000Y-88884000D03*
%TO.P,U1,26*%
%TO.N,/3V3*%
X110728000Y-93964000D03*
%TO.P,U1,4*%
%TO.N,/RX*%
X133728000Y-96504000D03*
%TO.P,U1,13*%
%TO.N,/RCLK*%
X133728000Y-73644000D03*
%TO.P,U1,12*%
%TO.N,/SRCLK*%
X133728000Y-76184000D03*
%TO.P,U1,23*%
%TO.N,Net-(U1-Pad23)*%
X110728000Y-86344000D03*
%TO.P,U1,6*%
%TO.N,/ADDR3*%
X133728000Y-91424000D03*
%TO.P,U1,28*%
%TO.N,Net-(U1-Pad28)*%
X110728000Y-99044000D03*
%TO.P,U1,19*%
%TO.N,Net-(U1-Pad19)*%
X110728000Y-76184000D03*
%TO.P,U1,5*%
%TO.N,Net-(U1-Pad5)*%
X133728000Y-93964000D03*
%TO.P,U1,9*%
%TO.N,/GND*%
X133728000Y-83804000D03*
%TO.P,U1,8*%
%TO.N,/ADDR1*%
X133728000Y-86344000D03*
%TO.P,U1,11*%
%TO.N,/ADDR0*%
X133728000Y-78724000D03*
%TO.P,U1,18*%
%TO.N,Net-(U1-Pad18)*%
X110728000Y-73644000D03*
%TO.P,U1,21*%
%TO.N,Net-(U1-Pad21)*%
X110728000Y-81264000D03*
%TO.P,U1,10*%
%TO.N,/3V3*%
X133728000Y-81264000D03*
%TO.P,U1,1*%
X133728000Y-104124000D03*
%TO.P,U1,20*%
%TO.N,Net-(U1-Pad20)*%
X110728000Y-78724000D03*
%TO.P,U1,22*%
%TO.N,Net-(U1-Pad22)*%
X110728000Y-83804000D03*
%TO.P,U1,25*%
%TO.N,/GND*%
X110728000Y-91424000D03*
%TO.P,U1,27*%
%TO.N,Net-(U1-Pad27)*%
X110728000Y-96504000D03*
%TO.P,U1,14*%
%TO.N,/SER*%
X133728000Y-71104000D03*
%TO.P,U1,2*%
%TO.N,/GND*%
X133728000Y-101584000D03*
%TO.P,U1,15*%
%TO.N,/SPKR_CTRL*%
X133728000Y-68564000D03*
%TO.P,U1,29*%
%TO.N,/GND*%
X110728000Y-101584000D03*
%TO.P,U1,16*%
%TO.N,Net-(U1-Pad16)*%
X110728000Y-68564000D03*
%TO.P,U1,17*%
%TO.N,Net-(U1-Pad17)*%
X110728000Y-71104000D03*
%TO.P,U1,3*%
%TO.N,/TX*%
X133728000Y-99044000D03*
%TO.P,U1,30*%
%TO.N,Net-(U1-Pad30)*%
X110728000Y-104124000D03*
%TO.P,U1,24*%
%TO.N,Net-(U1-Pad24)*%
X110728000Y-88884000D03*
%TD*%
D21*
%TO.N,/GND*%
X116000000Y-78000000D03*
X119000000Y-78000000D03*
X122000000Y-78000000D03*
X125000000Y-78000000D03*
X128000000Y-78000000D03*
X128000000Y-81000000D03*
X125000000Y-81000000D03*
X122000000Y-81000000D03*
X119000000Y-81000000D03*
X116000000Y-81000000D03*
X116000000Y-84000000D03*
X119000000Y-84000000D03*
X122000000Y-84000000D03*
X125000000Y-84000000D03*
X128000000Y-84000000D03*
X128000000Y-87000000D03*
X125000000Y-87000000D03*
X122000000Y-87000000D03*
X119000000Y-87000000D03*
X116000000Y-87000000D03*
X116000000Y-90000000D03*
X119000000Y-90000000D03*
X122000000Y-90000000D03*
X125000000Y-90000000D03*
X128000000Y-90000000D03*
X128000000Y-93000000D03*
X125000000Y-93000000D03*
X122000000Y-93000000D03*
X119000000Y-93000000D03*
X119000000Y-96000000D03*
X122000000Y-96000000D03*
X125000000Y-96000000D03*
X128000000Y-96000000D03*
X128000000Y-99000000D03*
X125000000Y-99000000D03*
X122000000Y-99000000D03*
X125000000Y-102000000D03*
X128000000Y-102000000D03*
X119000000Y-102000000D03*
X116000000Y-102000000D03*
X116000000Y-99000000D03*
X116000000Y-105000000D03*
X119000000Y-105000000D03*
X122000000Y-105000000D03*
X125000000Y-108000000D03*
X122000000Y-108000000D03*
X119000000Y-108000000D03*
X116000000Y-108000000D03*
X128000000Y-108000000D03*
X131000000Y-108000000D03*
X134000000Y-108000000D03*
X137000000Y-108000000D03*
X140000000Y-108000000D03*
X140000000Y-105000000D03*
X137000000Y-105000000D03*
X137000000Y-102000000D03*
X140000000Y-102000000D03*
X140000000Y-111000000D03*
X137000000Y-111000000D03*
X134000000Y-111000000D03*
X131000000Y-111000000D03*
X128000000Y-111000000D03*
X125000000Y-111000000D03*
X122000000Y-111000000D03*
X119000000Y-111000000D03*
X116000000Y-111000000D03*
X113000000Y-111000000D03*
X113000000Y-108000000D03*
X113000000Y-105000000D03*
X113000000Y-102000000D03*
X113000000Y-99000000D03*
X113000000Y-96000000D03*
X113000000Y-90000000D03*
X113000000Y-87000000D03*
X113000000Y-84000000D03*
X113000000Y-81000000D03*
X113000000Y-78000000D03*
X113000000Y-75000000D03*
X116000000Y-75000000D03*
X119000000Y-75000000D03*
X122000000Y-75000000D03*
X125000000Y-75000000D03*
X128000000Y-75000000D03*
X106000000Y-75000000D03*
X106000000Y-78000000D03*
X106000000Y-81000000D03*
X103000000Y-78000000D03*
X100000000Y-78000000D03*
X100000000Y-75000000D03*
X103000000Y-75000000D03*
X97000000Y-75000000D03*
X97000000Y-78000000D03*
X94000000Y-78000000D03*
X94000000Y-75000000D03*
X100000000Y-72000000D03*
X103000000Y-72000000D03*
X106000000Y-96000000D03*
X106000000Y-93000000D03*
X106000000Y-99000000D03*
X110000000Y-111000000D03*
X110000000Y-108000000D03*
X107000000Y-108000000D03*
X107000000Y-111000000D03*
X104000000Y-111000000D03*
X101000000Y-111000000D03*
X98000000Y-111000000D03*
X95000000Y-111000000D03*
X92000000Y-111000000D03*
X89000000Y-111000000D03*
X89000000Y-108000000D03*
X92000000Y-108000000D03*
X95000000Y-108000000D03*
X98000000Y-108000000D03*
X98000000Y-105000000D03*
X95000000Y-105000000D03*
X95000000Y-102000000D03*
X98000000Y-102000000D03*
X98000000Y-99000000D03*
X95000000Y-99000000D03*
X92000000Y-99000000D03*
X92000000Y-96000000D03*
X95000000Y-96000000D03*
X98000000Y-96000000D03*
X95000000Y-93000000D03*
X92000000Y-93000000D03*
X92000000Y-90000000D03*
X95000000Y-90000000D03*
X95000000Y-87000000D03*
X92000000Y-87000000D03*
X92000000Y-84000000D03*
X125000000Y-68000000D03*
X136000000Y-67000000D03*
X122000000Y-68000000D03*
X119000000Y-68000000D03*
X119000000Y-65000000D03*
X122000000Y-65000000D03*
X125000000Y-65000000D03*
X128000000Y-65000000D03*
X128000000Y-62000000D03*
X125000000Y-62000000D03*
X122000000Y-62000000D03*
X119000000Y-62000000D03*
X116000000Y-62000000D03*
X116000000Y-65000000D03*
X113000000Y-62000000D03*
X131000000Y-62000000D03*
X134000000Y-62000000D03*
X137000000Y-62000000D03*
X103000000Y-65000000D03*
X106000000Y-65000000D03*
X106000000Y-68000000D03*
X109000000Y-64000000D03*
X103000000Y-62000000D03*
X100000000Y-62000000D03*
X100000000Y-65000000D03*
X97000000Y-65000000D03*
X97000000Y-62000000D03*
X94000000Y-62000000D03*
X94000000Y-65000000D03*
X91000000Y-65000000D03*
X91000000Y-62000000D03*
X88000000Y-62000000D03*
X88000000Y-65000000D03*
X88000000Y-73000000D03*
X91000000Y-73000000D03*
X136000000Y-84000000D03*
%TO.N,/3V3*%
X106934000Y-87884000D03*
%TO.N,/SPKR_CTRL*%
X116693998Y-67100000D03*
%TD*%
D22*
%TO.N,/3V3*%
X106934000Y-86096000D02*
X103388000Y-82550000D01*
X106934000Y-87884000D02*
X106934000Y-86096000D01*
%TO.N,/SPKR_CTRL*%
X131764001Y-66600001D02*
X133728000Y-68564000D01*
X117193997Y-66600001D02*
X131764001Y-66600001D01*
X116693998Y-67100000D02*
X117193997Y-66600001D01*
%TD*%
D23*
%TO.N,/GND*%
G36*
X141340001Y-61967572D02*
G01*
X141340000Y-61967582D01*
X141340001Y-113340000D01*
X85660000Y-113340000D01*
X85660000Y-102460000D01*
X88357319Y-102460000D01*
X88387970Y-102771204D01*
X88478745Y-103070449D01*
X88626155Y-103346235D01*
X88729446Y-103472095D01*
X88645506Y-103516963D01*
X88548815Y-103596315D01*
X88469463Y-103693006D01*
X88410498Y-103803320D01*
X88374188Y-103923018D01*
X88361928Y-104047500D01*
X88361928Y-105952500D01*
X88374188Y-106076982D01*
X88410498Y-106196680D01*
X88469463Y-106306994D01*
X88548815Y-106403685D01*
X88645506Y-106483037D01*
X88755820Y-106542002D01*
X88875518Y-106578312D01*
X89000000Y-106590572D01*
X91000000Y-106590572D01*
X91124482Y-106578312D01*
X91244180Y-106542002D01*
X91354494Y-106483037D01*
X91451185Y-106403685D01*
X91530537Y-106306994D01*
X91589502Y-106196680D01*
X91625812Y-106076982D01*
X91638072Y-105952500D01*
X91638072Y-104124000D01*
X109086299Y-104124000D01*
X109113040Y-104395507D01*
X109192236Y-104656581D01*
X109320843Y-104897188D01*
X109493919Y-105108081D01*
X109704812Y-105281157D01*
X109945419Y-105409764D01*
X110206493Y-105488960D01*
X110409963Y-105509000D01*
X111046037Y-105509000D01*
X111249507Y-105488960D01*
X111510581Y-105409764D01*
X111751188Y-105281157D01*
X111962081Y-105108081D01*
X112135157Y-104897188D01*
X112263764Y-104656581D01*
X112342960Y-104395507D01*
X112369701Y-104124000D01*
X132086299Y-104124000D01*
X132113040Y-104395507D01*
X132192236Y-104656581D01*
X132320843Y-104897188D01*
X132493919Y-105108081D01*
X132704812Y-105281157D01*
X132945419Y-105409764D01*
X133206493Y-105488960D01*
X133409963Y-105509000D01*
X134046037Y-105509000D01*
X134249507Y-105488960D01*
X134510581Y-105409764D01*
X134751188Y-105281157D01*
X134962081Y-105108081D01*
X135135157Y-104897188D01*
X135263764Y-104656581D01*
X135342960Y-104395507D01*
X135369701Y-104124000D01*
X135342960Y-103852493D01*
X135263764Y-103591419D01*
X135135157Y-103350812D01*
X134962081Y-103139919D01*
X134751188Y-102966843D01*
X134510581Y-102838236D01*
X134249507Y-102759040D01*
X134046037Y-102739000D01*
X133409963Y-102739000D01*
X133206493Y-102759040D01*
X132945419Y-102838236D01*
X132704812Y-102966843D01*
X132493919Y-103139919D01*
X132320843Y-103350812D01*
X132192236Y-103591419D01*
X132113040Y-103852493D01*
X132086299Y-104124000D01*
X112369701Y-104124000D01*
X112342960Y-103852493D01*
X112263764Y-103591419D01*
X112135157Y-103350812D01*
X111962081Y-103139919D01*
X111751188Y-102966843D01*
X111510581Y-102838236D01*
X111249507Y-102759040D01*
X111046037Y-102739000D01*
X110409963Y-102739000D01*
X110206493Y-102759040D01*
X109945419Y-102838236D01*
X109704812Y-102966843D01*
X109493919Y-103139919D01*
X109320843Y-103350812D01*
X109192236Y-103591419D01*
X109113040Y-103852493D01*
X109086299Y-104124000D01*
X91638072Y-104124000D01*
X91638072Y-104047500D01*
X91625812Y-103923018D01*
X91589502Y-103803320D01*
X91530537Y-103693006D01*
X91451185Y-103596315D01*
X91354494Y-103516963D01*
X91270554Y-103472095D01*
X91373845Y-103346235D01*
X91521255Y-103070449D01*
X91612030Y-102771204D01*
X91642681Y-102460000D01*
X91612030Y-102148796D01*
X91521255Y-101849551D01*
X91373845Y-101573765D01*
X91175463Y-101332037D01*
X90933735Y-101133655D01*
X90657949Y-100986245D01*
X90358704Y-100895470D01*
X90125486Y-100872500D01*
X89874514Y-100872500D01*
X89641296Y-100895470D01*
X89342051Y-100986245D01*
X89066265Y-101133655D01*
X88824537Y-101332037D01*
X88626155Y-101573765D01*
X88478745Y-101849551D01*
X88387970Y-102148796D01*
X88357319Y-102460000D01*
X85660000Y-102460000D01*
X85660000Y-98250000D01*
X98703928Y-98250000D01*
X98703928Y-101750000D01*
X98716188Y-101874482D01*
X98752498Y-101994180D01*
X98811463Y-102104494D01*
X98890815Y-102201185D01*
X98987506Y-102280537D01*
X99097820Y-102339502D01*
X99217518Y-102375812D01*
X99342000Y-102388072D01*
X102842000Y-102388072D01*
X102966482Y-102375812D01*
X103086180Y-102339502D01*
X103196494Y-102280537D01*
X103293185Y-102201185D01*
X103372537Y-102104494D01*
X103431502Y-101994180D01*
X103467812Y-101874482D01*
X103480072Y-101750000D01*
X103480072Y-98250000D01*
X103467812Y-98125518D01*
X103431502Y-98005820D01*
X103372537Y-97895506D01*
X103293185Y-97798815D01*
X103196494Y-97719463D01*
X103086180Y-97660498D01*
X102966482Y-97624188D01*
X102842000Y-97611928D01*
X99342000Y-97611928D01*
X99217518Y-97624188D01*
X99097820Y-97660498D01*
X98987506Y-97719463D01*
X98890815Y-97798815D01*
X98811463Y-97895506D01*
X98752498Y-98005820D01*
X98716188Y-98125518D01*
X98703928Y-98250000D01*
X85660000Y-98250000D01*
X85660000Y-93964000D01*
X109086299Y-93964000D01*
X109113040Y-94235507D01*
X109192236Y-94496581D01*
X109320843Y-94737188D01*
X109493919Y-94948081D01*
X109704812Y-95121157D01*
X109915927Y-95234000D01*
X109704812Y-95346843D01*
X109493919Y-95519919D01*
X109320843Y-95730812D01*
X109192236Y-95971419D01*
X109113040Y-96232493D01*
X109086299Y-96504000D01*
X109113040Y-96775507D01*
X109192236Y-97036581D01*
X109320843Y-97277188D01*
X109493919Y-97488081D01*
X109704812Y-97661157D01*
X109915927Y-97774000D01*
X109704812Y-97886843D01*
X109493919Y-98059919D01*
X109320843Y-98270812D01*
X109192236Y-98511419D01*
X109113040Y-98772493D01*
X109086299Y-99044000D01*
X109113040Y-99315507D01*
X109192236Y-99576581D01*
X109320843Y-99817188D01*
X109493919Y-100028081D01*
X109704812Y-100201157D01*
X109945419Y-100329764D01*
X110206493Y-100408960D01*
X110409963Y-100429000D01*
X111046037Y-100429000D01*
X111249507Y-100408960D01*
X111510581Y-100329764D01*
X111751188Y-100201157D01*
X111962081Y-100028081D01*
X112135157Y-99817188D01*
X112263764Y-99576581D01*
X112342960Y-99315507D01*
X112369701Y-99044000D01*
X112342960Y-98772493D01*
X112263764Y-98511419D01*
X112135157Y-98270812D01*
X111962081Y-98059919D01*
X111751188Y-97886843D01*
X111540073Y-97774000D01*
X111751188Y-97661157D01*
X111962081Y-97488081D01*
X112135157Y-97277188D01*
X112263764Y-97036581D01*
X112342960Y-96775507D01*
X112369701Y-96504000D01*
X112342960Y-96232493D01*
X112263764Y-95971419D01*
X112135157Y-95730812D01*
X111962081Y-95519919D01*
X111751188Y-95346843D01*
X111540073Y-95234000D01*
X111751188Y-95121157D01*
X111962081Y-94948081D01*
X112135157Y-94737188D01*
X112263764Y-94496581D01*
X112342960Y-94235507D01*
X112369701Y-93964000D01*
X112342960Y-93692493D01*
X112263764Y-93431419D01*
X112135157Y-93190812D01*
X111962081Y-92979919D01*
X111751188Y-92806843D01*
X111510581Y-92678236D01*
X111249507Y-92599040D01*
X111046037Y-92579000D01*
X110409963Y-92579000D01*
X110206493Y-92599040D01*
X109945419Y-92678236D01*
X109704812Y-92806843D01*
X109493919Y-92979919D01*
X109320843Y-93190812D01*
X109192236Y-93431419D01*
X109113040Y-93692493D01*
X109086299Y-93964000D01*
X85660000Y-93964000D01*
X85660000Y-90694000D01*
X101739928Y-90694000D01*
X101739928Y-92694000D01*
X101752188Y-92818482D01*
X101788498Y-92938180D01*
X101847463Y-93048494D01*
X101926815Y-93145185D01*
X102023506Y-93224537D01*
X102133820Y-93283502D01*
X102253518Y-93319812D01*
X102378000Y-93332072D01*
X104378000Y-93332072D01*
X104502482Y-93319812D01*
X104622180Y-93283502D01*
X104732494Y-93224537D01*
X104829185Y-93145185D01*
X104908537Y-93048494D01*
X104967502Y-92938180D01*
X105003812Y-92818482D01*
X105016072Y-92694000D01*
X105016072Y-90694000D01*
X105003812Y-90569518D01*
X104967502Y-90449820D01*
X104908537Y-90339506D01*
X104829185Y-90242815D01*
X104732494Y-90163463D01*
X104622180Y-90104498D01*
X104502482Y-90068188D01*
X104378000Y-90055928D01*
X102378000Y-90055928D01*
X102253518Y-90068188D01*
X102133820Y-90104498D01*
X102023506Y-90163463D01*
X101926815Y-90242815D01*
X101847463Y-90339506D01*
X101788498Y-90449820D01*
X101752188Y-90569518D01*
X101739928Y-90694000D01*
X85660000Y-90694000D01*
X85660000Y-79160000D01*
X86903928Y-79160000D01*
X86903928Y-80860000D01*
X86916188Y-80984482D01*
X86952498Y-81104180D01*
X87011463Y-81214494D01*
X87090815Y-81311185D01*
X87187506Y-81390537D01*
X87297820Y-81449502D01*
X87370380Y-81471513D01*
X87238525Y-81603368D01*
X87076010Y-81846589D01*
X86964068Y-82116842D01*
X86907000Y-82403740D01*
X86907000Y-82696260D01*
X86964068Y-82983158D01*
X87076010Y-83253411D01*
X87238525Y-83496632D01*
X87445368Y-83703475D01*
X87688589Y-83865990D01*
X87958842Y-83977932D01*
X88245740Y-84035000D01*
X88538260Y-84035000D01*
X88825158Y-83977932D01*
X89095411Y-83865990D01*
X89338632Y-83703475D01*
X89545475Y-83496632D01*
X89707990Y-83253411D01*
X89819932Y-82983158D01*
X89877000Y-82696260D01*
X89877000Y-82408665D01*
X96853000Y-82408665D01*
X96853000Y-82691335D01*
X96908147Y-82968574D01*
X97016320Y-83229727D01*
X97173363Y-83464759D01*
X97373241Y-83664637D01*
X97608273Y-83821680D01*
X97869426Y-83929853D01*
X98146665Y-83985000D01*
X98429335Y-83985000D01*
X98706574Y-83929853D01*
X98967727Y-83821680D01*
X99202759Y-83664637D01*
X99402637Y-83464759D01*
X99559680Y-83229727D01*
X99667853Y-82968574D01*
X99723000Y-82691335D01*
X99723000Y-82408665D01*
X101953000Y-82408665D01*
X101953000Y-82691335D01*
X102008147Y-82968574D01*
X102116320Y-83229727D01*
X102273363Y-83464759D01*
X102473241Y-83664637D01*
X102708273Y-83821680D01*
X102969426Y-83929853D01*
X103246665Y-83985000D01*
X103529335Y-83985000D01*
X103564439Y-83978017D01*
X106049001Y-86462580D01*
X106049000Y-87165550D01*
X105928176Y-87346376D01*
X105842617Y-87552933D01*
X105799000Y-87772212D01*
X105799000Y-87995788D01*
X105842617Y-88215067D01*
X105928176Y-88421624D01*
X106052388Y-88607520D01*
X106210480Y-88765612D01*
X106396376Y-88889824D01*
X106602933Y-88975383D01*
X106822212Y-89019000D01*
X107045788Y-89019000D01*
X107265067Y-88975383D01*
X107471624Y-88889824D01*
X107657520Y-88765612D01*
X107815612Y-88607520D01*
X107939824Y-88421624D01*
X108025383Y-88215067D01*
X108069000Y-87995788D01*
X108069000Y-87772212D01*
X108025383Y-87552933D01*
X107939824Y-87346376D01*
X107819000Y-87165550D01*
X107819000Y-86139465D01*
X107823281Y-86095999D01*
X107819000Y-86052533D01*
X107819000Y-86052523D01*
X107806195Y-85922510D01*
X107755589Y-85755687D01*
X107673411Y-85601941D01*
X107562817Y-85467183D01*
X107529049Y-85439470D01*
X104816017Y-82726439D01*
X104823000Y-82691335D01*
X104823000Y-82408665D01*
X104767853Y-82131426D01*
X104659680Y-81870273D01*
X104502637Y-81635241D01*
X104302759Y-81435363D01*
X104067727Y-81278320D01*
X103806574Y-81170147D01*
X103529335Y-81115000D01*
X103246665Y-81115000D01*
X102969426Y-81170147D01*
X102708273Y-81278320D01*
X102473241Y-81435363D01*
X102273363Y-81635241D01*
X102116320Y-81870273D01*
X102008147Y-82131426D01*
X101953000Y-82408665D01*
X99723000Y-82408665D01*
X99667853Y-82131426D01*
X99559680Y-81870273D01*
X99402637Y-81635241D01*
X99202759Y-81435363D01*
X98967727Y-81278320D01*
X98706574Y-81170147D01*
X98429335Y-81115000D01*
X98146665Y-81115000D01*
X97869426Y-81170147D01*
X97608273Y-81278320D01*
X97373241Y-81435363D01*
X97173363Y-81635241D01*
X97016320Y-81870273D01*
X96908147Y-82131426D01*
X96853000Y-82408665D01*
X89877000Y-82408665D01*
X89877000Y-82403740D01*
X89819932Y-82116842D01*
X89707990Y-81846589D01*
X89545475Y-81603368D01*
X89413620Y-81471513D01*
X89486180Y-81449502D01*
X89596494Y-81390537D01*
X89693185Y-81311185D01*
X89772537Y-81214494D01*
X89831502Y-81104180D01*
X89867812Y-80984482D01*
X89880072Y-80860000D01*
X89880072Y-79160000D01*
X89867812Y-79035518D01*
X89831502Y-78915820D01*
X89772537Y-78805506D01*
X89693185Y-78708815D01*
X89596494Y-78629463D01*
X89486180Y-78570498D01*
X89366482Y-78534188D01*
X89242000Y-78521928D01*
X87542000Y-78521928D01*
X87417518Y-78534188D01*
X87297820Y-78570498D01*
X87187506Y-78629463D01*
X87090815Y-78708815D01*
X87011463Y-78805506D01*
X86952498Y-78915820D01*
X86916188Y-79035518D01*
X86903928Y-79160000D01*
X85660000Y-79160000D01*
X85660000Y-71740665D01*
X104483000Y-71740665D01*
X104483000Y-72023335D01*
X104538147Y-72300574D01*
X104646320Y-72561727D01*
X104803363Y-72796759D01*
X105003241Y-72996637D01*
X105238273Y-73153680D01*
X105499426Y-73261853D01*
X105776665Y-73317000D01*
X106059335Y-73317000D01*
X106336574Y-73261853D01*
X106597727Y-73153680D01*
X106832759Y-72996637D01*
X107032637Y-72796759D01*
X107189680Y-72561727D01*
X107297853Y-72300574D01*
X107353000Y-72023335D01*
X107353000Y-71740665D01*
X107297853Y-71463426D01*
X107189680Y-71202273D01*
X107032637Y-70967241D01*
X106832759Y-70767363D01*
X106597727Y-70610320D01*
X106336574Y-70502147D01*
X106059335Y-70447000D01*
X105776665Y-70447000D01*
X105499426Y-70502147D01*
X105238273Y-70610320D01*
X105003241Y-70767363D01*
X104803363Y-70967241D01*
X104646320Y-71202273D01*
X104538147Y-71463426D01*
X104483000Y-71740665D01*
X85660000Y-71740665D01*
X85660000Y-69418223D01*
X88017000Y-69418223D01*
X88017000Y-69773777D01*
X88086365Y-70122499D01*
X88222429Y-70450988D01*
X88419965Y-70746621D01*
X88671379Y-70998035D01*
X88967012Y-71195571D01*
X89295501Y-71331635D01*
X89644223Y-71401000D01*
X89999777Y-71401000D01*
X90348499Y-71331635D01*
X90676988Y-71195571D01*
X90972621Y-70998035D01*
X91224035Y-70746621D01*
X91421571Y-70450988D01*
X91557635Y-70122499D01*
X91627000Y-69773777D01*
X91627000Y-69418223D01*
X93017000Y-69418223D01*
X93017000Y-69773777D01*
X93086365Y-70122499D01*
X93222429Y-70450988D01*
X93419965Y-70746621D01*
X93671379Y-70998035D01*
X93967012Y-71195571D01*
X94295501Y-71331635D01*
X94644223Y-71401000D01*
X94999777Y-71401000D01*
X95348499Y-71331635D01*
X95676988Y-71195571D01*
X95972621Y-70998035D01*
X96224035Y-70746621D01*
X96421571Y-70450988D01*
X96557635Y-70122499D01*
X96627000Y-69773777D01*
X96627000Y-69418223D01*
X98017000Y-69418223D01*
X98017000Y-69773777D01*
X98086365Y-70122499D01*
X98222429Y-70450988D01*
X98419965Y-70746621D01*
X98671379Y-70998035D01*
X98967012Y-71195571D01*
X99295501Y-71331635D01*
X99644223Y-71401000D01*
X99999777Y-71401000D01*
X100348499Y-71331635D01*
X100676988Y-71195571D01*
X100972621Y-70998035D01*
X101224035Y-70746621D01*
X101421571Y-70450988D01*
X101557635Y-70122499D01*
X101627000Y-69773777D01*
X101627000Y-69418223D01*
X101557635Y-69069501D01*
X101421571Y-68741012D01*
X101303296Y-68564000D01*
X109086299Y-68564000D01*
X109113040Y-68835507D01*
X109192236Y-69096581D01*
X109320843Y-69337188D01*
X109493919Y-69548081D01*
X109704812Y-69721157D01*
X109915927Y-69834000D01*
X109704812Y-69946843D01*
X109493919Y-70119919D01*
X109320843Y-70330812D01*
X109192236Y-70571419D01*
X109113040Y-70832493D01*
X109086299Y-71104000D01*
X109113040Y-71375507D01*
X109192236Y-71636581D01*
X109320843Y-71877188D01*
X109493919Y-72088081D01*
X109704812Y-72261157D01*
X109915927Y-72374000D01*
X109704812Y-72486843D01*
X109493919Y-72659919D01*
X109320843Y-72870812D01*
X109192236Y-73111419D01*
X109113040Y-73372493D01*
X109086299Y-73644000D01*
X109113040Y-73915507D01*
X109192236Y-74176581D01*
X109320843Y-74417188D01*
X109493919Y-74628081D01*
X109704812Y-74801157D01*
X109915927Y-74914000D01*
X109704812Y-75026843D01*
X109493919Y-75199919D01*
X109320843Y-75410812D01*
X109192236Y-75651419D01*
X109113040Y-75912493D01*
X109086299Y-76184000D01*
X109113040Y-76455507D01*
X109192236Y-76716581D01*
X109320843Y-76957188D01*
X109493919Y-77168081D01*
X109704812Y-77341157D01*
X109915927Y-77454000D01*
X109704812Y-77566843D01*
X109493919Y-77739919D01*
X109320843Y-77950812D01*
X109192236Y-78191419D01*
X109113040Y-78452493D01*
X109086299Y-78724000D01*
X109113040Y-78995507D01*
X109192236Y-79256581D01*
X109320843Y-79497188D01*
X109493919Y-79708081D01*
X109704812Y-79881157D01*
X109915927Y-79994000D01*
X109704812Y-80106843D01*
X109493919Y-80279919D01*
X109320843Y-80490812D01*
X109192236Y-80731419D01*
X109113040Y-80992493D01*
X109086299Y-81264000D01*
X109113040Y-81535507D01*
X109192236Y-81796581D01*
X109320843Y-82037188D01*
X109493919Y-82248081D01*
X109704812Y-82421157D01*
X109915927Y-82534000D01*
X109704812Y-82646843D01*
X109493919Y-82819919D01*
X109320843Y-83030812D01*
X109192236Y-83271419D01*
X109113040Y-83532493D01*
X109086299Y-83804000D01*
X109113040Y-84075507D01*
X109192236Y-84336581D01*
X109320843Y-84577188D01*
X109493919Y-84788081D01*
X109704812Y-84961157D01*
X109915927Y-85074000D01*
X109704812Y-85186843D01*
X109493919Y-85359919D01*
X109320843Y-85570812D01*
X109192236Y-85811419D01*
X109113040Y-86072493D01*
X109086299Y-86344000D01*
X109113040Y-86615507D01*
X109192236Y-86876581D01*
X109320843Y-87117188D01*
X109493919Y-87328081D01*
X109704812Y-87501157D01*
X109915927Y-87614000D01*
X109704812Y-87726843D01*
X109493919Y-87899919D01*
X109320843Y-88110812D01*
X109192236Y-88351419D01*
X109113040Y-88612493D01*
X109086299Y-88884000D01*
X109113040Y-89155507D01*
X109192236Y-89416581D01*
X109320843Y-89657188D01*
X109493919Y-89868081D01*
X109704812Y-90041157D01*
X109945419Y-90169764D01*
X110206493Y-90248960D01*
X110409963Y-90269000D01*
X111046037Y-90269000D01*
X111249507Y-90248960D01*
X111510581Y-90169764D01*
X111751188Y-90041157D01*
X111962081Y-89868081D01*
X112135157Y-89657188D01*
X112263764Y-89416581D01*
X112342960Y-89155507D01*
X112369701Y-88884000D01*
X112342960Y-88612493D01*
X112263764Y-88351419D01*
X112135157Y-88110812D01*
X111962081Y-87899919D01*
X111751188Y-87726843D01*
X111540073Y-87614000D01*
X111751188Y-87501157D01*
X111962081Y-87328081D01*
X112135157Y-87117188D01*
X112263764Y-86876581D01*
X112342960Y-86615507D01*
X112369701Y-86344000D01*
X132086299Y-86344000D01*
X132113040Y-86615507D01*
X132192236Y-86876581D01*
X132320843Y-87117188D01*
X132493919Y-87328081D01*
X132704812Y-87501157D01*
X132915927Y-87614000D01*
X132704812Y-87726843D01*
X132493919Y-87899919D01*
X132320843Y-88110812D01*
X132192236Y-88351419D01*
X132113040Y-88612493D01*
X132086299Y-88884000D01*
X132113040Y-89155507D01*
X132192236Y-89416581D01*
X132320843Y-89657188D01*
X132493919Y-89868081D01*
X132704812Y-90041157D01*
X132915927Y-90154000D01*
X132704812Y-90266843D01*
X132493919Y-90439919D01*
X132320843Y-90650812D01*
X132192236Y-90891419D01*
X132113040Y-91152493D01*
X132086299Y-91424000D01*
X132113040Y-91695507D01*
X132192236Y-91956581D01*
X132320843Y-92197188D01*
X132493919Y-92408081D01*
X132704812Y-92581157D01*
X132915927Y-92694000D01*
X132704812Y-92806843D01*
X132493919Y-92979919D01*
X132320843Y-93190812D01*
X132192236Y-93431419D01*
X132113040Y-93692493D01*
X132086299Y-93964000D01*
X132113040Y-94235507D01*
X132192236Y-94496581D01*
X132320843Y-94737188D01*
X132493919Y-94948081D01*
X132704812Y-95121157D01*
X132915927Y-95234000D01*
X132704812Y-95346843D01*
X132493919Y-95519919D01*
X132320843Y-95730812D01*
X132192236Y-95971419D01*
X132113040Y-96232493D01*
X132086299Y-96504000D01*
X132113040Y-96775507D01*
X132192236Y-97036581D01*
X132320843Y-97277188D01*
X132493919Y-97488081D01*
X132704812Y-97661157D01*
X132915927Y-97774000D01*
X132704812Y-97886843D01*
X132493919Y-98059919D01*
X132320843Y-98270812D01*
X132192236Y-98511419D01*
X132113040Y-98772493D01*
X132086299Y-99044000D01*
X132113040Y-99315507D01*
X132192236Y-99576581D01*
X132320843Y-99817188D01*
X132493919Y-100028081D01*
X132704812Y-100201157D01*
X132945419Y-100329764D01*
X133206493Y-100408960D01*
X133409963Y-100429000D01*
X134046037Y-100429000D01*
X134249507Y-100408960D01*
X134510581Y-100329764D01*
X134751188Y-100201157D01*
X134962081Y-100028081D01*
X135135157Y-99817188D01*
X135263764Y-99576581D01*
X135342960Y-99315507D01*
X135369701Y-99044000D01*
X135342960Y-98772493D01*
X135263764Y-98511419D01*
X135135157Y-98270812D01*
X134962081Y-98059919D01*
X134751188Y-97886843D01*
X134540073Y-97774000D01*
X134751188Y-97661157D01*
X134962081Y-97488081D01*
X135135157Y-97277188D01*
X135263764Y-97036581D01*
X135342960Y-96775507D01*
X135369701Y-96504000D01*
X135342960Y-96232493D01*
X135263764Y-95971419D01*
X135135157Y-95730812D01*
X135085250Y-95670000D01*
X137195928Y-95670000D01*
X137195928Y-97370000D01*
X137208188Y-97494482D01*
X137244498Y-97614180D01*
X137303463Y-97724494D01*
X137382815Y-97821185D01*
X137479506Y-97900537D01*
X137589820Y-97959502D01*
X137662380Y-97981513D01*
X137530525Y-98113368D01*
X137368010Y-98356589D01*
X137256068Y-98626842D01*
X137199000Y-98913740D01*
X137199000Y-99206260D01*
X137256068Y-99493158D01*
X137368010Y-99763411D01*
X137530525Y-100006632D01*
X137737368Y-100213475D01*
X137980589Y-100375990D01*
X138250842Y-100487932D01*
X138537740Y-100545000D01*
X138830260Y-100545000D01*
X139117158Y-100487932D01*
X139387411Y-100375990D01*
X139630632Y-100213475D01*
X139837475Y-100006632D01*
X139999990Y-99763411D01*
X140111932Y-99493158D01*
X140169000Y-99206260D01*
X140169000Y-98913740D01*
X140111932Y-98626842D01*
X139999990Y-98356589D01*
X139837475Y-98113368D01*
X139705620Y-97981513D01*
X139778180Y-97959502D01*
X139888494Y-97900537D01*
X139985185Y-97821185D01*
X140064537Y-97724494D01*
X140123502Y-97614180D01*
X140159812Y-97494482D01*
X140172072Y-97370000D01*
X140172072Y-95670000D01*
X140159812Y-95545518D01*
X140123502Y-95425820D01*
X140064537Y-95315506D01*
X139985185Y-95218815D01*
X139888494Y-95139463D01*
X139778180Y-95080498D01*
X139658482Y-95044188D01*
X139534000Y-95031928D01*
X137834000Y-95031928D01*
X137709518Y-95044188D01*
X137589820Y-95080498D01*
X137479506Y-95139463D01*
X137382815Y-95218815D01*
X137303463Y-95315506D01*
X137244498Y-95425820D01*
X137208188Y-95545518D01*
X137195928Y-95670000D01*
X135085250Y-95670000D01*
X134962081Y-95519919D01*
X134751188Y-95346843D01*
X134540073Y-95234000D01*
X134751188Y-95121157D01*
X134962081Y-94948081D01*
X135135157Y-94737188D01*
X135263764Y-94496581D01*
X135342960Y-94235507D01*
X135369701Y-93964000D01*
X135342960Y-93692493D01*
X135263764Y-93431419D01*
X135135157Y-93190812D01*
X134962081Y-92979919D01*
X134751188Y-92806843D01*
X134540073Y-92694000D01*
X134751188Y-92581157D01*
X134962081Y-92408081D01*
X135135157Y-92197188D01*
X135263764Y-91956581D01*
X135342960Y-91695507D01*
X135369701Y-91424000D01*
X135342960Y-91152493D01*
X135263764Y-90891419D01*
X135135157Y-90650812D01*
X134962081Y-90439919D01*
X134751188Y-90266843D01*
X134540073Y-90154000D01*
X134751188Y-90041157D01*
X134962081Y-89868081D01*
X135135157Y-89657188D01*
X135263764Y-89416581D01*
X135342960Y-89155507D01*
X135369701Y-88884000D01*
X135342960Y-88612493D01*
X135263764Y-88351419D01*
X135135157Y-88110812D01*
X134962081Y-87899919D01*
X134751188Y-87726843D01*
X134540073Y-87614000D01*
X134751188Y-87501157D01*
X134962081Y-87328081D01*
X135135157Y-87117188D01*
X135263764Y-86876581D01*
X135342960Y-86615507D01*
X135369701Y-86344000D01*
X135342960Y-86072493D01*
X135263764Y-85811419D01*
X135135157Y-85570812D01*
X134962081Y-85359919D01*
X134751188Y-85186843D01*
X134510581Y-85058236D01*
X134249507Y-84979040D01*
X134046037Y-84959000D01*
X133409963Y-84959000D01*
X133206493Y-84979040D01*
X132945419Y-85058236D01*
X132704812Y-85186843D01*
X132493919Y-85359919D01*
X132320843Y-85570812D01*
X132192236Y-85811419D01*
X132113040Y-86072493D01*
X132086299Y-86344000D01*
X112369701Y-86344000D01*
X112342960Y-86072493D01*
X112263764Y-85811419D01*
X112135157Y-85570812D01*
X111962081Y-85359919D01*
X111751188Y-85186843D01*
X111540073Y-85074000D01*
X111751188Y-84961157D01*
X111962081Y-84788081D01*
X112135157Y-84577188D01*
X112263764Y-84336581D01*
X112342960Y-84075507D01*
X112369701Y-83804000D01*
X112342960Y-83532493D01*
X112263764Y-83271419D01*
X112135157Y-83030812D01*
X111962081Y-82819919D01*
X111751188Y-82646843D01*
X111540073Y-82534000D01*
X111751188Y-82421157D01*
X111962081Y-82248081D01*
X112135157Y-82037188D01*
X112263764Y-81796581D01*
X112342960Y-81535507D01*
X112369701Y-81264000D01*
X112342960Y-80992493D01*
X112263764Y-80731419D01*
X112135157Y-80490812D01*
X111962081Y-80279919D01*
X111751188Y-80106843D01*
X111540073Y-79994000D01*
X111751188Y-79881157D01*
X111962081Y-79708081D01*
X112135157Y-79497188D01*
X112263764Y-79256581D01*
X112342960Y-78995507D01*
X112369701Y-78724000D01*
X112342960Y-78452493D01*
X112263764Y-78191419D01*
X112135157Y-77950812D01*
X111962081Y-77739919D01*
X111751188Y-77566843D01*
X111540073Y-77454000D01*
X111751188Y-77341157D01*
X111962081Y-77168081D01*
X112135157Y-76957188D01*
X112263764Y-76716581D01*
X112342960Y-76455507D01*
X112369701Y-76184000D01*
X112342960Y-75912493D01*
X112263764Y-75651419D01*
X112135157Y-75410812D01*
X111962081Y-75199919D01*
X111751188Y-75026843D01*
X111540073Y-74914000D01*
X111751188Y-74801157D01*
X111962081Y-74628081D01*
X112135157Y-74417188D01*
X112263764Y-74176581D01*
X112342960Y-73915507D01*
X112369701Y-73644000D01*
X112342960Y-73372493D01*
X112263764Y-73111419D01*
X112135157Y-72870812D01*
X111962081Y-72659919D01*
X111751188Y-72486843D01*
X111540073Y-72374000D01*
X111751188Y-72261157D01*
X111962081Y-72088081D01*
X112135157Y-71877188D01*
X112263764Y-71636581D01*
X112342960Y-71375507D01*
X112369701Y-71104000D01*
X112342960Y-70832493D01*
X112263764Y-70571419D01*
X112135157Y-70330812D01*
X111962081Y-70119919D01*
X111751188Y-69946843D01*
X111540073Y-69834000D01*
X111751188Y-69721157D01*
X111962081Y-69548081D01*
X112135157Y-69337188D01*
X112263764Y-69096581D01*
X112342960Y-68835507D01*
X112369701Y-68564000D01*
X112342960Y-68292493D01*
X112263764Y-68031419D01*
X112135157Y-67790812D01*
X111962081Y-67579919D01*
X111751188Y-67406843D01*
X111510581Y-67278236D01*
X111249507Y-67199040D01*
X111046037Y-67179000D01*
X110409963Y-67179000D01*
X110206493Y-67199040D01*
X109945419Y-67278236D01*
X109704812Y-67406843D01*
X109493919Y-67579919D01*
X109320843Y-67790812D01*
X109192236Y-68031419D01*
X109113040Y-68292493D01*
X109086299Y-68564000D01*
X101303296Y-68564000D01*
X101224035Y-68445379D01*
X100972621Y-68193965D01*
X100676988Y-67996429D01*
X100348499Y-67860365D01*
X99999777Y-67791000D01*
X99644223Y-67791000D01*
X99295501Y-67860365D01*
X98967012Y-67996429D01*
X98671379Y-68193965D01*
X98419965Y-68445379D01*
X98222429Y-68741012D01*
X98086365Y-69069501D01*
X98017000Y-69418223D01*
X96627000Y-69418223D01*
X96557635Y-69069501D01*
X96421571Y-68741012D01*
X96224035Y-68445379D01*
X95972621Y-68193965D01*
X95676988Y-67996429D01*
X95348499Y-67860365D01*
X94999777Y-67791000D01*
X94644223Y-67791000D01*
X94295501Y-67860365D01*
X93967012Y-67996429D01*
X93671379Y-68193965D01*
X93419965Y-68445379D01*
X93222429Y-68741012D01*
X93086365Y-69069501D01*
X93017000Y-69418223D01*
X91627000Y-69418223D01*
X91557635Y-69069501D01*
X91421571Y-68741012D01*
X91224035Y-68445379D01*
X90972621Y-68193965D01*
X90676988Y-67996429D01*
X90348499Y-67860365D01*
X89999777Y-67791000D01*
X89644223Y-67791000D01*
X89295501Y-67860365D01*
X88967012Y-67996429D01*
X88671379Y-68193965D01*
X88419965Y-68445379D01*
X88222429Y-68741012D01*
X88086365Y-69069501D01*
X88017000Y-69418223D01*
X85660000Y-69418223D01*
X85660000Y-66988212D01*
X115558998Y-66988212D01*
X115558998Y-67211788D01*
X115602615Y-67431067D01*
X115688174Y-67637624D01*
X115812386Y-67823520D01*
X115970478Y-67981612D01*
X116156374Y-68105824D01*
X116362931Y-68191383D01*
X116582210Y-68235000D01*
X116805786Y-68235000D01*
X117025065Y-68191383D01*
X117231622Y-68105824D01*
X117417518Y-67981612D01*
X117575610Y-67823520D01*
X117699822Y-67637624D01*
X117763041Y-67485001D01*
X131397423Y-67485001D01*
X132134423Y-68222002D01*
X132113040Y-68292493D01*
X132086299Y-68564000D01*
X132113040Y-68835507D01*
X132192236Y-69096581D01*
X132320843Y-69337188D01*
X132493919Y-69548081D01*
X132704812Y-69721157D01*
X132915927Y-69834000D01*
X132704812Y-69946843D01*
X132493919Y-70119919D01*
X132320843Y-70330812D01*
X132192236Y-70571419D01*
X132113040Y-70832493D01*
X132086299Y-71104000D01*
X132113040Y-71375507D01*
X132192236Y-71636581D01*
X132320843Y-71877188D01*
X132493919Y-72088081D01*
X132704812Y-72261157D01*
X132915927Y-72374000D01*
X132704812Y-72486843D01*
X132493919Y-72659919D01*
X132320843Y-72870812D01*
X132192236Y-73111419D01*
X132113040Y-73372493D01*
X132086299Y-73644000D01*
X132113040Y-73915507D01*
X132192236Y-74176581D01*
X132320843Y-74417188D01*
X132493919Y-74628081D01*
X132704812Y-74801157D01*
X132915927Y-74914000D01*
X132704812Y-75026843D01*
X132493919Y-75199919D01*
X132320843Y-75410812D01*
X132192236Y-75651419D01*
X132113040Y-75912493D01*
X132086299Y-76184000D01*
X132113040Y-76455507D01*
X132192236Y-76716581D01*
X132320843Y-76957188D01*
X132493919Y-77168081D01*
X132704812Y-77341157D01*
X132915927Y-77454000D01*
X132704812Y-77566843D01*
X132493919Y-77739919D01*
X132320843Y-77950812D01*
X132192236Y-78191419D01*
X132113040Y-78452493D01*
X132086299Y-78724000D01*
X132113040Y-78995507D01*
X132192236Y-79256581D01*
X132320843Y-79497188D01*
X132493919Y-79708081D01*
X132704812Y-79881157D01*
X132915927Y-79994000D01*
X132704812Y-80106843D01*
X132493919Y-80279919D01*
X132320843Y-80490812D01*
X132192236Y-80731419D01*
X132113040Y-80992493D01*
X132086299Y-81264000D01*
X132113040Y-81535507D01*
X132192236Y-81796581D01*
X132320843Y-82037188D01*
X132493919Y-82248081D01*
X132704812Y-82421157D01*
X132945419Y-82549764D01*
X133206493Y-82628960D01*
X133409963Y-82649000D01*
X134046037Y-82649000D01*
X134249507Y-82628960D01*
X134510581Y-82549764D01*
X134751188Y-82421157D01*
X134962081Y-82248081D01*
X135135157Y-82037188D01*
X135263764Y-81796581D01*
X135342960Y-81535507D01*
X135369701Y-81264000D01*
X135342960Y-80992493D01*
X135263764Y-80731419D01*
X135135157Y-80490812D01*
X134962081Y-80279919D01*
X134751188Y-80106843D01*
X134540073Y-79994000D01*
X134751188Y-79881157D01*
X134962081Y-79708081D01*
X135135157Y-79497188D01*
X135263764Y-79256581D01*
X135342960Y-78995507D01*
X135369701Y-78724000D01*
X135342960Y-78452493D01*
X135263764Y-78191419D01*
X135135157Y-77950812D01*
X134962081Y-77739919D01*
X134751188Y-77566843D01*
X134540073Y-77454000D01*
X134751188Y-77341157D01*
X134962081Y-77168081D01*
X135135157Y-76957188D01*
X135263764Y-76716581D01*
X135342960Y-76455507D01*
X135369701Y-76184000D01*
X135356872Y-76053740D01*
X137199000Y-76053740D01*
X137199000Y-76346260D01*
X137256068Y-76633158D01*
X137368010Y-76903411D01*
X137530525Y-77146632D01*
X137737368Y-77353475D01*
X137911760Y-77470000D01*
X137737368Y-77586525D01*
X137530525Y-77793368D01*
X137368010Y-78036589D01*
X137256068Y-78306842D01*
X137199000Y-78593740D01*
X137199000Y-78886260D01*
X137256068Y-79173158D01*
X137368010Y-79443411D01*
X137530525Y-79686632D01*
X137737368Y-79893475D01*
X137911760Y-80010000D01*
X137737368Y-80126525D01*
X137530525Y-80333368D01*
X137368010Y-80576589D01*
X137256068Y-80846842D01*
X137199000Y-81133740D01*
X137199000Y-81426260D01*
X137256068Y-81713158D01*
X137368010Y-81983411D01*
X137530525Y-82226632D01*
X137737368Y-82433475D01*
X137911760Y-82550000D01*
X137737368Y-82666525D01*
X137530525Y-82873368D01*
X137368010Y-83116589D01*
X137256068Y-83386842D01*
X137199000Y-83673740D01*
X137199000Y-83966260D01*
X137256068Y-84253158D01*
X137368010Y-84523411D01*
X137530525Y-84766632D01*
X137737368Y-84973475D01*
X137911760Y-85090000D01*
X137737368Y-85206525D01*
X137530525Y-85413368D01*
X137368010Y-85656589D01*
X137256068Y-85926842D01*
X137199000Y-86213740D01*
X137199000Y-86506260D01*
X137256068Y-86793158D01*
X137368010Y-87063411D01*
X137530525Y-87306632D01*
X137737368Y-87513475D01*
X137911760Y-87630000D01*
X137737368Y-87746525D01*
X137530525Y-87953368D01*
X137368010Y-88196589D01*
X137256068Y-88466842D01*
X137199000Y-88753740D01*
X137199000Y-89046260D01*
X137256068Y-89333158D01*
X137368010Y-89603411D01*
X137530525Y-89846632D01*
X137737368Y-90053475D01*
X137911760Y-90170000D01*
X137737368Y-90286525D01*
X137530525Y-90493368D01*
X137368010Y-90736589D01*
X137256068Y-91006842D01*
X137199000Y-91293740D01*
X137199000Y-91586260D01*
X137256068Y-91873158D01*
X137368010Y-92143411D01*
X137530525Y-92386632D01*
X137737368Y-92593475D01*
X137980589Y-92755990D01*
X138250842Y-92867932D01*
X138537740Y-92925000D01*
X138830260Y-92925000D01*
X139117158Y-92867932D01*
X139387411Y-92755990D01*
X139630632Y-92593475D01*
X139837475Y-92386632D01*
X139999990Y-92143411D01*
X140111932Y-91873158D01*
X140169000Y-91586260D01*
X140169000Y-91293740D01*
X140111932Y-91006842D01*
X139999990Y-90736589D01*
X139837475Y-90493368D01*
X139630632Y-90286525D01*
X139456240Y-90170000D01*
X139630632Y-90053475D01*
X139837475Y-89846632D01*
X139999990Y-89603411D01*
X140111932Y-89333158D01*
X140169000Y-89046260D01*
X140169000Y-88753740D01*
X140111932Y-88466842D01*
X139999990Y-88196589D01*
X139837475Y-87953368D01*
X139630632Y-87746525D01*
X139456240Y-87630000D01*
X139630632Y-87513475D01*
X139837475Y-87306632D01*
X139999990Y-87063411D01*
X140111932Y-86793158D01*
X140169000Y-86506260D01*
X140169000Y-86213740D01*
X140111932Y-85926842D01*
X139999990Y-85656589D01*
X139837475Y-85413368D01*
X139630632Y-85206525D01*
X139456240Y-85090000D01*
X139630632Y-84973475D01*
X139837475Y-84766632D01*
X139999990Y-84523411D01*
X140111932Y-84253158D01*
X140169000Y-83966260D01*
X140169000Y-83673740D01*
X140111932Y-83386842D01*
X139999990Y-83116589D01*
X139837475Y-82873368D01*
X139630632Y-82666525D01*
X139456240Y-82550000D01*
X139630632Y-82433475D01*
X139837475Y-82226632D01*
X139999990Y-81983411D01*
X140111932Y-81713158D01*
X140169000Y-81426260D01*
X140169000Y-81133740D01*
X140111932Y-80846842D01*
X139999990Y-80576589D01*
X139837475Y-80333368D01*
X139630632Y-80126525D01*
X139456240Y-80010000D01*
X139630632Y-79893475D01*
X139837475Y-79686632D01*
X139999990Y-79443411D01*
X140111932Y-79173158D01*
X140169000Y-78886260D01*
X140169000Y-78593740D01*
X140111932Y-78306842D01*
X139999990Y-78036589D01*
X139837475Y-77793368D01*
X139630632Y-77586525D01*
X139456240Y-77470000D01*
X139630632Y-77353475D01*
X139837475Y-77146632D01*
X139999990Y-76903411D01*
X140111932Y-76633158D01*
X140169000Y-76346260D01*
X140169000Y-76053740D01*
X140111932Y-75766842D01*
X139999990Y-75496589D01*
X139837475Y-75253368D01*
X139630632Y-75046525D01*
X139387411Y-74884010D01*
X139117158Y-74772068D01*
X138830260Y-74715000D01*
X138537740Y-74715000D01*
X138250842Y-74772068D01*
X137980589Y-74884010D01*
X137737368Y-75046525D01*
X137530525Y-75253368D01*
X137368010Y-75496589D01*
X137256068Y-75766842D01*
X137199000Y-76053740D01*
X135356872Y-76053740D01*
X135342960Y-75912493D01*
X135263764Y-75651419D01*
X135135157Y-75410812D01*
X134962081Y-75199919D01*
X134751188Y-75026843D01*
X134540073Y-74914000D01*
X134751188Y-74801157D01*
X134962081Y-74628081D01*
X135135157Y-74417188D01*
X135263764Y-74176581D01*
X135342960Y-73915507D01*
X135369701Y-73644000D01*
X135342960Y-73372493D01*
X135263764Y-73111419D01*
X135135157Y-72870812D01*
X134962081Y-72659919D01*
X134751188Y-72486843D01*
X134540073Y-72374000D01*
X134751188Y-72261157D01*
X134962081Y-72088081D01*
X135135157Y-71877188D01*
X135263764Y-71636581D01*
X135342960Y-71375507D01*
X135369701Y-71104000D01*
X135342960Y-70832493D01*
X135263764Y-70571419D01*
X135135157Y-70330812D01*
X135085250Y-70270000D01*
X137195928Y-70270000D01*
X137195928Y-71970000D01*
X137208188Y-72094482D01*
X137244498Y-72214180D01*
X137303463Y-72324494D01*
X137382815Y-72421185D01*
X137479506Y-72500537D01*
X137589820Y-72559502D01*
X137709518Y-72595812D01*
X137834000Y-72608072D01*
X139534000Y-72608072D01*
X139658482Y-72595812D01*
X139778180Y-72559502D01*
X139888494Y-72500537D01*
X139985185Y-72421185D01*
X140064537Y-72324494D01*
X140123502Y-72214180D01*
X140159812Y-72094482D01*
X140172072Y-71970000D01*
X140172072Y-70270000D01*
X140159812Y-70145518D01*
X140123502Y-70025820D01*
X140064537Y-69915506D01*
X139985185Y-69818815D01*
X139888494Y-69739463D01*
X139778180Y-69680498D01*
X139658482Y-69644188D01*
X139534000Y-69631928D01*
X137834000Y-69631928D01*
X137709518Y-69644188D01*
X137589820Y-69680498D01*
X137479506Y-69739463D01*
X137382815Y-69818815D01*
X137303463Y-69915506D01*
X137244498Y-70025820D01*
X137208188Y-70145518D01*
X137195928Y-70270000D01*
X135085250Y-70270000D01*
X134962081Y-70119919D01*
X134751188Y-69946843D01*
X134540073Y-69834000D01*
X134751188Y-69721157D01*
X134962081Y-69548081D01*
X135135157Y-69337188D01*
X135263764Y-69096581D01*
X135342960Y-68835507D01*
X135369701Y-68564000D01*
X135342960Y-68292493D01*
X135263764Y-68031419D01*
X135135157Y-67790812D01*
X134962081Y-67579919D01*
X134751188Y-67406843D01*
X134510581Y-67278236D01*
X134249507Y-67199040D01*
X134046037Y-67179000D01*
X133594579Y-67179000D01*
X132420535Y-66004957D01*
X132392818Y-65971184D01*
X132258060Y-65860590D01*
X132104314Y-65778412D01*
X131937491Y-65727806D01*
X131807478Y-65715001D01*
X131807470Y-65715001D01*
X131764001Y-65710720D01*
X131720532Y-65715001D01*
X117237462Y-65715001D01*
X117193996Y-65710720D01*
X117150530Y-65715001D01*
X117150520Y-65715001D01*
X117020507Y-65727806D01*
X116853684Y-65778412D01*
X116699938Y-65860590D01*
X116569678Y-65967493D01*
X116362931Y-66008617D01*
X116156374Y-66094176D01*
X115970478Y-66218388D01*
X115812386Y-66376480D01*
X115688174Y-66562376D01*
X115602615Y-66768933D01*
X115558998Y-66988212D01*
X85660000Y-66988212D01*
X85660000Y-64369740D01*
X137199000Y-64369740D01*
X137199000Y-64662260D01*
X137256068Y-64949158D01*
X137368010Y-65219411D01*
X137530525Y-65462632D01*
X137737368Y-65669475D01*
X137980589Y-65831990D01*
X138250842Y-65943932D01*
X138537740Y-66001000D01*
X138830260Y-66001000D01*
X139117158Y-65943932D01*
X139387411Y-65831990D01*
X139630632Y-65669475D01*
X139837475Y-65462632D01*
X139999990Y-65219411D01*
X140111932Y-64949158D01*
X140169000Y-64662260D01*
X140169000Y-64369740D01*
X140111932Y-64082842D01*
X139999990Y-63812589D01*
X139837475Y-63569368D01*
X139630632Y-63362525D01*
X139387411Y-63200010D01*
X139117158Y-63088068D01*
X138830260Y-63031000D01*
X138537740Y-63031000D01*
X138250842Y-63088068D01*
X137980589Y-63200010D01*
X137737368Y-63362525D01*
X137530525Y-63569368D01*
X137368010Y-63812589D01*
X137256068Y-64082842D01*
X137199000Y-64369740D01*
X85660000Y-64369740D01*
X85660000Y-61580665D01*
X104483000Y-61580665D01*
X104483000Y-61863335D01*
X104538147Y-62140574D01*
X104646320Y-62401727D01*
X104803363Y-62636759D01*
X105003241Y-62836637D01*
X105238273Y-62993680D01*
X105499426Y-63101853D01*
X105776665Y-63157000D01*
X106059335Y-63157000D01*
X106336574Y-63101853D01*
X106597727Y-62993680D01*
X106832759Y-62836637D01*
X107032637Y-62636759D01*
X107189680Y-62401727D01*
X107297853Y-62140574D01*
X107353000Y-61863335D01*
X107353000Y-61580665D01*
X107297853Y-61303426D01*
X107189680Y-61042273D01*
X107032637Y-60807241D01*
X106832759Y-60607363D01*
X106597727Y-60450320D01*
X106336574Y-60342147D01*
X106059335Y-60287000D01*
X105776665Y-60287000D01*
X105499426Y-60342147D01*
X105238273Y-60450320D01*
X105003241Y-60607363D01*
X104803363Y-60807241D01*
X104646320Y-61042273D01*
X104538147Y-61303426D01*
X104483000Y-61580665D01*
X85660000Y-61580665D01*
X85660000Y-59660000D01*
X141340000Y-59660000D01*
X141340001Y-61967572D01*
G37*
X141340001Y-61967572D02*
X141340000Y-61967582D01*
X141340001Y-113340000D01*
X85660000Y-113340000D01*
X85660000Y-102460000D01*
X88357319Y-102460000D01*
X88387970Y-102771204D01*
X88478745Y-103070449D01*
X88626155Y-103346235D01*
X88729446Y-103472095D01*
X88645506Y-103516963D01*
X88548815Y-103596315D01*
X88469463Y-103693006D01*
X88410498Y-103803320D01*
X88374188Y-103923018D01*
X88361928Y-104047500D01*
X88361928Y-105952500D01*
X88374188Y-106076982D01*
X88410498Y-106196680D01*
X88469463Y-106306994D01*
X88548815Y-106403685D01*
X88645506Y-106483037D01*
X88755820Y-106542002D01*
X88875518Y-106578312D01*
X89000000Y-106590572D01*
X91000000Y-106590572D01*
X91124482Y-106578312D01*
X91244180Y-106542002D01*
X91354494Y-106483037D01*
X91451185Y-106403685D01*
X91530537Y-106306994D01*
X91589502Y-106196680D01*
X91625812Y-106076982D01*
X91638072Y-105952500D01*
X91638072Y-104124000D01*
X109086299Y-104124000D01*
X109113040Y-104395507D01*
X109192236Y-104656581D01*
X109320843Y-104897188D01*
X109493919Y-105108081D01*
X109704812Y-105281157D01*
X109945419Y-105409764D01*
X110206493Y-105488960D01*
X110409963Y-105509000D01*
X111046037Y-105509000D01*
X111249507Y-105488960D01*
X111510581Y-105409764D01*
X111751188Y-105281157D01*
X111962081Y-105108081D01*
X112135157Y-104897188D01*
X112263764Y-104656581D01*
X112342960Y-104395507D01*
X112369701Y-104124000D01*
X132086299Y-104124000D01*
X132113040Y-104395507D01*
X132192236Y-104656581D01*
X132320843Y-104897188D01*
X132493919Y-105108081D01*
X132704812Y-105281157D01*
X132945419Y-105409764D01*
X133206493Y-105488960D01*
X133409963Y-105509000D01*
X134046037Y-105509000D01*
X134249507Y-105488960D01*
X134510581Y-105409764D01*
X134751188Y-105281157D01*
X134962081Y-105108081D01*
X135135157Y-104897188D01*
X135263764Y-104656581D01*
X135342960Y-104395507D01*
X135369701Y-104124000D01*
X135342960Y-103852493D01*
X135263764Y-103591419D01*
X135135157Y-103350812D01*
X134962081Y-103139919D01*
X134751188Y-102966843D01*
X134510581Y-102838236D01*
X134249507Y-102759040D01*
X134046037Y-102739000D01*
X133409963Y-102739000D01*
X133206493Y-102759040D01*
X132945419Y-102838236D01*
X132704812Y-102966843D01*
X132493919Y-103139919D01*
X132320843Y-103350812D01*
X132192236Y-103591419D01*
X132113040Y-103852493D01*
X132086299Y-104124000D01*
X112369701Y-104124000D01*
X112342960Y-103852493D01*
X112263764Y-103591419D01*
X112135157Y-103350812D01*
X111962081Y-103139919D01*
X111751188Y-102966843D01*
X111510581Y-102838236D01*
X111249507Y-102759040D01*
X111046037Y-102739000D01*
X110409963Y-102739000D01*
X110206493Y-102759040D01*
X109945419Y-102838236D01*
X109704812Y-102966843D01*
X109493919Y-103139919D01*
X109320843Y-103350812D01*
X109192236Y-103591419D01*
X109113040Y-103852493D01*
X109086299Y-104124000D01*
X91638072Y-104124000D01*
X91638072Y-104047500D01*
X91625812Y-103923018D01*
X91589502Y-103803320D01*
X91530537Y-103693006D01*
X91451185Y-103596315D01*
X91354494Y-103516963D01*
X91270554Y-103472095D01*
X91373845Y-103346235D01*
X91521255Y-103070449D01*
X91612030Y-102771204D01*
X91642681Y-102460000D01*
X91612030Y-102148796D01*
X91521255Y-101849551D01*
X91373845Y-101573765D01*
X91175463Y-101332037D01*
X90933735Y-101133655D01*
X90657949Y-100986245D01*
X90358704Y-100895470D01*
X90125486Y-100872500D01*
X89874514Y-100872500D01*
X89641296Y-100895470D01*
X89342051Y-100986245D01*
X89066265Y-101133655D01*
X88824537Y-101332037D01*
X88626155Y-101573765D01*
X88478745Y-101849551D01*
X88387970Y-102148796D01*
X88357319Y-102460000D01*
X85660000Y-102460000D01*
X85660000Y-98250000D01*
X98703928Y-98250000D01*
X98703928Y-101750000D01*
X98716188Y-101874482D01*
X98752498Y-101994180D01*
X98811463Y-102104494D01*
X98890815Y-102201185D01*
X98987506Y-102280537D01*
X99097820Y-102339502D01*
X99217518Y-102375812D01*
X99342000Y-102388072D01*
X102842000Y-102388072D01*
X102966482Y-102375812D01*
X103086180Y-102339502D01*
X103196494Y-102280537D01*
X103293185Y-102201185D01*
X103372537Y-102104494D01*
X103431502Y-101994180D01*
X103467812Y-101874482D01*
X103480072Y-101750000D01*
X103480072Y-98250000D01*
X103467812Y-98125518D01*
X103431502Y-98005820D01*
X103372537Y-97895506D01*
X103293185Y-97798815D01*
X103196494Y-97719463D01*
X103086180Y-97660498D01*
X102966482Y-97624188D01*
X102842000Y-97611928D01*
X99342000Y-97611928D01*
X99217518Y-97624188D01*
X99097820Y-97660498D01*
X98987506Y-97719463D01*
X98890815Y-97798815D01*
X98811463Y-97895506D01*
X98752498Y-98005820D01*
X98716188Y-98125518D01*
X98703928Y-98250000D01*
X85660000Y-98250000D01*
X85660000Y-93964000D01*
X109086299Y-93964000D01*
X109113040Y-94235507D01*
X109192236Y-94496581D01*
X109320843Y-94737188D01*
X109493919Y-94948081D01*
X109704812Y-95121157D01*
X109915927Y-95234000D01*
X109704812Y-95346843D01*
X109493919Y-95519919D01*
X109320843Y-95730812D01*
X109192236Y-95971419D01*
X109113040Y-96232493D01*
X109086299Y-96504000D01*
X109113040Y-96775507D01*
X109192236Y-97036581D01*
X109320843Y-97277188D01*
X109493919Y-97488081D01*
X109704812Y-97661157D01*
X109915927Y-97774000D01*
X109704812Y-97886843D01*
X109493919Y-98059919D01*
X109320843Y-98270812D01*
X109192236Y-98511419D01*
X109113040Y-98772493D01*
X109086299Y-99044000D01*
X109113040Y-99315507D01*
X109192236Y-99576581D01*
X109320843Y-99817188D01*
X109493919Y-100028081D01*
X109704812Y-100201157D01*
X109945419Y-100329764D01*
X110206493Y-100408960D01*
X110409963Y-100429000D01*
X111046037Y-100429000D01*
X111249507Y-100408960D01*
X111510581Y-100329764D01*
X111751188Y-100201157D01*
X111962081Y-100028081D01*
X112135157Y-99817188D01*
X112263764Y-99576581D01*
X112342960Y-99315507D01*
X112369701Y-99044000D01*
X112342960Y-98772493D01*
X112263764Y-98511419D01*
X112135157Y-98270812D01*
X111962081Y-98059919D01*
X111751188Y-97886843D01*
X111540073Y-97774000D01*
X111751188Y-97661157D01*
X111962081Y-97488081D01*
X112135157Y-97277188D01*
X112263764Y-97036581D01*
X112342960Y-96775507D01*
X112369701Y-96504000D01*
X112342960Y-96232493D01*
X112263764Y-95971419D01*
X112135157Y-95730812D01*
X111962081Y-95519919D01*
X111751188Y-95346843D01*
X111540073Y-95234000D01*
X111751188Y-95121157D01*
X111962081Y-94948081D01*
X112135157Y-94737188D01*
X112263764Y-94496581D01*
X112342960Y-94235507D01*
X112369701Y-93964000D01*
X112342960Y-93692493D01*
X112263764Y-93431419D01*
X112135157Y-93190812D01*
X111962081Y-92979919D01*
X111751188Y-92806843D01*
X111510581Y-92678236D01*
X111249507Y-92599040D01*
X111046037Y-92579000D01*
X110409963Y-92579000D01*
X110206493Y-92599040D01*
X109945419Y-92678236D01*
X109704812Y-92806843D01*
X109493919Y-92979919D01*
X109320843Y-93190812D01*
X109192236Y-93431419D01*
X109113040Y-93692493D01*
X109086299Y-93964000D01*
X85660000Y-93964000D01*
X85660000Y-90694000D01*
X101739928Y-90694000D01*
X101739928Y-92694000D01*
X101752188Y-92818482D01*
X101788498Y-92938180D01*
X101847463Y-93048494D01*
X101926815Y-93145185D01*
X102023506Y-93224537D01*
X102133820Y-93283502D01*
X102253518Y-93319812D01*
X102378000Y-93332072D01*
X104378000Y-93332072D01*
X104502482Y-93319812D01*
X104622180Y-93283502D01*
X104732494Y-93224537D01*
X104829185Y-93145185D01*
X104908537Y-93048494D01*
X104967502Y-92938180D01*
X105003812Y-92818482D01*
X105016072Y-92694000D01*
X105016072Y-90694000D01*
X105003812Y-90569518D01*
X104967502Y-90449820D01*
X104908537Y-90339506D01*
X104829185Y-90242815D01*
X104732494Y-90163463D01*
X104622180Y-90104498D01*
X104502482Y-90068188D01*
X104378000Y-90055928D01*
X102378000Y-90055928D01*
X102253518Y-90068188D01*
X102133820Y-90104498D01*
X102023506Y-90163463D01*
X101926815Y-90242815D01*
X101847463Y-90339506D01*
X101788498Y-90449820D01*
X101752188Y-90569518D01*
X101739928Y-90694000D01*
X85660000Y-90694000D01*
X85660000Y-79160000D01*
X86903928Y-79160000D01*
X86903928Y-80860000D01*
X86916188Y-80984482D01*
X86952498Y-81104180D01*
X87011463Y-81214494D01*
X87090815Y-81311185D01*
X87187506Y-81390537D01*
X87297820Y-81449502D01*
X87370380Y-81471513D01*
X87238525Y-81603368D01*
X87076010Y-81846589D01*
X86964068Y-82116842D01*
X86907000Y-82403740D01*
X86907000Y-82696260D01*
X86964068Y-82983158D01*
X87076010Y-83253411D01*
X87238525Y-83496632D01*
X87445368Y-83703475D01*
X87688589Y-83865990D01*
X87958842Y-83977932D01*
X88245740Y-84035000D01*
X88538260Y-84035000D01*
X88825158Y-83977932D01*
X89095411Y-83865990D01*
X89338632Y-83703475D01*
X89545475Y-83496632D01*
X89707990Y-83253411D01*
X89819932Y-82983158D01*
X89877000Y-82696260D01*
X89877000Y-82408665D01*
X96853000Y-82408665D01*
X96853000Y-82691335D01*
X96908147Y-82968574D01*
X97016320Y-83229727D01*
X97173363Y-83464759D01*
X97373241Y-83664637D01*
X97608273Y-83821680D01*
X97869426Y-83929853D01*
X98146665Y-83985000D01*
X98429335Y-83985000D01*
X98706574Y-83929853D01*
X98967727Y-83821680D01*
X99202759Y-83664637D01*
X99402637Y-83464759D01*
X99559680Y-83229727D01*
X99667853Y-82968574D01*
X99723000Y-82691335D01*
X99723000Y-82408665D01*
X101953000Y-82408665D01*
X101953000Y-82691335D01*
X102008147Y-82968574D01*
X102116320Y-83229727D01*
X102273363Y-83464759D01*
X102473241Y-83664637D01*
X102708273Y-83821680D01*
X102969426Y-83929853D01*
X103246665Y-83985000D01*
X103529335Y-83985000D01*
X103564439Y-83978017D01*
X106049001Y-86462580D01*
X106049000Y-87165550D01*
X105928176Y-87346376D01*
X105842617Y-87552933D01*
X105799000Y-87772212D01*
X105799000Y-87995788D01*
X105842617Y-88215067D01*
X105928176Y-88421624D01*
X106052388Y-88607520D01*
X106210480Y-88765612D01*
X106396376Y-88889824D01*
X106602933Y-88975383D01*
X106822212Y-89019000D01*
X107045788Y-89019000D01*
X107265067Y-88975383D01*
X107471624Y-88889824D01*
X107657520Y-88765612D01*
X107815612Y-88607520D01*
X107939824Y-88421624D01*
X108025383Y-88215067D01*
X108069000Y-87995788D01*
X108069000Y-87772212D01*
X108025383Y-87552933D01*
X107939824Y-87346376D01*
X107819000Y-87165550D01*
X107819000Y-86139465D01*
X107823281Y-86095999D01*
X107819000Y-86052533D01*
X107819000Y-86052523D01*
X107806195Y-85922510D01*
X107755589Y-85755687D01*
X107673411Y-85601941D01*
X107562817Y-85467183D01*
X107529049Y-85439470D01*
X104816017Y-82726439D01*
X104823000Y-82691335D01*
X104823000Y-82408665D01*
X104767853Y-82131426D01*
X104659680Y-81870273D01*
X104502637Y-81635241D01*
X104302759Y-81435363D01*
X104067727Y-81278320D01*
X103806574Y-81170147D01*
X103529335Y-81115000D01*
X103246665Y-81115000D01*
X102969426Y-81170147D01*
X102708273Y-81278320D01*
X102473241Y-81435363D01*
X102273363Y-81635241D01*
X102116320Y-81870273D01*
X102008147Y-82131426D01*
X101953000Y-82408665D01*
X99723000Y-82408665D01*
X99667853Y-82131426D01*
X99559680Y-81870273D01*
X99402637Y-81635241D01*
X99202759Y-81435363D01*
X98967727Y-81278320D01*
X98706574Y-81170147D01*
X98429335Y-81115000D01*
X98146665Y-81115000D01*
X97869426Y-81170147D01*
X97608273Y-81278320D01*
X97373241Y-81435363D01*
X97173363Y-81635241D01*
X97016320Y-81870273D01*
X96908147Y-82131426D01*
X96853000Y-82408665D01*
X89877000Y-82408665D01*
X89877000Y-82403740D01*
X89819932Y-82116842D01*
X89707990Y-81846589D01*
X89545475Y-81603368D01*
X89413620Y-81471513D01*
X89486180Y-81449502D01*
X89596494Y-81390537D01*
X89693185Y-81311185D01*
X89772537Y-81214494D01*
X89831502Y-81104180D01*
X89867812Y-80984482D01*
X89880072Y-80860000D01*
X89880072Y-79160000D01*
X89867812Y-79035518D01*
X89831502Y-78915820D01*
X89772537Y-78805506D01*
X89693185Y-78708815D01*
X89596494Y-78629463D01*
X89486180Y-78570498D01*
X89366482Y-78534188D01*
X89242000Y-78521928D01*
X87542000Y-78521928D01*
X87417518Y-78534188D01*
X87297820Y-78570498D01*
X87187506Y-78629463D01*
X87090815Y-78708815D01*
X87011463Y-78805506D01*
X86952498Y-78915820D01*
X86916188Y-79035518D01*
X86903928Y-79160000D01*
X85660000Y-79160000D01*
X85660000Y-71740665D01*
X104483000Y-71740665D01*
X104483000Y-72023335D01*
X104538147Y-72300574D01*
X104646320Y-72561727D01*
X104803363Y-72796759D01*
X105003241Y-72996637D01*
X105238273Y-73153680D01*
X105499426Y-73261853D01*
X105776665Y-73317000D01*
X106059335Y-73317000D01*
X106336574Y-73261853D01*
X106597727Y-73153680D01*
X106832759Y-72996637D01*
X107032637Y-72796759D01*
X107189680Y-72561727D01*
X107297853Y-72300574D01*
X107353000Y-72023335D01*
X107353000Y-71740665D01*
X107297853Y-71463426D01*
X107189680Y-71202273D01*
X107032637Y-70967241D01*
X106832759Y-70767363D01*
X106597727Y-70610320D01*
X106336574Y-70502147D01*
X106059335Y-70447000D01*
X105776665Y-70447000D01*
X105499426Y-70502147D01*
X105238273Y-70610320D01*
X105003241Y-70767363D01*
X104803363Y-70967241D01*
X104646320Y-71202273D01*
X104538147Y-71463426D01*
X104483000Y-71740665D01*
X85660000Y-71740665D01*
X85660000Y-69418223D01*
X88017000Y-69418223D01*
X88017000Y-69773777D01*
X88086365Y-70122499D01*
X88222429Y-70450988D01*
X88419965Y-70746621D01*
X88671379Y-70998035D01*
X88967012Y-71195571D01*
X89295501Y-71331635D01*
X89644223Y-71401000D01*
X89999777Y-71401000D01*
X90348499Y-71331635D01*
X90676988Y-71195571D01*
X90972621Y-70998035D01*
X91224035Y-70746621D01*
X91421571Y-70450988D01*
X91557635Y-70122499D01*
X91627000Y-69773777D01*
X91627000Y-69418223D01*
X93017000Y-69418223D01*
X93017000Y-69773777D01*
X93086365Y-70122499D01*
X93222429Y-70450988D01*
X93419965Y-70746621D01*
X93671379Y-70998035D01*
X93967012Y-71195571D01*
X94295501Y-71331635D01*
X94644223Y-71401000D01*
X94999777Y-71401000D01*
X95348499Y-71331635D01*
X95676988Y-71195571D01*
X95972621Y-70998035D01*
X96224035Y-70746621D01*
X96421571Y-70450988D01*
X96557635Y-70122499D01*
X96627000Y-69773777D01*
X96627000Y-69418223D01*
X98017000Y-69418223D01*
X98017000Y-69773777D01*
X98086365Y-70122499D01*
X98222429Y-70450988D01*
X98419965Y-70746621D01*
X98671379Y-70998035D01*
X98967012Y-71195571D01*
X99295501Y-71331635D01*
X99644223Y-71401000D01*
X99999777Y-71401000D01*
X100348499Y-71331635D01*
X100676988Y-71195571D01*
X100972621Y-70998035D01*
X101224035Y-70746621D01*
X101421571Y-70450988D01*
X101557635Y-70122499D01*
X101627000Y-69773777D01*
X101627000Y-69418223D01*
X101557635Y-69069501D01*
X101421571Y-68741012D01*
X101303296Y-68564000D01*
X109086299Y-68564000D01*
X109113040Y-68835507D01*
X109192236Y-69096581D01*
X109320843Y-69337188D01*
X109493919Y-69548081D01*
X109704812Y-69721157D01*
X109915927Y-69834000D01*
X109704812Y-69946843D01*
X109493919Y-70119919D01*
X109320843Y-70330812D01*
X109192236Y-70571419D01*
X109113040Y-70832493D01*
X109086299Y-71104000D01*
X109113040Y-71375507D01*
X109192236Y-71636581D01*
X109320843Y-71877188D01*
X109493919Y-72088081D01*
X109704812Y-72261157D01*
X109915927Y-72374000D01*
X109704812Y-72486843D01*
X109493919Y-72659919D01*
X109320843Y-72870812D01*
X109192236Y-73111419D01*
X109113040Y-73372493D01*
X109086299Y-73644000D01*
X109113040Y-73915507D01*
X109192236Y-74176581D01*
X109320843Y-74417188D01*
X109493919Y-74628081D01*
X109704812Y-74801157D01*
X109915927Y-74914000D01*
X109704812Y-75026843D01*
X109493919Y-75199919D01*
X109320843Y-75410812D01*
X109192236Y-75651419D01*
X109113040Y-75912493D01*
X109086299Y-76184000D01*
X109113040Y-76455507D01*
X109192236Y-76716581D01*
X109320843Y-76957188D01*
X109493919Y-77168081D01*
X109704812Y-77341157D01*
X109915927Y-77454000D01*
X109704812Y-77566843D01*
X109493919Y-77739919D01*
X109320843Y-77950812D01*
X109192236Y-78191419D01*
X109113040Y-78452493D01*
X109086299Y-78724000D01*
X109113040Y-78995507D01*
X109192236Y-79256581D01*
X109320843Y-79497188D01*
X109493919Y-79708081D01*
X109704812Y-79881157D01*
X109915927Y-79994000D01*
X109704812Y-80106843D01*
X109493919Y-80279919D01*
X109320843Y-80490812D01*
X109192236Y-80731419D01*
X109113040Y-80992493D01*
X109086299Y-81264000D01*
X109113040Y-81535507D01*
X109192236Y-81796581D01*
X109320843Y-82037188D01*
X109493919Y-82248081D01*
X109704812Y-82421157D01*
X109915927Y-82534000D01*
X109704812Y-82646843D01*
X109493919Y-82819919D01*
X109320843Y-83030812D01*
X109192236Y-83271419D01*
X109113040Y-83532493D01*
X109086299Y-83804000D01*
X109113040Y-84075507D01*
X109192236Y-84336581D01*
X109320843Y-84577188D01*
X109493919Y-84788081D01*
X109704812Y-84961157D01*
X109915927Y-85074000D01*
X109704812Y-85186843D01*
X109493919Y-85359919D01*
X109320843Y-85570812D01*
X109192236Y-85811419D01*
X109113040Y-86072493D01*
X109086299Y-86344000D01*
X109113040Y-86615507D01*
X109192236Y-86876581D01*
X109320843Y-87117188D01*
X109493919Y-87328081D01*
X109704812Y-87501157D01*
X109915927Y-87614000D01*
X109704812Y-87726843D01*
X109493919Y-87899919D01*
X109320843Y-88110812D01*
X109192236Y-88351419D01*
X109113040Y-88612493D01*
X109086299Y-88884000D01*
X109113040Y-89155507D01*
X109192236Y-89416581D01*
X109320843Y-89657188D01*
X109493919Y-89868081D01*
X109704812Y-90041157D01*
X109945419Y-90169764D01*
X110206493Y-90248960D01*
X110409963Y-90269000D01*
X111046037Y-90269000D01*
X111249507Y-90248960D01*
X111510581Y-90169764D01*
X111751188Y-90041157D01*
X111962081Y-89868081D01*
X112135157Y-89657188D01*
X112263764Y-89416581D01*
X112342960Y-89155507D01*
X112369701Y-88884000D01*
X112342960Y-88612493D01*
X112263764Y-88351419D01*
X112135157Y-88110812D01*
X111962081Y-87899919D01*
X111751188Y-87726843D01*
X111540073Y-87614000D01*
X111751188Y-87501157D01*
X111962081Y-87328081D01*
X112135157Y-87117188D01*
X112263764Y-86876581D01*
X112342960Y-86615507D01*
X112369701Y-86344000D01*
X132086299Y-86344000D01*
X132113040Y-86615507D01*
X132192236Y-86876581D01*
X132320843Y-87117188D01*
X132493919Y-87328081D01*
X132704812Y-87501157D01*
X132915927Y-87614000D01*
X132704812Y-87726843D01*
X132493919Y-87899919D01*
X132320843Y-88110812D01*
X132192236Y-88351419D01*
X132113040Y-88612493D01*
X132086299Y-88884000D01*
X132113040Y-89155507D01*
X132192236Y-89416581D01*
X132320843Y-89657188D01*
X132493919Y-89868081D01*
X132704812Y-90041157D01*
X132915927Y-90154000D01*
X132704812Y-90266843D01*
X132493919Y-90439919D01*
X132320843Y-90650812D01*
X132192236Y-90891419D01*
X132113040Y-91152493D01*
X132086299Y-91424000D01*
X132113040Y-91695507D01*
X132192236Y-91956581D01*
X132320843Y-92197188D01*
X132493919Y-92408081D01*
X132704812Y-92581157D01*
X132915927Y-92694000D01*
X132704812Y-92806843D01*
X132493919Y-92979919D01*
X132320843Y-93190812D01*
X132192236Y-93431419D01*
X132113040Y-93692493D01*
X132086299Y-93964000D01*
X132113040Y-94235507D01*
X132192236Y-94496581D01*
X132320843Y-94737188D01*
X132493919Y-94948081D01*
X132704812Y-95121157D01*
X132915927Y-95234000D01*
X132704812Y-95346843D01*
X132493919Y-95519919D01*
X132320843Y-95730812D01*
X132192236Y-95971419D01*
X132113040Y-96232493D01*
X132086299Y-96504000D01*
X132113040Y-96775507D01*
X132192236Y-97036581D01*
X132320843Y-97277188D01*
X132493919Y-97488081D01*
X132704812Y-97661157D01*
X132915927Y-97774000D01*
X132704812Y-97886843D01*
X132493919Y-98059919D01*
X132320843Y-98270812D01*
X132192236Y-98511419D01*
X132113040Y-98772493D01*
X132086299Y-99044000D01*
X132113040Y-99315507D01*
X132192236Y-99576581D01*
X132320843Y-99817188D01*
X132493919Y-100028081D01*
X132704812Y-100201157D01*
X132945419Y-100329764D01*
X133206493Y-100408960D01*
X133409963Y-100429000D01*
X134046037Y-100429000D01*
X134249507Y-100408960D01*
X134510581Y-100329764D01*
X134751188Y-100201157D01*
X134962081Y-100028081D01*
X135135157Y-99817188D01*
X135263764Y-99576581D01*
X135342960Y-99315507D01*
X135369701Y-99044000D01*
X135342960Y-98772493D01*
X135263764Y-98511419D01*
X135135157Y-98270812D01*
X134962081Y-98059919D01*
X134751188Y-97886843D01*
X134540073Y-97774000D01*
X134751188Y-97661157D01*
X134962081Y-97488081D01*
X135135157Y-97277188D01*
X135263764Y-97036581D01*
X135342960Y-96775507D01*
X135369701Y-96504000D01*
X135342960Y-96232493D01*
X135263764Y-95971419D01*
X135135157Y-95730812D01*
X135085250Y-95670000D01*
X137195928Y-95670000D01*
X137195928Y-97370000D01*
X137208188Y-97494482D01*
X137244498Y-97614180D01*
X137303463Y-97724494D01*
X137382815Y-97821185D01*
X137479506Y-97900537D01*
X137589820Y-97959502D01*
X137662380Y-97981513D01*
X137530525Y-98113368D01*
X137368010Y-98356589D01*
X137256068Y-98626842D01*
X137199000Y-98913740D01*
X137199000Y-99206260D01*
X137256068Y-99493158D01*
X137368010Y-99763411D01*
X137530525Y-100006632D01*
X137737368Y-100213475D01*
X137980589Y-100375990D01*
X138250842Y-100487932D01*
X138537740Y-100545000D01*
X138830260Y-100545000D01*
X139117158Y-100487932D01*
X139387411Y-100375990D01*
X139630632Y-100213475D01*
X139837475Y-100006632D01*
X139999990Y-99763411D01*
X140111932Y-99493158D01*
X140169000Y-99206260D01*
X140169000Y-98913740D01*
X140111932Y-98626842D01*
X139999990Y-98356589D01*
X139837475Y-98113368D01*
X139705620Y-97981513D01*
X139778180Y-97959502D01*
X139888494Y-97900537D01*
X139985185Y-97821185D01*
X140064537Y-97724494D01*
X140123502Y-97614180D01*
X140159812Y-97494482D01*
X140172072Y-97370000D01*
X140172072Y-95670000D01*
X140159812Y-95545518D01*
X140123502Y-95425820D01*
X140064537Y-95315506D01*
X139985185Y-95218815D01*
X139888494Y-95139463D01*
X139778180Y-95080498D01*
X139658482Y-95044188D01*
X139534000Y-95031928D01*
X137834000Y-95031928D01*
X137709518Y-95044188D01*
X137589820Y-95080498D01*
X137479506Y-95139463D01*
X137382815Y-95218815D01*
X137303463Y-95315506D01*
X137244498Y-95425820D01*
X137208188Y-95545518D01*
X137195928Y-95670000D01*
X135085250Y-95670000D01*
X134962081Y-95519919D01*
X134751188Y-95346843D01*
X134540073Y-95234000D01*
X134751188Y-95121157D01*
X134962081Y-94948081D01*
X135135157Y-94737188D01*
X135263764Y-94496581D01*
X135342960Y-94235507D01*
X135369701Y-93964000D01*
X135342960Y-93692493D01*
X135263764Y-93431419D01*
X135135157Y-93190812D01*
X134962081Y-92979919D01*
X134751188Y-92806843D01*
X134540073Y-92694000D01*
X134751188Y-92581157D01*
X134962081Y-92408081D01*
X135135157Y-92197188D01*
X135263764Y-91956581D01*
X135342960Y-91695507D01*
X135369701Y-91424000D01*
X135342960Y-91152493D01*
X135263764Y-90891419D01*
X135135157Y-90650812D01*
X134962081Y-90439919D01*
X134751188Y-90266843D01*
X134540073Y-90154000D01*
X134751188Y-90041157D01*
X134962081Y-89868081D01*
X135135157Y-89657188D01*
X135263764Y-89416581D01*
X135342960Y-89155507D01*
X135369701Y-88884000D01*
X135342960Y-88612493D01*
X135263764Y-88351419D01*
X135135157Y-88110812D01*
X134962081Y-87899919D01*
X134751188Y-87726843D01*
X134540073Y-87614000D01*
X134751188Y-87501157D01*
X134962081Y-87328081D01*
X135135157Y-87117188D01*
X135263764Y-86876581D01*
X135342960Y-86615507D01*
X135369701Y-86344000D01*
X135342960Y-86072493D01*
X135263764Y-85811419D01*
X135135157Y-85570812D01*
X134962081Y-85359919D01*
X134751188Y-85186843D01*
X134510581Y-85058236D01*
X134249507Y-84979040D01*
X134046037Y-84959000D01*
X133409963Y-84959000D01*
X133206493Y-84979040D01*
X132945419Y-85058236D01*
X132704812Y-85186843D01*
X132493919Y-85359919D01*
X132320843Y-85570812D01*
X132192236Y-85811419D01*
X132113040Y-86072493D01*
X132086299Y-86344000D01*
X112369701Y-86344000D01*
X112342960Y-86072493D01*
X112263764Y-85811419D01*
X112135157Y-85570812D01*
X111962081Y-85359919D01*
X111751188Y-85186843D01*
X111540073Y-85074000D01*
X111751188Y-84961157D01*
X111962081Y-84788081D01*
X112135157Y-84577188D01*
X112263764Y-84336581D01*
X112342960Y-84075507D01*
X112369701Y-83804000D01*
X112342960Y-83532493D01*
X112263764Y-83271419D01*
X112135157Y-83030812D01*
X111962081Y-82819919D01*
X111751188Y-82646843D01*
X111540073Y-82534000D01*
X111751188Y-82421157D01*
X111962081Y-82248081D01*
X112135157Y-82037188D01*
X112263764Y-81796581D01*
X112342960Y-81535507D01*
X112369701Y-81264000D01*
X112342960Y-80992493D01*
X112263764Y-80731419D01*
X112135157Y-80490812D01*
X111962081Y-80279919D01*
X111751188Y-80106843D01*
X111540073Y-79994000D01*
X111751188Y-79881157D01*
X111962081Y-79708081D01*
X112135157Y-79497188D01*
X112263764Y-79256581D01*
X112342960Y-78995507D01*
X112369701Y-78724000D01*
X112342960Y-78452493D01*
X112263764Y-78191419D01*
X112135157Y-77950812D01*
X111962081Y-77739919D01*
X111751188Y-77566843D01*
X111540073Y-77454000D01*
X111751188Y-77341157D01*
X111962081Y-77168081D01*
X112135157Y-76957188D01*
X112263764Y-76716581D01*
X112342960Y-76455507D01*
X112369701Y-76184000D01*
X112342960Y-75912493D01*
X112263764Y-75651419D01*
X112135157Y-75410812D01*
X111962081Y-75199919D01*
X111751188Y-75026843D01*
X111540073Y-74914000D01*
X111751188Y-74801157D01*
X111962081Y-74628081D01*
X112135157Y-74417188D01*
X112263764Y-74176581D01*
X112342960Y-73915507D01*
X112369701Y-73644000D01*
X112342960Y-73372493D01*
X112263764Y-73111419D01*
X112135157Y-72870812D01*
X111962081Y-72659919D01*
X111751188Y-72486843D01*
X111540073Y-72374000D01*
X111751188Y-72261157D01*
X111962081Y-72088081D01*
X112135157Y-71877188D01*
X112263764Y-71636581D01*
X112342960Y-71375507D01*
X112369701Y-71104000D01*
X112342960Y-70832493D01*
X112263764Y-70571419D01*
X112135157Y-70330812D01*
X111962081Y-70119919D01*
X111751188Y-69946843D01*
X111540073Y-69834000D01*
X111751188Y-69721157D01*
X111962081Y-69548081D01*
X112135157Y-69337188D01*
X112263764Y-69096581D01*
X112342960Y-68835507D01*
X112369701Y-68564000D01*
X112342960Y-68292493D01*
X112263764Y-68031419D01*
X112135157Y-67790812D01*
X111962081Y-67579919D01*
X111751188Y-67406843D01*
X111510581Y-67278236D01*
X111249507Y-67199040D01*
X111046037Y-67179000D01*
X110409963Y-67179000D01*
X110206493Y-67199040D01*
X109945419Y-67278236D01*
X109704812Y-67406843D01*
X109493919Y-67579919D01*
X109320843Y-67790812D01*
X109192236Y-68031419D01*
X109113040Y-68292493D01*
X109086299Y-68564000D01*
X101303296Y-68564000D01*
X101224035Y-68445379D01*
X100972621Y-68193965D01*
X100676988Y-67996429D01*
X100348499Y-67860365D01*
X99999777Y-67791000D01*
X99644223Y-67791000D01*
X99295501Y-67860365D01*
X98967012Y-67996429D01*
X98671379Y-68193965D01*
X98419965Y-68445379D01*
X98222429Y-68741012D01*
X98086365Y-69069501D01*
X98017000Y-69418223D01*
X96627000Y-69418223D01*
X96557635Y-69069501D01*
X96421571Y-68741012D01*
X96224035Y-68445379D01*
X95972621Y-68193965D01*
X95676988Y-67996429D01*
X95348499Y-67860365D01*
X94999777Y-67791000D01*
X94644223Y-67791000D01*
X94295501Y-67860365D01*
X93967012Y-67996429D01*
X93671379Y-68193965D01*
X93419965Y-68445379D01*
X93222429Y-68741012D01*
X93086365Y-69069501D01*
X93017000Y-69418223D01*
X91627000Y-69418223D01*
X91557635Y-69069501D01*
X91421571Y-68741012D01*
X91224035Y-68445379D01*
X90972621Y-68193965D01*
X90676988Y-67996429D01*
X90348499Y-67860365D01*
X89999777Y-67791000D01*
X89644223Y-67791000D01*
X89295501Y-67860365D01*
X88967012Y-67996429D01*
X88671379Y-68193965D01*
X88419965Y-68445379D01*
X88222429Y-68741012D01*
X88086365Y-69069501D01*
X88017000Y-69418223D01*
X85660000Y-69418223D01*
X85660000Y-66988212D01*
X115558998Y-66988212D01*
X115558998Y-67211788D01*
X115602615Y-67431067D01*
X115688174Y-67637624D01*
X115812386Y-67823520D01*
X115970478Y-67981612D01*
X116156374Y-68105824D01*
X116362931Y-68191383D01*
X116582210Y-68235000D01*
X116805786Y-68235000D01*
X117025065Y-68191383D01*
X117231622Y-68105824D01*
X117417518Y-67981612D01*
X117575610Y-67823520D01*
X117699822Y-67637624D01*
X117763041Y-67485001D01*
X131397423Y-67485001D01*
X132134423Y-68222002D01*
X132113040Y-68292493D01*
X132086299Y-68564000D01*
X132113040Y-68835507D01*
X132192236Y-69096581D01*
X132320843Y-69337188D01*
X132493919Y-69548081D01*
X132704812Y-69721157D01*
X132915927Y-69834000D01*
X132704812Y-69946843D01*
X132493919Y-70119919D01*
X132320843Y-70330812D01*
X132192236Y-70571419D01*
X132113040Y-70832493D01*
X132086299Y-71104000D01*
X132113040Y-71375507D01*
X132192236Y-71636581D01*
X132320843Y-71877188D01*
X132493919Y-72088081D01*
X132704812Y-72261157D01*
X132915927Y-72374000D01*
X132704812Y-72486843D01*
X132493919Y-72659919D01*
X132320843Y-72870812D01*
X132192236Y-73111419D01*
X132113040Y-73372493D01*
X132086299Y-73644000D01*
X132113040Y-73915507D01*
X132192236Y-74176581D01*
X132320843Y-74417188D01*
X132493919Y-74628081D01*
X132704812Y-74801157D01*
X132915927Y-74914000D01*
X132704812Y-75026843D01*
X132493919Y-75199919D01*
X132320843Y-75410812D01*
X132192236Y-75651419D01*
X132113040Y-75912493D01*
X132086299Y-76184000D01*
X132113040Y-76455507D01*
X132192236Y-76716581D01*
X132320843Y-76957188D01*
X132493919Y-77168081D01*
X132704812Y-77341157D01*
X132915927Y-77454000D01*
X132704812Y-77566843D01*
X132493919Y-77739919D01*
X132320843Y-77950812D01*
X132192236Y-78191419D01*
X132113040Y-78452493D01*
X132086299Y-78724000D01*
X132113040Y-78995507D01*
X132192236Y-79256581D01*
X132320843Y-79497188D01*
X132493919Y-79708081D01*
X132704812Y-79881157D01*
X132915927Y-79994000D01*
X132704812Y-80106843D01*
X132493919Y-80279919D01*
X132320843Y-80490812D01*
X132192236Y-80731419D01*
X132113040Y-80992493D01*
X132086299Y-81264000D01*
X132113040Y-81535507D01*
X132192236Y-81796581D01*
X132320843Y-82037188D01*
X132493919Y-82248081D01*
X132704812Y-82421157D01*
X132945419Y-82549764D01*
X133206493Y-82628960D01*
X133409963Y-82649000D01*
X134046037Y-82649000D01*
X134249507Y-82628960D01*
X134510581Y-82549764D01*
X134751188Y-82421157D01*
X134962081Y-82248081D01*
X135135157Y-82037188D01*
X135263764Y-81796581D01*
X135342960Y-81535507D01*
X135369701Y-81264000D01*
X135342960Y-80992493D01*
X135263764Y-80731419D01*
X135135157Y-80490812D01*
X134962081Y-80279919D01*
X134751188Y-80106843D01*
X134540073Y-79994000D01*
X134751188Y-79881157D01*
X134962081Y-79708081D01*
X135135157Y-79497188D01*
X135263764Y-79256581D01*
X135342960Y-78995507D01*
X135369701Y-78724000D01*
X135342960Y-78452493D01*
X135263764Y-78191419D01*
X135135157Y-77950812D01*
X134962081Y-77739919D01*
X134751188Y-77566843D01*
X134540073Y-77454000D01*
X134751188Y-77341157D01*
X134962081Y-77168081D01*
X135135157Y-76957188D01*
X135263764Y-76716581D01*
X135342960Y-76455507D01*
X135369701Y-76184000D01*
X135356872Y-76053740D01*
X137199000Y-76053740D01*
X137199000Y-76346260D01*
X137256068Y-76633158D01*
X137368010Y-76903411D01*
X137530525Y-77146632D01*
X137737368Y-77353475D01*
X137911760Y-77470000D01*
X137737368Y-77586525D01*
X137530525Y-77793368D01*
X137368010Y-78036589D01*
X137256068Y-78306842D01*
X137199000Y-78593740D01*
X137199000Y-78886260D01*
X137256068Y-79173158D01*
X137368010Y-79443411D01*
X137530525Y-79686632D01*
X137737368Y-79893475D01*
X137911760Y-80010000D01*
X137737368Y-80126525D01*
X137530525Y-80333368D01*
X137368010Y-80576589D01*
X137256068Y-80846842D01*
X137199000Y-81133740D01*
X137199000Y-81426260D01*
X137256068Y-81713158D01*
X137368010Y-81983411D01*
X137530525Y-82226632D01*
X137737368Y-82433475D01*
X137911760Y-82550000D01*
X137737368Y-82666525D01*
X137530525Y-82873368D01*
X137368010Y-83116589D01*
X137256068Y-83386842D01*
X137199000Y-83673740D01*
X137199000Y-83966260D01*
X137256068Y-84253158D01*
X137368010Y-84523411D01*
X137530525Y-84766632D01*
X137737368Y-84973475D01*
X137911760Y-85090000D01*
X137737368Y-85206525D01*
X137530525Y-85413368D01*
X137368010Y-85656589D01*
X137256068Y-85926842D01*
X137199000Y-86213740D01*
X137199000Y-86506260D01*
X137256068Y-86793158D01*
X137368010Y-87063411D01*
X137530525Y-87306632D01*
X137737368Y-87513475D01*
X137911760Y-87630000D01*
X137737368Y-87746525D01*
X137530525Y-87953368D01*
X137368010Y-88196589D01*
X137256068Y-88466842D01*
X137199000Y-88753740D01*
X137199000Y-89046260D01*
X137256068Y-89333158D01*
X137368010Y-89603411D01*
X137530525Y-89846632D01*
X137737368Y-90053475D01*
X137911760Y-90170000D01*
X137737368Y-90286525D01*
X137530525Y-90493368D01*
X137368010Y-90736589D01*
X137256068Y-91006842D01*
X137199000Y-91293740D01*
X137199000Y-91586260D01*
X137256068Y-91873158D01*
X137368010Y-92143411D01*
X137530525Y-92386632D01*
X137737368Y-92593475D01*
X137980589Y-92755990D01*
X138250842Y-92867932D01*
X138537740Y-92925000D01*
X138830260Y-92925000D01*
X139117158Y-92867932D01*
X139387411Y-92755990D01*
X139630632Y-92593475D01*
X139837475Y-92386632D01*
X139999990Y-92143411D01*
X140111932Y-91873158D01*
X140169000Y-91586260D01*
X140169000Y-91293740D01*
X140111932Y-91006842D01*
X139999990Y-90736589D01*
X139837475Y-90493368D01*
X139630632Y-90286525D01*
X139456240Y-90170000D01*
X139630632Y-90053475D01*
X139837475Y-89846632D01*
X139999990Y-89603411D01*
X140111932Y-89333158D01*
X140169000Y-89046260D01*
X140169000Y-88753740D01*
X140111932Y-88466842D01*
X139999990Y-88196589D01*
X139837475Y-87953368D01*
X139630632Y-87746525D01*
X139456240Y-87630000D01*
X139630632Y-87513475D01*
X139837475Y-87306632D01*
X139999990Y-87063411D01*
X140111932Y-86793158D01*
X140169000Y-86506260D01*
X140169000Y-86213740D01*
X140111932Y-85926842D01*
X139999990Y-85656589D01*
X139837475Y-85413368D01*
X139630632Y-85206525D01*
X139456240Y-85090000D01*
X139630632Y-84973475D01*
X139837475Y-84766632D01*
X139999990Y-84523411D01*
X140111932Y-84253158D01*
X140169000Y-83966260D01*
X140169000Y-83673740D01*
X140111932Y-83386842D01*
X139999990Y-83116589D01*
X139837475Y-82873368D01*
X139630632Y-82666525D01*
X139456240Y-82550000D01*
X139630632Y-82433475D01*
X139837475Y-82226632D01*
X139999990Y-81983411D01*
X140111932Y-81713158D01*
X140169000Y-81426260D01*
X140169000Y-81133740D01*
X140111932Y-80846842D01*
X139999990Y-80576589D01*
X139837475Y-80333368D01*
X139630632Y-80126525D01*
X139456240Y-80010000D01*
X139630632Y-79893475D01*
X139837475Y-79686632D01*
X139999990Y-79443411D01*
X140111932Y-79173158D01*
X140169000Y-78886260D01*
X140169000Y-78593740D01*
X140111932Y-78306842D01*
X139999990Y-78036589D01*
X139837475Y-77793368D01*
X139630632Y-77586525D01*
X139456240Y-77470000D01*
X139630632Y-77353475D01*
X139837475Y-77146632D01*
X139999990Y-76903411D01*
X140111932Y-76633158D01*
X140169000Y-76346260D01*
X140169000Y-76053740D01*
X140111932Y-75766842D01*
X139999990Y-75496589D01*
X139837475Y-75253368D01*
X139630632Y-75046525D01*
X139387411Y-74884010D01*
X139117158Y-74772068D01*
X138830260Y-74715000D01*
X138537740Y-74715000D01*
X138250842Y-74772068D01*
X137980589Y-74884010D01*
X137737368Y-75046525D01*
X137530525Y-75253368D01*
X137368010Y-75496589D01*
X137256068Y-75766842D01*
X137199000Y-76053740D01*
X135356872Y-76053740D01*
X135342960Y-75912493D01*
X135263764Y-75651419D01*
X135135157Y-75410812D01*
X134962081Y-75199919D01*
X134751188Y-75026843D01*
X134540073Y-74914000D01*
X134751188Y-74801157D01*
X134962081Y-74628081D01*
X135135157Y-74417188D01*
X135263764Y-74176581D01*
X135342960Y-73915507D01*
X135369701Y-73644000D01*
X135342960Y-73372493D01*
X135263764Y-73111419D01*
X135135157Y-72870812D01*
X134962081Y-72659919D01*
X134751188Y-72486843D01*
X134540073Y-72374000D01*
X134751188Y-72261157D01*
X134962081Y-72088081D01*
X135135157Y-71877188D01*
X135263764Y-71636581D01*
X135342960Y-71375507D01*
X135369701Y-71104000D01*
X135342960Y-70832493D01*
X135263764Y-70571419D01*
X135135157Y-70330812D01*
X135085250Y-70270000D01*
X137195928Y-70270000D01*
X137195928Y-71970000D01*
X137208188Y-72094482D01*
X137244498Y-72214180D01*
X137303463Y-72324494D01*
X137382815Y-72421185D01*
X137479506Y-72500537D01*
X137589820Y-72559502D01*
X137709518Y-72595812D01*
X137834000Y-72608072D01*
X139534000Y-72608072D01*
X139658482Y-72595812D01*
X139778180Y-72559502D01*
X139888494Y-72500537D01*
X139985185Y-72421185D01*
X140064537Y-72324494D01*
X140123502Y-72214180D01*
X140159812Y-72094482D01*
X140172072Y-71970000D01*
X140172072Y-70270000D01*
X140159812Y-70145518D01*
X140123502Y-70025820D01*
X140064537Y-69915506D01*
X139985185Y-69818815D01*
X139888494Y-69739463D01*
X139778180Y-69680498D01*
X139658482Y-69644188D01*
X139534000Y-69631928D01*
X137834000Y-69631928D01*
X137709518Y-69644188D01*
X137589820Y-69680498D01*
X137479506Y-69739463D01*
X137382815Y-69818815D01*
X137303463Y-69915506D01*
X137244498Y-70025820D01*
X137208188Y-70145518D01*
X137195928Y-70270000D01*
X135085250Y-70270000D01*
X134962081Y-70119919D01*
X134751188Y-69946843D01*
X134540073Y-69834000D01*
X134751188Y-69721157D01*
X134962081Y-69548081D01*
X135135157Y-69337188D01*
X135263764Y-69096581D01*
X135342960Y-68835507D01*
X135369701Y-68564000D01*
X135342960Y-68292493D01*
X135263764Y-68031419D01*
X135135157Y-67790812D01*
X134962081Y-67579919D01*
X134751188Y-67406843D01*
X134510581Y-67278236D01*
X134249507Y-67199040D01*
X134046037Y-67179000D01*
X133594579Y-67179000D01*
X132420535Y-66004957D01*
X132392818Y-65971184D01*
X132258060Y-65860590D01*
X132104314Y-65778412D01*
X131937491Y-65727806D01*
X131807478Y-65715001D01*
X131807470Y-65715001D01*
X131764001Y-65710720D01*
X131720532Y-65715001D01*
X117237462Y-65715001D01*
X117193996Y-65710720D01*
X117150530Y-65715001D01*
X117150520Y-65715001D01*
X117020507Y-65727806D01*
X116853684Y-65778412D01*
X116699938Y-65860590D01*
X116569678Y-65967493D01*
X116362931Y-66008617D01*
X116156374Y-66094176D01*
X115970478Y-66218388D01*
X115812386Y-66376480D01*
X115688174Y-66562376D01*
X115602615Y-66768933D01*
X115558998Y-66988212D01*
X85660000Y-66988212D01*
X85660000Y-64369740D01*
X137199000Y-64369740D01*
X137199000Y-64662260D01*
X137256068Y-64949158D01*
X137368010Y-65219411D01*
X137530525Y-65462632D01*
X137737368Y-65669475D01*
X137980589Y-65831990D01*
X138250842Y-65943932D01*
X138537740Y-66001000D01*
X138830260Y-66001000D01*
X139117158Y-65943932D01*
X139387411Y-65831990D01*
X139630632Y-65669475D01*
X139837475Y-65462632D01*
X139999990Y-65219411D01*
X140111932Y-64949158D01*
X140169000Y-64662260D01*
X140169000Y-64369740D01*
X140111932Y-64082842D01*
X139999990Y-63812589D01*
X139837475Y-63569368D01*
X139630632Y-63362525D01*
X139387411Y-63200010D01*
X139117158Y-63088068D01*
X138830260Y-63031000D01*
X138537740Y-63031000D01*
X138250842Y-63088068D01*
X137980589Y-63200010D01*
X137737368Y-63362525D01*
X137530525Y-63569368D01*
X137368010Y-63812589D01*
X137256068Y-64082842D01*
X137199000Y-64369740D01*
X85660000Y-64369740D01*
X85660000Y-61580665D01*
X104483000Y-61580665D01*
X104483000Y-61863335D01*
X104538147Y-62140574D01*
X104646320Y-62401727D01*
X104803363Y-62636759D01*
X105003241Y-62836637D01*
X105238273Y-62993680D01*
X105499426Y-63101853D01*
X105776665Y-63157000D01*
X106059335Y-63157000D01*
X106336574Y-63101853D01*
X106597727Y-62993680D01*
X106832759Y-62836637D01*
X107032637Y-62636759D01*
X107189680Y-62401727D01*
X107297853Y-62140574D01*
X107353000Y-61863335D01*
X107353000Y-61580665D01*
X107297853Y-61303426D01*
X107189680Y-61042273D01*
X107032637Y-60807241D01*
X106832759Y-60607363D01*
X106597727Y-60450320D01*
X106336574Y-60342147D01*
X106059335Y-60287000D01*
X105776665Y-60287000D01*
X105499426Y-60342147D01*
X105238273Y-60450320D01*
X105003241Y-60607363D01*
X104803363Y-60807241D01*
X104646320Y-61042273D01*
X104538147Y-61303426D01*
X104483000Y-61580665D01*
X85660000Y-61580665D01*
X85660000Y-59660000D01*
X141340000Y-59660000D01*
X141340001Y-61967572D01*
%TD*%
M02*
