%TF.GenerationSoftware,KiCad,Pcbnew,(5.1.6)-1*%
%TF.CreationDate,2020-11-01T08:40:04-08:00*%
%TF.ProjectId,CentralController,43656e74-7261-46c4-936f-6e74726f6c6c,rev?*%
%TF.SameCoordinates,Original*%
%TF.FileFunction,Legend,Top*%
%TF.FilePolarity,Positive*%
%FSLAX46Y46*%
G04 Gerber Fmt 4.6, Leading zero omitted, Abs format (unit mm)*
G04 Created by KiCad (PCBNEW (5.1.6)-1) date 2020-11-01 08:40:04*
%MOMM*%
%LPD*%
G01*
G04 APERTURE LIST*
%ADD10C,0.150000*%
%ADD11C,0.120000*%
%ADD12C,0.200000*%
G04 APERTURE END LIST*
D10*
X108042857Y-80666666D02*
X107995238Y-80619047D01*
X107947619Y-80476190D01*
X107947619Y-80380952D01*
X107995238Y-80238095D01*
X108090476Y-80142857D01*
X108185714Y-80095238D01*
X108376190Y-80047619D01*
X108519047Y-80047619D01*
X108709523Y-80095238D01*
X108804761Y-80142857D01*
X108900000Y-80238095D01*
X108947619Y-80380952D01*
X108947619Y-80476190D01*
X108900000Y-80619047D01*
X108852380Y-80666666D01*
X107995238Y-81476190D02*
X107947619Y-81380952D01*
X107947619Y-81190476D01*
X107995238Y-81095238D01*
X108090476Y-81047619D01*
X108471428Y-81047619D01*
X108566666Y-81095238D01*
X108614285Y-81190476D01*
X108614285Y-81380952D01*
X108566666Y-81476190D01*
X108471428Y-81523809D01*
X108376190Y-81523809D01*
X108280952Y-81047619D01*
X108614285Y-81952380D02*
X107947619Y-81952380D01*
X108519047Y-81952380D02*
X108566666Y-82000000D01*
X108614285Y-82095238D01*
X108614285Y-82238095D01*
X108566666Y-82333333D01*
X108471428Y-82380952D01*
X107947619Y-82380952D01*
X108614285Y-82714285D02*
X108614285Y-83095238D01*
X108947619Y-82857142D02*
X108090476Y-82857142D01*
X107995238Y-82904761D01*
X107947619Y-83000000D01*
X107947619Y-83095238D01*
X107947619Y-83428571D02*
X108614285Y-83428571D01*
X108423809Y-83428571D02*
X108519047Y-83476190D01*
X108566666Y-83523809D01*
X108614285Y-83619047D01*
X108614285Y-83714285D01*
X107947619Y-84476190D02*
X108471428Y-84476190D01*
X108566666Y-84428571D01*
X108614285Y-84333333D01*
X108614285Y-84142857D01*
X108566666Y-84047619D01*
X107995238Y-84476190D02*
X107947619Y-84380952D01*
X107947619Y-84142857D01*
X107995238Y-84047619D01*
X108090476Y-84000000D01*
X108185714Y-84000000D01*
X108280952Y-84047619D01*
X108328571Y-84142857D01*
X108328571Y-84380952D01*
X108376190Y-84476190D01*
X107947619Y-85095238D02*
X107995238Y-85000000D01*
X108090476Y-84952380D01*
X108947619Y-84952380D01*
X108042857Y-86047619D02*
X107995238Y-86000000D01*
X107947619Y-85857142D01*
X107947619Y-85761904D01*
X107995238Y-85619047D01*
X108090476Y-85523809D01*
X108185714Y-85476190D01*
X108376190Y-85428571D01*
X108519047Y-85428571D01*
X108709523Y-85476190D01*
X108804761Y-85523809D01*
X108900000Y-85619047D01*
X108947619Y-85761904D01*
X108947619Y-85857142D01*
X108900000Y-86000000D01*
X108852380Y-86047619D01*
X107947619Y-86619047D02*
X107995238Y-86523809D01*
X108042857Y-86476190D01*
X108138095Y-86428571D01*
X108423809Y-86428571D01*
X108519047Y-86476190D01*
X108566666Y-86523809D01*
X108614285Y-86619047D01*
X108614285Y-86761904D01*
X108566666Y-86857142D01*
X108519047Y-86904761D01*
X108423809Y-86952380D01*
X108138095Y-86952380D01*
X108042857Y-86904761D01*
X107995238Y-86857142D01*
X107947619Y-86761904D01*
X107947619Y-86619047D01*
X108614285Y-87380952D02*
X107947619Y-87380952D01*
X108519047Y-87380952D02*
X108566666Y-87428571D01*
X108614285Y-87523809D01*
X108614285Y-87666666D01*
X108566666Y-87761904D01*
X108471428Y-87809523D01*
X107947619Y-87809523D01*
X108614285Y-88142857D02*
X108614285Y-88523809D01*
X108947619Y-88285714D02*
X108090476Y-88285714D01*
X107995238Y-88333333D01*
X107947619Y-88428571D01*
X107947619Y-88523809D01*
X107947619Y-88857142D02*
X108614285Y-88857142D01*
X108423809Y-88857142D02*
X108519047Y-88904761D01*
X108566666Y-88952380D01*
X108614285Y-89047619D01*
X108614285Y-89142857D01*
X107947619Y-89619047D02*
X107995238Y-89523809D01*
X108042857Y-89476190D01*
X108138095Y-89428571D01*
X108423809Y-89428571D01*
X108519047Y-89476190D01*
X108566666Y-89523809D01*
X108614285Y-89619047D01*
X108614285Y-89761904D01*
X108566666Y-89857142D01*
X108519047Y-89904761D01*
X108423809Y-89952380D01*
X108138095Y-89952380D01*
X108042857Y-89904761D01*
X107995238Y-89857142D01*
X107947619Y-89761904D01*
X107947619Y-89619047D01*
X107947619Y-90523809D02*
X107995238Y-90428571D01*
X108090476Y-90380952D01*
X108947619Y-90380952D01*
X107947619Y-91047619D02*
X107995238Y-90952380D01*
X108090476Y-90904761D01*
X108947619Y-90904761D01*
X107995238Y-91809523D02*
X107947619Y-91714285D01*
X107947619Y-91523809D01*
X107995238Y-91428571D01*
X108090476Y-91380952D01*
X108471428Y-91380952D01*
X108566666Y-91428571D01*
X108614285Y-91523809D01*
X108614285Y-91714285D01*
X108566666Y-91809523D01*
X108471428Y-91857142D01*
X108376190Y-91857142D01*
X108280952Y-91380952D01*
X107947619Y-92285714D02*
X108614285Y-92285714D01*
X108423809Y-92285714D02*
X108519047Y-92333333D01*
X108566666Y-92380952D01*
X108614285Y-92476190D01*
X108614285Y-92571428D01*
X108614285Y-93571428D02*
X107947619Y-93809523D01*
X108614285Y-94047619D01*
X107947619Y-94952380D02*
X107947619Y-94380952D01*
X107947619Y-94666666D02*
X108947619Y-94666666D01*
X108804761Y-94571428D01*
X108709523Y-94476190D01*
X108661904Y-94380952D01*
X89828571Y-60904761D02*
X89971428Y-60952380D01*
X90209523Y-60952380D01*
X90304761Y-60904761D01*
X90352380Y-60857142D01*
X90400000Y-60761904D01*
X90400000Y-60666666D01*
X90352380Y-60571428D01*
X90304761Y-60523809D01*
X90209523Y-60476190D01*
X90019047Y-60428571D01*
X89923809Y-60380952D01*
X89876190Y-60333333D01*
X89828571Y-60238095D01*
X89828571Y-60142857D01*
X89876190Y-60047619D01*
X89923809Y-60000000D01*
X90019047Y-59952380D01*
X90257142Y-59952380D01*
X90400000Y-60000000D01*
X90828571Y-60952380D02*
X90828571Y-59952380D01*
X91209523Y-59952380D01*
X91304761Y-60000000D01*
X91352380Y-60047619D01*
X91400000Y-60142857D01*
X91400000Y-60285714D01*
X91352380Y-60380952D01*
X91304761Y-60428571D01*
X91209523Y-60476190D01*
X90828571Y-60476190D01*
X91828571Y-60952380D02*
X91828571Y-59952380D01*
X92400000Y-60952380D02*
X91971428Y-60380952D01*
X92400000Y-59952380D02*
X91828571Y-60523809D01*
X92590476Y-61047619D02*
X93352380Y-61047619D01*
X93447619Y-59952380D02*
X93780952Y-60952380D01*
X94114285Y-59952380D01*
X94638095Y-59952380D02*
X94828571Y-59952380D01*
X94923809Y-60000000D01*
X95019047Y-60095238D01*
X95066666Y-60285714D01*
X95066666Y-60619047D01*
X95019047Y-60809523D01*
X94923809Y-60904761D01*
X94828571Y-60952380D01*
X94638095Y-60952380D01*
X94542857Y-60904761D01*
X94447619Y-60809523D01*
X94400000Y-60619047D01*
X94400000Y-60285714D01*
X94447619Y-60095238D01*
X94542857Y-60000000D01*
X94638095Y-59952380D01*
X95971428Y-60952380D02*
X95495238Y-60952380D01*
X95495238Y-59952380D01*
X96304761Y-59952380D02*
X96304761Y-60761904D01*
X96352380Y-60857142D01*
X96400000Y-60904761D01*
X96495238Y-60952380D01*
X96685714Y-60952380D01*
X96780952Y-60904761D01*
X96828571Y-60857142D01*
X96876190Y-60761904D01*
X96876190Y-59952380D01*
X97352380Y-60952380D02*
X97352380Y-59952380D01*
X97685714Y-60666666D01*
X98019047Y-59952380D01*
X98019047Y-60952380D01*
X98495238Y-60428571D02*
X98828571Y-60428571D01*
X98971428Y-60952380D02*
X98495238Y-60952380D01*
X98495238Y-59952380D01*
X98971428Y-59952380D01*
X93604761Y-107376190D02*
X93652380Y-107233333D01*
X93652380Y-106995238D01*
X93604761Y-106900000D01*
X93557142Y-106852380D01*
X93461904Y-106804761D01*
X93366666Y-106804761D01*
X93271428Y-106852380D01*
X93223809Y-106900000D01*
X93176190Y-106995238D01*
X93128571Y-107185714D01*
X93080952Y-107280952D01*
X93033333Y-107328571D01*
X92938095Y-107376190D01*
X92842857Y-107376190D01*
X92747619Y-107328571D01*
X92700000Y-107280952D01*
X92652380Y-107185714D01*
X92652380Y-106947619D01*
X92700000Y-106804761D01*
X93652380Y-106376190D02*
X92652380Y-106376190D01*
X92652380Y-105995238D01*
X92700000Y-105900000D01*
X92747619Y-105852380D01*
X92842857Y-105804761D01*
X92985714Y-105804761D01*
X93080952Y-105852380D01*
X93128571Y-105900000D01*
X93176190Y-105995238D01*
X93176190Y-106376190D01*
X93652380Y-105376190D02*
X92652380Y-105376190D01*
X93652380Y-104804761D02*
X93080952Y-105233333D01*
X92652380Y-104804761D02*
X93223809Y-105376190D01*
X93747619Y-104614285D02*
X93747619Y-103852380D01*
X92652380Y-103757142D02*
X92652380Y-103185714D01*
X93652380Y-103471428D02*
X92652380Y-103471428D01*
X93652380Y-102280952D02*
X93176190Y-102614285D01*
X93652380Y-102852380D02*
X92652380Y-102852380D01*
X92652380Y-102471428D01*
X92700000Y-102376190D01*
X92747619Y-102328571D01*
X92842857Y-102280952D01*
X92985714Y-102280952D01*
X93080952Y-102328571D01*
X93128571Y-102376190D01*
X93176190Y-102471428D01*
X93176190Y-102852380D01*
X93366666Y-101900000D02*
X93366666Y-101423809D01*
X93652380Y-101995238D02*
X92652380Y-101661904D01*
X93652380Y-101328571D01*
X93652380Y-100995238D02*
X92652380Y-100995238D01*
X93652380Y-100423809D01*
X92652380Y-100423809D01*
X93604761Y-99995238D02*
X93652380Y-99852380D01*
X93652380Y-99614285D01*
X93604761Y-99519047D01*
X93557142Y-99471428D01*
X93461904Y-99423809D01*
X93366666Y-99423809D01*
X93271428Y-99471428D01*
X93223809Y-99519047D01*
X93176190Y-99614285D01*
X93128571Y-99804761D01*
X93080952Y-99900000D01*
X93033333Y-99947619D01*
X92938095Y-99995238D01*
X92842857Y-99995238D01*
X92747619Y-99947619D01*
X92700000Y-99900000D01*
X92652380Y-99804761D01*
X92652380Y-99566666D01*
X92700000Y-99423809D01*
X91004761Y-85728571D02*
X91052380Y-85585714D01*
X91052380Y-85347619D01*
X91004761Y-85252380D01*
X90957142Y-85204761D01*
X90861904Y-85157142D01*
X90766666Y-85157142D01*
X90671428Y-85204761D01*
X90623809Y-85252380D01*
X90576190Y-85347619D01*
X90528571Y-85538095D01*
X90480952Y-85633333D01*
X90433333Y-85680952D01*
X90338095Y-85728571D01*
X90242857Y-85728571D01*
X90147619Y-85680952D01*
X90100000Y-85633333D01*
X90052380Y-85538095D01*
X90052380Y-85300000D01*
X90100000Y-85157142D01*
X91052380Y-84728571D02*
X90052380Y-84728571D01*
X90052380Y-84347619D01*
X90100000Y-84252380D01*
X90147619Y-84204761D01*
X90242857Y-84157142D01*
X90385714Y-84157142D01*
X90480952Y-84204761D01*
X90528571Y-84252380D01*
X90576190Y-84347619D01*
X90576190Y-84728571D01*
X91052380Y-83728571D02*
X90052380Y-83728571D01*
X91052380Y-83157142D02*
X90480952Y-83585714D01*
X90052380Y-83157142D02*
X90623809Y-83728571D01*
X91147619Y-82966666D02*
X91147619Y-82204761D01*
X91052380Y-81966666D02*
X90052380Y-81966666D01*
X91052380Y-81490476D02*
X90052380Y-81490476D01*
X91052380Y-80919047D01*
X90052380Y-80919047D01*
X85752380Y-78004761D02*
X85895238Y-78052380D01*
X86133333Y-78052380D01*
X86228571Y-78004761D01*
X86276190Y-77957142D01*
X86323809Y-77861904D01*
X86323809Y-77766666D01*
X86276190Y-77671428D01*
X86228571Y-77623809D01*
X86133333Y-77576190D01*
X85942857Y-77528571D01*
X85847619Y-77480952D01*
X85800000Y-77433333D01*
X85752380Y-77338095D01*
X85752380Y-77242857D01*
X85800000Y-77147619D01*
X85847619Y-77100000D01*
X85942857Y-77052380D01*
X86180952Y-77052380D01*
X86323809Y-77100000D01*
X86752380Y-78052380D02*
X86752380Y-77052380D01*
X87133333Y-77052380D01*
X87228571Y-77100000D01*
X87276190Y-77147619D01*
X87323809Y-77242857D01*
X87323809Y-77385714D01*
X87276190Y-77480952D01*
X87228571Y-77528571D01*
X87133333Y-77576190D01*
X86752380Y-77576190D01*
X87752380Y-78052380D02*
X87752380Y-77052380D01*
X88323809Y-78052380D02*
X87895238Y-77480952D01*
X88323809Y-77052380D02*
X87752380Y-77623809D01*
X88514285Y-78147619D02*
X89276190Y-78147619D01*
X90038095Y-78052380D02*
X89466666Y-78052380D01*
X89752380Y-78052380D02*
X89752380Y-77052380D01*
X89657142Y-77195238D01*
X89561904Y-77290476D01*
X89466666Y-77338095D01*
X90942857Y-77052380D02*
X90466666Y-77052380D01*
X90419047Y-77528571D01*
X90466666Y-77480952D01*
X90561904Y-77433333D01*
X90800000Y-77433333D01*
X90895238Y-77480952D01*
X90942857Y-77528571D01*
X90990476Y-77623809D01*
X90990476Y-77861904D01*
X90942857Y-77957142D01*
X90895238Y-78004761D01*
X90800000Y-78052380D01*
X90561904Y-78052380D01*
X90466666Y-78004761D01*
X90419047Y-77957142D01*
X91276190Y-77052380D02*
X91609523Y-78052380D01*
X91942857Y-77052380D01*
X98228571Y-76252380D02*
X98847619Y-76252380D01*
X98514285Y-76633333D01*
X98657142Y-76633333D01*
X98752380Y-76680952D01*
X98800000Y-76728571D01*
X98847619Y-76823809D01*
X98847619Y-77061904D01*
X98800000Y-77157142D01*
X98752380Y-77204761D01*
X98657142Y-77252380D01*
X98371428Y-77252380D01*
X98276190Y-77204761D01*
X98228571Y-77157142D01*
X99133333Y-76252380D02*
X99466666Y-77252380D01*
X99800000Y-76252380D01*
X100038095Y-76252380D02*
X100657142Y-76252380D01*
X100323809Y-76633333D01*
X100466666Y-76633333D01*
X100561904Y-76680952D01*
X100609523Y-76728571D01*
X100657142Y-76823809D01*
X100657142Y-77061904D01*
X100609523Y-77157142D01*
X100561904Y-77204761D01*
X100466666Y-77252380D01*
X100180952Y-77252380D01*
X100085714Y-77204761D01*
X100038095Y-77157142D01*
X100847619Y-77347619D02*
X101609523Y-77347619D01*
X102419047Y-77252380D02*
X102085714Y-76776190D01*
X101847619Y-77252380D02*
X101847619Y-76252380D01*
X102228571Y-76252380D01*
X102323809Y-76300000D01*
X102371428Y-76347619D01*
X102419047Y-76442857D01*
X102419047Y-76585714D01*
X102371428Y-76680952D01*
X102323809Y-76728571D01*
X102228571Y-76776190D01*
X101847619Y-76776190D01*
X102847619Y-76728571D02*
X103180952Y-76728571D01*
X103323809Y-77252380D02*
X102847619Y-77252380D01*
X102847619Y-76252380D01*
X103323809Y-76252380D01*
X104276190Y-76300000D02*
X104180952Y-76252380D01*
X104038095Y-76252380D01*
X103895238Y-76300000D01*
X103800000Y-76395238D01*
X103752380Y-76490476D01*
X103704761Y-76680952D01*
X103704761Y-76823809D01*
X103752380Y-77014285D01*
X103800000Y-77109523D01*
X103895238Y-77204761D01*
X104038095Y-77252380D01*
X104133333Y-77252380D01*
X104276190Y-77204761D01*
X104323809Y-77157142D01*
X104323809Y-76823809D01*
X104133333Y-76823809D01*
X140300000Y-68461904D02*
X140252380Y-68557142D01*
X140252380Y-68700000D01*
X140300000Y-68842857D01*
X140395238Y-68938095D01*
X140490476Y-68985714D01*
X140680952Y-69033333D01*
X140823809Y-69033333D01*
X141014285Y-68985714D01*
X141109523Y-68938095D01*
X141204761Y-68842857D01*
X141252380Y-68700000D01*
X141252380Y-68604761D01*
X141204761Y-68461904D01*
X141157142Y-68414285D01*
X140823809Y-68414285D01*
X140823809Y-68604761D01*
X141252380Y-67985714D02*
X140252380Y-67985714D01*
X141252380Y-67414285D01*
X140252380Y-67414285D01*
X141252380Y-66938095D02*
X140252380Y-66938095D01*
X140252380Y-66700000D01*
X140300000Y-66557142D01*
X140395238Y-66461904D01*
X140490476Y-66414285D01*
X140680952Y-66366666D01*
X140823809Y-66366666D01*
X141014285Y-66414285D01*
X141109523Y-66461904D01*
X141204761Y-66557142D01*
X141252380Y-66700000D01*
X141252380Y-66938095D01*
X141252380Y-64819047D02*
X141252380Y-65390476D01*
X141252380Y-65104761D02*
X140252380Y-65104761D01*
X140395238Y-65200000D01*
X140490476Y-65295238D01*
X140538095Y-65390476D01*
X140252380Y-63914285D02*
X140252380Y-64390476D01*
X140728571Y-64438095D01*
X140680952Y-64390476D01*
X140633333Y-64295238D01*
X140633333Y-64057142D01*
X140680952Y-63961904D01*
X140728571Y-63914285D01*
X140823809Y-63866666D01*
X141061904Y-63866666D01*
X141157142Y-63914285D01*
X141204761Y-63961904D01*
X141252380Y-64057142D01*
X141252380Y-64295238D01*
X141204761Y-64390476D01*
X141157142Y-64438095D01*
X140252380Y-63580952D02*
X141252380Y-63247619D01*
X140252380Y-62914285D01*
X135952380Y-72538095D02*
X135952380Y-71919047D01*
X136333333Y-72252380D01*
X136333333Y-72109523D01*
X136380952Y-72014285D01*
X136428571Y-71966666D01*
X136523809Y-71919047D01*
X136761904Y-71919047D01*
X136857142Y-71966666D01*
X136904761Y-72014285D01*
X136952380Y-72109523D01*
X136952380Y-72395238D01*
X136904761Y-72490476D01*
X136857142Y-72538095D01*
X135952380Y-71633333D02*
X136952380Y-71300000D01*
X135952380Y-70966666D01*
X135952380Y-70728571D02*
X135952380Y-70109523D01*
X136333333Y-70442857D01*
X136333333Y-70300000D01*
X136380952Y-70204761D01*
X136428571Y-70157142D01*
X136523809Y-70109523D01*
X136761904Y-70109523D01*
X136857142Y-70157142D01*
X136904761Y-70204761D01*
X136952380Y-70300000D01*
X136952380Y-70585714D01*
X136904761Y-70680952D01*
X136857142Y-70728571D01*
X140300000Y-74461904D02*
X140252380Y-74557142D01*
X140252380Y-74700000D01*
X140300000Y-74842857D01*
X140395238Y-74938095D01*
X140490476Y-74985714D01*
X140680952Y-75033333D01*
X140823809Y-75033333D01*
X141014285Y-74985714D01*
X141109523Y-74938095D01*
X141204761Y-74842857D01*
X141252380Y-74700000D01*
X141252380Y-74604761D01*
X141204761Y-74461904D01*
X141157142Y-74414285D01*
X140823809Y-74414285D01*
X140823809Y-74604761D01*
X141252380Y-73985714D02*
X140252380Y-73985714D01*
X141252380Y-73414285D01*
X140252380Y-73414285D01*
X141252380Y-72938095D02*
X140252380Y-72938095D01*
X140252380Y-72700000D01*
X140300000Y-72557142D01*
X140395238Y-72461904D01*
X140490476Y-72414285D01*
X140680952Y-72366666D01*
X140823809Y-72366666D01*
X141014285Y-72414285D01*
X141109523Y-72461904D01*
X141204761Y-72557142D01*
X141252380Y-72700000D01*
X141252380Y-72938095D01*
X136904761Y-77638095D02*
X136952380Y-77495238D01*
X136952380Y-77257142D01*
X136904761Y-77161904D01*
X136857142Y-77114285D01*
X136761904Y-77066666D01*
X136666666Y-77066666D01*
X136571428Y-77114285D01*
X136523809Y-77161904D01*
X136476190Y-77257142D01*
X136428571Y-77447619D01*
X136380952Y-77542857D01*
X136333333Y-77590476D01*
X136238095Y-77638095D01*
X136142857Y-77638095D01*
X136047619Y-77590476D01*
X136000000Y-77542857D01*
X135952380Y-77447619D01*
X135952380Y-77209523D01*
X136000000Y-77066666D01*
X136428571Y-76638095D02*
X136428571Y-76304761D01*
X136952380Y-76161904D02*
X136952380Y-76638095D01*
X135952380Y-76638095D01*
X135952380Y-76161904D01*
X136952380Y-75161904D02*
X136476190Y-75495238D01*
X136952380Y-75733333D02*
X135952380Y-75733333D01*
X135952380Y-75352380D01*
X136000000Y-75257142D01*
X136047619Y-75209523D01*
X136142857Y-75161904D01*
X136285714Y-75161904D01*
X136380952Y-75209523D01*
X136428571Y-75257142D01*
X136476190Y-75352380D01*
X136476190Y-75733333D01*
X141252380Y-79795238D02*
X140776190Y-80128571D01*
X141252380Y-80366666D02*
X140252380Y-80366666D01*
X140252380Y-79985714D01*
X140300000Y-79890476D01*
X140347619Y-79842857D01*
X140442857Y-79795238D01*
X140585714Y-79795238D01*
X140680952Y-79842857D01*
X140728571Y-79890476D01*
X140776190Y-79985714D01*
X140776190Y-80366666D01*
X141157142Y-78795238D02*
X141204761Y-78842857D01*
X141252380Y-78985714D01*
X141252380Y-79080952D01*
X141204761Y-79223809D01*
X141109523Y-79319047D01*
X141014285Y-79366666D01*
X140823809Y-79414285D01*
X140680952Y-79414285D01*
X140490476Y-79366666D01*
X140395238Y-79319047D01*
X140300000Y-79223809D01*
X140252380Y-79080952D01*
X140252380Y-78985714D01*
X140300000Y-78842857D01*
X140347619Y-78795238D01*
X141252380Y-77890476D02*
X141252380Y-78366666D01*
X140252380Y-78366666D01*
X141252380Y-77557142D02*
X140252380Y-77557142D01*
X141252380Y-76985714D02*
X140680952Y-77414285D01*
X140252380Y-76985714D02*
X140823809Y-77557142D01*
X136904761Y-83290476D02*
X136952380Y-83147619D01*
X136952380Y-82909523D01*
X136904761Y-82814285D01*
X136857142Y-82766666D01*
X136761904Y-82719047D01*
X136666666Y-82719047D01*
X136571428Y-82766666D01*
X136523809Y-82814285D01*
X136476190Y-82909523D01*
X136428571Y-83100000D01*
X136380952Y-83195238D01*
X136333333Y-83242857D01*
X136238095Y-83290476D01*
X136142857Y-83290476D01*
X136047619Y-83242857D01*
X136000000Y-83195238D01*
X135952380Y-83100000D01*
X135952380Y-82861904D01*
X136000000Y-82719047D01*
X136952380Y-81719047D02*
X136476190Y-82052380D01*
X136952380Y-82290476D02*
X135952380Y-82290476D01*
X135952380Y-81909523D01*
X136000000Y-81814285D01*
X136047619Y-81766666D01*
X136142857Y-81719047D01*
X136285714Y-81719047D01*
X136380952Y-81766666D01*
X136428571Y-81814285D01*
X136476190Y-81909523D01*
X136476190Y-82290476D01*
X136857142Y-80719047D02*
X136904761Y-80766666D01*
X136952380Y-80909523D01*
X136952380Y-81004761D01*
X136904761Y-81147619D01*
X136809523Y-81242857D01*
X136714285Y-81290476D01*
X136523809Y-81338095D01*
X136380952Y-81338095D01*
X136190476Y-81290476D01*
X136095238Y-81242857D01*
X136000000Y-81147619D01*
X135952380Y-81004761D01*
X135952380Y-80909523D01*
X136000000Y-80766666D01*
X136047619Y-80719047D01*
X136952380Y-79814285D02*
X136952380Y-80290476D01*
X135952380Y-80290476D01*
X136952380Y-79480952D02*
X135952380Y-79480952D01*
X136952380Y-78909523D02*
X136380952Y-79338095D01*
X135952380Y-78909523D02*
X136523809Y-79480952D01*
X140966666Y-92214285D02*
X140966666Y-91738095D01*
X141252380Y-92309523D02*
X140252380Y-91976190D01*
X141252380Y-91642857D01*
X140252380Y-91404761D02*
X140252380Y-90785714D01*
X140633333Y-91119047D01*
X140633333Y-90976190D01*
X140680952Y-90880952D01*
X140728571Y-90833333D01*
X140823809Y-90785714D01*
X141061904Y-90785714D01*
X141157142Y-90833333D01*
X141204761Y-90880952D01*
X141252380Y-90976190D01*
X141252380Y-91261904D01*
X141204761Y-91357142D01*
X141157142Y-91404761D01*
X140966666Y-89714285D02*
X140966666Y-89238095D01*
X141252380Y-89809523D02*
X140252380Y-89476190D01*
X141252380Y-89142857D01*
X140347619Y-88857142D02*
X140300000Y-88809523D01*
X140252380Y-88714285D01*
X140252380Y-88476190D01*
X140300000Y-88380952D01*
X140347619Y-88333333D01*
X140442857Y-88285714D01*
X140538095Y-88285714D01*
X140680952Y-88333333D01*
X141252380Y-88904761D01*
X141252380Y-88285714D01*
X140966666Y-87114285D02*
X140966666Y-86638095D01*
X141252380Y-87209523D02*
X140252380Y-86876190D01*
X141252380Y-86542857D01*
X141252380Y-85685714D02*
X141252380Y-86257142D01*
X141252380Y-85971428D02*
X140252380Y-85971428D01*
X140395238Y-86066666D01*
X140490476Y-86161904D01*
X140538095Y-86257142D01*
X140966666Y-84614285D02*
X140966666Y-84138095D01*
X141252380Y-84709523D02*
X140252380Y-84376190D01*
X141252380Y-84042857D01*
X140252380Y-83519047D02*
X140252380Y-83423809D01*
X140300000Y-83328571D01*
X140347619Y-83280952D01*
X140442857Y-83233333D01*
X140633333Y-83185714D01*
X140871428Y-83185714D01*
X141061904Y-83233333D01*
X141157142Y-83280952D01*
X141204761Y-83328571D01*
X141252380Y-83423809D01*
X141252380Y-83519047D01*
X141204761Y-83614285D01*
X141157142Y-83661904D01*
X141061904Y-83709523D01*
X140871428Y-83757142D01*
X140633333Y-83757142D01*
X140442857Y-83709523D01*
X140347619Y-83661904D01*
X140300000Y-83614285D01*
X140252380Y-83519047D01*
X138433333Y-94952380D02*
X138100000Y-94476190D01*
X137861904Y-94952380D02*
X137861904Y-93952380D01*
X138242857Y-93952380D01*
X138338095Y-94000000D01*
X138385714Y-94047619D01*
X138433333Y-94142857D01*
X138433333Y-94285714D01*
X138385714Y-94380952D01*
X138338095Y-94428571D01*
X138242857Y-94476190D01*
X137861904Y-94476190D01*
X138766666Y-93952380D02*
X139433333Y-94952380D01*
X139433333Y-93952380D02*
X138766666Y-94952380D01*
X137738095Y-100652380D02*
X138309523Y-100652380D01*
X138023809Y-101652380D02*
X138023809Y-100652380D01*
X138547619Y-100652380D02*
X139214285Y-101652380D01*
X139214285Y-100652380D02*
X138547619Y-101652380D01*
D11*
%TO.C,C1*%
X105857646Y-95069000D02*
X105857646Y-94069000D01*
X106357646Y-94569000D02*
X105357646Y-94569000D01*
X95797000Y-92293000D02*
X95797000Y-91095000D01*
X95837000Y-92556000D02*
X95837000Y-90832000D01*
X95877000Y-92756000D02*
X95877000Y-90632000D01*
X95917000Y-92924000D02*
X95917000Y-90464000D01*
X95957000Y-93072000D02*
X95957000Y-90316000D01*
X95997000Y-93204000D02*
X95997000Y-90184000D01*
X96037000Y-93324000D02*
X96037000Y-90064000D01*
X96077000Y-93436000D02*
X96077000Y-89952000D01*
X96117000Y-93540000D02*
X96117000Y-89848000D01*
X96157000Y-93638000D02*
X96157000Y-89750000D01*
X96197000Y-93731000D02*
X96197000Y-89657000D01*
X96237000Y-93819000D02*
X96237000Y-89569000D01*
X96277000Y-93903000D02*
X96277000Y-89485000D01*
X96317000Y-93983000D02*
X96317000Y-89405000D01*
X96357000Y-94059000D02*
X96357000Y-89329000D01*
X96397000Y-94133000D02*
X96397000Y-89255000D01*
X96437000Y-94204000D02*
X96437000Y-89184000D01*
X96477000Y-94273000D02*
X96477000Y-89115000D01*
X96517000Y-94339000D02*
X96517000Y-89049000D01*
X96557000Y-94403000D02*
X96557000Y-88985000D01*
X96597000Y-94464000D02*
X96597000Y-88924000D01*
X96637000Y-94524000D02*
X96637000Y-88864000D01*
X96677000Y-94583000D02*
X96677000Y-88805000D01*
X96717000Y-94639000D02*
X96717000Y-88749000D01*
X96757000Y-94694000D02*
X96757000Y-88694000D01*
X96797000Y-94748000D02*
X96797000Y-88640000D01*
X96837000Y-94800000D02*
X96837000Y-88588000D01*
X96877000Y-94850000D02*
X96877000Y-88538000D01*
X96917000Y-94900000D02*
X96917000Y-88488000D01*
X96957000Y-94948000D02*
X96957000Y-88440000D01*
X96997000Y-94995000D02*
X96997000Y-88393000D01*
X97037000Y-95041000D02*
X97037000Y-88347000D01*
X97077000Y-95086000D02*
X97077000Y-88302000D01*
X97117000Y-95130000D02*
X97117000Y-88258000D01*
X97157000Y-90453000D02*
X97157000Y-88216000D01*
X97157000Y-95172000D02*
X97157000Y-92935000D01*
X97197000Y-90453000D02*
X97197000Y-88174000D01*
X97197000Y-95214000D02*
X97197000Y-92935000D01*
X97237000Y-90453000D02*
X97237000Y-88133000D01*
X97237000Y-95255000D02*
X97237000Y-92935000D01*
X97277000Y-90453000D02*
X97277000Y-88093000D01*
X97277000Y-95295000D02*
X97277000Y-92935000D01*
X97317000Y-90453000D02*
X97317000Y-88054000D01*
X97317000Y-95334000D02*
X97317000Y-92935000D01*
X97357000Y-90453000D02*
X97357000Y-88015000D01*
X97357000Y-95373000D02*
X97357000Y-92935000D01*
X97397000Y-90453000D02*
X97397000Y-87978000D01*
X97397000Y-95410000D02*
X97397000Y-92935000D01*
X97437000Y-90453000D02*
X97437000Y-87941000D01*
X97437000Y-95447000D02*
X97437000Y-92935000D01*
X97477000Y-90453000D02*
X97477000Y-87905000D01*
X97477000Y-95483000D02*
X97477000Y-92935000D01*
X97517000Y-90453000D02*
X97517000Y-87870000D01*
X97517000Y-95518000D02*
X97517000Y-92935000D01*
X97557000Y-90453000D02*
X97557000Y-87836000D01*
X97557000Y-95552000D02*
X97557000Y-92935000D01*
X97597000Y-90453000D02*
X97597000Y-87802000D01*
X97597000Y-95586000D02*
X97597000Y-92935000D01*
X97637000Y-90453000D02*
X97637000Y-87769000D01*
X97637000Y-95619000D02*
X97637000Y-92935000D01*
X97677000Y-90453000D02*
X97677000Y-87737000D01*
X97677000Y-95651000D02*
X97677000Y-92935000D01*
X97717000Y-90453000D02*
X97717000Y-87705000D01*
X97717000Y-95683000D02*
X97717000Y-92935000D01*
X97757000Y-90453000D02*
X97757000Y-87674000D01*
X97757000Y-95714000D02*
X97757000Y-92935000D01*
X97797000Y-90453000D02*
X97797000Y-87644000D01*
X97797000Y-95744000D02*
X97797000Y-92935000D01*
X97837000Y-90453000D02*
X97837000Y-87614000D01*
X97837000Y-95774000D02*
X97837000Y-92935000D01*
X97877000Y-90453000D02*
X97877000Y-87584000D01*
X97877000Y-95804000D02*
X97877000Y-92935000D01*
X97917000Y-90453000D02*
X97917000Y-87556000D01*
X97917000Y-95832000D02*
X97917000Y-92935000D01*
X97957000Y-90453000D02*
X97957000Y-87528000D01*
X97957000Y-95860000D02*
X97957000Y-92935000D01*
X97997000Y-90453000D02*
X97997000Y-87500000D01*
X97997000Y-95888000D02*
X97997000Y-92935000D01*
X98037000Y-90453000D02*
X98037000Y-87473000D01*
X98037000Y-95915000D02*
X98037000Y-92935000D01*
X98077000Y-90453000D02*
X98077000Y-87447000D01*
X98077000Y-95941000D02*
X98077000Y-92935000D01*
X98117000Y-90453000D02*
X98117000Y-87421000D01*
X98117000Y-95967000D02*
X98117000Y-92935000D01*
X98157000Y-90453000D02*
X98157000Y-87396000D01*
X98157000Y-95992000D02*
X98157000Y-92935000D01*
X98197000Y-90453000D02*
X98197000Y-87371000D01*
X98197000Y-96017000D02*
X98197000Y-92935000D01*
X98237000Y-90453000D02*
X98237000Y-87347000D01*
X98237000Y-96041000D02*
X98237000Y-92935000D01*
X98277000Y-90453000D02*
X98277000Y-87323000D01*
X98277000Y-96065000D02*
X98277000Y-92935000D01*
X98317000Y-90453000D02*
X98317000Y-87299000D01*
X98317000Y-96089000D02*
X98317000Y-92935000D01*
X98357000Y-90453000D02*
X98357000Y-87277000D01*
X98357000Y-96111000D02*
X98357000Y-92935000D01*
X98397000Y-90453000D02*
X98397000Y-87254000D01*
X98397000Y-96134000D02*
X98397000Y-92935000D01*
X98437000Y-90453000D02*
X98437000Y-87232000D01*
X98437000Y-96156000D02*
X98437000Y-92935000D01*
X98477000Y-90453000D02*
X98477000Y-87211000D01*
X98477000Y-96177000D02*
X98477000Y-92935000D01*
X98517000Y-90453000D02*
X98517000Y-87190000D01*
X98517000Y-96198000D02*
X98517000Y-92935000D01*
X98557000Y-90453000D02*
X98557000Y-87169000D01*
X98557000Y-96219000D02*
X98557000Y-92935000D01*
X98597000Y-90453000D02*
X98597000Y-87149000D01*
X98597000Y-96239000D02*
X98597000Y-92935000D01*
X98637000Y-90453000D02*
X98637000Y-87130000D01*
X98637000Y-96258000D02*
X98637000Y-92935000D01*
X98677000Y-90453000D02*
X98677000Y-87110000D01*
X98677000Y-96278000D02*
X98677000Y-92935000D01*
X98717000Y-90453000D02*
X98717000Y-87091000D01*
X98717000Y-96297000D02*
X98717000Y-92935000D01*
X98757000Y-90453000D02*
X98757000Y-87073000D01*
X98757000Y-96315000D02*
X98757000Y-92935000D01*
X98797000Y-90453000D02*
X98797000Y-87055000D01*
X98797000Y-96333000D02*
X98797000Y-92935000D01*
X98837000Y-90453000D02*
X98837000Y-87037000D01*
X98837000Y-96351000D02*
X98837000Y-92935000D01*
X98877000Y-90453000D02*
X98877000Y-87020000D01*
X98877000Y-96368000D02*
X98877000Y-92935000D01*
X98917000Y-90453000D02*
X98917000Y-87004000D01*
X98917000Y-96384000D02*
X98917000Y-92935000D01*
X98957000Y-90453000D02*
X98957000Y-86987000D01*
X98957000Y-96401000D02*
X98957000Y-92935000D01*
X98997000Y-90453000D02*
X98997000Y-86971000D01*
X98997000Y-96417000D02*
X98997000Y-92935000D01*
X99037000Y-90453000D02*
X99037000Y-86956000D01*
X99037000Y-96432000D02*
X99037000Y-92935000D01*
X99077000Y-90453000D02*
X99077000Y-86940000D01*
X99077000Y-96448000D02*
X99077000Y-92935000D01*
X99117000Y-90453000D02*
X99117000Y-86926000D01*
X99117000Y-96462000D02*
X99117000Y-92935000D01*
X99157000Y-90453000D02*
X99157000Y-86911000D01*
X99157000Y-96477000D02*
X99157000Y-92935000D01*
X99197000Y-90453000D02*
X99197000Y-86897000D01*
X99197000Y-96491000D02*
X99197000Y-92935000D01*
X99237000Y-90453000D02*
X99237000Y-86883000D01*
X99237000Y-96505000D02*
X99237000Y-92935000D01*
X99277000Y-90453000D02*
X99277000Y-86870000D01*
X99277000Y-96518000D02*
X99277000Y-92935000D01*
X99317000Y-90453000D02*
X99317000Y-86857000D01*
X99317000Y-96531000D02*
X99317000Y-92935000D01*
X99357000Y-90453000D02*
X99357000Y-86844000D01*
X99357000Y-96544000D02*
X99357000Y-92935000D01*
X99397000Y-90453000D02*
X99397000Y-86832000D01*
X99397000Y-96556000D02*
X99397000Y-92935000D01*
X99437000Y-90453000D02*
X99437000Y-86820000D01*
X99437000Y-96568000D02*
X99437000Y-92935000D01*
X99477000Y-90453000D02*
X99477000Y-86809000D01*
X99477000Y-96579000D02*
X99477000Y-92935000D01*
X99517000Y-90453000D02*
X99517000Y-86797000D01*
X99517000Y-96591000D02*
X99517000Y-92935000D01*
X99557000Y-90453000D02*
X99557000Y-86787000D01*
X99557000Y-96601000D02*
X99557000Y-92935000D01*
X99597000Y-90453000D02*
X99597000Y-86776000D01*
X99597000Y-96612000D02*
X99597000Y-92935000D01*
X99637000Y-96622000D02*
X99637000Y-86766000D01*
X99677000Y-96632000D02*
X99677000Y-86756000D01*
X99717000Y-96641000D02*
X99717000Y-86747000D01*
X99757000Y-96650000D02*
X99757000Y-86738000D01*
X99797000Y-96659000D02*
X99797000Y-86729000D01*
X99837000Y-96668000D02*
X99837000Y-86720000D01*
X99877000Y-96676000D02*
X99877000Y-86712000D01*
X99917000Y-96684000D02*
X99917000Y-86704000D01*
X99957000Y-96691000D02*
X99957000Y-86697000D01*
X99997000Y-96698000D02*
X99997000Y-86690000D01*
X100037000Y-96705000D02*
X100037000Y-86683000D01*
X100077000Y-96712000D02*
X100077000Y-86676000D01*
X100117000Y-96718000D02*
X100117000Y-86670000D01*
X100157000Y-96724000D02*
X100157000Y-86664000D01*
X100198000Y-96729000D02*
X100198000Y-86659000D01*
X100238000Y-96734000D02*
X100238000Y-86654000D01*
X100278000Y-96739000D02*
X100278000Y-86649000D01*
X100318000Y-96744000D02*
X100318000Y-86644000D01*
X100358000Y-96748000D02*
X100358000Y-86640000D01*
X100398000Y-96752000D02*
X100398000Y-86636000D01*
X100438000Y-96756000D02*
X100438000Y-86632000D01*
X100478000Y-96759000D02*
X100478000Y-86629000D01*
X100518000Y-96762000D02*
X100518000Y-86626000D01*
X100558000Y-96764000D02*
X100558000Y-86624000D01*
X100598000Y-96767000D02*
X100598000Y-86621000D01*
X100638000Y-96769000D02*
X100638000Y-86619000D01*
X100678000Y-96771000D02*
X100678000Y-86617000D01*
X100718000Y-96772000D02*
X100718000Y-86616000D01*
X100758000Y-96773000D02*
X100758000Y-86615000D01*
X100798000Y-96774000D02*
X100798000Y-86614000D01*
X100838000Y-96774000D02*
X100838000Y-86614000D01*
X100878000Y-96774000D02*
X100878000Y-86614000D01*
X105998000Y-91694000D02*
G75*
G03*
X105998000Y-91694000I-5120000J0D01*
G01*
%TO.C,J1*%
X96492000Y-99100000D02*
X99092000Y-99100000D01*
X96492000Y-113800000D02*
X96492000Y-99100000D01*
X105692000Y-99100000D02*
X105692000Y-101000000D01*
X102992000Y-99100000D02*
X105692000Y-99100000D01*
X105692000Y-113800000D02*
X96492000Y-113800000D01*
X105692000Y-105000000D02*
X105692000Y-113800000D01*
X96292000Y-99950000D02*
X96292000Y-98900000D01*
X97342000Y-98900000D02*
X96292000Y-98900000D01*
%TO.C,J2*%
X137354000Y-95190000D02*
X138684000Y-95190000D01*
X137354000Y-96520000D02*
X137354000Y-95190000D01*
X137354000Y-97790000D02*
X140014000Y-97790000D01*
X140014000Y-97790000D02*
X140014000Y-100390000D01*
X137354000Y-97790000D02*
X137354000Y-100390000D01*
X137354000Y-100390000D02*
X140014000Y-100390000D01*
%TO.C,J3*%
X87062000Y-78680000D02*
X88392000Y-78680000D01*
X87062000Y-80010000D02*
X87062000Y-78680000D01*
X87062000Y-81280000D02*
X89722000Y-81280000D01*
X89722000Y-81280000D02*
X89722000Y-83880000D01*
X87062000Y-81280000D02*
X87062000Y-83880000D01*
X87062000Y-83880000D02*
X89722000Y-83880000D01*
%TO.C,J4*%
X137354000Y-69790000D02*
X138684000Y-69790000D01*
X137354000Y-71120000D02*
X137354000Y-69790000D01*
X137354000Y-72390000D02*
X140014000Y-72390000D01*
X140014000Y-72390000D02*
X140014000Y-92770000D01*
X137354000Y-72390000D02*
X137354000Y-92770000D01*
X137354000Y-92770000D02*
X140014000Y-92770000D01*
%TO.C,J5*%
X140014000Y-63186000D02*
X137354000Y-63186000D01*
X140014000Y-65786000D02*
X140014000Y-63186000D01*
X137354000Y-65786000D02*
X137354000Y-63186000D01*
X140014000Y-65786000D02*
X137354000Y-65786000D01*
X140014000Y-67056000D02*
X140014000Y-68386000D01*
X140014000Y-68386000D02*
X138684000Y-68386000D01*
D12*
%TO.C,PS1*%
X95098000Y-82547000D02*
G75*
G03*
X95098000Y-82547000I-89000J0D01*
G01*
X106038000Y-78150000D02*
X95638000Y-78150000D01*
X106038000Y-85750000D02*
X106038000Y-78150000D01*
X95638000Y-85750000D02*
X106038000Y-85750000D01*
X95638000Y-78150000D02*
X95638000Y-85750000D01*
D11*
%TO.C,Q1*%
X86730000Y-100609000D02*
X88240000Y-100609000D01*
X86730000Y-104310000D02*
X88240000Y-104310000D01*
X88240000Y-107580000D02*
X88240000Y-97340000D01*
X86730000Y-97340000D02*
X91371000Y-97340000D01*
X86730000Y-107580000D02*
X91371000Y-107580000D01*
X91371000Y-107580000D02*
X91371000Y-97340000D01*
X86730000Y-107580000D02*
X86730000Y-97340000D01*
%TO.C,R1*%
X105918000Y-62762000D02*
X105918000Y-63532000D01*
X105918000Y-70842000D02*
X105918000Y-70072000D01*
X104548000Y-63532000D02*
X104548000Y-70072000D01*
X107288000Y-63532000D02*
X104548000Y-63532000D01*
X107288000Y-70072000D02*
X107288000Y-63532000D01*
X104548000Y-70072000D02*
X107288000Y-70072000D01*
%TO.C,RV1*%
X92702000Y-52976000D02*
X96942000Y-52976000D01*
X92702000Y-62976000D02*
X96942000Y-62976000D01*
X96942000Y-62976000D02*
X96942000Y-52976000D01*
X92702000Y-62976000D02*
X92702000Y-52976000D01*
X91202000Y-62976000D02*
X98442000Y-62976000D01*
X91202000Y-67976000D02*
X98442000Y-67976000D01*
X98442000Y-67976000D02*
X98442000Y-62976000D01*
X91202000Y-67976000D02*
X91202000Y-62976000D01*
X86702000Y-67976000D02*
X102942000Y-67976000D01*
X86702000Y-75716000D02*
X102942000Y-75716000D01*
X102942000Y-75716000D02*
X102942000Y-67976000D01*
X86702000Y-75716000D02*
X86702000Y-67976000D01*
%TO.C,U1*%
X126428000Y-112344000D02*
X135227999Y-112344000D01*
X126428000Y-110514000D02*
X126428000Y-112344000D01*
X109228000Y-112344000D02*
X118428000Y-112344000D01*
X109228001Y-60344000D02*
X109228000Y-112344000D01*
X135228000Y-60344000D02*
X109228001Y-60344000D01*
X135227999Y-112344000D02*
X135228000Y-60344000D01*
X118428000Y-110514000D02*
X126428000Y-110514000D01*
X118428000Y-112344000D02*
X118428000Y-110514000D01*
X129428000Y-61094000D02*
X127278000Y-61094000D01*
X127278000Y-61094000D02*
X127278000Y-65394000D01*
X127278000Y-65394000D02*
X125878000Y-65394000D01*
X125878000Y-65394000D02*
X125878000Y-61094000D01*
X125878000Y-61094000D02*
X124278000Y-61094000D01*
X124278000Y-61094000D02*
X124278000Y-65344000D01*
X124278000Y-65344000D02*
X122678000Y-65344000D01*
X122678000Y-65344000D02*
X122678000Y-61094000D01*
X122678000Y-61094000D02*
X121128000Y-61094000D01*
X121128000Y-61094000D02*
X121128000Y-65394000D01*
X121128000Y-65394000D02*
X119678000Y-65394000D01*
X119678000Y-65394000D02*
X119678000Y-61144000D01*
X119678000Y-61144000D02*
X118228000Y-61144000D01*
X118228000Y-61144000D02*
X118228000Y-67394000D01*
X118228000Y-67394000D02*
X118228000Y-66894000D01*
X118228000Y-66894000D02*
X126728000Y-66894000D01*
X129428000Y-61094000D02*
X130628000Y-61094000D01*
%TD*%
M02*
