%TF.GenerationSoftware,KiCad,Pcbnew,(5.1.6)-1*%
%TF.CreationDate,2020-11-01T08:40:04-08:00*%
%TF.ProjectId,CentralController,43656e74-7261-46c4-936f-6e74726f6c6c,rev?*%
%TF.SameCoordinates,Original*%
%TF.FileFunction,Legend,Bot*%
%TF.FilePolarity,Positive*%
%FSLAX46Y46*%
G04 Gerber Fmt 4.6, Leading zero omitted, Abs format (unit mm)*
G04 Created by KiCad (PCBNEW (5.1.6)-1) date 2020-11-01 08:40:04*
%MOMM*%
%LPD*%
G01*
G04 APERTURE LIST*
%ADD10C,0.150000*%
G04 APERTURE END LIST*
D10*
X130052380Y-82880952D02*
X130766666Y-82880952D01*
X130909523Y-82833333D01*
X131004761Y-82738095D01*
X131052380Y-82595238D01*
X131052380Y-82500000D01*
X131052380Y-83833333D02*
X131052380Y-83357142D01*
X130052380Y-83357142D01*
X130957142Y-84738095D02*
X131004761Y-84690476D01*
X131052380Y-84547619D01*
X131052380Y-84452380D01*
X131004761Y-84309523D01*
X130909523Y-84214285D01*
X130814285Y-84166666D01*
X130623809Y-84119047D01*
X130480952Y-84119047D01*
X130290476Y-84166666D01*
X130195238Y-84214285D01*
X130100000Y-84309523D01*
X130052380Y-84452380D01*
X130052380Y-84547619D01*
X130100000Y-84690476D01*
X130147619Y-84738095D01*
X130052380Y-85452380D02*
X130766666Y-85452380D01*
X130909523Y-85404761D01*
X131004761Y-85309523D01*
X131052380Y-85166666D01*
X131052380Y-85071428D01*
X131052380Y-86404761D02*
X131052380Y-85928571D01*
X130052380Y-85928571D01*
X130957142Y-87309523D02*
X131004761Y-87261904D01*
X131052380Y-87119047D01*
X131052380Y-87023809D01*
X131004761Y-86880952D01*
X130909523Y-86785714D01*
X130814285Y-86738095D01*
X130623809Y-86690476D01*
X130480952Y-86690476D01*
X130290476Y-86738095D01*
X130195238Y-86785714D01*
X130100000Y-86880952D01*
X130052380Y-87023809D01*
X130052380Y-87119047D01*
X130100000Y-87261904D01*
X130147619Y-87309523D01*
X130052380Y-88023809D02*
X130766666Y-88023809D01*
X130909523Y-87976190D01*
X131004761Y-87880952D01*
X131052380Y-87738095D01*
X131052380Y-87642857D01*
X131052380Y-88976190D02*
X131052380Y-88500000D01*
X130052380Y-88500000D01*
X130957142Y-89880952D02*
X131004761Y-89833333D01*
X131052380Y-89690476D01*
X131052380Y-89595238D01*
X131004761Y-89452380D01*
X130909523Y-89357142D01*
X130814285Y-89309523D01*
X130623809Y-89261904D01*
X130480952Y-89261904D01*
X130290476Y-89309523D01*
X130195238Y-89357142D01*
X130100000Y-89452380D01*
X130052380Y-89595238D01*
X130052380Y-89690476D01*
X130100000Y-89833333D01*
X130147619Y-89880952D01*
X130052380Y-90595238D02*
X130766666Y-90595238D01*
X130909523Y-90547619D01*
X131004761Y-90452380D01*
X131052380Y-90309523D01*
X131052380Y-90214285D01*
X131052380Y-91547619D02*
X131052380Y-91071428D01*
X130052380Y-91071428D01*
X130957142Y-92452380D02*
X131004761Y-92404761D01*
X131052380Y-92261904D01*
X131052380Y-92166666D01*
X131004761Y-92023809D01*
X130909523Y-91928571D01*
X130814285Y-91880952D01*
X130623809Y-91833333D01*
X130480952Y-91833333D01*
X130290476Y-91880952D01*
X130195238Y-91928571D01*
X130100000Y-92023809D01*
X130052380Y-92166666D01*
X130052380Y-92261904D01*
X130100000Y-92404761D01*
X130147619Y-92452380D01*
M02*
