%TF.GenerationSoftware,KiCad,Pcbnew,(5.1.6)-1*%
%TF.CreationDate,2020-09-09T14:29:39-07:00*%
%TF.ProjectId,DigitController,44696769-7443-46f6-9e74-726f6c6c6572,rev?*%
%TF.SameCoordinates,Original*%
%TF.FileFunction,Paste,Top*%
%TF.FilePolarity,Positive*%
%FSLAX46Y46*%
G04 Gerber Fmt 4.6, Leading zero omitted, Abs format (unit mm)*
G04 Created by KiCad (PCBNEW (5.1.6)-1) date 2020-09-09 14:29:39*
%MOMM*%
%LPD*%
G01*
G04 APERTURE LIST*
%ADD10R,1.600000X0.550000*%
%ADD11R,0.550000X1.600000*%
%ADD12R,1.600000X1.500000*%
G04 APERTURE END LIST*
D10*
%TO.C,U1*%
X79350000Y-92900000D03*
X79350000Y-93700000D03*
X79350000Y-94500000D03*
X79350000Y-95300000D03*
X79350000Y-96100000D03*
X79350000Y-96900000D03*
X79350000Y-97700000D03*
X79350000Y-98500000D03*
D11*
X77900000Y-99950000D03*
X77100000Y-99950000D03*
X76300000Y-99950000D03*
X75500000Y-99950000D03*
X74700000Y-99950000D03*
X73900000Y-99950000D03*
X73100000Y-99950000D03*
X72300000Y-99950000D03*
D10*
X70850000Y-98500000D03*
X70850000Y-97700000D03*
X70850000Y-96900000D03*
X70850000Y-96100000D03*
X70850000Y-95300000D03*
X70850000Y-94500000D03*
X70850000Y-93700000D03*
X70850000Y-92900000D03*
D11*
X72300000Y-91450000D03*
X73100000Y-91450000D03*
X73900000Y-91450000D03*
X74700000Y-91450000D03*
X75500000Y-91450000D03*
X76300000Y-91450000D03*
X77100000Y-91450000D03*
X77900000Y-91450000D03*
%TD*%
%TO.C,R2*%
G36*
G01*
X79025000Y-103675000D02*
X79025000Y-104925000D01*
G75*
G02*
X78775000Y-105175000I-250000J0D01*
G01*
X77850000Y-105175000D01*
G75*
G02*
X77600000Y-104925000I0J250000D01*
G01*
X77600000Y-103675000D01*
G75*
G02*
X77850000Y-103425000I250000J0D01*
G01*
X78775000Y-103425000D01*
G75*
G02*
X79025000Y-103675000I0J-250000D01*
G01*
G37*
G36*
G01*
X82000000Y-103675000D02*
X82000000Y-104925000D01*
G75*
G02*
X81750000Y-105175000I-250000J0D01*
G01*
X80825000Y-105175000D01*
G75*
G02*
X80575000Y-104925000I0J250000D01*
G01*
X80575000Y-103675000D01*
G75*
G02*
X80825000Y-103425000I250000J0D01*
G01*
X81750000Y-103425000D01*
G75*
G02*
X82000000Y-103675000I0J-250000D01*
G01*
G37*
%TD*%
%TO.C,R1*%
G36*
G01*
X85375000Y-94625000D02*
X85375000Y-93375000D01*
G75*
G02*
X85625000Y-93125000I250000J0D01*
G01*
X86550000Y-93125000D01*
G75*
G02*
X86800000Y-93375000I0J-250000D01*
G01*
X86800000Y-94625000D01*
G75*
G02*
X86550000Y-94875000I-250000J0D01*
G01*
X85625000Y-94875000D01*
G75*
G02*
X85375000Y-94625000I0J250000D01*
G01*
G37*
G36*
G01*
X82400000Y-94625000D02*
X82400000Y-93375000D01*
G75*
G02*
X82650000Y-93125000I250000J0D01*
G01*
X83575000Y-93125000D01*
G75*
G02*
X83825000Y-93375000I0J-250000D01*
G01*
X83825000Y-94625000D01*
G75*
G02*
X83575000Y-94875000I-250000J0D01*
G01*
X82650000Y-94875000D01*
G75*
G02*
X82400000Y-94625000I0J250000D01*
G01*
G37*
%TD*%
D12*
%TO.C,D1*%
X77900000Y-102100000D03*
X82500000Y-102100000D03*
%TD*%
%TO.C,C4*%
G36*
G01*
X63225000Y-93812500D02*
X61975000Y-93812500D01*
G75*
G02*
X61725000Y-93562500I0J250000D01*
G01*
X61725000Y-92637500D01*
G75*
G02*
X61975000Y-92387500I250000J0D01*
G01*
X63225000Y-92387500D01*
G75*
G02*
X63475000Y-92637500I0J-250000D01*
G01*
X63475000Y-93562500D01*
G75*
G02*
X63225000Y-93812500I-250000J0D01*
G01*
G37*
G36*
G01*
X63225000Y-96787500D02*
X61975000Y-96787500D01*
G75*
G02*
X61725000Y-96537500I0J250000D01*
G01*
X61725000Y-95612500D01*
G75*
G02*
X61975000Y-95362500I250000J0D01*
G01*
X63225000Y-95362500D01*
G75*
G02*
X63475000Y-95612500I0J-250000D01*
G01*
X63475000Y-96537500D01*
G75*
G02*
X63225000Y-96787500I-250000J0D01*
G01*
G37*
%TD*%
%TO.C,C3*%
G36*
G01*
X61975000Y-89175000D02*
X63225000Y-89175000D01*
G75*
G02*
X63475000Y-89425000I0J-250000D01*
G01*
X63475000Y-90350000D01*
G75*
G02*
X63225000Y-90600000I-250000J0D01*
G01*
X61975000Y-90600000D01*
G75*
G02*
X61725000Y-90350000I0J250000D01*
G01*
X61725000Y-89425000D01*
G75*
G02*
X61975000Y-89175000I250000J0D01*
G01*
G37*
G36*
G01*
X61975000Y-86200000D02*
X63225000Y-86200000D01*
G75*
G02*
X63475000Y-86450000I0J-250000D01*
G01*
X63475000Y-87375000D01*
G75*
G02*
X63225000Y-87625000I-250000J0D01*
G01*
X61975000Y-87625000D01*
G75*
G02*
X61725000Y-87375000I0J250000D01*
G01*
X61725000Y-86450000D01*
G75*
G02*
X61975000Y-86200000I250000J0D01*
G01*
G37*
%TD*%
%TO.C,C2*%
G36*
G01*
X71525000Y-84375000D02*
X71525000Y-85625000D01*
G75*
G02*
X71275000Y-85875000I-250000J0D01*
G01*
X70350000Y-85875000D01*
G75*
G02*
X70100000Y-85625000I0J250000D01*
G01*
X70100000Y-84375000D01*
G75*
G02*
X70350000Y-84125000I250000J0D01*
G01*
X71275000Y-84125000D01*
G75*
G02*
X71525000Y-84375000I0J-250000D01*
G01*
G37*
G36*
G01*
X74500000Y-84375000D02*
X74500000Y-85625000D01*
G75*
G02*
X74250000Y-85875000I-250000J0D01*
G01*
X73325000Y-85875000D01*
G75*
G02*
X73075000Y-85625000I0J250000D01*
G01*
X73075000Y-84375000D01*
G75*
G02*
X73325000Y-84125000I250000J0D01*
G01*
X74250000Y-84125000D01*
G75*
G02*
X74500000Y-84375000I0J-250000D01*
G01*
G37*
%TD*%
%TO.C,C1*%
G36*
G01*
X85375000Y-96925000D02*
X85375000Y-95675000D01*
G75*
G02*
X85625000Y-95425000I250000J0D01*
G01*
X86550000Y-95425000D01*
G75*
G02*
X86800000Y-95675000I0J-250000D01*
G01*
X86800000Y-96925000D01*
G75*
G02*
X86550000Y-97175000I-250000J0D01*
G01*
X85625000Y-97175000D01*
G75*
G02*
X85375000Y-96925000I0J250000D01*
G01*
G37*
G36*
G01*
X82400000Y-96925000D02*
X82400000Y-95675000D01*
G75*
G02*
X82650000Y-95425000I250000J0D01*
G01*
X83575000Y-95425000D01*
G75*
G02*
X83825000Y-95675000I0J-250000D01*
G01*
X83825000Y-96925000D01*
G75*
G02*
X83575000Y-97175000I-250000J0D01*
G01*
X82650000Y-97175000D01*
G75*
G02*
X82400000Y-96925000I0J250000D01*
G01*
G37*
%TD*%
M02*
