%TF.GenerationSoftware,KiCad,Pcbnew,(5.1.6)-1*%
%TF.CreationDate,2020-09-09T14:29:39-07:00*%
%TF.ProjectId,DigitController,44696769-7443-46f6-9e74-726f6c6c6572,rev?*%
%TF.SameCoordinates,Original*%
%TF.FileFunction,Copper,L1,Top*%
%TF.FilePolarity,Positive*%
%FSLAX46Y46*%
G04 Gerber Fmt 4.6, Leading zero omitted, Abs format (unit mm)*
G04 Created by KiCad (PCBNEW (5.1.6)-1) date 2020-09-09 14:29:39*
%MOMM*%
%LPD*%
G01*
G04 APERTURE LIST*
%TA.AperFunction,ComponentPad*%
%ADD10C,1.500000*%
%TD*%
%TA.AperFunction,SMDPad,CuDef*%
%ADD11R,1.600000X0.550000*%
%TD*%
%TA.AperFunction,SMDPad,CuDef*%
%ADD12R,0.550000X1.600000*%
%TD*%
%TA.AperFunction,ComponentPad*%
%ADD13O,1.700000X1.700000*%
%TD*%
%TA.AperFunction,ComponentPad*%
%ADD14R,1.700000X1.700000*%
%TD*%
%TA.AperFunction,ComponentPad*%
%ADD15C,0.800000*%
%TD*%
%TA.AperFunction,ComponentPad*%
%ADD16C,5.000000*%
%TD*%
%TA.AperFunction,SMDPad,CuDef*%
%ADD17R,1.600000X1.500000*%
%TD*%
%TA.AperFunction,ViaPad*%
%ADD18C,0.800000*%
%TD*%
%TA.AperFunction,Conductor*%
%ADD19C,0.250000*%
%TD*%
%TA.AperFunction,Conductor*%
%ADD20C,0.254000*%
%TD*%
G04 APERTURE END LIST*
D10*
%TO.P,Y1,2*%
%TO.N,/XTAL2*%
X66800000Y-94000000D03*
%TO.P,Y1,1*%
%TO.N,/XTAL1*%
X66800000Y-89000000D03*
%TD*%
D11*
%TO.P,U1,32*%
%TO.N,Net-(U1-Pad32)*%
X79350000Y-92900000D03*
%TO.P,U1,31*%
%TO.N,/FTDI_RX*%
X79350000Y-93700000D03*
%TO.P,U1,30*%
%TO.N,/FTDI_TX*%
X79350000Y-94500000D03*
%TO.P,U1,29*%
%TO.N,/RESET*%
X79350000Y-95300000D03*
%TO.P,U1,28*%
%TO.N,/SCL*%
X79350000Y-96100000D03*
%TO.P,U1,27*%
%TO.N,/SDA*%
X79350000Y-96900000D03*
%TO.P,U1,26*%
%TO.N,Net-(U1-Pad26)*%
X79350000Y-97700000D03*
%TO.P,U1,25*%
%TO.N,Net-(U1-Pad25)*%
X79350000Y-98500000D03*
D12*
%TO.P,U1,24*%
%TO.N,/LED*%
X77900000Y-99950000D03*
%TO.P,U1,23*%
%TO.N,Net-(U1-Pad23)*%
X77100000Y-99950000D03*
%TO.P,U1,22*%
%TO.N,Net-(U1-Pad22)*%
X76300000Y-99950000D03*
%TO.P,U1,21*%
%TO.N,/GND*%
X75500000Y-99950000D03*
%TO.P,U1,20*%
%TO.N,Net-(U1-Pad20)*%
X74700000Y-99950000D03*
%TO.P,U1,19*%
%TO.N,Net-(U1-Pad19)*%
X73900000Y-99950000D03*
%TO.P,U1,18*%
%TO.N,Net-(U1-Pad18)*%
X73100000Y-99950000D03*
%TO.P,U1,17*%
%TO.N,/SEG_H*%
X72300000Y-99950000D03*
D11*
%TO.P,U1,16*%
%TO.N,/SEG_G*%
X70850000Y-98500000D03*
%TO.P,U1,15*%
%TO.N,/SEG_D*%
X70850000Y-97700000D03*
%TO.P,U1,14*%
%TO.N,/SEG_C*%
X70850000Y-96900000D03*
%TO.P,U1,13*%
%TO.N,/SEG_E*%
X70850000Y-96100000D03*
%TO.P,U1,12*%
%TO.N,/SEG_F*%
X70850000Y-95300000D03*
%TO.P,U1,11*%
%TO.N,Net-(U1-Pad11)*%
X70850000Y-94500000D03*
%TO.P,U1,10*%
%TO.N,Net-(U1-Pad10)*%
X70850000Y-93700000D03*
%TO.P,U1,9*%
%TO.N,Net-(U1-Pad9)*%
X70850000Y-92900000D03*
D12*
%TO.P,U1,8*%
%TO.N,/XTAL2*%
X72300000Y-91450000D03*
%TO.P,U1,7*%
%TO.N,/XTAL1*%
X73100000Y-91450000D03*
%TO.P,U1,6*%
%TO.N,/5V*%
X73900000Y-91450000D03*
%TO.P,U1,5*%
%TO.N,/GND*%
X74700000Y-91450000D03*
%TO.P,U1,4*%
%TO.N,/5V*%
X75500000Y-91450000D03*
%TO.P,U1,3*%
%TO.N,/GND*%
X76300000Y-91450000D03*
%TO.P,U1,2*%
%TO.N,/SEG_A*%
X77100000Y-91450000D03*
%TO.P,U1,1*%
%TO.N,/SEG_B*%
X77900000Y-91450000D03*
%TD*%
%TO.P,R2,2*%
%TO.N,/GND*%
%TA.AperFunction,SMDPad,CuDef*%
G36*
G01*
X79025000Y-103675000D02*
X79025000Y-104925000D01*
G75*
G02*
X78775000Y-105175000I-250000J0D01*
G01*
X77850000Y-105175000D01*
G75*
G02*
X77600000Y-104925000I0J250000D01*
G01*
X77600000Y-103675000D01*
G75*
G02*
X77850000Y-103425000I250000J0D01*
G01*
X78775000Y-103425000D01*
G75*
G02*
X79025000Y-103675000I0J-250000D01*
G01*
G37*
%TD.AperFunction*%
%TO.P,R2,1*%
%TO.N,Net-(D1-Pad1)*%
%TA.AperFunction,SMDPad,CuDef*%
G36*
G01*
X82000000Y-103675000D02*
X82000000Y-104925000D01*
G75*
G02*
X81750000Y-105175000I-250000J0D01*
G01*
X80825000Y-105175000D01*
G75*
G02*
X80575000Y-104925000I0J250000D01*
G01*
X80575000Y-103675000D01*
G75*
G02*
X80825000Y-103425000I250000J0D01*
G01*
X81750000Y-103425000D01*
G75*
G02*
X82000000Y-103675000I0J-250000D01*
G01*
G37*
%TD.AperFunction*%
%TD*%
%TO.P,R1,2*%
%TO.N,/5V*%
%TA.AperFunction,SMDPad,CuDef*%
G36*
G01*
X85375000Y-94625000D02*
X85375000Y-93375000D01*
G75*
G02*
X85625000Y-93125000I250000J0D01*
G01*
X86550000Y-93125000D01*
G75*
G02*
X86800000Y-93375000I0J-250000D01*
G01*
X86800000Y-94625000D01*
G75*
G02*
X86550000Y-94875000I-250000J0D01*
G01*
X85625000Y-94875000D01*
G75*
G02*
X85375000Y-94625000I0J250000D01*
G01*
G37*
%TD.AperFunction*%
%TO.P,R1,1*%
%TO.N,/RESET*%
%TA.AperFunction,SMDPad,CuDef*%
G36*
G01*
X82400000Y-94625000D02*
X82400000Y-93375000D01*
G75*
G02*
X82650000Y-93125000I250000J0D01*
G01*
X83575000Y-93125000D01*
G75*
G02*
X83825000Y-93375000I0J-250000D01*
G01*
X83825000Y-94625000D01*
G75*
G02*
X83575000Y-94875000I-250000J0D01*
G01*
X82650000Y-94875000D01*
G75*
G02*
X82400000Y-94625000I0J250000D01*
G01*
G37*
%TD.AperFunction*%
%TD*%
D13*
%TO.P,J5,4*%
%TO.N,/SEG_C*%
X67780000Y-107800000D03*
%TO.P,J5,3*%
%TO.N,/SEG_D*%
X70320000Y-107800000D03*
%TO.P,J5,2*%
%TO.N,/SEG_G*%
X72860000Y-107800000D03*
D14*
%TO.P,J5,1*%
%TO.N,/SEG_H*%
X75400000Y-107800000D03*
%TD*%
D13*
%TO.P,J4,2*%
%TO.N,/SEG_F*%
X62000000Y-98960000D03*
D14*
%TO.P,J4,1*%
%TO.N,/SEG_E*%
X62000000Y-101500000D03*
%TD*%
D13*
%TO.P,J3,2*%
%TO.N,/SEG_A*%
X83360000Y-90200000D03*
D14*
%TO.P,J3,1*%
%TO.N,/SEG_B*%
X85900000Y-90200000D03*
%TD*%
D13*
%TO.P,J2,6*%
%TO.N,/GND*%
X69400000Y-82000000D03*
%TO.P,J2,5*%
%TO.N,Net-(J2-Pad5)*%
X71940000Y-82000000D03*
%TO.P,J2,4*%
%TO.N,/5V*%
X74480000Y-82000000D03*
%TO.P,J2,3*%
%TO.N,/FTDI_TX*%
X77020000Y-82000000D03*
%TO.P,J2,2*%
%TO.N,/FTDI_RX*%
X79560000Y-82000000D03*
D14*
%TO.P,J2,1*%
%TO.N,/FTDI_DTR*%
X82100000Y-82000000D03*
%TD*%
D13*
%TO.P,J1,4*%
%TO.N,/GND*%
X71580000Y-88600000D03*
%TO.P,J1,3*%
%TO.N,/5V*%
X74120000Y-88600000D03*
%TO.P,J1,2*%
%TO.N,/SCL*%
X76660000Y-88600000D03*
D14*
%TO.P,J1,1*%
%TO.N,/SDA*%
X79200000Y-88600000D03*
%TD*%
D15*
%TO.P,H4,1*%
%TO.N,/GND*%
X88450825Y-105774175D03*
X87125000Y-105225000D03*
X85799175Y-105774175D03*
X85250000Y-107100000D03*
X85799175Y-108425825D03*
X87125000Y-108975000D03*
X88450825Y-108425825D03*
X89000000Y-107100000D03*
D16*
X87125000Y-107100000D03*
%TD*%
D15*
%TO.P,H3,1*%
%TO.N,/GND*%
X64225825Y-105774175D03*
X62900000Y-105225000D03*
X61574175Y-105774175D03*
X61025000Y-107100000D03*
X61574175Y-108425825D03*
X62900000Y-108975000D03*
X64225825Y-108425825D03*
X64775000Y-107100000D03*
D16*
X62900000Y-107100000D03*
%TD*%
D15*
%TO.P,H2,1*%
%TO.N,/GND*%
X88425825Y-81574175D03*
X87100000Y-81025000D03*
X85774175Y-81574175D03*
X85225000Y-82900000D03*
X85774175Y-84225825D03*
X87100000Y-84775000D03*
X88425825Y-84225825D03*
X88975000Y-82900000D03*
D16*
X87100000Y-82900000D03*
%TD*%
D15*
%TO.P,H1,1*%
%TO.N,/GND*%
X64225825Y-81574175D03*
X62900000Y-81025000D03*
X61574175Y-81574175D03*
X61025000Y-82900000D03*
X61574175Y-84225825D03*
X62900000Y-84775000D03*
X64225825Y-84225825D03*
X64775000Y-82900000D03*
D16*
X62900000Y-82900000D03*
%TD*%
D17*
%TO.P,D1,2*%
%TO.N,/LED*%
X77900000Y-102100000D03*
%TO.P,D1,1*%
%TO.N,Net-(D1-Pad1)*%
X82500000Y-102100000D03*
%TD*%
%TO.P,C4,2*%
%TO.N,/GND*%
%TA.AperFunction,SMDPad,CuDef*%
G36*
G01*
X63225000Y-93812500D02*
X61975000Y-93812500D01*
G75*
G02*
X61725000Y-93562500I0J250000D01*
G01*
X61725000Y-92637500D01*
G75*
G02*
X61975000Y-92387500I250000J0D01*
G01*
X63225000Y-92387500D01*
G75*
G02*
X63475000Y-92637500I0J-250000D01*
G01*
X63475000Y-93562500D01*
G75*
G02*
X63225000Y-93812500I-250000J0D01*
G01*
G37*
%TD.AperFunction*%
%TO.P,C4,1*%
%TO.N,/XTAL2*%
%TA.AperFunction,SMDPad,CuDef*%
G36*
G01*
X63225000Y-96787500D02*
X61975000Y-96787500D01*
G75*
G02*
X61725000Y-96537500I0J250000D01*
G01*
X61725000Y-95612500D01*
G75*
G02*
X61975000Y-95362500I250000J0D01*
G01*
X63225000Y-95362500D01*
G75*
G02*
X63475000Y-95612500I0J-250000D01*
G01*
X63475000Y-96537500D01*
G75*
G02*
X63225000Y-96787500I-250000J0D01*
G01*
G37*
%TD.AperFunction*%
%TD*%
%TO.P,C3,2*%
%TO.N,/GND*%
%TA.AperFunction,SMDPad,CuDef*%
G36*
G01*
X61975000Y-89175000D02*
X63225000Y-89175000D01*
G75*
G02*
X63475000Y-89425000I0J-250000D01*
G01*
X63475000Y-90350000D01*
G75*
G02*
X63225000Y-90600000I-250000J0D01*
G01*
X61975000Y-90600000D01*
G75*
G02*
X61725000Y-90350000I0J250000D01*
G01*
X61725000Y-89425000D01*
G75*
G02*
X61975000Y-89175000I250000J0D01*
G01*
G37*
%TD.AperFunction*%
%TO.P,C3,1*%
%TO.N,/XTAL1*%
%TA.AperFunction,SMDPad,CuDef*%
G36*
G01*
X61975000Y-86200000D02*
X63225000Y-86200000D01*
G75*
G02*
X63475000Y-86450000I0J-250000D01*
G01*
X63475000Y-87375000D01*
G75*
G02*
X63225000Y-87625000I-250000J0D01*
G01*
X61975000Y-87625000D01*
G75*
G02*
X61725000Y-87375000I0J250000D01*
G01*
X61725000Y-86450000D01*
G75*
G02*
X61975000Y-86200000I250000J0D01*
G01*
G37*
%TD.AperFunction*%
%TD*%
%TO.P,C2,2*%
%TO.N,/GND*%
%TA.AperFunction,SMDPad,CuDef*%
G36*
G01*
X71525000Y-84375000D02*
X71525000Y-85625000D01*
G75*
G02*
X71275000Y-85875000I-250000J0D01*
G01*
X70350000Y-85875000D01*
G75*
G02*
X70100000Y-85625000I0J250000D01*
G01*
X70100000Y-84375000D01*
G75*
G02*
X70350000Y-84125000I250000J0D01*
G01*
X71275000Y-84125000D01*
G75*
G02*
X71525000Y-84375000I0J-250000D01*
G01*
G37*
%TD.AperFunction*%
%TO.P,C2,1*%
%TO.N,/5V*%
%TA.AperFunction,SMDPad,CuDef*%
G36*
G01*
X74500000Y-84375000D02*
X74500000Y-85625000D01*
G75*
G02*
X74250000Y-85875000I-250000J0D01*
G01*
X73325000Y-85875000D01*
G75*
G02*
X73075000Y-85625000I0J250000D01*
G01*
X73075000Y-84375000D01*
G75*
G02*
X73325000Y-84125000I250000J0D01*
G01*
X74250000Y-84125000D01*
G75*
G02*
X74500000Y-84375000I0J-250000D01*
G01*
G37*
%TD.AperFunction*%
%TD*%
%TO.P,C1,2*%
%TO.N,/FTDI_DTR*%
%TA.AperFunction,SMDPad,CuDef*%
G36*
G01*
X85375000Y-96925000D02*
X85375000Y-95675000D01*
G75*
G02*
X85625000Y-95425000I250000J0D01*
G01*
X86550000Y-95425000D01*
G75*
G02*
X86800000Y-95675000I0J-250000D01*
G01*
X86800000Y-96925000D01*
G75*
G02*
X86550000Y-97175000I-250000J0D01*
G01*
X85625000Y-97175000D01*
G75*
G02*
X85375000Y-96925000I0J250000D01*
G01*
G37*
%TD.AperFunction*%
%TO.P,C1,1*%
%TO.N,/RESET*%
%TA.AperFunction,SMDPad,CuDef*%
G36*
G01*
X82400000Y-96925000D02*
X82400000Y-95675000D01*
G75*
G02*
X82650000Y-95425000I250000J0D01*
G01*
X83575000Y-95425000D01*
G75*
G02*
X83825000Y-95675000I0J-250000D01*
G01*
X83825000Y-96925000D01*
G75*
G02*
X83575000Y-97175000I-250000J0D01*
G01*
X82650000Y-97175000D01*
G75*
G02*
X82400000Y-96925000I0J250000D01*
G01*
G37*
%TD.AperFunction*%
%TD*%
D18*
%TO.N,/5V*%
X82100000Y-98300000D03*
%TO.N,/SDA*%
X77100000Y-97200000D03*
%TO.N,/SCL*%
X77100000Y-96200000D03*
%TO.N,/FTDI_TX*%
X77100000Y-95200000D03*
%TO.N,/FTDI_RX*%
X77100000Y-94200000D03*
X77850000Y-85400000D03*
%TO.N,/FTDI_TX*%
X76500000Y-85400000D03*
%TO.N,/SCL*%
X79250000Y-85400000D03*
%TO.N,/SDA*%
X80600000Y-85400000D03*
%TO.N,/5V*%
X77050000Y-98223002D03*
%TO.N,/GND*%
X74000000Y-93500000D03*
X73950000Y-94600000D03*
X73950000Y-96700000D03*
X73950000Y-97800000D03*
%TD*%
D19*
%TO.N,/FTDI_DTR*%
X87125010Y-89140008D02*
X86385002Y-88400000D01*
X86087500Y-96300000D02*
X87125010Y-95262490D01*
X87125010Y-95262490D02*
X87125010Y-89140008D01*
X86385002Y-88400000D02*
X83300000Y-88400000D01*
X82100000Y-87200000D02*
X82100000Y-82000000D01*
X83300000Y-88400000D02*
X82100000Y-87200000D01*
%TO.N,/RESET*%
X83112500Y-96300000D02*
X83112500Y-94000000D01*
X81812500Y-95300000D02*
X79350000Y-95300000D01*
X83112500Y-94000000D02*
X81812500Y-95300000D01*
X82112500Y-95300000D02*
X79350000Y-95300000D01*
X83112500Y-96300000D02*
X82112500Y-95300000D01*
%TO.N,/5V*%
X74480000Y-84307500D02*
X73787500Y-85000000D01*
X74480000Y-82000000D02*
X74480000Y-84307500D01*
X73787500Y-88267500D02*
X74120000Y-88600000D01*
X73787500Y-85000000D02*
X73787500Y-88267500D01*
X73900000Y-88820000D02*
X73900000Y-91450000D01*
X74120000Y-88600000D02*
X73900000Y-88820000D01*
X77050000Y-98223002D02*
X77050000Y-98223002D01*
X85049990Y-95037510D02*
X86087500Y-94000000D01*
X83013190Y-98300000D02*
X85049990Y-96263200D01*
X85049990Y-96263200D02*
X85049990Y-95037510D01*
X82100000Y-98300000D02*
X83013190Y-98300000D01*
X75500000Y-92310002D02*
X75500000Y-91450000D01*
X75500000Y-94123002D02*
X75500000Y-91450000D01*
X74298001Y-95325001D02*
X75500000Y-94123002D01*
X73601999Y-95325001D02*
X74298001Y-95325001D01*
X73224999Y-94948001D02*
X73601999Y-95325001D01*
X73224999Y-93201999D02*
X73224999Y-94948001D01*
X73900000Y-92526998D02*
X73224999Y-93201999D01*
X73900000Y-91450000D02*
X73900000Y-92526998D01*
X74675001Y-95702001D02*
X74675001Y-95848003D01*
X74675001Y-95848003D02*
X77050000Y-98223002D01*
X74298001Y-95325001D02*
X74675001Y-95702001D01*
%TO.N,/XTAL1*%
X64712500Y-86912500D02*
X66800000Y-89000000D01*
X62600000Y-86912500D02*
X64712500Y-86912500D01*
X73100000Y-90589998D02*
X73100000Y-91450000D01*
X68124999Y-90324999D02*
X72835001Y-90324999D01*
X72835001Y-90324999D02*
X73100000Y-90589998D01*
X66800000Y-89000000D02*
X68124999Y-90324999D01*
%TO.N,/XTAL2*%
X64725000Y-96075000D02*
X66800000Y-94000000D01*
X62600000Y-96075000D02*
X64725000Y-96075000D01*
X69350000Y-91450000D02*
X72300000Y-91450000D01*
X66800000Y-94000000D02*
X69350000Y-91450000D01*
%TO.N,Net-(D1-Pad1)*%
X82500000Y-103087500D02*
X81287500Y-104300000D01*
X82500000Y-102100000D02*
X82500000Y-103087500D01*
%TO.N,/LED*%
X77900000Y-102100000D02*
X77900000Y-99950000D01*
%TO.N,/SCL*%
X79250000Y-86010000D02*
X79250000Y-85400000D01*
X76660000Y-88600000D02*
X79250000Y-86010000D01*
X79250000Y-96200000D02*
X79350000Y-96100000D01*
X77100000Y-96200000D02*
X79250000Y-96200000D01*
%TO.N,/SDA*%
X79200000Y-86800000D02*
X80600000Y-85400000D01*
X79200000Y-88600000D02*
X79200000Y-86800000D01*
X77400000Y-96900000D02*
X79350000Y-96900000D01*
X77100000Y-97200000D02*
X77400000Y-96900000D01*
%TO.N,/FTDI_RX*%
X79560000Y-83690000D02*
X77850000Y-85400000D01*
X79560000Y-82000000D02*
X79560000Y-83690000D01*
X77600000Y-93700000D02*
X79350000Y-93700000D01*
X77100000Y-94200000D02*
X77600000Y-93700000D01*
%TO.N,/FTDI_TX*%
X77020000Y-84880000D02*
X76500000Y-85400000D01*
X77020000Y-82000000D02*
X77020000Y-84880000D01*
X78489998Y-94500000D02*
X79350000Y-94500000D01*
X77789998Y-95200000D02*
X78489998Y-94500000D01*
X77100000Y-95200000D02*
X77789998Y-95200000D01*
%TO.N,/SEG_A*%
X77489998Y-90200000D02*
X83360000Y-90200000D01*
X77100000Y-90589998D02*
X77489998Y-90200000D01*
X77100000Y-91450000D02*
X77100000Y-90589998D01*
%TO.N,/SEG_B*%
X85099002Y-90200000D02*
X85900000Y-90200000D01*
X83849002Y-91450000D02*
X85099002Y-90200000D01*
X77900000Y-91450000D02*
X83849002Y-91450000D01*
%TO.N,/SEG_C*%
X68580998Y-107800000D02*
X69880998Y-106500000D01*
X67780000Y-107800000D02*
X68580998Y-107800000D01*
X70900000Y-106500000D02*
X70949970Y-106450030D01*
X69880998Y-106500000D02*
X70900000Y-106500000D01*
X70949970Y-106450030D02*
X70900000Y-106400060D01*
X70900000Y-106400060D02*
X70900000Y-101722830D01*
X70900000Y-101722830D02*
X69274989Y-100097819D01*
X69989998Y-96900000D02*
X70850000Y-96900000D01*
X69274989Y-97615009D02*
X69989998Y-96900000D01*
X69274989Y-100097819D02*
X69274989Y-97615009D01*
%TO.N,/SEG_D*%
X70320000Y-107800000D02*
X71399980Y-106720020D01*
X71399980Y-106720020D02*
X71399980Y-101586400D01*
X69989998Y-97700000D02*
X70850000Y-97700000D01*
X69724999Y-97964999D02*
X69989998Y-97700000D01*
X69724999Y-99911419D02*
X69724999Y-97964999D01*
X71399980Y-101586400D02*
X69724999Y-99911419D01*
%TO.N,/SEG_E*%
X69989998Y-96100000D02*
X70850000Y-96100000D01*
X68824979Y-97265019D02*
X69989998Y-96100000D01*
X68824979Y-97265019D02*
X68824979Y-97275021D01*
X64600000Y-101500000D02*
X62000000Y-101500000D01*
X68824979Y-97275021D02*
X64600000Y-101500000D01*
%TO.N,/SEG_F*%
X69989998Y-95300000D02*
X70850000Y-95300000D01*
X68374969Y-96915029D02*
X69989998Y-95300000D01*
X68374969Y-96915029D02*
X68374969Y-96925031D01*
X66340000Y-98960000D02*
X62000000Y-98960000D01*
X68374969Y-96925031D02*
X66340000Y-98960000D01*
%TO.N,/SEG_G*%
X70850000Y-100400010D02*
X70850000Y-98500000D01*
X71849990Y-101400000D02*
X70850000Y-100400010D01*
X72860000Y-107800000D02*
X71849990Y-106789990D01*
X71849990Y-106789990D02*
X71849990Y-101400000D01*
%TO.N,/SEG_H*%
X75400000Y-107800000D02*
X72300000Y-104700000D01*
X72300000Y-104700000D02*
X72300000Y-99950000D01*
%TO.N,/GND*%
X76224999Y-90324999D02*
X74964999Y-90324999D01*
X74964999Y-90324999D02*
X74700000Y-90589998D01*
X76300000Y-90400000D02*
X76224999Y-90324999D01*
X74700000Y-90589998D02*
X74700000Y-91450000D01*
X76300000Y-91450000D02*
X76300000Y-90400000D01*
X74700000Y-92800000D02*
X74000000Y-93500000D01*
X74700000Y-91450000D02*
X74700000Y-92800000D01*
X74000000Y-94550000D02*
X73950000Y-94600000D01*
X74000000Y-93500000D02*
X74000000Y-94550000D01*
X73950000Y-96700000D02*
X73950000Y-97800000D01*
X74210002Y-97800000D02*
X73950000Y-97800000D01*
X75500000Y-99089998D02*
X74210002Y-97800000D01*
X75500000Y-99950000D02*
X75500000Y-99089998D01*
%TD*%
D20*
%TO.N,/GND*%
G36*
X85076457Y-80696852D02*
G01*
X87100000Y-82720395D01*
X89123543Y-80696852D01*
X89099193Y-80660000D01*
X89340000Y-80660000D01*
X89340000Y-80900807D01*
X89303148Y-80876457D01*
X87279605Y-82900000D01*
X89303148Y-84923543D01*
X89340000Y-84899193D01*
X89340001Y-104860859D01*
X89262267Y-104783125D01*
X89148542Y-104896850D01*
X88872373Y-104478882D01*
X88327443Y-104188351D01*
X87736304Y-104009713D01*
X87121672Y-103949832D01*
X86507169Y-104011010D01*
X85916408Y-104190897D01*
X85377627Y-104478882D01*
X85101457Y-104896852D01*
X87125000Y-106920395D01*
X87139143Y-106906253D01*
X87318748Y-107085858D01*
X87304605Y-107100000D01*
X87318748Y-107114143D01*
X87139143Y-107293748D01*
X87125000Y-107279605D01*
X85101457Y-109303148D01*
X85125807Y-109340000D01*
X64899193Y-109340000D01*
X64923543Y-109303148D01*
X62900000Y-107279605D01*
X60876457Y-109303148D01*
X60900807Y-109340000D01*
X60660000Y-109340000D01*
X60660000Y-109099193D01*
X60696852Y-109123543D01*
X62720395Y-107100000D01*
X63079605Y-107100000D01*
X65103148Y-109123543D01*
X65521118Y-108847373D01*
X65811649Y-108302443D01*
X65990287Y-107711304D01*
X66050168Y-107096672D01*
X65988990Y-106482169D01*
X65809103Y-105891408D01*
X65521118Y-105352627D01*
X65103148Y-105076457D01*
X63079605Y-107100000D01*
X62720395Y-107100000D01*
X60696852Y-105076457D01*
X60660000Y-105100807D01*
X60660000Y-104896852D01*
X60876457Y-104896852D01*
X62900000Y-106920395D01*
X64923543Y-104896852D01*
X64647373Y-104478882D01*
X64102443Y-104188351D01*
X63511304Y-104009713D01*
X62896672Y-103949832D01*
X62282169Y-104011010D01*
X61691408Y-104190897D01*
X61152627Y-104478882D01*
X60876457Y-104896852D01*
X60660000Y-104896852D01*
X60660000Y-102753889D01*
X60698815Y-102801185D01*
X60795506Y-102880537D01*
X60905820Y-102939502D01*
X61025518Y-102975812D01*
X61150000Y-102988072D01*
X62850000Y-102988072D01*
X62974482Y-102975812D01*
X63094180Y-102939502D01*
X63204494Y-102880537D01*
X63301185Y-102801185D01*
X63380537Y-102704494D01*
X63439502Y-102594180D01*
X63475812Y-102474482D01*
X63488072Y-102350000D01*
X63488072Y-102260000D01*
X64562678Y-102260000D01*
X64600000Y-102263676D01*
X64637322Y-102260000D01*
X64637333Y-102260000D01*
X64748986Y-102249003D01*
X64892247Y-102205546D01*
X65024276Y-102134974D01*
X65140001Y-102040001D01*
X65163804Y-102010997D01*
X68514990Y-98659812D01*
X68514989Y-100060496D01*
X68511313Y-100097819D01*
X68514989Y-100135141D01*
X68514989Y-100135151D01*
X68525986Y-100246804D01*
X68568796Y-100387932D01*
X68569443Y-100390065D01*
X68640015Y-100522095D01*
X68679860Y-100570645D01*
X68734988Y-100637820D01*
X68763992Y-100661623D01*
X70140001Y-102037633D01*
X70140000Y-105740000D01*
X69918323Y-105740000D01*
X69880998Y-105736324D01*
X69843673Y-105740000D01*
X69843665Y-105740000D01*
X69732012Y-105750997D01*
X69588751Y-105794454D01*
X69456722Y-105865026D01*
X69340997Y-105959999D01*
X69317199Y-105988997D01*
X68686492Y-106619704D01*
X68483411Y-106484010D01*
X68213158Y-106372068D01*
X67926260Y-106315000D01*
X67633740Y-106315000D01*
X67346842Y-106372068D01*
X67076589Y-106484010D01*
X66833368Y-106646525D01*
X66626525Y-106853368D01*
X66464010Y-107096589D01*
X66352068Y-107366842D01*
X66295000Y-107653740D01*
X66295000Y-107946260D01*
X66352068Y-108233158D01*
X66464010Y-108503411D01*
X66626525Y-108746632D01*
X66833368Y-108953475D01*
X67076589Y-109115990D01*
X67346842Y-109227932D01*
X67633740Y-109285000D01*
X67926260Y-109285000D01*
X68213158Y-109227932D01*
X68483411Y-109115990D01*
X68726632Y-108953475D01*
X68933475Y-108746632D01*
X69050000Y-108572240D01*
X69166525Y-108746632D01*
X69373368Y-108953475D01*
X69616589Y-109115990D01*
X69886842Y-109227932D01*
X70173740Y-109285000D01*
X70466260Y-109285000D01*
X70753158Y-109227932D01*
X71023411Y-109115990D01*
X71266632Y-108953475D01*
X71473475Y-108746632D01*
X71590000Y-108572240D01*
X71706525Y-108746632D01*
X71913368Y-108953475D01*
X72156589Y-109115990D01*
X72426842Y-109227932D01*
X72713740Y-109285000D01*
X73006260Y-109285000D01*
X73293158Y-109227932D01*
X73563411Y-109115990D01*
X73806632Y-108953475D01*
X73938487Y-108821620D01*
X73960498Y-108894180D01*
X74019463Y-109004494D01*
X74098815Y-109101185D01*
X74195506Y-109180537D01*
X74305820Y-109239502D01*
X74425518Y-109275812D01*
X74550000Y-109288072D01*
X76250000Y-109288072D01*
X76374482Y-109275812D01*
X76494180Y-109239502D01*
X76604494Y-109180537D01*
X76701185Y-109101185D01*
X76780537Y-109004494D01*
X76839502Y-108894180D01*
X76875812Y-108774482D01*
X76888072Y-108650000D01*
X76888072Y-107103328D01*
X83974832Y-107103328D01*
X84036010Y-107717831D01*
X84215897Y-108308592D01*
X84503882Y-108847373D01*
X84921852Y-109123543D01*
X86945395Y-107100000D01*
X84921852Y-105076457D01*
X84503882Y-105352627D01*
X84213351Y-105897557D01*
X84034713Y-106488696D01*
X83974832Y-107103328D01*
X76888072Y-107103328D01*
X76888072Y-106950000D01*
X76875812Y-106825518D01*
X76839502Y-106705820D01*
X76780537Y-106595506D01*
X76701185Y-106498815D01*
X76604494Y-106419463D01*
X76494180Y-106360498D01*
X76374482Y-106324188D01*
X76250000Y-106311928D01*
X74986730Y-106311928D01*
X73849802Y-105175000D01*
X76961928Y-105175000D01*
X76974188Y-105299482D01*
X77010498Y-105419180D01*
X77069463Y-105529494D01*
X77148815Y-105626185D01*
X77245506Y-105705537D01*
X77355820Y-105764502D01*
X77475518Y-105800812D01*
X77600000Y-105813072D01*
X78026750Y-105810000D01*
X78185500Y-105651250D01*
X78185500Y-104427000D01*
X78439500Y-104427000D01*
X78439500Y-105651250D01*
X78598250Y-105810000D01*
X79025000Y-105813072D01*
X79149482Y-105800812D01*
X79269180Y-105764502D01*
X79379494Y-105705537D01*
X79476185Y-105626185D01*
X79555537Y-105529494D01*
X79614502Y-105419180D01*
X79650812Y-105299482D01*
X79663072Y-105175000D01*
X79660000Y-104585750D01*
X79501250Y-104427000D01*
X78439500Y-104427000D01*
X78185500Y-104427000D01*
X77123750Y-104427000D01*
X76965000Y-104585750D01*
X76961928Y-105175000D01*
X73849802Y-105175000D01*
X73060000Y-104385199D01*
X73060000Y-101388072D01*
X73375000Y-101388072D01*
X73499482Y-101375812D01*
X73500000Y-101375655D01*
X73500518Y-101375812D01*
X73625000Y-101388072D01*
X74175000Y-101388072D01*
X74299482Y-101375812D01*
X74300000Y-101375655D01*
X74300518Y-101375812D01*
X74425000Y-101388072D01*
X74975000Y-101388072D01*
X75099482Y-101375812D01*
X75100620Y-101375467D01*
X75214250Y-101385000D01*
X75306333Y-101292917D01*
X75329494Y-101280537D01*
X75426185Y-101201185D01*
X75500000Y-101111241D01*
X75573815Y-101201185D01*
X75670506Y-101280537D01*
X75693667Y-101292917D01*
X75785750Y-101385000D01*
X75899380Y-101375467D01*
X75900518Y-101375812D01*
X76025000Y-101388072D01*
X76461928Y-101388072D01*
X76461928Y-102850000D01*
X76474188Y-102974482D01*
X76510498Y-103094180D01*
X76569463Y-103204494D01*
X76648815Y-103301185D01*
X76745506Y-103380537D01*
X76855820Y-103439502D01*
X76962172Y-103471763D01*
X76965000Y-104014250D01*
X77123750Y-104173000D01*
X78185500Y-104173000D01*
X78185500Y-104153000D01*
X78439500Y-104153000D01*
X78439500Y-104173000D01*
X79501250Y-104173000D01*
X79660000Y-104014250D01*
X79661768Y-103675000D01*
X79936928Y-103675000D01*
X79936928Y-104925000D01*
X79953992Y-105098254D01*
X80004528Y-105264850D01*
X80086595Y-105418386D01*
X80197038Y-105552962D01*
X80331614Y-105663405D01*
X80485150Y-105745472D01*
X80651746Y-105796008D01*
X80825000Y-105813072D01*
X81750000Y-105813072D01*
X81923254Y-105796008D01*
X82089850Y-105745472D01*
X82243386Y-105663405D01*
X82377962Y-105552962D01*
X82488405Y-105418386D01*
X82570472Y-105264850D01*
X82621008Y-105098254D01*
X82638072Y-104925000D01*
X82638072Y-104024230D01*
X83011003Y-103651299D01*
X83040001Y-103627501D01*
X83066332Y-103595417D01*
X83134974Y-103511777D01*
X83147645Y-103488072D01*
X83300000Y-103488072D01*
X83424482Y-103475812D01*
X83544180Y-103439502D01*
X83654494Y-103380537D01*
X83751185Y-103301185D01*
X83830537Y-103204494D01*
X83889502Y-103094180D01*
X83925812Y-102974482D01*
X83938072Y-102850000D01*
X83938072Y-101350000D01*
X83925812Y-101225518D01*
X83889502Y-101105820D01*
X83830537Y-100995506D01*
X83751185Y-100898815D01*
X83654494Y-100819463D01*
X83544180Y-100760498D01*
X83424482Y-100724188D01*
X83300000Y-100711928D01*
X81700000Y-100711928D01*
X81575518Y-100724188D01*
X81455820Y-100760498D01*
X81345506Y-100819463D01*
X81248815Y-100898815D01*
X81169463Y-100995506D01*
X81110498Y-101105820D01*
X81074188Y-101225518D01*
X81061928Y-101350000D01*
X81061928Y-102786928D01*
X80825000Y-102786928D01*
X80651746Y-102803992D01*
X80485150Y-102854528D01*
X80331614Y-102936595D01*
X80197038Y-103047038D01*
X80086595Y-103181614D01*
X80004528Y-103335150D01*
X79953992Y-103501746D01*
X79936928Y-103675000D01*
X79661768Y-103675000D01*
X79663072Y-103425000D01*
X79650812Y-103300518D01*
X79614502Y-103180820D01*
X79555537Y-103070506D01*
X79476185Y-102973815D01*
X79379494Y-102894463D01*
X79335983Y-102871206D01*
X79338072Y-102850000D01*
X79338072Y-101350000D01*
X79325812Y-101225518D01*
X79289502Y-101105820D01*
X79230537Y-100995506D01*
X79151185Y-100898815D01*
X79054494Y-100819463D01*
X78944180Y-100760498D01*
X78824482Y-100724188D01*
X78813072Y-100723064D01*
X78813072Y-99413072D01*
X80150000Y-99413072D01*
X80274482Y-99400812D01*
X80394180Y-99364502D01*
X80504494Y-99305537D01*
X80601185Y-99226185D01*
X80680537Y-99129494D01*
X80739502Y-99019180D01*
X80775812Y-98899482D01*
X80788072Y-98775000D01*
X80788072Y-98225000D01*
X80775812Y-98100518D01*
X80775655Y-98100000D01*
X80775812Y-98099482D01*
X80788072Y-97975000D01*
X80788072Y-97425000D01*
X80775812Y-97300518D01*
X80775655Y-97300000D01*
X80775812Y-97299482D01*
X80788072Y-97175000D01*
X80788072Y-96625000D01*
X80775812Y-96500518D01*
X80775655Y-96500000D01*
X80775812Y-96499482D01*
X80788072Y-96375000D01*
X80788072Y-96060000D01*
X81761928Y-96060000D01*
X81761928Y-96925000D01*
X81778992Y-97098254D01*
X81829528Y-97264850D01*
X81845797Y-97295287D01*
X81798102Y-97304774D01*
X81609744Y-97382795D01*
X81440226Y-97496063D01*
X81296063Y-97640226D01*
X81182795Y-97809744D01*
X81104774Y-97998102D01*
X81065000Y-98198061D01*
X81065000Y-98401939D01*
X81104774Y-98601898D01*
X81182795Y-98790256D01*
X81296063Y-98959774D01*
X81440226Y-99103937D01*
X81609744Y-99217205D01*
X81798102Y-99295226D01*
X81998061Y-99335000D01*
X82201939Y-99335000D01*
X82401898Y-99295226D01*
X82590256Y-99217205D01*
X82759774Y-99103937D01*
X82803711Y-99060000D01*
X82975868Y-99060000D01*
X83013190Y-99063676D01*
X83050512Y-99060000D01*
X83050523Y-99060000D01*
X83162176Y-99049003D01*
X83305437Y-99005546D01*
X83437466Y-98934974D01*
X83553191Y-98840001D01*
X83576994Y-98810997D01*
X84924012Y-97463979D01*
X84997038Y-97552962D01*
X85131614Y-97663405D01*
X85285150Y-97745472D01*
X85451746Y-97796008D01*
X85625000Y-97813072D01*
X86550000Y-97813072D01*
X86723254Y-97796008D01*
X86889850Y-97745472D01*
X87043386Y-97663405D01*
X87177962Y-97552962D01*
X87288405Y-97418386D01*
X87370472Y-97264850D01*
X87421008Y-97098254D01*
X87438072Y-96925000D01*
X87438072Y-96024230D01*
X87636014Y-95826288D01*
X87665011Y-95802491D01*
X87759984Y-95686766D01*
X87830556Y-95554737D01*
X87874013Y-95411476D01*
X87885010Y-95299823D01*
X87885010Y-95299815D01*
X87888686Y-95262490D01*
X87885010Y-95225165D01*
X87885010Y-89177330D01*
X87888686Y-89140007D01*
X87885010Y-89102684D01*
X87885010Y-89102675D01*
X87874013Y-88991022D01*
X87830556Y-88847761D01*
X87759984Y-88715732D01*
X87665011Y-88600007D01*
X87636012Y-88576209D01*
X86948805Y-87889002D01*
X86925003Y-87859999D01*
X86809278Y-87765026D01*
X86677249Y-87694454D01*
X86533988Y-87650997D01*
X86422335Y-87640000D01*
X86422324Y-87640000D01*
X86385002Y-87636324D01*
X86347680Y-87640000D01*
X83614802Y-87640000D01*
X82860000Y-86885199D01*
X82860000Y-85103148D01*
X85076457Y-85103148D01*
X85352627Y-85521118D01*
X85897557Y-85811649D01*
X86488696Y-85990287D01*
X87103328Y-86050168D01*
X87717831Y-85988990D01*
X88308592Y-85809103D01*
X88847373Y-85521118D01*
X89123543Y-85103148D01*
X87100000Y-83079605D01*
X85076457Y-85103148D01*
X82860000Y-85103148D01*
X82860000Y-83488072D01*
X82950000Y-83488072D01*
X83074482Y-83475812D01*
X83194180Y-83439502D01*
X83304494Y-83380537D01*
X83401185Y-83301185D01*
X83480537Y-83204494D01*
X83539502Y-83094180D01*
X83575812Y-82974482D01*
X83582819Y-82903328D01*
X83949832Y-82903328D01*
X84011010Y-83517831D01*
X84190897Y-84108592D01*
X84478882Y-84647373D01*
X84896852Y-84923543D01*
X86920395Y-82900000D01*
X84896852Y-80876457D01*
X84478882Y-81152627D01*
X84188351Y-81697557D01*
X84009713Y-82288696D01*
X83949832Y-82903328D01*
X83582819Y-82903328D01*
X83588072Y-82850000D01*
X83588072Y-81150000D01*
X83575812Y-81025518D01*
X83539502Y-80905820D01*
X83480537Y-80795506D01*
X83401185Y-80698815D01*
X83353889Y-80660000D01*
X85100807Y-80660000D01*
X85076457Y-80696852D01*
G37*
X85076457Y-80696852D02*
X87100000Y-82720395D01*
X89123543Y-80696852D01*
X89099193Y-80660000D01*
X89340000Y-80660000D01*
X89340000Y-80900807D01*
X89303148Y-80876457D01*
X87279605Y-82900000D01*
X89303148Y-84923543D01*
X89340000Y-84899193D01*
X89340001Y-104860859D01*
X89262267Y-104783125D01*
X89148542Y-104896850D01*
X88872373Y-104478882D01*
X88327443Y-104188351D01*
X87736304Y-104009713D01*
X87121672Y-103949832D01*
X86507169Y-104011010D01*
X85916408Y-104190897D01*
X85377627Y-104478882D01*
X85101457Y-104896852D01*
X87125000Y-106920395D01*
X87139143Y-106906253D01*
X87318748Y-107085858D01*
X87304605Y-107100000D01*
X87318748Y-107114143D01*
X87139143Y-107293748D01*
X87125000Y-107279605D01*
X85101457Y-109303148D01*
X85125807Y-109340000D01*
X64899193Y-109340000D01*
X64923543Y-109303148D01*
X62900000Y-107279605D01*
X60876457Y-109303148D01*
X60900807Y-109340000D01*
X60660000Y-109340000D01*
X60660000Y-109099193D01*
X60696852Y-109123543D01*
X62720395Y-107100000D01*
X63079605Y-107100000D01*
X65103148Y-109123543D01*
X65521118Y-108847373D01*
X65811649Y-108302443D01*
X65990287Y-107711304D01*
X66050168Y-107096672D01*
X65988990Y-106482169D01*
X65809103Y-105891408D01*
X65521118Y-105352627D01*
X65103148Y-105076457D01*
X63079605Y-107100000D01*
X62720395Y-107100000D01*
X60696852Y-105076457D01*
X60660000Y-105100807D01*
X60660000Y-104896852D01*
X60876457Y-104896852D01*
X62900000Y-106920395D01*
X64923543Y-104896852D01*
X64647373Y-104478882D01*
X64102443Y-104188351D01*
X63511304Y-104009713D01*
X62896672Y-103949832D01*
X62282169Y-104011010D01*
X61691408Y-104190897D01*
X61152627Y-104478882D01*
X60876457Y-104896852D01*
X60660000Y-104896852D01*
X60660000Y-102753889D01*
X60698815Y-102801185D01*
X60795506Y-102880537D01*
X60905820Y-102939502D01*
X61025518Y-102975812D01*
X61150000Y-102988072D01*
X62850000Y-102988072D01*
X62974482Y-102975812D01*
X63094180Y-102939502D01*
X63204494Y-102880537D01*
X63301185Y-102801185D01*
X63380537Y-102704494D01*
X63439502Y-102594180D01*
X63475812Y-102474482D01*
X63488072Y-102350000D01*
X63488072Y-102260000D01*
X64562678Y-102260000D01*
X64600000Y-102263676D01*
X64637322Y-102260000D01*
X64637333Y-102260000D01*
X64748986Y-102249003D01*
X64892247Y-102205546D01*
X65024276Y-102134974D01*
X65140001Y-102040001D01*
X65163804Y-102010997D01*
X68514990Y-98659812D01*
X68514989Y-100060496D01*
X68511313Y-100097819D01*
X68514989Y-100135141D01*
X68514989Y-100135151D01*
X68525986Y-100246804D01*
X68568796Y-100387932D01*
X68569443Y-100390065D01*
X68640015Y-100522095D01*
X68679860Y-100570645D01*
X68734988Y-100637820D01*
X68763992Y-100661623D01*
X70140001Y-102037633D01*
X70140000Y-105740000D01*
X69918323Y-105740000D01*
X69880998Y-105736324D01*
X69843673Y-105740000D01*
X69843665Y-105740000D01*
X69732012Y-105750997D01*
X69588751Y-105794454D01*
X69456722Y-105865026D01*
X69340997Y-105959999D01*
X69317199Y-105988997D01*
X68686492Y-106619704D01*
X68483411Y-106484010D01*
X68213158Y-106372068D01*
X67926260Y-106315000D01*
X67633740Y-106315000D01*
X67346842Y-106372068D01*
X67076589Y-106484010D01*
X66833368Y-106646525D01*
X66626525Y-106853368D01*
X66464010Y-107096589D01*
X66352068Y-107366842D01*
X66295000Y-107653740D01*
X66295000Y-107946260D01*
X66352068Y-108233158D01*
X66464010Y-108503411D01*
X66626525Y-108746632D01*
X66833368Y-108953475D01*
X67076589Y-109115990D01*
X67346842Y-109227932D01*
X67633740Y-109285000D01*
X67926260Y-109285000D01*
X68213158Y-109227932D01*
X68483411Y-109115990D01*
X68726632Y-108953475D01*
X68933475Y-108746632D01*
X69050000Y-108572240D01*
X69166525Y-108746632D01*
X69373368Y-108953475D01*
X69616589Y-109115990D01*
X69886842Y-109227932D01*
X70173740Y-109285000D01*
X70466260Y-109285000D01*
X70753158Y-109227932D01*
X71023411Y-109115990D01*
X71266632Y-108953475D01*
X71473475Y-108746632D01*
X71590000Y-108572240D01*
X71706525Y-108746632D01*
X71913368Y-108953475D01*
X72156589Y-109115990D01*
X72426842Y-109227932D01*
X72713740Y-109285000D01*
X73006260Y-109285000D01*
X73293158Y-109227932D01*
X73563411Y-109115990D01*
X73806632Y-108953475D01*
X73938487Y-108821620D01*
X73960498Y-108894180D01*
X74019463Y-109004494D01*
X74098815Y-109101185D01*
X74195506Y-109180537D01*
X74305820Y-109239502D01*
X74425518Y-109275812D01*
X74550000Y-109288072D01*
X76250000Y-109288072D01*
X76374482Y-109275812D01*
X76494180Y-109239502D01*
X76604494Y-109180537D01*
X76701185Y-109101185D01*
X76780537Y-109004494D01*
X76839502Y-108894180D01*
X76875812Y-108774482D01*
X76888072Y-108650000D01*
X76888072Y-107103328D01*
X83974832Y-107103328D01*
X84036010Y-107717831D01*
X84215897Y-108308592D01*
X84503882Y-108847373D01*
X84921852Y-109123543D01*
X86945395Y-107100000D01*
X84921852Y-105076457D01*
X84503882Y-105352627D01*
X84213351Y-105897557D01*
X84034713Y-106488696D01*
X83974832Y-107103328D01*
X76888072Y-107103328D01*
X76888072Y-106950000D01*
X76875812Y-106825518D01*
X76839502Y-106705820D01*
X76780537Y-106595506D01*
X76701185Y-106498815D01*
X76604494Y-106419463D01*
X76494180Y-106360498D01*
X76374482Y-106324188D01*
X76250000Y-106311928D01*
X74986730Y-106311928D01*
X73849802Y-105175000D01*
X76961928Y-105175000D01*
X76974188Y-105299482D01*
X77010498Y-105419180D01*
X77069463Y-105529494D01*
X77148815Y-105626185D01*
X77245506Y-105705537D01*
X77355820Y-105764502D01*
X77475518Y-105800812D01*
X77600000Y-105813072D01*
X78026750Y-105810000D01*
X78185500Y-105651250D01*
X78185500Y-104427000D01*
X78439500Y-104427000D01*
X78439500Y-105651250D01*
X78598250Y-105810000D01*
X79025000Y-105813072D01*
X79149482Y-105800812D01*
X79269180Y-105764502D01*
X79379494Y-105705537D01*
X79476185Y-105626185D01*
X79555537Y-105529494D01*
X79614502Y-105419180D01*
X79650812Y-105299482D01*
X79663072Y-105175000D01*
X79660000Y-104585750D01*
X79501250Y-104427000D01*
X78439500Y-104427000D01*
X78185500Y-104427000D01*
X77123750Y-104427000D01*
X76965000Y-104585750D01*
X76961928Y-105175000D01*
X73849802Y-105175000D01*
X73060000Y-104385199D01*
X73060000Y-101388072D01*
X73375000Y-101388072D01*
X73499482Y-101375812D01*
X73500000Y-101375655D01*
X73500518Y-101375812D01*
X73625000Y-101388072D01*
X74175000Y-101388072D01*
X74299482Y-101375812D01*
X74300000Y-101375655D01*
X74300518Y-101375812D01*
X74425000Y-101388072D01*
X74975000Y-101388072D01*
X75099482Y-101375812D01*
X75100620Y-101375467D01*
X75214250Y-101385000D01*
X75306333Y-101292917D01*
X75329494Y-101280537D01*
X75426185Y-101201185D01*
X75500000Y-101111241D01*
X75573815Y-101201185D01*
X75670506Y-101280537D01*
X75693667Y-101292917D01*
X75785750Y-101385000D01*
X75899380Y-101375467D01*
X75900518Y-101375812D01*
X76025000Y-101388072D01*
X76461928Y-101388072D01*
X76461928Y-102850000D01*
X76474188Y-102974482D01*
X76510498Y-103094180D01*
X76569463Y-103204494D01*
X76648815Y-103301185D01*
X76745506Y-103380537D01*
X76855820Y-103439502D01*
X76962172Y-103471763D01*
X76965000Y-104014250D01*
X77123750Y-104173000D01*
X78185500Y-104173000D01*
X78185500Y-104153000D01*
X78439500Y-104153000D01*
X78439500Y-104173000D01*
X79501250Y-104173000D01*
X79660000Y-104014250D01*
X79661768Y-103675000D01*
X79936928Y-103675000D01*
X79936928Y-104925000D01*
X79953992Y-105098254D01*
X80004528Y-105264850D01*
X80086595Y-105418386D01*
X80197038Y-105552962D01*
X80331614Y-105663405D01*
X80485150Y-105745472D01*
X80651746Y-105796008D01*
X80825000Y-105813072D01*
X81750000Y-105813072D01*
X81923254Y-105796008D01*
X82089850Y-105745472D01*
X82243386Y-105663405D01*
X82377962Y-105552962D01*
X82488405Y-105418386D01*
X82570472Y-105264850D01*
X82621008Y-105098254D01*
X82638072Y-104925000D01*
X82638072Y-104024230D01*
X83011003Y-103651299D01*
X83040001Y-103627501D01*
X83066332Y-103595417D01*
X83134974Y-103511777D01*
X83147645Y-103488072D01*
X83300000Y-103488072D01*
X83424482Y-103475812D01*
X83544180Y-103439502D01*
X83654494Y-103380537D01*
X83751185Y-103301185D01*
X83830537Y-103204494D01*
X83889502Y-103094180D01*
X83925812Y-102974482D01*
X83938072Y-102850000D01*
X83938072Y-101350000D01*
X83925812Y-101225518D01*
X83889502Y-101105820D01*
X83830537Y-100995506D01*
X83751185Y-100898815D01*
X83654494Y-100819463D01*
X83544180Y-100760498D01*
X83424482Y-100724188D01*
X83300000Y-100711928D01*
X81700000Y-100711928D01*
X81575518Y-100724188D01*
X81455820Y-100760498D01*
X81345506Y-100819463D01*
X81248815Y-100898815D01*
X81169463Y-100995506D01*
X81110498Y-101105820D01*
X81074188Y-101225518D01*
X81061928Y-101350000D01*
X81061928Y-102786928D01*
X80825000Y-102786928D01*
X80651746Y-102803992D01*
X80485150Y-102854528D01*
X80331614Y-102936595D01*
X80197038Y-103047038D01*
X80086595Y-103181614D01*
X80004528Y-103335150D01*
X79953992Y-103501746D01*
X79936928Y-103675000D01*
X79661768Y-103675000D01*
X79663072Y-103425000D01*
X79650812Y-103300518D01*
X79614502Y-103180820D01*
X79555537Y-103070506D01*
X79476185Y-102973815D01*
X79379494Y-102894463D01*
X79335983Y-102871206D01*
X79338072Y-102850000D01*
X79338072Y-101350000D01*
X79325812Y-101225518D01*
X79289502Y-101105820D01*
X79230537Y-100995506D01*
X79151185Y-100898815D01*
X79054494Y-100819463D01*
X78944180Y-100760498D01*
X78824482Y-100724188D01*
X78813072Y-100723064D01*
X78813072Y-99413072D01*
X80150000Y-99413072D01*
X80274482Y-99400812D01*
X80394180Y-99364502D01*
X80504494Y-99305537D01*
X80601185Y-99226185D01*
X80680537Y-99129494D01*
X80739502Y-99019180D01*
X80775812Y-98899482D01*
X80788072Y-98775000D01*
X80788072Y-98225000D01*
X80775812Y-98100518D01*
X80775655Y-98100000D01*
X80775812Y-98099482D01*
X80788072Y-97975000D01*
X80788072Y-97425000D01*
X80775812Y-97300518D01*
X80775655Y-97300000D01*
X80775812Y-97299482D01*
X80788072Y-97175000D01*
X80788072Y-96625000D01*
X80775812Y-96500518D01*
X80775655Y-96500000D01*
X80775812Y-96499482D01*
X80788072Y-96375000D01*
X80788072Y-96060000D01*
X81761928Y-96060000D01*
X81761928Y-96925000D01*
X81778992Y-97098254D01*
X81829528Y-97264850D01*
X81845797Y-97295287D01*
X81798102Y-97304774D01*
X81609744Y-97382795D01*
X81440226Y-97496063D01*
X81296063Y-97640226D01*
X81182795Y-97809744D01*
X81104774Y-97998102D01*
X81065000Y-98198061D01*
X81065000Y-98401939D01*
X81104774Y-98601898D01*
X81182795Y-98790256D01*
X81296063Y-98959774D01*
X81440226Y-99103937D01*
X81609744Y-99217205D01*
X81798102Y-99295226D01*
X81998061Y-99335000D01*
X82201939Y-99335000D01*
X82401898Y-99295226D01*
X82590256Y-99217205D01*
X82759774Y-99103937D01*
X82803711Y-99060000D01*
X82975868Y-99060000D01*
X83013190Y-99063676D01*
X83050512Y-99060000D01*
X83050523Y-99060000D01*
X83162176Y-99049003D01*
X83305437Y-99005546D01*
X83437466Y-98934974D01*
X83553191Y-98840001D01*
X83576994Y-98810997D01*
X84924012Y-97463979D01*
X84997038Y-97552962D01*
X85131614Y-97663405D01*
X85285150Y-97745472D01*
X85451746Y-97796008D01*
X85625000Y-97813072D01*
X86550000Y-97813072D01*
X86723254Y-97796008D01*
X86889850Y-97745472D01*
X87043386Y-97663405D01*
X87177962Y-97552962D01*
X87288405Y-97418386D01*
X87370472Y-97264850D01*
X87421008Y-97098254D01*
X87438072Y-96925000D01*
X87438072Y-96024230D01*
X87636014Y-95826288D01*
X87665011Y-95802491D01*
X87759984Y-95686766D01*
X87830556Y-95554737D01*
X87874013Y-95411476D01*
X87885010Y-95299823D01*
X87885010Y-95299815D01*
X87888686Y-95262490D01*
X87885010Y-95225165D01*
X87885010Y-89177330D01*
X87888686Y-89140007D01*
X87885010Y-89102684D01*
X87885010Y-89102675D01*
X87874013Y-88991022D01*
X87830556Y-88847761D01*
X87759984Y-88715732D01*
X87665011Y-88600007D01*
X87636012Y-88576209D01*
X86948805Y-87889002D01*
X86925003Y-87859999D01*
X86809278Y-87765026D01*
X86677249Y-87694454D01*
X86533988Y-87650997D01*
X86422335Y-87640000D01*
X86422324Y-87640000D01*
X86385002Y-87636324D01*
X86347680Y-87640000D01*
X83614802Y-87640000D01*
X82860000Y-86885199D01*
X82860000Y-85103148D01*
X85076457Y-85103148D01*
X85352627Y-85521118D01*
X85897557Y-85811649D01*
X86488696Y-85990287D01*
X87103328Y-86050168D01*
X87717831Y-85988990D01*
X88308592Y-85809103D01*
X88847373Y-85521118D01*
X89123543Y-85103148D01*
X87100000Y-83079605D01*
X85076457Y-85103148D01*
X82860000Y-85103148D01*
X82860000Y-83488072D01*
X82950000Y-83488072D01*
X83074482Y-83475812D01*
X83194180Y-83439502D01*
X83304494Y-83380537D01*
X83401185Y-83301185D01*
X83480537Y-83204494D01*
X83539502Y-83094180D01*
X83575812Y-82974482D01*
X83582819Y-82903328D01*
X83949832Y-82903328D01*
X84011010Y-83517831D01*
X84190897Y-84108592D01*
X84478882Y-84647373D01*
X84896852Y-84923543D01*
X86920395Y-82900000D01*
X84896852Y-80876457D01*
X84478882Y-81152627D01*
X84188351Y-81697557D01*
X84009713Y-82288696D01*
X83949832Y-82903328D01*
X83582819Y-82903328D01*
X83588072Y-82850000D01*
X83588072Y-81150000D01*
X83575812Y-81025518D01*
X83539502Y-80905820D01*
X83480537Y-80795506D01*
X83401185Y-80698815D01*
X83353889Y-80660000D01*
X85100807Y-80660000D01*
X85076457Y-80696852D01*
G36*
X72519453Y-92909753D02*
G01*
X72475996Y-93053014D01*
X72464999Y-93164667D01*
X72464999Y-93164677D01*
X72461323Y-93201999D01*
X72464999Y-93239322D01*
X72465000Y-94910669D01*
X72461323Y-94948001D01*
X72475997Y-95096986D01*
X72519453Y-95240247D01*
X72590025Y-95372277D01*
X72652979Y-95448986D01*
X72684999Y-95488002D01*
X72713997Y-95511800D01*
X73038195Y-95835998D01*
X73061998Y-95865002D01*
X73177723Y-95959975D01*
X73259969Y-96003937D01*
X73309752Y-96030547D01*
X73453013Y-96074004D01*
X73601999Y-96088678D01*
X73639332Y-96085001D01*
X73952696Y-96085001D01*
X73969455Y-96140250D01*
X74040027Y-96272279D01*
X74135000Y-96388004D01*
X74164002Y-96411805D01*
X76015000Y-98262804D01*
X76015000Y-98324941D01*
X76052194Y-98511928D01*
X76025000Y-98511928D01*
X75900518Y-98524188D01*
X75899380Y-98524533D01*
X75785750Y-98515000D01*
X75693667Y-98607083D01*
X75670506Y-98619463D01*
X75573815Y-98698815D01*
X75500000Y-98788759D01*
X75426185Y-98698815D01*
X75329494Y-98619463D01*
X75306333Y-98607083D01*
X75214250Y-98515000D01*
X75100620Y-98524533D01*
X75099482Y-98524188D01*
X74975000Y-98511928D01*
X74425000Y-98511928D01*
X74300518Y-98524188D01*
X74300000Y-98524345D01*
X74299482Y-98524188D01*
X74175000Y-98511928D01*
X73625000Y-98511928D01*
X73500518Y-98524188D01*
X73500000Y-98524345D01*
X73499482Y-98524188D01*
X73375000Y-98511928D01*
X72825000Y-98511928D01*
X72700518Y-98524188D01*
X72700000Y-98524345D01*
X72699482Y-98524188D01*
X72575000Y-98511928D01*
X72288072Y-98511928D01*
X72288072Y-98225000D01*
X72275812Y-98100518D01*
X72275655Y-98100000D01*
X72275812Y-98099482D01*
X72288072Y-97975000D01*
X72288072Y-97425000D01*
X72275812Y-97300518D01*
X72275655Y-97300000D01*
X72275812Y-97299482D01*
X72288072Y-97175000D01*
X72288072Y-96625000D01*
X72275812Y-96500518D01*
X72275655Y-96500000D01*
X72275812Y-96499482D01*
X72288072Y-96375000D01*
X72288072Y-95825000D01*
X72275812Y-95700518D01*
X72275655Y-95700000D01*
X72275812Y-95699482D01*
X72288072Y-95575000D01*
X72288072Y-95025000D01*
X72275812Y-94900518D01*
X72275655Y-94900000D01*
X72275812Y-94899482D01*
X72288072Y-94775000D01*
X72288072Y-94225000D01*
X72275812Y-94100518D01*
X72275655Y-94100000D01*
X72275812Y-94099482D01*
X72288072Y-93975000D01*
X72288072Y-93425000D01*
X72275812Y-93300518D01*
X72275655Y-93300000D01*
X72275812Y-93299482D01*
X72288072Y-93175000D01*
X72288072Y-92888072D01*
X72531042Y-92888072D01*
X72519453Y-92909753D01*
G37*
X72519453Y-92909753D02*
X72475996Y-93053014D01*
X72464999Y-93164667D01*
X72464999Y-93164677D01*
X72461323Y-93201999D01*
X72464999Y-93239322D01*
X72465000Y-94910669D01*
X72461323Y-94948001D01*
X72475997Y-95096986D01*
X72519453Y-95240247D01*
X72590025Y-95372277D01*
X72652979Y-95448986D01*
X72684999Y-95488002D01*
X72713997Y-95511800D01*
X73038195Y-95835998D01*
X73061998Y-95865002D01*
X73177723Y-95959975D01*
X73259969Y-96003937D01*
X73309752Y-96030547D01*
X73453013Y-96074004D01*
X73601999Y-96088678D01*
X73639332Y-96085001D01*
X73952696Y-96085001D01*
X73969455Y-96140250D01*
X74040027Y-96272279D01*
X74135000Y-96388004D01*
X74164002Y-96411805D01*
X76015000Y-98262804D01*
X76015000Y-98324941D01*
X76052194Y-98511928D01*
X76025000Y-98511928D01*
X75900518Y-98524188D01*
X75899380Y-98524533D01*
X75785750Y-98515000D01*
X75693667Y-98607083D01*
X75670506Y-98619463D01*
X75573815Y-98698815D01*
X75500000Y-98788759D01*
X75426185Y-98698815D01*
X75329494Y-98619463D01*
X75306333Y-98607083D01*
X75214250Y-98515000D01*
X75100620Y-98524533D01*
X75099482Y-98524188D01*
X74975000Y-98511928D01*
X74425000Y-98511928D01*
X74300518Y-98524188D01*
X74300000Y-98524345D01*
X74299482Y-98524188D01*
X74175000Y-98511928D01*
X73625000Y-98511928D01*
X73500518Y-98524188D01*
X73500000Y-98524345D01*
X73499482Y-98524188D01*
X73375000Y-98511928D01*
X72825000Y-98511928D01*
X72700518Y-98524188D01*
X72700000Y-98524345D01*
X72699482Y-98524188D01*
X72575000Y-98511928D01*
X72288072Y-98511928D01*
X72288072Y-98225000D01*
X72275812Y-98100518D01*
X72275655Y-98100000D01*
X72275812Y-98099482D01*
X72288072Y-97975000D01*
X72288072Y-97425000D01*
X72275812Y-97300518D01*
X72275655Y-97300000D01*
X72275812Y-97299482D01*
X72288072Y-97175000D01*
X72288072Y-96625000D01*
X72275812Y-96500518D01*
X72275655Y-96500000D01*
X72275812Y-96499482D01*
X72288072Y-96375000D01*
X72288072Y-95825000D01*
X72275812Y-95700518D01*
X72275655Y-95700000D01*
X72275812Y-95699482D01*
X72288072Y-95575000D01*
X72288072Y-95025000D01*
X72275812Y-94900518D01*
X72275655Y-94900000D01*
X72275812Y-94899482D01*
X72288072Y-94775000D01*
X72288072Y-94225000D01*
X72275812Y-94100518D01*
X72275655Y-94100000D01*
X72275812Y-94099482D01*
X72288072Y-93975000D01*
X72288072Y-93425000D01*
X72275812Y-93300518D01*
X72275655Y-93300000D01*
X72275812Y-93299482D01*
X72288072Y-93175000D01*
X72288072Y-92888072D01*
X72531042Y-92888072D01*
X72519453Y-92909753D01*
G36*
X60876457Y-80696852D02*
G01*
X62900000Y-82720395D01*
X64923543Y-80696852D01*
X64899193Y-80660000D01*
X68776598Y-80660000D01*
X68633080Y-80728359D01*
X68399731Y-80902412D01*
X68204822Y-81118645D01*
X68055843Y-81368748D01*
X67958519Y-81643109D01*
X68079186Y-81873000D01*
X69273000Y-81873000D01*
X69273000Y-81853000D01*
X69527000Y-81853000D01*
X69527000Y-81873000D01*
X69547000Y-81873000D01*
X69547000Y-82127000D01*
X69527000Y-82127000D01*
X69527000Y-83320155D01*
X69756890Y-83441476D01*
X69904099Y-83396825D01*
X70166920Y-83271641D01*
X70400269Y-83097588D01*
X70595178Y-82881355D01*
X70664805Y-82764466D01*
X70786525Y-82946632D01*
X70993368Y-83153475D01*
X71236589Y-83315990D01*
X71506842Y-83427932D01*
X71793740Y-83485000D01*
X72086260Y-83485000D01*
X72373158Y-83427932D01*
X72643411Y-83315990D01*
X72886632Y-83153475D01*
X73093475Y-82946632D01*
X73210000Y-82772240D01*
X73326525Y-82946632D01*
X73533368Y-83153475D01*
X73720001Y-83278179D01*
X73720001Y-83486928D01*
X73325000Y-83486928D01*
X73151746Y-83503992D01*
X72985150Y-83554528D01*
X72831614Y-83636595D01*
X72697038Y-83747038D01*
X72586595Y-83881614D01*
X72504528Y-84035150D01*
X72453992Y-84201746D01*
X72436928Y-84375000D01*
X72436928Y-85625000D01*
X72453992Y-85798254D01*
X72504528Y-85964850D01*
X72586595Y-86118386D01*
X72697038Y-86252962D01*
X72831614Y-86363405D01*
X72985150Y-86445472D01*
X73027500Y-86458319D01*
X73027501Y-87592392D01*
X72966525Y-87653368D01*
X72844805Y-87835534D01*
X72775178Y-87718645D01*
X72580269Y-87502412D01*
X72346920Y-87328359D01*
X72084099Y-87203175D01*
X71936890Y-87158524D01*
X71707000Y-87279845D01*
X71707000Y-88473000D01*
X71727000Y-88473000D01*
X71727000Y-88727000D01*
X71707000Y-88727000D01*
X71707000Y-88747000D01*
X71453000Y-88747000D01*
X71453000Y-88727000D01*
X70259186Y-88727000D01*
X70138519Y-88956891D01*
X70235843Y-89231252D01*
X70384822Y-89481355D01*
X70460217Y-89564999D01*
X68439801Y-89564999D01*
X68156167Y-89281365D01*
X68185000Y-89136411D01*
X68185000Y-88863589D01*
X68131775Y-88596011D01*
X68027371Y-88343957D01*
X67959987Y-88243109D01*
X70138519Y-88243109D01*
X70259186Y-88473000D01*
X71453000Y-88473000D01*
X71453000Y-87279845D01*
X71223110Y-87158524D01*
X71075901Y-87203175D01*
X70813080Y-87328359D01*
X70579731Y-87502412D01*
X70384822Y-87718645D01*
X70235843Y-87968748D01*
X70138519Y-88243109D01*
X67959987Y-88243109D01*
X67875799Y-88117114D01*
X67682886Y-87924201D01*
X67456043Y-87772629D01*
X67203989Y-87668225D01*
X66936411Y-87615000D01*
X66663589Y-87615000D01*
X66518635Y-87643833D01*
X65276304Y-86401503D01*
X65252501Y-86372499D01*
X65136776Y-86277526D01*
X65004747Y-86206954D01*
X64861486Y-86163497D01*
X64749833Y-86152500D01*
X64749822Y-86152500D01*
X64712500Y-86148824D01*
X64675178Y-86152500D01*
X64058319Y-86152500D01*
X64045472Y-86110150D01*
X63963405Y-85956614D01*
X63896427Y-85875000D01*
X69461928Y-85875000D01*
X69474188Y-85999482D01*
X69510498Y-86119180D01*
X69569463Y-86229494D01*
X69648815Y-86326185D01*
X69745506Y-86405537D01*
X69855820Y-86464502D01*
X69975518Y-86500812D01*
X70100000Y-86513072D01*
X70526750Y-86510000D01*
X70685500Y-86351250D01*
X70685500Y-85127000D01*
X70939500Y-85127000D01*
X70939500Y-86351250D01*
X71098250Y-86510000D01*
X71525000Y-86513072D01*
X71649482Y-86500812D01*
X71769180Y-86464502D01*
X71879494Y-86405537D01*
X71976185Y-86326185D01*
X72055537Y-86229494D01*
X72114502Y-86119180D01*
X72150812Y-85999482D01*
X72163072Y-85875000D01*
X72160000Y-85285750D01*
X72001250Y-85127000D01*
X70939500Y-85127000D01*
X70685500Y-85127000D01*
X69623750Y-85127000D01*
X69465000Y-85285750D01*
X69461928Y-85875000D01*
X63896427Y-85875000D01*
X63895578Y-85873966D01*
X64108592Y-85809103D01*
X64647373Y-85521118D01*
X64923543Y-85103148D01*
X62900000Y-83079605D01*
X60876457Y-85103148D01*
X61152627Y-85521118D01*
X61495735Y-85704047D01*
X61481614Y-85711595D01*
X61347038Y-85822038D01*
X61236595Y-85956614D01*
X61154528Y-86110150D01*
X61103992Y-86276746D01*
X61086928Y-86450000D01*
X61086928Y-87375000D01*
X61103992Y-87548254D01*
X61154528Y-87714850D01*
X61236595Y-87868386D01*
X61347038Y-88002962D01*
X61481614Y-88113405D01*
X61635150Y-88195472D01*
X61801746Y-88246008D01*
X61975000Y-88263072D01*
X63225000Y-88263072D01*
X63398254Y-88246008D01*
X63564850Y-88195472D01*
X63718386Y-88113405D01*
X63852962Y-88002962D01*
X63963405Y-87868386D01*
X64045472Y-87714850D01*
X64058319Y-87672500D01*
X64397699Y-87672500D01*
X65443833Y-88718635D01*
X65415000Y-88863589D01*
X65415000Y-89136411D01*
X65468225Y-89403989D01*
X65572629Y-89656043D01*
X65724201Y-89882886D01*
X65917114Y-90075799D01*
X66143957Y-90227371D01*
X66396011Y-90331775D01*
X66663589Y-90385000D01*
X66936411Y-90385000D01*
X67081365Y-90356167D01*
X67561199Y-90836001D01*
X67584998Y-90865000D01*
X67613996Y-90888798D01*
X67700723Y-90959973D01*
X67832752Y-91030545D01*
X67976013Y-91074002D01*
X68124999Y-91088676D01*
X68162332Y-91084999D01*
X68640199Y-91084999D01*
X67081365Y-92643833D01*
X66936411Y-92615000D01*
X66663589Y-92615000D01*
X66396011Y-92668225D01*
X66143957Y-92772629D01*
X65917114Y-92924201D01*
X65724201Y-93117114D01*
X65572629Y-93343957D01*
X65468225Y-93596011D01*
X65415000Y-93863589D01*
X65415000Y-94136411D01*
X65443833Y-94281365D01*
X64410199Y-95315000D01*
X64058319Y-95315000D01*
X64045472Y-95272650D01*
X63963405Y-95119114D01*
X63852962Y-94984538D01*
X63718386Y-94874095D01*
X63564850Y-94792028D01*
X63398254Y-94741492D01*
X63225000Y-94724428D01*
X61975000Y-94724428D01*
X61801746Y-94741492D01*
X61635150Y-94792028D01*
X61481614Y-94874095D01*
X61347038Y-94984538D01*
X61236595Y-95119114D01*
X61154528Y-95272650D01*
X61103992Y-95439246D01*
X61086928Y-95612500D01*
X61086928Y-96537500D01*
X61103992Y-96710754D01*
X61154528Y-96877350D01*
X61236595Y-97030886D01*
X61347038Y-97165462D01*
X61481614Y-97275905D01*
X61635150Y-97357972D01*
X61801746Y-97408508D01*
X61975000Y-97425572D01*
X63225000Y-97425572D01*
X63398254Y-97408508D01*
X63564850Y-97357972D01*
X63718386Y-97275905D01*
X63852962Y-97165462D01*
X63963405Y-97030886D01*
X64045472Y-96877350D01*
X64058319Y-96835000D01*
X64687678Y-96835000D01*
X64725000Y-96838676D01*
X64762322Y-96835000D01*
X64762333Y-96835000D01*
X64873986Y-96824003D01*
X65017247Y-96780546D01*
X65149276Y-96709974D01*
X65265001Y-96615001D01*
X65288804Y-96585997D01*
X66518635Y-95356167D01*
X66663589Y-95385000D01*
X66936411Y-95385000D01*
X67203989Y-95331775D01*
X67456043Y-95227371D01*
X67682886Y-95075799D01*
X67875799Y-94882886D01*
X68027371Y-94656043D01*
X68131775Y-94403989D01*
X68185000Y-94136411D01*
X68185000Y-93863589D01*
X68156167Y-93718635D01*
X69445918Y-92428884D01*
X69424188Y-92500518D01*
X69411928Y-92625000D01*
X69411928Y-93175000D01*
X69424188Y-93299482D01*
X69424345Y-93300000D01*
X69424188Y-93300518D01*
X69411928Y-93425000D01*
X69411928Y-93975000D01*
X69424188Y-94099482D01*
X69424345Y-94100000D01*
X69424188Y-94100518D01*
X69411928Y-94225000D01*
X69411928Y-94775000D01*
X69414462Y-94800734D01*
X67863972Y-96351225D01*
X67834968Y-96375028D01*
X67804473Y-96412187D01*
X67765396Y-96459802D01*
X66025199Y-98200000D01*
X63278178Y-98200000D01*
X63153475Y-98013368D01*
X62946632Y-97806525D01*
X62703411Y-97644010D01*
X62433158Y-97532068D01*
X62146260Y-97475000D01*
X61853740Y-97475000D01*
X61566842Y-97532068D01*
X61296589Y-97644010D01*
X61053368Y-97806525D01*
X60846525Y-98013368D01*
X60684010Y-98256589D01*
X60660000Y-98314555D01*
X60660000Y-93812500D01*
X61086928Y-93812500D01*
X61099188Y-93936982D01*
X61135498Y-94056680D01*
X61194463Y-94166994D01*
X61273815Y-94263685D01*
X61370506Y-94343037D01*
X61480820Y-94402002D01*
X61600518Y-94438312D01*
X61725000Y-94450572D01*
X62314250Y-94447500D01*
X62473000Y-94288750D01*
X62473000Y-93227000D01*
X62727000Y-93227000D01*
X62727000Y-94288750D01*
X62885750Y-94447500D01*
X63475000Y-94450572D01*
X63599482Y-94438312D01*
X63719180Y-94402002D01*
X63829494Y-94343037D01*
X63926185Y-94263685D01*
X64005537Y-94166994D01*
X64064502Y-94056680D01*
X64100812Y-93936982D01*
X64113072Y-93812500D01*
X64110000Y-93385750D01*
X63951250Y-93227000D01*
X62727000Y-93227000D01*
X62473000Y-93227000D01*
X61248750Y-93227000D01*
X61090000Y-93385750D01*
X61086928Y-93812500D01*
X60660000Y-93812500D01*
X60660000Y-92387500D01*
X61086928Y-92387500D01*
X61090000Y-92814250D01*
X61248750Y-92973000D01*
X62473000Y-92973000D01*
X62473000Y-91911250D01*
X62727000Y-91911250D01*
X62727000Y-92973000D01*
X63951250Y-92973000D01*
X64110000Y-92814250D01*
X64113072Y-92387500D01*
X64100812Y-92263018D01*
X64064502Y-92143320D01*
X64005537Y-92033006D01*
X63926185Y-91936315D01*
X63829494Y-91856963D01*
X63719180Y-91797998D01*
X63599482Y-91761688D01*
X63475000Y-91749428D01*
X62885750Y-91752500D01*
X62727000Y-91911250D01*
X62473000Y-91911250D01*
X62314250Y-91752500D01*
X61725000Y-91749428D01*
X61600518Y-91761688D01*
X61480820Y-91797998D01*
X61370506Y-91856963D01*
X61273815Y-91936315D01*
X61194463Y-92033006D01*
X61135498Y-92143320D01*
X61099188Y-92263018D01*
X61086928Y-92387500D01*
X60660000Y-92387500D01*
X60660000Y-90600000D01*
X61086928Y-90600000D01*
X61099188Y-90724482D01*
X61135498Y-90844180D01*
X61194463Y-90954494D01*
X61273815Y-91051185D01*
X61370506Y-91130537D01*
X61480820Y-91189502D01*
X61600518Y-91225812D01*
X61725000Y-91238072D01*
X62314250Y-91235000D01*
X62473000Y-91076250D01*
X62473000Y-90014500D01*
X62727000Y-90014500D01*
X62727000Y-91076250D01*
X62885750Y-91235000D01*
X63475000Y-91238072D01*
X63599482Y-91225812D01*
X63719180Y-91189502D01*
X63829494Y-91130537D01*
X63926185Y-91051185D01*
X64005537Y-90954494D01*
X64064502Y-90844180D01*
X64100812Y-90724482D01*
X64113072Y-90600000D01*
X64110000Y-90173250D01*
X63951250Y-90014500D01*
X62727000Y-90014500D01*
X62473000Y-90014500D01*
X61248750Y-90014500D01*
X61090000Y-90173250D01*
X61086928Y-90600000D01*
X60660000Y-90600000D01*
X60660000Y-89175000D01*
X61086928Y-89175000D01*
X61090000Y-89601750D01*
X61248750Y-89760500D01*
X62473000Y-89760500D01*
X62473000Y-88698750D01*
X62727000Y-88698750D01*
X62727000Y-89760500D01*
X63951250Y-89760500D01*
X64110000Y-89601750D01*
X64113072Y-89175000D01*
X64100812Y-89050518D01*
X64064502Y-88930820D01*
X64005537Y-88820506D01*
X63926185Y-88723815D01*
X63829494Y-88644463D01*
X63719180Y-88585498D01*
X63599482Y-88549188D01*
X63475000Y-88536928D01*
X62885750Y-88540000D01*
X62727000Y-88698750D01*
X62473000Y-88698750D01*
X62314250Y-88540000D01*
X61725000Y-88536928D01*
X61600518Y-88549188D01*
X61480820Y-88585498D01*
X61370506Y-88644463D01*
X61273815Y-88723815D01*
X61194463Y-88820506D01*
X61135498Y-88930820D01*
X61099188Y-89050518D01*
X61086928Y-89175000D01*
X60660000Y-89175000D01*
X60660000Y-84899193D01*
X60696852Y-84923543D01*
X62720395Y-82900000D01*
X63079605Y-82900000D01*
X65103148Y-84923543D01*
X65521118Y-84647373D01*
X65799622Y-84125000D01*
X69461928Y-84125000D01*
X69465000Y-84714250D01*
X69623750Y-84873000D01*
X70685500Y-84873000D01*
X70685500Y-83648750D01*
X70939500Y-83648750D01*
X70939500Y-84873000D01*
X72001250Y-84873000D01*
X72160000Y-84714250D01*
X72163072Y-84125000D01*
X72150812Y-84000518D01*
X72114502Y-83880820D01*
X72055537Y-83770506D01*
X71976185Y-83673815D01*
X71879494Y-83594463D01*
X71769180Y-83535498D01*
X71649482Y-83499188D01*
X71525000Y-83486928D01*
X71098250Y-83490000D01*
X70939500Y-83648750D01*
X70685500Y-83648750D01*
X70526750Y-83490000D01*
X70100000Y-83486928D01*
X69975518Y-83499188D01*
X69855820Y-83535498D01*
X69745506Y-83594463D01*
X69648815Y-83673815D01*
X69569463Y-83770506D01*
X69510498Y-83880820D01*
X69474188Y-84000518D01*
X69461928Y-84125000D01*
X65799622Y-84125000D01*
X65811649Y-84102443D01*
X65990287Y-83511304D01*
X66050168Y-82896672D01*
X65996430Y-82356891D01*
X67958519Y-82356891D01*
X68055843Y-82631252D01*
X68204822Y-82881355D01*
X68399731Y-83097588D01*
X68633080Y-83271641D01*
X68895901Y-83396825D01*
X69043110Y-83441476D01*
X69273000Y-83320155D01*
X69273000Y-82127000D01*
X68079186Y-82127000D01*
X67958519Y-82356891D01*
X65996430Y-82356891D01*
X65988990Y-82282169D01*
X65809103Y-81691408D01*
X65521118Y-81152627D01*
X65103148Y-80876457D01*
X63079605Y-82900000D01*
X62720395Y-82900000D01*
X60696852Y-80876457D01*
X60660000Y-80900807D01*
X60660000Y-80660000D01*
X60900807Y-80660000D01*
X60876457Y-80696852D01*
G37*
X60876457Y-80696852D02*
X62900000Y-82720395D01*
X64923543Y-80696852D01*
X64899193Y-80660000D01*
X68776598Y-80660000D01*
X68633080Y-80728359D01*
X68399731Y-80902412D01*
X68204822Y-81118645D01*
X68055843Y-81368748D01*
X67958519Y-81643109D01*
X68079186Y-81873000D01*
X69273000Y-81873000D01*
X69273000Y-81853000D01*
X69527000Y-81853000D01*
X69527000Y-81873000D01*
X69547000Y-81873000D01*
X69547000Y-82127000D01*
X69527000Y-82127000D01*
X69527000Y-83320155D01*
X69756890Y-83441476D01*
X69904099Y-83396825D01*
X70166920Y-83271641D01*
X70400269Y-83097588D01*
X70595178Y-82881355D01*
X70664805Y-82764466D01*
X70786525Y-82946632D01*
X70993368Y-83153475D01*
X71236589Y-83315990D01*
X71506842Y-83427932D01*
X71793740Y-83485000D01*
X72086260Y-83485000D01*
X72373158Y-83427932D01*
X72643411Y-83315990D01*
X72886632Y-83153475D01*
X73093475Y-82946632D01*
X73210000Y-82772240D01*
X73326525Y-82946632D01*
X73533368Y-83153475D01*
X73720001Y-83278179D01*
X73720001Y-83486928D01*
X73325000Y-83486928D01*
X73151746Y-83503992D01*
X72985150Y-83554528D01*
X72831614Y-83636595D01*
X72697038Y-83747038D01*
X72586595Y-83881614D01*
X72504528Y-84035150D01*
X72453992Y-84201746D01*
X72436928Y-84375000D01*
X72436928Y-85625000D01*
X72453992Y-85798254D01*
X72504528Y-85964850D01*
X72586595Y-86118386D01*
X72697038Y-86252962D01*
X72831614Y-86363405D01*
X72985150Y-86445472D01*
X73027500Y-86458319D01*
X73027501Y-87592392D01*
X72966525Y-87653368D01*
X72844805Y-87835534D01*
X72775178Y-87718645D01*
X72580269Y-87502412D01*
X72346920Y-87328359D01*
X72084099Y-87203175D01*
X71936890Y-87158524D01*
X71707000Y-87279845D01*
X71707000Y-88473000D01*
X71727000Y-88473000D01*
X71727000Y-88727000D01*
X71707000Y-88727000D01*
X71707000Y-88747000D01*
X71453000Y-88747000D01*
X71453000Y-88727000D01*
X70259186Y-88727000D01*
X70138519Y-88956891D01*
X70235843Y-89231252D01*
X70384822Y-89481355D01*
X70460217Y-89564999D01*
X68439801Y-89564999D01*
X68156167Y-89281365D01*
X68185000Y-89136411D01*
X68185000Y-88863589D01*
X68131775Y-88596011D01*
X68027371Y-88343957D01*
X67959987Y-88243109D01*
X70138519Y-88243109D01*
X70259186Y-88473000D01*
X71453000Y-88473000D01*
X71453000Y-87279845D01*
X71223110Y-87158524D01*
X71075901Y-87203175D01*
X70813080Y-87328359D01*
X70579731Y-87502412D01*
X70384822Y-87718645D01*
X70235843Y-87968748D01*
X70138519Y-88243109D01*
X67959987Y-88243109D01*
X67875799Y-88117114D01*
X67682886Y-87924201D01*
X67456043Y-87772629D01*
X67203989Y-87668225D01*
X66936411Y-87615000D01*
X66663589Y-87615000D01*
X66518635Y-87643833D01*
X65276304Y-86401503D01*
X65252501Y-86372499D01*
X65136776Y-86277526D01*
X65004747Y-86206954D01*
X64861486Y-86163497D01*
X64749833Y-86152500D01*
X64749822Y-86152500D01*
X64712500Y-86148824D01*
X64675178Y-86152500D01*
X64058319Y-86152500D01*
X64045472Y-86110150D01*
X63963405Y-85956614D01*
X63896427Y-85875000D01*
X69461928Y-85875000D01*
X69474188Y-85999482D01*
X69510498Y-86119180D01*
X69569463Y-86229494D01*
X69648815Y-86326185D01*
X69745506Y-86405537D01*
X69855820Y-86464502D01*
X69975518Y-86500812D01*
X70100000Y-86513072D01*
X70526750Y-86510000D01*
X70685500Y-86351250D01*
X70685500Y-85127000D01*
X70939500Y-85127000D01*
X70939500Y-86351250D01*
X71098250Y-86510000D01*
X71525000Y-86513072D01*
X71649482Y-86500812D01*
X71769180Y-86464502D01*
X71879494Y-86405537D01*
X71976185Y-86326185D01*
X72055537Y-86229494D01*
X72114502Y-86119180D01*
X72150812Y-85999482D01*
X72163072Y-85875000D01*
X72160000Y-85285750D01*
X72001250Y-85127000D01*
X70939500Y-85127000D01*
X70685500Y-85127000D01*
X69623750Y-85127000D01*
X69465000Y-85285750D01*
X69461928Y-85875000D01*
X63896427Y-85875000D01*
X63895578Y-85873966D01*
X64108592Y-85809103D01*
X64647373Y-85521118D01*
X64923543Y-85103148D01*
X62900000Y-83079605D01*
X60876457Y-85103148D01*
X61152627Y-85521118D01*
X61495735Y-85704047D01*
X61481614Y-85711595D01*
X61347038Y-85822038D01*
X61236595Y-85956614D01*
X61154528Y-86110150D01*
X61103992Y-86276746D01*
X61086928Y-86450000D01*
X61086928Y-87375000D01*
X61103992Y-87548254D01*
X61154528Y-87714850D01*
X61236595Y-87868386D01*
X61347038Y-88002962D01*
X61481614Y-88113405D01*
X61635150Y-88195472D01*
X61801746Y-88246008D01*
X61975000Y-88263072D01*
X63225000Y-88263072D01*
X63398254Y-88246008D01*
X63564850Y-88195472D01*
X63718386Y-88113405D01*
X63852962Y-88002962D01*
X63963405Y-87868386D01*
X64045472Y-87714850D01*
X64058319Y-87672500D01*
X64397699Y-87672500D01*
X65443833Y-88718635D01*
X65415000Y-88863589D01*
X65415000Y-89136411D01*
X65468225Y-89403989D01*
X65572629Y-89656043D01*
X65724201Y-89882886D01*
X65917114Y-90075799D01*
X66143957Y-90227371D01*
X66396011Y-90331775D01*
X66663589Y-90385000D01*
X66936411Y-90385000D01*
X67081365Y-90356167D01*
X67561199Y-90836001D01*
X67584998Y-90865000D01*
X67613996Y-90888798D01*
X67700723Y-90959973D01*
X67832752Y-91030545D01*
X67976013Y-91074002D01*
X68124999Y-91088676D01*
X68162332Y-91084999D01*
X68640199Y-91084999D01*
X67081365Y-92643833D01*
X66936411Y-92615000D01*
X66663589Y-92615000D01*
X66396011Y-92668225D01*
X66143957Y-92772629D01*
X65917114Y-92924201D01*
X65724201Y-93117114D01*
X65572629Y-93343957D01*
X65468225Y-93596011D01*
X65415000Y-93863589D01*
X65415000Y-94136411D01*
X65443833Y-94281365D01*
X64410199Y-95315000D01*
X64058319Y-95315000D01*
X64045472Y-95272650D01*
X63963405Y-95119114D01*
X63852962Y-94984538D01*
X63718386Y-94874095D01*
X63564850Y-94792028D01*
X63398254Y-94741492D01*
X63225000Y-94724428D01*
X61975000Y-94724428D01*
X61801746Y-94741492D01*
X61635150Y-94792028D01*
X61481614Y-94874095D01*
X61347038Y-94984538D01*
X61236595Y-95119114D01*
X61154528Y-95272650D01*
X61103992Y-95439246D01*
X61086928Y-95612500D01*
X61086928Y-96537500D01*
X61103992Y-96710754D01*
X61154528Y-96877350D01*
X61236595Y-97030886D01*
X61347038Y-97165462D01*
X61481614Y-97275905D01*
X61635150Y-97357972D01*
X61801746Y-97408508D01*
X61975000Y-97425572D01*
X63225000Y-97425572D01*
X63398254Y-97408508D01*
X63564850Y-97357972D01*
X63718386Y-97275905D01*
X63852962Y-97165462D01*
X63963405Y-97030886D01*
X64045472Y-96877350D01*
X64058319Y-96835000D01*
X64687678Y-96835000D01*
X64725000Y-96838676D01*
X64762322Y-96835000D01*
X64762333Y-96835000D01*
X64873986Y-96824003D01*
X65017247Y-96780546D01*
X65149276Y-96709974D01*
X65265001Y-96615001D01*
X65288804Y-96585997D01*
X66518635Y-95356167D01*
X66663589Y-95385000D01*
X66936411Y-95385000D01*
X67203989Y-95331775D01*
X67456043Y-95227371D01*
X67682886Y-95075799D01*
X67875799Y-94882886D01*
X68027371Y-94656043D01*
X68131775Y-94403989D01*
X68185000Y-94136411D01*
X68185000Y-93863589D01*
X68156167Y-93718635D01*
X69445918Y-92428884D01*
X69424188Y-92500518D01*
X69411928Y-92625000D01*
X69411928Y-93175000D01*
X69424188Y-93299482D01*
X69424345Y-93300000D01*
X69424188Y-93300518D01*
X69411928Y-93425000D01*
X69411928Y-93975000D01*
X69424188Y-94099482D01*
X69424345Y-94100000D01*
X69424188Y-94100518D01*
X69411928Y-94225000D01*
X69411928Y-94775000D01*
X69414462Y-94800734D01*
X67863972Y-96351225D01*
X67834968Y-96375028D01*
X67804473Y-96412187D01*
X67765396Y-96459802D01*
X66025199Y-98200000D01*
X63278178Y-98200000D01*
X63153475Y-98013368D01*
X62946632Y-97806525D01*
X62703411Y-97644010D01*
X62433158Y-97532068D01*
X62146260Y-97475000D01*
X61853740Y-97475000D01*
X61566842Y-97532068D01*
X61296589Y-97644010D01*
X61053368Y-97806525D01*
X60846525Y-98013368D01*
X60684010Y-98256589D01*
X60660000Y-98314555D01*
X60660000Y-93812500D01*
X61086928Y-93812500D01*
X61099188Y-93936982D01*
X61135498Y-94056680D01*
X61194463Y-94166994D01*
X61273815Y-94263685D01*
X61370506Y-94343037D01*
X61480820Y-94402002D01*
X61600518Y-94438312D01*
X61725000Y-94450572D01*
X62314250Y-94447500D01*
X62473000Y-94288750D01*
X62473000Y-93227000D01*
X62727000Y-93227000D01*
X62727000Y-94288750D01*
X62885750Y-94447500D01*
X63475000Y-94450572D01*
X63599482Y-94438312D01*
X63719180Y-94402002D01*
X63829494Y-94343037D01*
X63926185Y-94263685D01*
X64005537Y-94166994D01*
X64064502Y-94056680D01*
X64100812Y-93936982D01*
X64113072Y-93812500D01*
X64110000Y-93385750D01*
X63951250Y-93227000D01*
X62727000Y-93227000D01*
X62473000Y-93227000D01*
X61248750Y-93227000D01*
X61090000Y-93385750D01*
X61086928Y-93812500D01*
X60660000Y-93812500D01*
X60660000Y-92387500D01*
X61086928Y-92387500D01*
X61090000Y-92814250D01*
X61248750Y-92973000D01*
X62473000Y-92973000D01*
X62473000Y-91911250D01*
X62727000Y-91911250D01*
X62727000Y-92973000D01*
X63951250Y-92973000D01*
X64110000Y-92814250D01*
X64113072Y-92387500D01*
X64100812Y-92263018D01*
X64064502Y-92143320D01*
X64005537Y-92033006D01*
X63926185Y-91936315D01*
X63829494Y-91856963D01*
X63719180Y-91797998D01*
X63599482Y-91761688D01*
X63475000Y-91749428D01*
X62885750Y-91752500D01*
X62727000Y-91911250D01*
X62473000Y-91911250D01*
X62314250Y-91752500D01*
X61725000Y-91749428D01*
X61600518Y-91761688D01*
X61480820Y-91797998D01*
X61370506Y-91856963D01*
X61273815Y-91936315D01*
X61194463Y-92033006D01*
X61135498Y-92143320D01*
X61099188Y-92263018D01*
X61086928Y-92387500D01*
X60660000Y-92387500D01*
X60660000Y-90600000D01*
X61086928Y-90600000D01*
X61099188Y-90724482D01*
X61135498Y-90844180D01*
X61194463Y-90954494D01*
X61273815Y-91051185D01*
X61370506Y-91130537D01*
X61480820Y-91189502D01*
X61600518Y-91225812D01*
X61725000Y-91238072D01*
X62314250Y-91235000D01*
X62473000Y-91076250D01*
X62473000Y-90014500D01*
X62727000Y-90014500D01*
X62727000Y-91076250D01*
X62885750Y-91235000D01*
X63475000Y-91238072D01*
X63599482Y-91225812D01*
X63719180Y-91189502D01*
X63829494Y-91130537D01*
X63926185Y-91051185D01*
X64005537Y-90954494D01*
X64064502Y-90844180D01*
X64100812Y-90724482D01*
X64113072Y-90600000D01*
X64110000Y-90173250D01*
X63951250Y-90014500D01*
X62727000Y-90014500D01*
X62473000Y-90014500D01*
X61248750Y-90014500D01*
X61090000Y-90173250D01*
X61086928Y-90600000D01*
X60660000Y-90600000D01*
X60660000Y-89175000D01*
X61086928Y-89175000D01*
X61090000Y-89601750D01*
X61248750Y-89760500D01*
X62473000Y-89760500D01*
X62473000Y-88698750D01*
X62727000Y-88698750D01*
X62727000Y-89760500D01*
X63951250Y-89760500D01*
X64110000Y-89601750D01*
X64113072Y-89175000D01*
X64100812Y-89050518D01*
X64064502Y-88930820D01*
X64005537Y-88820506D01*
X63926185Y-88723815D01*
X63829494Y-88644463D01*
X63719180Y-88585498D01*
X63599482Y-88549188D01*
X63475000Y-88536928D01*
X62885750Y-88540000D01*
X62727000Y-88698750D01*
X62473000Y-88698750D01*
X62314250Y-88540000D01*
X61725000Y-88536928D01*
X61600518Y-88549188D01*
X61480820Y-88585498D01*
X61370506Y-88644463D01*
X61273815Y-88723815D01*
X61194463Y-88820506D01*
X61135498Y-88930820D01*
X61099188Y-89050518D01*
X61086928Y-89175000D01*
X60660000Y-89175000D01*
X60660000Y-84899193D01*
X60696852Y-84923543D01*
X62720395Y-82900000D01*
X63079605Y-82900000D01*
X65103148Y-84923543D01*
X65521118Y-84647373D01*
X65799622Y-84125000D01*
X69461928Y-84125000D01*
X69465000Y-84714250D01*
X69623750Y-84873000D01*
X70685500Y-84873000D01*
X70685500Y-83648750D01*
X70939500Y-83648750D01*
X70939500Y-84873000D01*
X72001250Y-84873000D01*
X72160000Y-84714250D01*
X72163072Y-84125000D01*
X72150812Y-84000518D01*
X72114502Y-83880820D01*
X72055537Y-83770506D01*
X71976185Y-83673815D01*
X71879494Y-83594463D01*
X71769180Y-83535498D01*
X71649482Y-83499188D01*
X71525000Y-83486928D01*
X71098250Y-83490000D01*
X70939500Y-83648750D01*
X70685500Y-83648750D01*
X70526750Y-83490000D01*
X70100000Y-83486928D01*
X69975518Y-83499188D01*
X69855820Y-83535498D01*
X69745506Y-83594463D01*
X69648815Y-83673815D01*
X69569463Y-83770506D01*
X69510498Y-83880820D01*
X69474188Y-84000518D01*
X69461928Y-84125000D01*
X65799622Y-84125000D01*
X65811649Y-84102443D01*
X65990287Y-83511304D01*
X66050168Y-82896672D01*
X65996430Y-82356891D01*
X67958519Y-82356891D01*
X68055843Y-82631252D01*
X68204822Y-82881355D01*
X68399731Y-83097588D01*
X68633080Y-83271641D01*
X68895901Y-83396825D01*
X69043110Y-83441476D01*
X69273000Y-83320155D01*
X69273000Y-82127000D01*
X68079186Y-82127000D01*
X67958519Y-82356891D01*
X65996430Y-82356891D01*
X65988990Y-82282169D01*
X65809103Y-81691408D01*
X65521118Y-81152627D01*
X65103148Y-80876457D01*
X63079605Y-82900000D01*
X62720395Y-82900000D01*
X60696852Y-80876457D01*
X60660000Y-80900807D01*
X60660000Y-80660000D01*
X60900807Y-80660000D01*
X60876457Y-80696852D01*
G36*
X74740001Y-92659982D02*
G01*
X74740000Y-93808200D01*
X73984999Y-94563202D01*
X73984999Y-93516800D01*
X74411002Y-93090798D01*
X74440001Y-93066999D01*
X74534974Y-92951274D01*
X74605546Y-92819245D01*
X74649003Y-92675984D01*
X74649294Y-92673026D01*
X74700000Y-92611241D01*
X74740001Y-92659982D01*
G37*
X74740001Y-92659982D02*
X74740000Y-93808200D01*
X73984999Y-94563202D01*
X73984999Y-93516800D01*
X74411002Y-93090798D01*
X74440001Y-93066999D01*
X74534974Y-92951274D01*
X74605546Y-92819245D01*
X74649003Y-92675984D01*
X74649294Y-92673026D01*
X74700000Y-92611241D01*
X74740001Y-92659982D01*
%TD*%
M02*
