%TF.GenerationSoftware,KiCad,Pcbnew,(5.1.6)-1*%
%TF.CreationDate,2020-09-09T14:29:39-07:00*%
%TF.ProjectId,DigitController,44696769-7443-46f6-9e74-726f6c6c6572,rev?*%
%TF.SameCoordinates,Original*%
%TF.FileFunction,Legend,Top*%
%TF.FilePolarity,Positive*%
%FSLAX46Y46*%
G04 Gerber Fmt 4.6, Leading zero omitted, Abs format (unit mm)*
G04 Created by KiCad (PCBNEW (5.1.6)-1) date 2020-09-09 14:29:39*
%MOMM*%
%LPD*%
G01*
G04 APERTURE LIST*
%ADD10C,0.125000*%
%ADD11C,0.150000*%
%ADD12C,0.120000*%
G04 APERTURE END LIST*
D10*
X81478571Y-83976190D02*
X81478571Y-83476190D01*
X81597619Y-83476190D01*
X81669047Y-83500000D01*
X81716666Y-83547619D01*
X81740476Y-83595238D01*
X81764285Y-83690476D01*
X81764285Y-83761904D01*
X81740476Y-83857142D01*
X81716666Y-83904761D01*
X81669047Y-83952380D01*
X81597619Y-83976190D01*
X81478571Y-83976190D01*
X81907142Y-83476190D02*
X82192857Y-83476190D01*
X82050000Y-83976190D02*
X82050000Y-83476190D01*
X82645238Y-83976190D02*
X82478571Y-83738095D01*
X82359523Y-83976190D02*
X82359523Y-83476190D01*
X82550000Y-83476190D01*
X82597619Y-83500000D01*
X82621428Y-83523809D01*
X82645238Y-83571428D01*
X82645238Y-83642857D01*
X82621428Y-83690476D01*
X82597619Y-83714285D01*
X82550000Y-83738095D01*
X82359523Y-83738095D01*
D11*
X74902380Y-98485714D02*
X74902380Y-98295238D01*
X74950000Y-98200000D01*
X75045238Y-98104761D01*
X75235714Y-98057142D01*
X75569047Y-98057142D01*
X75759523Y-98104761D01*
X75854761Y-98200000D01*
X75902380Y-98295238D01*
X75902380Y-98485714D01*
X75854761Y-98580952D01*
X75759523Y-98676190D01*
X75569047Y-98723809D01*
X75235714Y-98723809D01*
X75045238Y-98676190D01*
X74950000Y-98580952D01*
X74902380Y-98485714D01*
X75902380Y-97628571D02*
X74902380Y-97628571D01*
X75902380Y-97200000D02*
X75378571Y-97200000D01*
X75283333Y-97247619D01*
X75235714Y-97342857D01*
X75235714Y-97485714D01*
X75283333Y-97580952D01*
X75330952Y-97628571D01*
X75902380Y-95961904D02*
X74902380Y-95961904D01*
X75902380Y-95533333D02*
X75378571Y-95533333D01*
X75283333Y-95580952D01*
X75235714Y-95676190D01*
X75235714Y-95819047D01*
X75283333Y-95914285D01*
X75330952Y-95961904D01*
X75854761Y-94676190D02*
X75902380Y-94771428D01*
X75902380Y-94961904D01*
X75854761Y-95057142D01*
X75759523Y-95104761D01*
X75378571Y-95104761D01*
X75283333Y-95057142D01*
X75235714Y-94961904D01*
X75235714Y-94771428D01*
X75283333Y-94676190D01*
X75378571Y-94628571D01*
X75473809Y-94628571D01*
X75569047Y-95104761D01*
X75902380Y-94057142D02*
X75854761Y-94152380D01*
X75759523Y-94200000D01*
X74902380Y-94200000D01*
X75902380Y-93533333D02*
X75854761Y-93628571D01*
X75759523Y-93676190D01*
X74902380Y-93676190D01*
X75902380Y-93009523D02*
X75854761Y-93104761D01*
X75807142Y-93152380D01*
X75711904Y-93200000D01*
X75426190Y-93200000D01*
X75330952Y-93152380D01*
X75283333Y-93104761D01*
X75235714Y-93009523D01*
X75235714Y-92866666D01*
X75283333Y-92771428D01*
X75330952Y-92723809D01*
X75426190Y-92676190D01*
X75711904Y-92676190D01*
X75807142Y-92723809D01*
X75854761Y-92771428D01*
X75902380Y-92866666D01*
X75902380Y-93009523D01*
D10*
X78895238Y-105623809D02*
X78919047Y-105600000D01*
X78966666Y-105576190D01*
X79085714Y-105576190D01*
X79133333Y-105600000D01*
X79157142Y-105623809D01*
X79180952Y-105671428D01*
X79180952Y-105719047D01*
X79157142Y-105790476D01*
X78871428Y-106076190D01*
X79180952Y-106076190D01*
X79371428Y-105623809D02*
X79395238Y-105600000D01*
X79442857Y-105576190D01*
X79561904Y-105576190D01*
X79609523Y-105600000D01*
X79633333Y-105623809D01*
X79657142Y-105671428D01*
X79657142Y-105719047D01*
X79633333Y-105790476D01*
X79347619Y-106076190D01*
X79657142Y-106076190D01*
X79966666Y-105576190D02*
X80014285Y-105576190D01*
X80061904Y-105600000D01*
X80085714Y-105623809D01*
X80109523Y-105671428D01*
X80133333Y-105766666D01*
X80133333Y-105885714D01*
X80109523Y-105980952D01*
X80085714Y-106028571D01*
X80061904Y-106052380D01*
X80014285Y-106076190D01*
X79966666Y-106076190D01*
X79919047Y-106052380D01*
X79895238Y-106028571D01*
X79871428Y-105980952D01*
X79847619Y-105885714D01*
X79847619Y-105766666D01*
X79871428Y-105671428D01*
X79895238Y-105623809D01*
X79919047Y-105600000D01*
X79966666Y-105576190D01*
X80323809Y-106076190D02*
X80442857Y-106076190D01*
X80442857Y-105980952D01*
X80395238Y-105957142D01*
X80347619Y-105909523D01*
X80323809Y-105838095D01*
X80323809Y-105719047D01*
X80347619Y-105647619D01*
X80395238Y-105600000D01*
X80466666Y-105576190D01*
X80561904Y-105576190D01*
X80633333Y-105600000D01*
X80680952Y-105647619D01*
X80704761Y-105719047D01*
X80704761Y-105838095D01*
X80680952Y-105909523D01*
X80633333Y-105957142D01*
X80585714Y-105980952D01*
X80585714Y-106076190D01*
X80704761Y-106076190D01*
X69626190Y-86423809D02*
X69626190Y-86709523D01*
X69626190Y-86566666D02*
X69126190Y-86566666D01*
X69197619Y-86614285D01*
X69245238Y-86661904D01*
X69269047Y-86709523D01*
X69126190Y-86114285D02*
X69126190Y-86066666D01*
X69150000Y-86019047D01*
X69173809Y-85995238D01*
X69221428Y-85971428D01*
X69316666Y-85947619D01*
X69435714Y-85947619D01*
X69530952Y-85971428D01*
X69578571Y-85995238D01*
X69602380Y-86019047D01*
X69626190Y-86066666D01*
X69626190Y-86114285D01*
X69602380Y-86161904D01*
X69578571Y-86185714D01*
X69530952Y-86209523D01*
X69435714Y-86233333D01*
X69316666Y-86233333D01*
X69221428Y-86209523D01*
X69173809Y-86185714D01*
X69150000Y-86161904D01*
X69126190Y-86114285D01*
X69126190Y-85638095D02*
X69126190Y-85590476D01*
X69150000Y-85542857D01*
X69173809Y-85519047D01*
X69221428Y-85495238D01*
X69316666Y-85471428D01*
X69435714Y-85471428D01*
X69530952Y-85495238D01*
X69578571Y-85519047D01*
X69602380Y-85542857D01*
X69626190Y-85590476D01*
X69626190Y-85638095D01*
X69602380Y-85685714D01*
X69578571Y-85709523D01*
X69530952Y-85733333D01*
X69435714Y-85757142D01*
X69316666Y-85757142D01*
X69221428Y-85733333D01*
X69173809Y-85709523D01*
X69150000Y-85685714D01*
X69126190Y-85638095D01*
X69292857Y-85042857D02*
X69626190Y-85042857D01*
X69292857Y-85257142D02*
X69554761Y-85257142D01*
X69602380Y-85233333D01*
X69626190Y-85185714D01*
X69626190Y-85114285D01*
X69602380Y-85066666D01*
X69578571Y-85042857D01*
X69364285Y-84638095D02*
X69364285Y-84804761D01*
X69626190Y-84804761D02*
X69126190Y-84804761D01*
X69126190Y-84566666D01*
X83778571Y-92726190D02*
X83492857Y-92726190D01*
X83635714Y-92726190D02*
X83635714Y-92226190D01*
X83588095Y-92297619D01*
X83540476Y-92345238D01*
X83492857Y-92369047D01*
X84088095Y-92226190D02*
X84135714Y-92226190D01*
X84183333Y-92250000D01*
X84207142Y-92273809D01*
X84230952Y-92321428D01*
X84254761Y-92416666D01*
X84254761Y-92535714D01*
X84230952Y-92630952D01*
X84207142Y-92678571D01*
X84183333Y-92702380D01*
X84135714Y-92726190D01*
X84088095Y-92726190D01*
X84040476Y-92702380D01*
X84016666Y-92678571D01*
X83992857Y-92630952D01*
X83969047Y-92535714D01*
X83969047Y-92416666D01*
X83992857Y-92321428D01*
X84016666Y-92273809D01*
X84040476Y-92250000D01*
X84088095Y-92226190D01*
X84564285Y-92226190D02*
X84611904Y-92226190D01*
X84659523Y-92250000D01*
X84683333Y-92273809D01*
X84707142Y-92321428D01*
X84730952Y-92416666D01*
X84730952Y-92535714D01*
X84707142Y-92630952D01*
X84683333Y-92678571D01*
X84659523Y-92702380D01*
X84611904Y-92726190D01*
X84564285Y-92726190D01*
X84516666Y-92702380D01*
X84492857Y-92678571D01*
X84469047Y-92630952D01*
X84445238Y-92535714D01*
X84445238Y-92416666D01*
X84469047Y-92321428D01*
X84492857Y-92273809D01*
X84516666Y-92250000D01*
X84564285Y-92226190D01*
X84945238Y-92726190D02*
X84945238Y-92226190D01*
X84992857Y-92535714D02*
X85135714Y-92726190D01*
X85135714Y-92392857D02*
X84945238Y-92583333D01*
X85326190Y-92726190D02*
X85445238Y-92726190D01*
X85445238Y-92630952D01*
X85397619Y-92607142D01*
X85350000Y-92559523D01*
X85326190Y-92488095D01*
X85326190Y-92369047D01*
X85350000Y-92297619D01*
X85397619Y-92250000D01*
X85469047Y-92226190D01*
X85564285Y-92226190D01*
X85635714Y-92250000D01*
X85683333Y-92297619D01*
X85707142Y-92369047D01*
X85707142Y-92488095D01*
X85683333Y-92559523D01*
X85635714Y-92607142D01*
X85588095Y-92630952D01*
X85588095Y-92726190D01*
X85707142Y-92726190D01*
X83726190Y-98076190D02*
X83440476Y-98076190D01*
X83583333Y-98076190D02*
X83583333Y-97576190D01*
X83535714Y-97647619D01*
X83488095Y-97695238D01*
X83440476Y-97719047D01*
X84035714Y-97576190D02*
X84083333Y-97576190D01*
X84130952Y-97600000D01*
X84154761Y-97623809D01*
X84178571Y-97671428D01*
X84202380Y-97766666D01*
X84202380Y-97885714D01*
X84178571Y-97980952D01*
X84154761Y-98028571D01*
X84130952Y-98052380D01*
X84083333Y-98076190D01*
X84035714Y-98076190D01*
X83988095Y-98052380D01*
X83964285Y-98028571D01*
X83940476Y-97980952D01*
X83916666Y-97885714D01*
X83916666Y-97766666D01*
X83940476Y-97671428D01*
X83964285Y-97623809D01*
X83988095Y-97600000D01*
X84035714Y-97576190D01*
X84511904Y-97576190D02*
X84559523Y-97576190D01*
X84607142Y-97600000D01*
X84630952Y-97623809D01*
X84654761Y-97671428D01*
X84678571Y-97766666D01*
X84678571Y-97885714D01*
X84654761Y-97980952D01*
X84630952Y-98028571D01*
X84607142Y-98052380D01*
X84559523Y-98076190D01*
X84511904Y-98076190D01*
X84464285Y-98052380D01*
X84440476Y-98028571D01*
X84416666Y-97980952D01*
X84392857Y-97885714D01*
X84392857Y-97766666D01*
X84416666Y-97671428D01*
X84440476Y-97623809D01*
X84464285Y-97600000D01*
X84511904Y-97576190D01*
X84892857Y-97742857D02*
X84892857Y-98076190D01*
X84892857Y-97790476D02*
X84916666Y-97766666D01*
X84964285Y-97742857D01*
X85035714Y-97742857D01*
X85083333Y-97766666D01*
X85107142Y-97814285D01*
X85107142Y-98076190D01*
X85511904Y-97814285D02*
X85345238Y-97814285D01*
X85345238Y-98076190D02*
X85345238Y-97576190D01*
X85583333Y-97576190D01*
X60873809Y-95371428D02*
X60850000Y-95347619D01*
X60826190Y-95300000D01*
X60826190Y-95180952D01*
X60850000Y-95133333D01*
X60873809Y-95109523D01*
X60921428Y-95085714D01*
X60969047Y-95085714D01*
X61040476Y-95109523D01*
X61326190Y-95395238D01*
X61326190Y-95085714D01*
X60873809Y-94895238D02*
X60850000Y-94871428D01*
X60826190Y-94823809D01*
X60826190Y-94704761D01*
X60850000Y-94657142D01*
X60873809Y-94633333D01*
X60921428Y-94609523D01*
X60969047Y-94609523D01*
X61040476Y-94633333D01*
X61326190Y-94919047D01*
X61326190Y-94609523D01*
X60992857Y-94395238D02*
X61492857Y-94395238D01*
X61016666Y-94395238D02*
X60992857Y-94347619D01*
X60992857Y-94252380D01*
X61016666Y-94204761D01*
X61040476Y-94180952D01*
X61088095Y-94157142D01*
X61230952Y-94157142D01*
X61278571Y-94180952D01*
X61302380Y-94204761D01*
X61326190Y-94252380D01*
X61326190Y-94347619D01*
X61302380Y-94395238D01*
X61064285Y-93776190D02*
X61064285Y-93942857D01*
X61326190Y-93942857D02*
X60826190Y-93942857D01*
X60826190Y-93704761D01*
X60873809Y-89021428D02*
X60850000Y-88997619D01*
X60826190Y-88950000D01*
X60826190Y-88830952D01*
X60850000Y-88783333D01*
X60873809Y-88759523D01*
X60921428Y-88735714D01*
X60969047Y-88735714D01*
X61040476Y-88759523D01*
X61326190Y-89045238D01*
X61326190Y-88735714D01*
X60873809Y-88545238D02*
X60850000Y-88521428D01*
X60826190Y-88473809D01*
X60826190Y-88354761D01*
X60850000Y-88307142D01*
X60873809Y-88283333D01*
X60921428Y-88259523D01*
X60969047Y-88259523D01*
X61040476Y-88283333D01*
X61326190Y-88569047D01*
X61326190Y-88259523D01*
X60992857Y-88045238D02*
X61492857Y-88045238D01*
X61016666Y-88045238D02*
X60992857Y-87997619D01*
X60992857Y-87902380D01*
X61016666Y-87854761D01*
X61040476Y-87830952D01*
X61088095Y-87807142D01*
X61230952Y-87807142D01*
X61278571Y-87830952D01*
X61302380Y-87854761D01*
X61326190Y-87902380D01*
X61326190Y-87997619D01*
X61302380Y-88045238D01*
X61064285Y-87426190D02*
X61064285Y-87592857D01*
X61326190Y-87592857D02*
X60826190Y-87592857D01*
X60826190Y-87354761D01*
X69019047Y-83500000D02*
X68971428Y-83476190D01*
X68900000Y-83476190D01*
X68828571Y-83500000D01*
X68780952Y-83547619D01*
X68757142Y-83595238D01*
X68733333Y-83690476D01*
X68733333Y-83761904D01*
X68757142Y-83857142D01*
X68780952Y-83904761D01*
X68828571Y-83952380D01*
X68900000Y-83976190D01*
X68947619Y-83976190D01*
X69019047Y-83952380D01*
X69042857Y-83928571D01*
X69042857Y-83761904D01*
X68947619Y-83761904D01*
X69257142Y-83976190D02*
X69257142Y-83476190D01*
X69542857Y-83976190D01*
X69542857Y-83476190D01*
X69780952Y-83976190D02*
X69780952Y-83476190D01*
X69900000Y-83476190D01*
X69971428Y-83500000D01*
X70019047Y-83547619D01*
X70042857Y-83595238D01*
X70066666Y-83690476D01*
X70066666Y-83761904D01*
X70042857Y-83857142D01*
X70019047Y-83904761D01*
X69971428Y-83952380D01*
X69900000Y-83976190D01*
X69780952Y-83976190D01*
X79516666Y-83976190D02*
X79350000Y-83738095D01*
X79230952Y-83976190D02*
X79230952Y-83476190D01*
X79421428Y-83476190D01*
X79469047Y-83500000D01*
X79492857Y-83523809D01*
X79516666Y-83571428D01*
X79516666Y-83642857D01*
X79492857Y-83690476D01*
X79469047Y-83714285D01*
X79421428Y-83738095D01*
X79230952Y-83738095D01*
X79683333Y-83476190D02*
X80016666Y-83976190D01*
X80016666Y-83476190D02*
X79683333Y-83976190D01*
X76619047Y-83476190D02*
X76904761Y-83476190D01*
X76761904Y-83976190D02*
X76761904Y-83476190D01*
X77023809Y-83476190D02*
X77357142Y-83976190D01*
X77357142Y-83476190D02*
X77023809Y-83976190D01*
X74404761Y-83476190D02*
X74166666Y-83476190D01*
X74142857Y-83714285D01*
X74166666Y-83690476D01*
X74214285Y-83666666D01*
X74333333Y-83666666D01*
X74380952Y-83690476D01*
X74404761Y-83714285D01*
X74428571Y-83761904D01*
X74428571Y-83880952D01*
X74404761Y-83928571D01*
X74380952Y-83952380D01*
X74333333Y-83976190D01*
X74214285Y-83976190D01*
X74166666Y-83952380D01*
X74142857Y-83928571D01*
X74571428Y-83476190D02*
X74738095Y-83976190D01*
X74904761Y-83476190D01*
X78542857Y-87052380D02*
X78614285Y-87076190D01*
X78733333Y-87076190D01*
X78780952Y-87052380D01*
X78804761Y-87028571D01*
X78828571Y-86980952D01*
X78828571Y-86933333D01*
X78804761Y-86885714D01*
X78780952Y-86861904D01*
X78733333Y-86838095D01*
X78638095Y-86814285D01*
X78590476Y-86790476D01*
X78566666Y-86766666D01*
X78542857Y-86719047D01*
X78542857Y-86671428D01*
X78566666Y-86623809D01*
X78590476Y-86600000D01*
X78638095Y-86576190D01*
X78757142Y-86576190D01*
X78828571Y-86600000D01*
X79042857Y-87076190D02*
X79042857Y-86576190D01*
X79161904Y-86576190D01*
X79233333Y-86600000D01*
X79280952Y-86647619D01*
X79304761Y-86695238D01*
X79328571Y-86790476D01*
X79328571Y-86861904D01*
X79304761Y-86957142D01*
X79280952Y-87004761D01*
X79233333Y-87052380D01*
X79161904Y-87076190D01*
X79042857Y-87076190D01*
X79519047Y-86933333D02*
X79757142Y-86933333D01*
X79471428Y-87076190D02*
X79638095Y-86576190D01*
X79804761Y-87076190D01*
X76054761Y-87052380D02*
X76126190Y-87076190D01*
X76245238Y-87076190D01*
X76292857Y-87052380D01*
X76316666Y-87028571D01*
X76340476Y-86980952D01*
X76340476Y-86933333D01*
X76316666Y-86885714D01*
X76292857Y-86861904D01*
X76245238Y-86838095D01*
X76150000Y-86814285D01*
X76102380Y-86790476D01*
X76078571Y-86766666D01*
X76054761Y-86719047D01*
X76054761Y-86671428D01*
X76078571Y-86623809D01*
X76102380Y-86600000D01*
X76150000Y-86576190D01*
X76269047Y-86576190D01*
X76340476Y-86600000D01*
X76840476Y-87028571D02*
X76816666Y-87052380D01*
X76745238Y-87076190D01*
X76697619Y-87076190D01*
X76626190Y-87052380D01*
X76578571Y-87004761D01*
X76554761Y-86957142D01*
X76530952Y-86861904D01*
X76530952Y-86790476D01*
X76554761Y-86695238D01*
X76578571Y-86647619D01*
X76626190Y-86600000D01*
X76697619Y-86576190D01*
X76745238Y-86576190D01*
X76816666Y-86600000D01*
X76840476Y-86623809D01*
X77292857Y-87076190D02*
X77054761Y-87076190D01*
X77054761Y-86576190D01*
X74004761Y-86576190D02*
X73766666Y-86576190D01*
X73742857Y-86814285D01*
X73766666Y-86790476D01*
X73814285Y-86766666D01*
X73933333Y-86766666D01*
X73980952Y-86790476D01*
X74004761Y-86814285D01*
X74028571Y-86861904D01*
X74028571Y-86980952D01*
X74004761Y-87028571D01*
X73980952Y-87052380D01*
X73933333Y-87076190D01*
X73814285Y-87076190D01*
X73766666Y-87052380D01*
X73742857Y-87028571D01*
X74171428Y-86576190D02*
X74338095Y-87076190D01*
X74504761Y-86576190D01*
X71169047Y-86600000D02*
X71121428Y-86576190D01*
X71050000Y-86576190D01*
X70978571Y-86600000D01*
X70930952Y-86647619D01*
X70907142Y-86695238D01*
X70883333Y-86790476D01*
X70883333Y-86861904D01*
X70907142Y-86957142D01*
X70930952Y-87004761D01*
X70978571Y-87052380D01*
X71050000Y-87076190D01*
X71097619Y-87076190D01*
X71169047Y-87052380D01*
X71192857Y-87028571D01*
X71192857Y-86861904D01*
X71097619Y-86861904D01*
X71407142Y-87076190D02*
X71407142Y-86576190D01*
X71692857Y-87076190D01*
X71692857Y-86576190D01*
X71930952Y-87076190D02*
X71930952Y-86576190D01*
X72050000Y-86576190D01*
X72121428Y-86600000D01*
X72169047Y-86647619D01*
X72192857Y-86695238D01*
X72216666Y-86790476D01*
X72216666Y-86861904D01*
X72192857Y-86957142D01*
X72169047Y-87004761D01*
X72121428Y-87052380D01*
X72050000Y-87076190D01*
X71930952Y-87076190D01*
D11*
X86021428Y-88128571D02*
X86164285Y-88176190D01*
X86211904Y-88223809D01*
X86259523Y-88319047D01*
X86259523Y-88461904D01*
X86211904Y-88557142D01*
X86164285Y-88604761D01*
X86069047Y-88652380D01*
X85688095Y-88652380D01*
X85688095Y-87652380D01*
X86021428Y-87652380D01*
X86116666Y-87700000D01*
X86164285Y-87747619D01*
X86211904Y-87842857D01*
X86211904Y-87938095D01*
X86164285Y-88033333D01*
X86116666Y-88080952D01*
X86021428Y-88128571D01*
X85688095Y-88128571D01*
X83011904Y-88366666D02*
X83488095Y-88366666D01*
X82916666Y-88652380D02*
X83250000Y-87652380D01*
X83583333Y-88652380D01*
X64692857Y-98928571D02*
X64359523Y-98928571D01*
X64359523Y-99452380D02*
X64359523Y-98452380D01*
X64835714Y-98452380D01*
X64335714Y-101428571D02*
X64669047Y-101428571D01*
X64811904Y-101952380D02*
X64335714Y-101952380D01*
X64335714Y-100952380D01*
X64811904Y-100952380D01*
X75114285Y-106052380D02*
X75114285Y-105052380D01*
X75114285Y-105528571D02*
X75685714Y-105528571D01*
X75685714Y-106052380D02*
X75685714Y-105052380D01*
X73111904Y-105100000D02*
X73016666Y-105052380D01*
X72873809Y-105052380D01*
X72730952Y-105100000D01*
X72635714Y-105195238D01*
X72588095Y-105290476D01*
X72540476Y-105480952D01*
X72540476Y-105623809D01*
X72588095Y-105814285D01*
X72635714Y-105909523D01*
X72730952Y-106004761D01*
X72873809Y-106052380D01*
X72969047Y-106052380D01*
X73111904Y-106004761D01*
X73159523Y-105957142D01*
X73159523Y-105623809D01*
X72969047Y-105623809D01*
X69988095Y-106052380D02*
X69988095Y-105052380D01*
X70226190Y-105052380D01*
X70369047Y-105100000D01*
X70464285Y-105195238D01*
X70511904Y-105290476D01*
X70559523Y-105480952D01*
X70559523Y-105623809D01*
X70511904Y-105814285D01*
X70464285Y-105909523D01*
X70369047Y-106004761D01*
X70226190Y-106052380D01*
X69988095Y-106052380D01*
X68009523Y-105957142D02*
X67961904Y-106004761D01*
X67819047Y-106052380D01*
X67723809Y-106052380D01*
X67580952Y-106004761D01*
X67485714Y-105909523D01*
X67438095Y-105814285D01*
X67390476Y-105623809D01*
X67390476Y-105480952D01*
X67438095Y-105290476D01*
X67485714Y-105195238D01*
X67580952Y-105100000D01*
X67723809Y-105052380D01*
X67819047Y-105052380D01*
X67961904Y-105100000D01*
X68009523Y-105147619D01*
X79285714Y-91602380D02*
X78714285Y-91602380D01*
X79000000Y-91602380D02*
X79000000Y-90602380D01*
X78904761Y-90745238D01*
X78809523Y-90840476D01*
X78714285Y-90888095D01*
D12*
%TO.C,Y1*%
X64100000Y-94000000D02*
G75*
G03*
X69500000Y-94000000I2700000J0D01*
G01*
X64100000Y-89000000D02*
G75*
G02*
X69500000Y-89000000I2700000J0D01*
G01*
X69500000Y-89000000D02*
X69500000Y-94000000D01*
X64100000Y-89000000D02*
X64100000Y-94000000D01*
D11*
%TO.C,U1*%
X78725000Y-92075000D02*
X78500000Y-92075000D01*
X78725000Y-99325000D02*
X78400000Y-99325000D01*
X71475000Y-99325000D02*
X71800000Y-99325000D01*
X71475000Y-92075000D02*
X71800000Y-92075000D01*
X78725000Y-92075000D02*
X78725000Y-92400000D01*
X71475000Y-92075000D02*
X71475000Y-92400000D01*
X71475000Y-99325000D02*
X71475000Y-99000000D01*
X78725000Y-99325000D02*
X78725000Y-99000000D01*
X78500000Y-92075000D02*
X78500000Y-90650000D01*
D12*
%TO.C,R2*%
X80402064Y-105210000D02*
X79197936Y-105210000D01*
X80402064Y-103390000D02*
X79197936Y-103390000D01*
%TO.C,R1*%
X83997936Y-93090000D02*
X85202064Y-93090000D01*
X83997936Y-94910000D02*
X85202064Y-94910000D01*
%TO.C,J5*%
X66450000Y-106470000D02*
X66450000Y-109130000D01*
X74130000Y-106470000D02*
X66450000Y-106470000D01*
X74130000Y-109130000D02*
X66450000Y-109130000D01*
X74130000Y-106470000D02*
X74130000Y-109130000D01*
X75400000Y-106470000D02*
X76730000Y-106470000D01*
X76730000Y-106470000D02*
X76730000Y-107800000D01*
%TO.C,J4*%
X63330000Y-97630000D02*
X60670000Y-97630000D01*
X63330000Y-100230000D02*
X63330000Y-97630000D01*
X60670000Y-100230000D02*
X60670000Y-97630000D01*
X63330000Y-100230000D02*
X60670000Y-100230000D01*
X63330000Y-101500000D02*
X63330000Y-102830000D01*
X63330000Y-102830000D02*
X62000000Y-102830000D01*
%TO.C,J3*%
X82030000Y-88870000D02*
X82030000Y-91530000D01*
X84630000Y-88870000D02*
X82030000Y-88870000D01*
X84630000Y-91530000D02*
X82030000Y-91530000D01*
X84630000Y-88870000D02*
X84630000Y-91530000D01*
X85900000Y-88870000D02*
X87230000Y-88870000D01*
X87230000Y-88870000D02*
X87230000Y-90200000D01*
%TO.C,J2*%
X68070000Y-80670000D02*
X68070000Y-83330000D01*
X80830000Y-80670000D02*
X68070000Y-80670000D01*
X80830000Y-83330000D02*
X68070000Y-83330000D01*
X80830000Y-80670000D02*
X80830000Y-83330000D01*
X82100000Y-80670000D02*
X83430000Y-80670000D01*
X83430000Y-80670000D02*
X83430000Y-82000000D01*
%TO.C,J1*%
X70250000Y-87270000D02*
X70250000Y-89930000D01*
X77930000Y-87270000D02*
X70250000Y-87270000D01*
X77930000Y-89930000D02*
X70250000Y-89930000D01*
X77930000Y-87270000D02*
X77930000Y-89930000D01*
X79200000Y-87270000D02*
X80530000Y-87270000D01*
X80530000Y-87270000D02*
X80530000Y-88600000D01*
%TO.C,D1*%
X83450000Y-103000000D02*
X76950000Y-103000000D01*
X76950000Y-103000000D02*
X76950000Y-101200000D01*
X76950000Y-101200000D02*
X83400000Y-101200000D01*
X83400000Y-101200000D02*
X83450000Y-101200000D01*
X83450000Y-101200000D02*
X83450000Y-103000000D01*
%TO.C,C4*%
X61690000Y-95189564D02*
X61690000Y-93985436D01*
X63510000Y-95189564D02*
X63510000Y-93985436D01*
%TO.C,C3*%
X63510000Y-87797936D02*
X63510000Y-89002064D01*
X61690000Y-87797936D02*
X61690000Y-89002064D01*
%TO.C,C2*%
X72902064Y-85910000D02*
X71697936Y-85910000D01*
X72902064Y-84090000D02*
X71697936Y-84090000D01*
%TO.C,C1*%
X83997936Y-95390000D02*
X85202064Y-95390000D01*
X83997936Y-97210000D02*
X85202064Y-97210000D01*
%TD*%
M02*
