M48
; DRILL file {KiCad (5.1.6)-1} date 09/09/20 14:29:43
; FORMAT={-:-/ absolute / inch / decimal}
; #@! TF.CreationDate,2020-09-09T14:29:43-07:00
; #@! TF.GenerationSoftware,Kicad,Pcbnew,(5.1.6)-1
FMAT,2
INCH
T1C0.0157
T2C0.0197
T3C0.0315
T4C0.0394
T5C0.0984
%
G90
G05
T1
X2.9114Y-3.7244
X2.9114Y-3.8071
X2.9114Y-3.8504
X2.9134Y-3.6811
X3.0118Y-3.3622
X3.0335Y-3.867
X3.0354Y-3.7087
X3.0354Y-3.748
X3.0354Y-3.7874
X3.0354Y-3.8268
X3.065Y-3.3622
X3.1201Y-3.3622
X3.1732Y-3.3622
X3.2323Y-3.8701
T2
X3.3553Y-3.2638
X3.3769Y-3.2116
X3.3769Y-3.316
X3.4291Y-3.19
X3.4291Y-3.3376
X3.4813Y-3.2116
X3.4813Y-3.316
X3.503Y-3.2638
X3.3563Y-4.2165
X3.3779Y-4.1643
X3.3779Y-4.2687
X3.4301Y-4.1427
X3.4301Y-4.2904
X3.4823Y-4.1643
X3.4823Y-4.2687
X3.5039Y-4.2165
X2.4026Y-4.2165
X2.4242Y-4.1643
X2.4242Y-4.2687
X2.4764Y-4.1427
X2.4764Y-4.2904
X2.5286Y-4.1643
X2.5286Y-4.2687
X2.5502Y-4.2165
X2.4026Y-3.2638
X2.4242Y-3.2116
X2.4242Y-3.316
X2.4764Y-3.19
X2.4764Y-3.3376
X2.5286Y-3.2116
X2.5286Y-3.316
X2.5502Y-3.2638
T3
X2.6299Y-3.5039
X2.6299Y-3.7008
T4
X3.2819Y-3.5512
X3.3819Y-3.5512
X2.4409Y-3.8961
X2.4409Y-3.9961
X2.7323Y-3.2283
X2.8323Y-3.2283
X2.9323Y-3.2283
X3.0323Y-3.2283
X3.1323Y-3.2283
X3.2323Y-3.2283
X2.6685Y-4.2441
X2.7685Y-4.2441
X2.8685Y-4.2441
X2.9685Y-4.2441
X2.8181Y-3.4882
X2.9181Y-3.4882
X3.0181Y-3.4882
X3.1181Y-3.4882
T5
X3.4291Y-3.2638
X3.4301Y-4.2165
X2.4764Y-4.2165
X2.4764Y-3.2638
T0
M30
