%TF.GenerationSoftware,KiCad,Pcbnew,(5.1.6)-1*%
%TF.CreationDate,2020-09-09T14:29:39-07:00*%
%TF.ProjectId,DigitController,44696769-7443-46f6-9e74-726f6c6c6572,rev?*%
%TF.SameCoordinates,Original*%
%TF.FileFunction,Soldermask,Bot*%
%TF.FilePolarity,Negative*%
%FSLAX46Y46*%
G04 Gerber Fmt 4.6, Leading zero omitted, Abs format (unit mm)*
G04 Created by KiCad (PCBNEW (5.1.6)-1) date 2020-09-09 14:29:39*
%MOMM*%
%LPD*%
G01*
G04 APERTURE LIST*
%ADD10C,1.600000*%
%ADD11O,1.800000X1.800000*%
%ADD12R,1.800000X1.800000*%
%ADD13C,0.900000*%
%ADD14C,5.100000*%
G04 APERTURE END LIST*
D10*
%TO.C,Y1*%
X66800000Y-94000000D03*
X66800000Y-89000000D03*
%TD*%
D11*
%TO.C,J5*%
X67780000Y-107800000D03*
X70320000Y-107800000D03*
X72860000Y-107800000D03*
D12*
X75400000Y-107800000D03*
%TD*%
D11*
%TO.C,J4*%
X62000000Y-98960000D03*
D12*
X62000000Y-101500000D03*
%TD*%
D11*
%TO.C,J3*%
X83360000Y-90200000D03*
D12*
X85900000Y-90200000D03*
%TD*%
D11*
%TO.C,J2*%
X69400000Y-82000000D03*
X71940000Y-82000000D03*
X74480000Y-82000000D03*
X77020000Y-82000000D03*
X79560000Y-82000000D03*
D12*
X82100000Y-82000000D03*
%TD*%
D11*
%TO.C,J1*%
X71580000Y-88600000D03*
X74120000Y-88600000D03*
X76660000Y-88600000D03*
D12*
X79200000Y-88600000D03*
%TD*%
D13*
%TO.C,H4*%
X88450825Y-105774175D03*
X87125000Y-105225000D03*
X85799175Y-105774175D03*
X85250000Y-107100000D03*
X85799175Y-108425825D03*
X87125000Y-108975000D03*
X88450825Y-108425825D03*
X89000000Y-107100000D03*
D14*
X87125000Y-107100000D03*
%TD*%
D13*
%TO.C,H3*%
X64225825Y-105774175D03*
X62900000Y-105225000D03*
X61574175Y-105774175D03*
X61025000Y-107100000D03*
X61574175Y-108425825D03*
X62900000Y-108975000D03*
X64225825Y-108425825D03*
X64775000Y-107100000D03*
D14*
X62900000Y-107100000D03*
%TD*%
D13*
%TO.C,H2*%
X88425825Y-81574175D03*
X87100000Y-81025000D03*
X85774175Y-81574175D03*
X85225000Y-82900000D03*
X85774175Y-84225825D03*
X87100000Y-84775000D03*
X88425825Y-84225825D03*
X88975000Y-82900000D03*
D14*
X87100000Y-82900000D03*
%TD*%
D13*
%TO.C,H1*%
X64225825Y-81574175D03*
X62900000Y-81025000D03*
X61574175Y-81574175D03*
X61025000Y-82900000D03*
X61574175Y-84225825D03*
X62900000Y-84775000D03*
X64225825Y-84225825D03*
X64775000Y-82900000D03*
D14*
X62900000Y-82900000D03*
%TD*%
M02*
