%TF.GenerationSoftware,KiCad,Pcbnew,(5.1.6)-1*%
%TF.CreationDate,2020-09-09T14:29:39-07:00*%
%TF.ProjectId,DigitController,44696769-7443-46f6-9e74-726f6c6c6572,rev?*%
%TF.SameCoordinates,Original*%
%TF.FileFunction,Copper,L2,Bot*%
%TF.FilePolarity,Positive*%
%FSLAX46Y46*%
G04 Gerber Fmt 4.6, Leading zero omitted, Abs format (unit mm)*
G04 Created by KiCad (PCBNEW (5.1.6)-1) date 2020-09-09 14:29:39*
%MOMM*%
%LPD*%
G01*
G04 APERTURE LIST*
%TA.AperFunction,ComponentPad*%
%ADD10C,1.500000*%
%TD*%
%TA.AperFunction,ComponentPad*%
%ADD11O,1.700000X1.700000*%
%TD*%
%TA.AperFunction,ComponentPad*%
%ADD12R,1.700000X1.700000*%
%TD*%
%TA.AperFunction,ComponentPad*%
%ADD13C,0.800000*%
%TD*%
%TA.AperFunction,ComponentPad*%
%ADD14C,5.000000*%
%TD*%
%TA.AperFunction,ViaPad*%
%ADD15C,0.800000*%
%TD*%
%TA.AperFunction,Conductor*%
%ADD16C,0.250000*%
%TD*%
%TA.AperFunction,Conductor*%
%ADD17C,0.254000*%
%TD*%
G04 APERTURE END LIST*
D10*
%TO.P,Y1,2*%
%TO.N,/XTAL2*%
X66800000Y-94000000D03*
%TO.P,Y1,1*%
%TO.N,/XTAL1*%
X66800000Y-89000000D03*
%TD*%
D11*
%TO.P,J5,4*%
%TO.N,/SEG_C*%
X67780000Y-107800000D03*
%TO.P,J5,3*%
%TO.N,/SEG_D*%
X70320000Y-107800000D03*
%TO.P,J5,2*%
%TO.N,/SEG_G*%
X72860000Y-107800000D03*
D12*
%TO.P,J5,1*%
%TO.N,/SEG_H*%
X75400000Y-107800000D03*
%TD*%
D11*
%TO.P,J4,2*%
%TO.N,/SEG_F*%
X62000000Y-98960000D03*
D12*
%TO.P,J4,1*%
%TO.N,/SEG_E*%
X62000000Y-101500000D03*
%TD*%
D11*
%TO.P,J3,2*%
%TO.N,/SEG_A*%
X83360000Y-90200000D03*
D12*
%TO.P,J3,1*%
%TO.N,/SEG_B*%
X85900000Y-90200000D03*
%TD*%
D11*
%TO.P,J2,6*%
%TO.N,/GND*%
X69400000Y-82000000D03*
%TO.P,J2,5*%
%TO.N,Net-(J2-Pad5)*%
X71940000Y-82000000D03*
%TO.P,J2,4*%
%TO.N,/5V*%
X74480000Y-82000000D03*
%TO.P,J2,3*%
%TO.N,/FTDI_TX*%
X77020000Y-82000000D03*
%TO.P,J2,2*%
%TO.N,/FTDI_RX*%
X79560000Y-82000000D03*
D12*
%TO.P,J2,1*%
%TO.N,/FTDI_DTR*%
X82100000Y-82000000D03*
%TD*%
D11*
%TO.P,J1,4*%
%TO.N,/GND*%
X71580000Y-88600000D03*
%TO.P,J1,3*%
%TO.N,/5V*%
X74120000Y-88600000D03*
%TO.P,J1,2*%
%TO.N,/SCL*%
X76660000Y-88600000D03*
D12*
%TO.P,J1,1*%
%TO.N,/SDA*%
X79200000Y-88600000D03*
%TD*%
D13*
%TO.P,H4,1*%
%TO.N,/GND*%
X88450825Y-105774175D03*
X87125000Y-105225000D03*
X85799175Y-105774175D03*
X85250000Y-107100000D03*
X85799175Y-108425825D03*
X87125000Y-108975000D03*
X88450825Y-108425825D03*
X89000000Y-107100000D03*
D14*
X87125000Y-107100000D03*
%TD*%
D13*
%TO.P,H3,1*%
%TO.N,/GND*%
X64225825Y-105774175D03*
X62900000Y-105225000D03*
X61574175Y-105774175D03*
X61025000Y-107100000D03*
X61574175Y-108425825D03*
X62900000Y-108975000D03*
X64225825Y-108425825D03*
X64775000Y-107100000D03*
D14*
X62900000Y-107100000D03*
%TD*%
D13*
%TO.P,H2,1*%
%TO.N,/GND*%
X88425825Y-81574175D03*
X87100000Y-81025000D03*
X85774175Y-81574175D03*
X85225000Y-82900000D03*
X85774175Y-84225825D03*
X87100000Y-84775000D03*
X88425825Y-84225825D03*
X88975000Y-82900000D03*
D14*
X87100000Y-82900000D03*
%TD*%
D13*
%TO.P,H1,1*%
%TO.N,/GND*%
X64225825Y-81574175D03*
X62900000Y-81025000D03*
X61574175Y-81574175D03*
X61025000Y-82900000D03*
X61574175Y-84225825D03*
X62900000Y-84775000D03*
X64225825Y-84225825D03*
X64775000Y-82900000D03*
D14*
X62900000Y-82900000D03*
%TD*%
D15*
%TO.N,/5V*%
X82100000Y-98300000D03*
%TO.N,/SDA*%
X77100000Y-97200000D03*
%TO.N,/SCL*%
X77100000Y-96200000D03*
%TO.N,/FTDI_TX*%
X77100000Y-95200000D03*
%TO.N,/FTDI_RX*%
X77100000Y-94200000D03*
X77850000Y-85400000D03*
%TO.N,/FTDI_TX*%
X76500000Y-85400000D03*
%TO.N,/SCL*%
X79250000Y-85400000D03*
%TO.N,/SDA*%
X80600000Y-85400000D03*
%TO.N,/5V*%
X77050000Y-98223002D03*
%TO.N,/GND*%
X74000000Y-93500000D03*
X73950000Y-94600000D03*
X73950000Y-96700000D03*
X73950000Y-97800000D03*
%TD*%
D16*
%TO.N,/5V*%
X77126998Y-98300000D02*
X77050000Y-98223002D01*
X82100000Y-98300000D02*
X77126998Y-98300000D01*
%TO.N,/SCL*%
X77173002Y-96200000D02*
X77100000Y-96200000D01*
X80375001Y-92998001D02*
X77173002Y-96200000D01*
X80375001Y-86525001D02*
X80375001Y-92998001D01*
X79250000Y-85400000D02*
X80375001Y-86525001D01*
%TO.N,/SDA*%
X80600000Y-85400000D02*
X80825011Y-85625011D01*
X80825011Y-85625011D02*
X80825011Y-90225011D01*
X77665685Y-97200000D02*
X77100000Y-97200000D01*
X80825011Y-90225011D02*
X80825009Y-94040676D01*
X80825009Y-94040676D02*
X77665685Y-97200000D01*
%TO.N,/FTDI_RX*%
X77850000Y-89149002D02*
X77100000Y-89899002D01*
X77100000Y-89899002D02*
X77100000Y-94200000D01*
X77850000Y-85400000D02*
X77850000Y-89149002D01*
%TO.N,/FTDI_TX*%
X75484999Y-86415001D02*
X75484999Y-94150684D01*
X76534315Y-95200000D02*
X77100000Y-95200000D01*
X75484999Y-94150684D02*
X76534315Y-95200000D01*
X76500000Y-85400000D02*
X75484999Y-86415001D01*
%TD*%
D17*
%TO.N,/GND*%
G36*
X71236589Y-80684010D02*
G01*
X70993368Y-80846525D01*
X70786525Y-81053368D01*
X70624010Y-81296589D01*
X70512068Y-81566842D01*
X70455000Y-81853740D01*
X70455000Y-82146260D01*
X70512068Y-82433158D01*
X70624010Y-82703411D01*
X70786525Y-82946632D01*
X70993368Y-83153475D01*
X71236589Y-83315990D01*
X71506842Y-83427932D01*
X71793740Y-83485000D01*
X72086260Y-83485000D01*
X72373158Y-83427932D01*
X72643411Y-83315990D01*
X72886632Y-83153475D01*
X73093475Y-82946632D01*
X73210000Y-82772240D01*
X73326525Y-82946632D01*
X73533368Y-83153475D01*
X73776589Y-83315990D01*
X74046842Y-83427932D01*
X74333740Y-83485000D01*
X74626260Y-83485000D01*
X74913158Y-83427932D01*
X75183411Y-83315990D01*
X75426632Y-83153475D01*
X75633475Y-82946632D01*
X75750000Y-82772240D01*
X75866525Y-82946632D01*
X76073368Y-83153475D01*
X76316589Y-83315990D01*
X76586842Y-83427932D01*
X76873740Y-83485000D01*
X77166260Y-83485000D01*
X77453158Y-83427932D01*
X77723411Y-83315990D01*
X77966632Y-83153475D01*
X78173475Y-82946632D01*
X78290000Y-82772240D01*
X78406525Y-82946632D01*
X78613368Y-83153475D01*
X78856589Y-83315990D01*
X79126842Y-83427932D01*
X79413740Y-83485000D01*
X79706260Y-83485000D01*
X79993158Y-83427932D01*
X80263411Y-83315990D01*
X80506632Y-83153475D01*
X80638487Y-83021620D01*
X80660498Y-83094180D01*
X80719463Y-83204494D01*
X80798815Y-83301185D01*
X80895506Y-83380537D01*
X81005820Y-83439502D01*
X81125518Y-83475812D01*
X81250000Y-83488072D01*
X82950000Y-83488072D01*
X83074482Y-83475812D01*
X83194180Y-83439502D01*
X83304494Y-83380537D01*
X83401185Y-83301185D01*
X83480537Y-83204494D01*
X83539502Y-83094180D01*
X83575812Y-82974482D01*
X83588072Y-82850000D01*
X83588072Y-81150000D01*
X83575812Y-81025518D01*
X83539502Y-80905820D01*
X83480537Y-80795506D01*
X83401185Y-80698815D01*
X83353889Y-80660000D01*
X89340000Y-80660000D01*
X89340001Y-109340000D01*
X60660000Y-109340000D01*
X60660000Y-107653740D01*
X66295000Y-107653740D01*
X66295000Y-107946260D01*
X66352068Y-108233158D01*
X66464010Y-108503411D01*
X66626525Y-108746632D01*
X66833368Y-108953475D01*
X67076589Y-109115990D01*
X67346842Y-109227932D01*
X67633740Y-109285000D01*
X67926260Y-109285000D01*
X68213158Y-109227932D01*
X68483411Y-109115990D01*
X68726632Y-108953475D01*
X68933475Y-108746632D01*
X69050000Y-108572240D01*
X69166525Y-108746632D01*
X69373368Y-108953475D01*
X69616589Y-109115990D01*
X69886842Y-109227932D01*
X70173740Y-109285000D01*
X70466260Y-109285000D01*
X70753158Y-109227932D01*
X71023411Y-109115990D01*
X71266632Y-108953475D01*
X71473475Y-108746632D01*
X71590000Y-108572240D01*
X71706525Y-108746632D01*
X71913368Y-108953475D01*
X72156589Y-109115990D01*
X72426842Y-109227932D01*
X72713740Y-109285000D01*
X73006260Y-109285000D01*
X73293158Y-109227932D01*
X73563411Y-109115990D01*
X73806632Y-108953475D01*
X73938487Y-108821620D01*
X73960498Y-108894180D01*
X74019463Y-109004494D01*
X74098815Y-109101185D01*
X74195506Y-109180537D01*
X74305820Y-109239502D01*
X74425518Y-109275812D01*
X74550000Y-109288072D01*
X76250000Y-109288072D01*
X76374482Y-109275812D01*
X76494180Y-109239502D01*
X76604494Y-109180537D01*
X76701185Y-109101185D01*
X76780537Y-109004494D01*
X76839502Y-108894180D01*
X76875812Y-108774482D01*
X76888072Y-108650000D01*
X76888072Y-106950000D01*
X76875812Y-106825518D01*
X76839502Y-106705820D01*
X76780537Y-106595506D01*
X76701185Y-106498815D01*
X76604494Y-106419463D01*
X76494180Y-106360498D01*
X76374482Y-106324188D01*
X76250000Y-106311928D01*
X74550000Y-106311928D01*
X74425518Y-106324188D01*
X74305820Y-106360498D01*
X74195506Y-106419463D01*
X74098815Y-106498815D01*
X74019463Y-106595506D01*
X73960498Y-106705820D01*
X73938487Y-106778380D01*
X73806632Y-106646525D01*
X73563411Y-106484010D01*
X73293158Y-106372068D01*
X73006260Y-106315000D01*
X72713740Y-106315000D01*
X72426842Y-106372068D01*
X72156589Y-106484010D01*
X71913368Y-106646525D01*
X71706525Y-106853368D01*
X71590000Y-107027760D01*
X71473475Y-106853368D01*
X71266632Y-106646525D01*
X71023411Y-106484010D01*
X70753158Y-106372068D01*
X70466260Y-106315000D01*
X70173740Y-106315000D01*
X69886842Y-106372068D01*
X69616589Y-106484010D01*
X69373368Y-106646525D01*
X69166525Y-106853368D01*
X69050000Y-107027760D01*
X68933475Y-106853368D01*
X68726632Y-106646525D01*
X68483411Y-106484010D01*
X68213158Y-106372068D01*
X67926260Y-106315000D01*
X67633740Y-106315000D01*
X67346842Y-106372068D01*
X67076589Y-106484010D01*
X66833368Y-106646525D01*
X66626525Y-106853368D01*
X66464010Y-107096589D01*
X66352068Y-107366842D01*
X66295000Y-107653740D01*
X60660000Y-107653740D01*
X60660000Y-102753889D01*
X60698815Y-102801185D01*
X60795506Y-102880537D01*
X60905820Y-102939502D01*
X61025518Y-102975812D01*
X61150000Y-102988072D01*
X62850000Y-102988072D01*
X62974482Y-102975812D01*
X63094180Y-102939502D01*
X63204494Y-102880537D01*
X63301185Y-102801185D01*
X63380537Y-102704494D01*
X63439502Y-102594180D01*
X63475812Y-102474482D01*
X63488072Y-102350000D01*
X63488072Y-100650000D01*
X63475812Y-100525518D01*
X63439502Y-100405820D01*
X63380537Y-100295506D01*
X63301185Y-100198815D01*
X63204494Y-100119463D01*
X63094180Y-100060498D01*
X63021620Y-100038487D01*
X63153475Y-99906632D01*
X63315990Y-99663411D01*
X63427932Y-99393158D01*
X63485000Y-99106260D01*
X63485000Y-98813740D01*
X63427932Y-98526842D01*
X63315990Y-98256589D01*
X63153475Y-98013368D01*
X62946632Y-97806525D01*
X62703411Y-97644010D01*
X62433158Y-97532068D01*
X62146260Y-97475000D01*
X61853740Y-97475000D01*
X61566842Y-97532068D01*
X61296589Y-97644010D01*
X61053368Y-97806525D01*
X60846525Y-98013368D01*
X60684010Y-98256589D01*
X60660000Y-98314555D01*
X60660000Y-93863589D01*
X65415000Y-93863589D01*
X65415000Y-94136411D01*
X65468225Y-94403989D01*
X65572629Y-94656043D01*
X65724201Y-94882886D01*
X65917114Y-95075799D01*
X66143957Y-95227371D01*
X66396011Y-95331775D01*
X66663589Y-95385000D01*
X66936411Y-95385000D01*
X67203989Y-95331775D01*
X67456043Y-95227371D01*
X67682886Y-95075799D01*
X67875799Y-94882886D01*
X68027371Y-94656043D01*
X68131775Y-94403989D01*
X68185000Y-94136411D01*
X68185000Y-93863589D01*
X68131775Y-93596011D01*
X68027371Y-93343957D01*
X67875799Y-93117114D01*
X67682886Y-92924201D01*
X67456043Y-92772629D01*
X67203989Y-92668225D01*
X66936411Y-92615000D01*
X66663589Y-92615000D01*
X66396011Y-92668225D01*
X66143957Y-92772629D01*
X65917114Y-92924201D01*
X65724201Y-93117114D01*
X65572629Y-93343957D01*
X65468225Y-93596011D01*
X65415000Y-93863589D01*
X60660000Y-93863589D01*
X60660000Y-88863589D01*
X65415000Y-88863589D01*
X65415000Y-89136411D01*
X65468225Y-89403989D01*
X65572629Y-89656043D01*
X65724201Y-89882886D01*
X65917114Y-90075799D01*
X66143957Y-90227371D01*
X66396011Y-90331775D01*
X66663589Y-90385000D01*
X66936411Y-90385000D01*
X67203989Y-90331775D01*
X67456043Y-90227371D01*
X67682886Y-90075799D01*
X67875799Y-89882886D01*
X68027371Y-89656043D01*
X68131775Y-89403989D01*
X68185000Y-89136411D01*
X68185000Y-88863589D01*
X68131775Y-88596011D01*
X68072845Y-88453740D01*
X72635000Y-88453740D01*
X72635000Y-88746260D01*
X72692068Y-89033158D01*
X72804010Y-89303411D01*
X72966525Y-89546632D01*
X73173368Y-89753475D01*
X73416589Y-89915990D01*
X73686842Y-90027932D01*
X73973740Y-90085000D01*
X74266260Y-90085000D01*
X74553158Y-90027932D01*
X74724999Y-89956753D01*
X74725000Y-94113352D01*
X74721323Y-94150684D01*
X74725000Y-94188017D01*
X74735997Y-94299670D01*
X74746084Y-94332922D01*
X74779453Y-94442930D01*
X74850025Y-94574960D01*
X74921200Y-94661686D01*
X74944999Y-94690685D01*
X74973997Y-94714483D01*
X75970516Y-95711003D01*
X75994314Y-95740001D01*
X76023312Y-95763799D01*
X76110038Y-95834974D01*
X76127137Y-95844114D01*
X76104774Y-95898102D01*
X76065000Y-96098061D01*
X76065000Y-96301939D01*
X76104774Y-96501898D01*
X76182795Y-96690256D01*
X76189306Y-96700000D01*
X76182795Y-96709744D01*
X76104774Y-96898102D01*
X76065000Y-97098061D01*
X76065000Y-97301939D01*
X76104774Y-97501898D01*
X76174525Y-97670292D01*
X76132795Y-97732746D01*
X76054774Y-97921104D01*
X76015000Y-98121063D01*
X76015000Y-98324941D01*
X76054774Y-98524900D01*
X76132795Y-98713258D01*
X76246063Y-98882776D01*
X76390226Y-99026939D01*
X76559744Y-99140207D01*
X76748102Y-99218228D01*
X76948061Y-99258002D01*
X77151939Y-99258002D01*
X77351898Y-99218228D01*
X77540256Y-99140207D01*
X77660295Y-99060000D01*
X81396289Y-99060000D01*
X81440226Y-99103937D01*
X81609744Y-99217205D01*
X81798102Y-99295226D01*
X81998061Y-99335000D01*
X82201939Y-99335000D01*
X82401898Y-99295226D01*
X82590256Y-99217205D01*
X82759774Y-99103937D01*
X82903937Y-98959774D01*
X83017205Y-98790256D01*
X83095226Y-98601898D01*
X83135000Y-98401939D01*
X83135000Y-98198061D01*
X83095226Y-97998102D01*
X83017205Y-97809744D01*
X82903937Y-97640226D01*
X82759774Y-97496063D01*
X82590256Y-97382795D01*
X82401898Y-97304774D01*
X82201939Y-97265000D01*
X81998061Y-97265000D01*
X81798102Y-97304774D01*
X81609744Y-97382795D01*
X81440226Y-97496063D01*
X81396289Y-97540000D01*
X78400486Y-97540000D01*
X81336016Y-94604471D01*
X81365009Y-94580677D01*
X81388803Y-94551684D01*
X81388808Y-94551679D01*
X81459983Y-94464952D01*
X81530555Y-94332923D01*
X81574011Y-94189662D01*
X81588685Y-94040676D01*
X81585008Y-94003344D01*
X81585011Y-90187679D01*
X81585011Y-90053740D01*
X81875000Y-90053740D01*
X81875000Y-90346260D01*
X81932068Y-90633158D01*
X82044010Y-90903411D01*
X82206525Y-91146632D01*
X82413368Y-91353475D01*
X82656589Y-91515990D01*
X82926842Y-91627932D01*
X83213740Y-91685000D01*
X83506260Y-91685000D01*
X83793158Y-91627932D01*
X84063411Y-91515990D01*
X84306632Y-91353475D01*
X84438487Y-91221620D01*
X84460498Y-91294180D01*
X84519463Y-91404494D01*
X84598815Y-91501185D01*
X84695506Y-91580537D01*
X84805820Y-91639502D01*
X84925518Y-91675812D01*
X85050000Y-91688072D01*
X86750000Y-91688072D01*
X86874482Y-91675812D01*
X86994180Y-91639502D01*
X87104494Y-91580537D01*
X87201185Y-91501185D01*
X87280537Y-91404494D01*
X87339502Y-91294180D01*
X87375812Y-91174482D01*
X87388072Y-91050000D01*
X87388072Y-89350000D01*
X87375812Y-89225518D01*
X87339502Y-89105820D01*
X87280537Y-88995506D01*
X87201185Y-88898815D01*
X87104494Y-88819463D01*
X86994180Y-88760498D01*
X86874482Y-88724188D01*
X86750000Y-88711928D01*
X85050000Y-88711928D01*
X84925518Y-88724188D01*
X84805820Y-88760498D01*
X84695506Y-88819463D01*
X84598815Y-88898815D01*
X84519463Y-88995506D01*
X84460498Y-89105820D01*
X84438487Y-89178380D01*
X84306632Y-89046525D01*
X84063411Y-88884010D01*
X83793158Y-88772068D01*
X83506260Y-88715000D01*
X83213740Y-88715000D01*
X82926842Y-88772068D01*
X82656589Y-88884010D01*
X82413368Y-89046525D01*
X82206525Y-89253368D01*
X82044010Y-89496589D01*
X81932068Y-89766842D01*
X81875000Y-90053740D01*
X81585011Y-90053740D01*
X81585011Y-85726559D01*
X81595226Y-85701898D01*
X81635000Y-85501939D01*
X81635000Y-85298061D01*
X81595226Y-85098102D01*
X81517205Y-84909744D01*
X81403937Y-84740226D01*
X81259774Y-84596063D01*
X81090256Y-84482795D01*
X80901898Y-84404774D01*
X80701939Y-84365000D01*
X80498061Y-84365000D01*
X80298102Y-84404774D01*
X80109744Y-84482795D01*
X79940226Y-84596063D01*
X79925000Y-84611289D01*
X79909774Y-84596063D01*
X79740256Y-84482795D01*
X79551898Y-84404774D01*
X79351939Y-84365000D01*
X79148061Y-84365000D01*
X78948102Y-84404774D01*
X78759744Y-84482795D01*
X78590226Y-84596063D01*
X78550000Y-84636289D01*
X78509774Y-84596063D01*
X78340256Y-84482795D01*
X78151898Y-84404774D01*
X77951939Y-84365000D01*
X77748061Y-84365000D01*
X77548102Y-84404774D01*
X77359744Y-84482795D01*
X77190226Y-84596063D01*
X77175000Y-84611289D01*
X77159774Y-84596063D01*
X76990256Y-84482795D01*
X76801898Y-84404774D01*
X76601939Y-84365000D01*
X76398061Y-84365000D01*
X76198102Y-84404774D01*
X76009744Y-84482795D01*
X75840226Y-84596063D01*
X75696063Y-84740226D01*
X75582795Y-84909744D01*
X75504774Y-85098102D01*
X75465000Y-85298061D01*
X75465000Y-85360198D01*
X74974001Y-85851197D01*
X74944998Y-85875000D01*
X74910319Y-85917257D01*
X74850025Y-85990725D01*
X74791228Y-86100725D01*
X74779453Y-86122755D01*
X74735996Y-86266016D01*
X74724999Y-86377669D01*
X74724999Y-86377679D01*
X74721323Y-86415001D01*
X74724999Y-86452323D01*
X74724999Y-87243247D01*
X74553158Y-87172068D01*
X74266260Y-87115000D01*
X73973740Y-87115000D01*
X73686842Y-87172068D01*
X73416589Y-87284010D01*
X73173368Y-87446525D01*
X72966525Y-87653368D01*
X72804010Y-87896589D01*
X72692068Y-88166842D01*
X72635000Y-88453740D01*
X68072845Y-88453740D01*
X68027371Y-88343957D01*
X67875799Y-88117114D01*
X67682886Y-87924201D01*
X67456043Y-87772629D01*
X67203989Y-87668225D01*
X66936411Y-87615000D01*
X66663589Y-87615000D01*
X66396011Y-87668225D01*
X66143957Y-87772629D01*
X65917114Y-87924201D01*
X65724201Y-88117114D01*
X65572629Y-88343957D01*
X65468225Y-88596011D01*
X65415000Y-88863589D01*
X60660000Y-88863589D01*
X60660000Y-80660000D01*
X71294555Y-80660000D01*
X71236589Y-80684010D01*
G37*
X71236589Y-80684010D02*
X70993368Y-80846525D01*
X70786525Y-81053368D01*
X70624010Y-81296589D01*
X70512068Y-81566842D01*
X70455000Y-81853740D01*
X70455000Y-82146260D01*
X70512068Y-82433158D01*
X70624010Y-82703411D01*
X70786525Y-82946632D01*
X70993368Y-83153475D01*
X71236589Y-83315990D01*
X71506842Y-83427932D01*
X71793740Y-83485000D01*
X72086260Y-83485000D01*
X72373158Y-83427932D01*
X72643411Y-83315990D01*
X72886632Y-83153475D01*
X73093475Y-82946632D01*
X73210000Y-82772240D01*
X73326525Y-82946632D01*
X73533368Y-83153475D01*
X73776589Y-83315990D01*
X74046842Y-83427932D01*
X74333740Y-83485000D01*
X74626260Y-83485000D01*
X74913158Y-83427932D01*
X75183411Y-83315990D01*
X75426632Y-83153475D01*
X75633475Y-82946632D01*
X75750000Y-82772240D01*
X75866525Y-82946632D01*
X76073368Y-83153475D01*
X76316589Y-83315990D01*
X76586842Y-83427932D01*
X76873740Y-83485000D01*
X77166260Y-83485000D01*
X77453158Y-83427932D01*
X77723411Y-83315990D01*
X77966632Y-83153475D01*
X78173475Y-82946632D01*
X78290000Y-82772240D01*
X78406525Y-82946632D01*
X78613368Y-83153475D01*
X78856589Y-83315990D01*
X79126842Y-83427932D01*
X79413740Y-83485000D01*
X79706260Y-83485000D01*
X79993158Y-83427932D01*
X80263411Y-83315990D01*
X80506632Y-83153475D01*
X80638487Y-83021620D01*
X80660498Y-83094180D01*
X80719463Y-83204494D01*
X80798815Y-83301185D01*
X80895506Y-83380537D01*
X81005820Y-83439502D01*
X81125518Y-83475812D01*
X81250000Y-83488072D01*
X82950000Y-83488072D01*
X83074482Y-83475812D01*
X83194180Y-83439502D01*
X83304494Y-83380537D01*
X83401185Y-83301185D01*
X83480537Y-83204494D01*
X83539502Y-83094180D01*
X83575812Y-82974482D01*
X83588072Y-82850000D01*
X83588072Y-81150000D01*
X83575812Y-81025518D01*
X83539502Y-80905820D01*
X83480537Y-80795506D01*
X83401185Y-80698815D01*
X83353889Y-80660000D01*
X89340000Y-80660000D01*
X89340001Y-109340000D01*
X60660000Y-109340000D01*
X60660000Y-107653740D01*
X66295000Y-107653740D01*
X66295000Y-107946260D01*
X66352068Y-108233158D01*
X66464010Y-108503411D01*
X66626525Y-108746632D01*
X66833368Y-108953475D01*
X67076589Y-109115990D01*
X67346842Y-109227932D01*
X67633740Y-109285000D01*
X67926260Y-109285000D01*
X68213158Y-109227932D01*
X68483411Y-109115990D01*
X68726632Y-108953475D01*
X68933475Y-108746632D01*
X69050000Y-108572240D01*
X69166525Y-108746632D01*
X69373368Y-108953475D01*
X69616589Y-109115990D01*
X69886842Y-109227932D01*
X70173740Y-109285000D01*
X70466260Y-109285000D01*
X70753158Y-109227932D01*
X71023411Y-109115990D01*
X71266632Y-108953475D01*
X71473475Y-108746632D01*
X71590000Y-108572240D01*
X71706525Y-108746632D01*
X71913368Y-108953475D01*
X72156589Y-109115990D01*
X72426842Y-109227932D01*
X72713740Y-109285000D01*
X73006260Y-109285000D01*
X73293158Y-109227932D01*
X73563411Y-109115990D01*
X73806632Y-108953475D01*
X73938487Y-108821620D01*
X73960498Y-108894180D01*
X74019463Y-109004494D01*
X74098815Y-109101185D01*
X74195506Y-109180537D01*
X74305820Y-109239502D01*
X74425518Y-109275812D01*
X74550000Y-109288072D01*
X76250000Y-109288072D01*
X76374482Y-109275812D01*
X76494180Y-109239502D01*
X76604494Y-109180537D01*
X76701185Y-109101185D01*
X76780537Y-109004494D01*
X76839502Y-108894180D01*
X76875812Y-108774482D01*
X76888072Y-108650000D01*
X76888072Y-106950000D01*
X76875812Y-106825518D01*
X76839502Y-106705820D01*
X76780537Y-106595506D01*
X76701185Y-106498815D01*
X76604494Y-106419463D01*
X76494180Y-106360498D01*
X76374482Y-106324188D01*
X76250000Y-106311928D01*
X74550000Y-106311928D01*
X74425518Y-106324188D01*
X74305820Y-106360498D01*
X74195506Y-106419463D01*
X74098815Y-106498815D01*
X74019463Y-106595506D01*
X73960498Y-106705820D01*
X73938487Y-106778380D01*
X73806632Y-106646525D01*
X73563411Y-106484010D01*
X73293158Y-106372068D01*
X73006260Y-106315000D01*
X72713740Y-106315000D01*
X72426842Y-106372068D01*
X72156589Y-106484010D01*
X71913368Y-106646525D01*
X71706525Y-106853368D01*
X71590000Y-107027760D01*
X71473475Y-106853368D01*
X71266632Y-106646525D01*
X71023411Y-106484010D01*
X70753158Y-106372068D01*
X70466260Y-106315000D01*
X70173740Y-106315000D01*
X69886842Y-106372068D01*
X69616589Y-106484010D01*
X69373368Y-106646525D01*
X69166525Y-106853368D01*
X69050000Y-107027760D01*
X68933475Y-106853368D01*
X68726632Y-106646525D01*
X68483411Y-106484010D01*
X68213158Y-106372068D01*
X67926260Y-106315000D01*
X67633740Y-106315000D01*
X67346842Y-106372068D01*
X67076589Y-106484010D01*
X66833368Y-106646525D01*
X66626525Y-106853368D01*
X66464010Y-107096589D01*
X66352068Y-107366842D01*
X66295000Y-107653740D01*
X60660000Y-107653740D01*
X60660000Y-102753889D01*
X60698815Y-102801185D01*
X60795506Y-102880537D01*
X60905820Y-102939502D01*
X61025518Y-102975812D01*
X61150000Y-102988072D01*
X62850000Y-102988072D01*
X62974482Y-102975812D01*
X63094180Y-102939502D01*
X63204494Y-102880537D01*
X63301185Y-102801185D01*
X63380537Y-102704494D01*
X63439502Y-102594180D01*
X63475812Y-102474482D01*
X63488072Y-102350000D01*
X63488072Y-100650000D01*
X63475812Y-100525518D01*
X63439502Y-100405820D01*
X63380537Y-100295506D01*
X63301185Y-100198815D01*
X63204494Y-100119463D01*
X63094180Y-100060498D01*
X63021620Y-100038487D01*
X63153475Y-99906632D01*
X63315990Y-99663411D01*
X63427932Y-99393158D01*
X63485000Y-99106260D01*
X63485000Y-98813740D01*
X63427932Y-98526842D01*
X63315990Y-98256589D01*
X63153475Y-98013368D01*
X62946632Y-97806525D01*
X62703411Y-97644010D01*
X62433158Y-97532068D01*
X62146260Y-97475000D01*
X61853740Y-97475000D01*
X61566842Y-97532068D01*
X61296589Y-97644010D01*
X61053368Y-97806525D01*
X60846525Y-98013368D01*
X60684010Y-98256589D01*
X60660000Y-98314555D01*
X60660000Y-93863589D01*
X65415000Y-93863589D01*
X65415000Y-94136411D01*
X65468225Y-94403989D01*
X65572629Y-94656043D01*
X65724201Y-94882886D01*
X65917114Y-95075799D01*
X66143957Y-95227371D01*
X66396011Y-95331775D01*
X66663589Y-95385000D01*
X66936411Y-95385000D01*
X67203989Y-95331775D01*
X67456043Y-95227371D01*
X67682886Y-95075799D01*
X67875799Y-94882886D01*
X68027371Y-94656043D01*
X68131775Y-94403989D01*
X68185000Y-94136411D01*
X68185000Y-93863589D01*
X68131775Y-93596011D01*
X68027371Y-93343957D01*
X67875799Y-93117114D01*
X67682886Y-92924201D01*
X67456043Y-92772629D01*
X67203989Y-92668225D01*
X66936411Y-92615000D01*
X66663589Y-92615000D01*
X66396011Y-92668225D01*
X66143957Y-92772629D01*
X65917114Y-92924201D01*
X65724201Y-93117114D01*
X65572629Y-93343957D01*
X65468225Y-93596011D01*
X65415000Y-93863589D01*
X60660000Y-93863589D01*
X60660000Y-88863589D01*
X65415000Y-88863589D01*
X65415000Y-89136411D01*
X65468225Y-89403989D01*
X65572629Y-89656043D01*
X65724201Y-89882886D01*
X65917114Y-90075799D01*
X66143957Y-90227371D01*
X66396011Y-90331775D01*
X66663589Y-90385000D01*
X66936411Y-90385000D01*
X67203989Y-90331775D01*
X67456043Y-90227371D01*
X67682886Y-90075799D01*
X67875799Y-89882886D01*
X68027371Y-89656043D01*
X68131775Y-89403989D01*
X68185000Y-89136411D01*
X68185000Y-88863589D01*
X68131775Y-88596011D01*
X68072845Y-88453740D01*
X72635000Y-88453740D01*
X72635000Y-88746260D01*
X72692068Y-89033158D01*
X72804010Y-89303411D01*
X72966525Y-89546632D01*
X73173368Y-89753475D01*
X73416589Y-89915990D01*
X73686842Y-90027932D01*
X73973740Y-90085000D01*
X74266260Y-90085000D01*
X74553158Y-90027932D01*
X74724999Y-89956753D01*
X74725000Y-94113352D01*
X74721323Y-94150684D01*
X74725000Y-94188017D01*
X74735997Y-94299670D01*
X74746084Y-94332922D01*
X74779453Y-94442930D01*
X74850025Y-94574960D01*
X74921200Y-94661686D01*
X74944999Y-94690685D01*
X74973997Y-94714483D01*
X75970516Y-95711003D01*
X75994314Y-95740001D01*
X76023312Y-95763799D01*
X76110038Y-95834974D01*
X76127137Y-95844114D01*
X76104774Y-95898102D01*
X76065000Y-96098061D01*
X76065000Y-96301939D01*
X76104774Y-96501898D01*
X76182795Y-96690256D01*
X76189306Y-96700000D01*
X76182795Y-96709744D01*
X76104774Y-96898102D01*
X76065000Y-97098061D01*
X76065000Y-97301939D01*
X76104774Y-97501898D01*
X76174525Y-97670292D01*
X76132795Y-97732746D01*
X76054774Y-97921104D01*
X76015000Y-98121063D01*
X76015000Y-98324941D01*
X76054774Y-98524900D01*
X76132795Y-98713258D01*
X76246063Y-98882776D01*
X76390226Y-99026939D01*
X76559744Y-99140207D01*
X76748102Y-99218228D01*
X76948061Y-99258002D01*
X77151939Y-99258002D01*
X77351898Y-99218228D01*
X77540256Y-99140207D01*
X77660295Y-99060000D01*
X81396289Y-99060000D01*
X81440226Y-99103937D01*
X81609744Y-99217205D01*
X81798102Y-99295226D01*
X81998061Y-99335000D01*
X82201939Y-99335000D01*
X82401898Y-99295226D01*
X82590256Y-99217205D01*
X82759774Y-99103937D01*
X82903937Y-98959774D01*
X83017205Y-98790256D01*
X83095226Y-98601898D01*
X83135000Y-98401939D01*
X83135000Y-98198061D01*
X83095226Y-97998102D01*
X83017205Y-97809744D01*
X82903937Y-97640226D01*
X82759774Y-97496063D01*
X82590256Y-97382795D01*
X82401898Y-97304774D01*
X82201939Y-97265000D01*
X81998061Y-97265000D01*
X81798102Y-97304774D01*
X81609744Y-97382795D01*
X81440226Y-97496063D01*
X81396289Y-97540000D01*
X78400486Y-97540000D01*
X81336016Y-94604471D01*
X81365009Y-94580677D01*
X81388803Y-94551684D01*
X81388808Y-94551679D01*
X81459983Y-94464952D01*
X81530555Y-94332923D01*
X81574011Y-94189662D01*
X81588685Y-94040676D01*
X81585008Y-94003344D01*
X81585011Y-90187679D01*
X81585011Y-90053740D01*
X81875000Y-90053740D01*
X81875000Y-90346260D01*
X81932068Y-90633158D01*
X82044010Y-90903411D01*
X82206525Y-91146632D01*
X82413368Y-91353475D01*
X82656589Y-91515990D01*
X82926842Y-91627932D01*
X83213740Y-91685000D01*
X83506260Y-91685000D01*
X83793158Y-91627932D01*
X84063411Y-91515990D01*
X84306632Y-91353475D01*
X84438487Y-91221620D01*
X84460498Y-91294180D01*
X84519463Y-91404494D01*
X84598815Y-91501185D01*
X84695506Y-91580537D01*
X84805820Y-91639502D01*
X84925518Y-91675812D01*
X85050000Y-91688072D01*
X86750000Y-91688072D01*
X86874482Y-91675812D01*
X86994180Y-91639502D01*
X87104494Y-91580537D01*
X87201185Y-91501185D01*
X87280537Y-91404494D01*
X87339502Y-91294180D01*
X87375812Y-91174482D01*
X87388072Y-91050000D01*
X87388072Y-89350000D01*
X87375812Y-89225518D01*
X87339502Y-89105820D01*
X87280537Y-88995506D01*
X87201185Y-88898815D01*
X87104494Y-88819463D01*
X86994180Y-88760498D01*
X86874482Y-88724188D01*
X86750000Y-88711928D01*
X85050000Y-88711928D01*
X84925518Y-88724188D01*
X84805820Y-88760498D01*
X84695506Y-88819463D01*
X84598815Y-88898815D01*
X84519463Y-88995506D01*
X84460498Y-89105820D01*
X84438487Y-89178380D01*
X84306632Y-89046525D01*
X84063411Y-88884010D01*
X83793158Y-88772068D01*
X83506260Y-88715000D01*
X83213740Y-88715000D01*
X82926842Y-88772068D01*
X82656589Y-88884010D01*
X82413368Y-89046525D01*
X82206525Y-89253368D01*
X82044010Y-89496589D01*
X81932068Y-89766842D01*
X81875000Y-90053740D01*
X81585011Y-90053740D01*
X81585011Y-85726559D01*
X81595226Y-85701898D01*
X81635000Y-85501939D01*
X81635000Y-85298061D01*
X81595226Y-85098102D01*
X81517205Y-84909744D01*
X81403937Y-84740226D01*
X81259774Y-84596063D01*
X81090256Y-84482795D01*
X80901898Y-84404774D01*
X80701939Y-84365000D01*
X80498061Y-84365000D01*
X80298102Y-84404774D01*
X80109744Y-84482795D01*
X79940226Y-84596063D01*
X79925000Y-84611289D01*
X79909774Y-84596063D01*
X79740256Y-84482795D01*
X79551898Y-84404774D01*
X79351939Y-84365000D01*
X79148061Y-84365000D01*
X78948102Y-84404774D01*
X78759744Y-84482795D01*
X78590226Y-84596063D01*
X78550000Y-84636289D01*
X78509774Y-84596063D01*
X78340256Y-84482795D01*
X78151898Y-84404774D01*
X77951939Y-84365000D01*
X77748061Y-84365000D01*
X77548102Y-84404774D01*
X77359744Y-84482795D01*
X77190226Y-84596063D01*
X77175000Y-84611289D01*
X77159774Y-84596063D01*
X76990256Y-84482795D01*
X76801898Y-84404774D01*
X76601939Y-84365000D01*
X76398061Y-84365000D01*
X76198102Y-84404774D01*
X76009744Y-84482795D01*
X75840226Y-84596063D01*
X75696063Y-84740226D01*
X75582795Y-84909744D01*
X75504774Y-85098102D01*
X75465000Y-85298061D01*
X75465000Y-85360198D01*
X74974001Y-85851197D01*
X74944998Y-85875000D01*
X74910319Y-85917257D01*
X74850025Y-85990725D01*
X74791228Y-86100725D01*
X74779453Y-86122755D01*
X74735996Y-86266016D01*
X74724999Y-86377669D01*
X74724999Y-86377679D01*
X74721323Y-86415001D01*
X74724999Y-86452323D01*
X74724999Y-87243247D01*
X74553158Y-87172068D01*
X74266260Y-87115000D01*
X73973740Y-87115000D01*
X73686842Y-87172068D01*
X73416589Y-87284010D01*
X73173368Y-87446525D01*
X72966525Y-87653368D01*
X72804010Y-87896589D01*
X72692068Y-88166842D01*
X72635000Y-88453740D01*
X68072845Y-88453740D01*
X68027371Y-88343957D01*
X67875799Y-88117114D01*
X67682886Y-87924201D01*
X67456043Y-87772629D01*
X67203989Y-87668225D01*
X66936411Y-87615000D01*
X66663589Y-87615000D01*
X66396011Y-87668225D01*
X66143957Y-87772629D01*
X65917114Y-87924201D01*
X65724201Y-88117114D01*
X65572629Y-88343957D01*
X65468225Y-88596011D01*
X65415000Y-88863589D01*
X60660000Y-88863589D01*
X60660000Y-80660000D01*
X71294555Y-80660000D01*
X71236589Y-80684010D01*
%TD*%
M02*
