%TF.GenerationSoftware,KiCad,Pcbnew,(5.1.6)-1*%
%TF.CreationDate,2020-09-09T14:29:39-07:00*%
%TF.ProjectId,DigitController,44696769-7443-46f6-9e74-726f6c6c6572,rev?*%
%TF.SameCoordinates,Original*%
%TF.FileFunction,Soldermask,Top*%
%TF.FilePolarity,Negative*%
%FSLAX46Y46*%
G04 Gerber Fmt 4.6, Leading zero omitted, Abs format (unit mm)*
G04 Created by KiCad (PCBNEW (5.1.6)-1) date 2020-09-09 14:29:39*
%MOMM*%
%LPD*%
G01*
G04 APERTURE LIST*
%ADD10C,1.600000*%
%ADD11R,1.700000X0.650000*%
%ADD12R,0.650000X1.700000*%
%ADD13O,1.800000X1.800000*%
%ADD14R,1.800000X1.800000*%
%ADD15C,0.900000*%
%ADD16C,5.100000*%
%ADD17R,1.700000X1.600000*%
G04 APERTURE END LIST*
D10*
%TO.C,Y1*%
X66800000Y-94000000D03*
X66800000Y-89000000D03*
%TD*%
D11*
%TO.C,U1*%
X79350000Y-92900000D03*
X79350000Y-93700000D03*
X79350000Y-94500000D03*
X79350000Y-95300000D03*
X79350000Y-96100000D03*
X79350000Y-96900000D03*
X79350000Y-97700000D03*
X79350000Y-98500000D03*
D12*
X77900000Y-99950000D03*
X77100000Y-99950000D03*
X76300000Y-99950000D03*
X75500000Y-99950000D03*
X74700000Y-99950000D03*
X73900000Y-99950000D03*
X73100000Y-99950000D03*
X72300000Y-99950000D03*
D11*
X70850000Y-98500000D03*
X70850000Y-97700000D03*
X70850000Y-96900000D03*
X70850000Y-96100000D03*
X70850000Y-95300000D03*
X70850000Y-94500000D03*
X70850000Y-93700000D03*
X70850000Y-92900000D03*
D12*
X72300000Y-91450000D03*
X73100000Y-91450000D03*
X73900000Y-91450000D03*
X74700000Y-91450000D03*
X75500000Y-91450000D03*
X76300000Y-91450000D03*
X77100000Y-91450000D03*
X77900000Y-91450000D03*
%TD*%
%TO.C,R2*%
G36*
G01*
X79075000Y-103642544D02*
X79075000Y-104957456D01*
G75*
G02*
X78807456Y-105225000I-267544J0D01*
G01*
X77817544Y-105225000D01*
G75*
G02*
X77550000Y-104957456I0J267544D01*
G01*
X77550000Y-103642544D01*
G75*
G02*
X77817544Y-103375000I267544J0D01*
G01*
X78807456Y-103375000D01*
G75*
G02*
X79075000Y-103642544I0J-267544D01*
G01*
G37*
G36*
G01*
X82050000Y-103642544D02*
X82050000Y-104957456D01*
G75*
G02*
X81782456Y-105225000I-267544J0D01*
G01*
X80792544Y-105225000D01*
G75*
G02*
X80525000Y-104957456I0J267544D01*
G01*
X80525000Y-103642544D01*
G75*
G02*
X80792544Y-103375000I267544J0D01*
G01*
X81782456Y-103375000D01*
G75*
G02*
X82050000Y-103642544I0J-267544D01*
G01*
G37*
%TD*%
%TO.C,R1*%
G36*
G01*
X85325000Y-94657456D02*
X85325000Y-93342544D01*
G75*
G02*
X85592544Y-93075000I267544J0D01*
G01*
X86582456Y-93075000D01*
G75*
G02*
X86850000Y-93342544I0J-267544D01*
G01*
X86850000Y-94657456D01*
G75*
G02*
X86582456Y-94925000I-267544J0D01*
G01*
X85592544Y-94925000D01*
G75*
G02*
X85325000Y-94657456I0J267544D01*
G01*
G37*
G36*
G01*
X82350000Y-94657456D02*
X82350000Y-93342544D01*
G75*
G02*
X82617544Y-93075000I267544J0D01*
G01*
X83607456Y-93075000D01*
G75*
G02*
X83875000Y-93342544I0J-267544D01*
G01*
X83875000Y-94657456D01*
G75*
G02*
X83607456Y-94925000I-267544J0D01*
G01*
X82617544Y-94925000D01*
G75*
G02*
X82350000Y-94657456I0J267544D01*
G01*
G37*
%TD*%
D13*
%TO.C,J5*%
X67780000Y-107800000D03*
X70320000Y-107800000D03*
X72860000Y-107800000D03*
D14*
X75400000Y-107800000D03*
%TD*%
D13*
%TO.C,J4*%
X62000000Y-98960000D03*
D14*
X62000000Y-101500000D03*
%TD*%
D13*
%TO.C,J3*%
X83360000Y-90200000D03*
D14*
X85900000Y-90200000D03*
%TD*%
D13*
%TO.C,J2*%
X69400000Y-82000000D03*
X71940000Y-82000000D03*
X74480000Y-82000000D03*
X77020000Y-82000000D03*
X79560000Y-82000000D03*
D14*
X82100000Y-82000000D03*
%TD*%
D13*
%TO.C,J1*%
X71580000Y-88600000D03*
X74120000Y-88600000D03*
X76660000Y-88600000D03*
D14*
X79200000Y-88600000D03*
%TD*%
D15*
%TO.C,H4*%
X88450825Y-105774175D03*
X87125000Y-105225000D03*
X85799175Y-105774175D03*
X85250000Y-107100000D03*
X85799175Y-108425825D03*
X87125000Y-108975000D03*
X88450825Y-108425825D03*
X89000000Y-107100000D03*
D16*
X87125000Y-107100000D03*
%TD*%
D15*
%TO.C,H3*%
X64225825Y-105774175D03*
X62900000Y-105225000D03*
X61574175Y-105774175D03*
X61025000Y-107100000D03*
X61574175Y-108425825D03*
X62900000Y-108975000D03*
X64225825Y-108425825D03*
X64775000Y-107100000D03*
D16*
X62900000Y-107100000D03*
%TD*%
D15*
%TO.C,H2*%
X88425825Y-81574175D03*
X87100000Y-81025000D03*
X85774175Y-81574175D03*
X85225000Y-82900000D03*
X85774175Y-84225825D03*
X87100000Y-84775000D03*
X88425825Y-84225825D03*
X88975000Y-82900000D03*
D16*
X87100000Y-82900000D03*
%TD*%
D15*
%TO.C,H1*%
X64225825Y-81574175D03*
X62900000Y-81025000D03*
X61574175Y-81574175D03*
X61025000Y-82900000D03*
X61574175Y-84225825D03*
X62900000Y-84775000D03*
X64225825Y-84225825D03*
X64775000Y-82900000D03*
D16*
X62900000Y-82900000D03*
%TD*%
D17*
%TO.C,D1*%
X77900000Y-102100000D03*
X82500000Y-102100000D03*
%TD*%
%TO.C,C4*%
G36*
G01*
X63257456Y-93862500D02*
X61942544Y-93862500D01*
G75*
G02*
X61675000Y-93594956I0J267544D01*
G01*
X61675000Y-92605044D01*
G75*
G02*
X61942544Y-92337500I267544J0D01*
G01*
X63257456Y-92337500D01*
G75*
G02*
X63525000Y-92605044I0J-267544D01*
G01*
X63525000Y-93594956D01*
G75*
G02*
X63257456Y-93862500I-267544J0D01*
G01*
G37*
G36*
G01*
X63257456Y-96837500D02*
X61942544Y-96837500D01*
G75*
G02*
X61675000Y-96569956I0J267544D01*
G01*
X61675000Y-95580044D01*
G75*
G02*
X61942544Y-95312500I267544J0D01*
G01*
X63257456Y-95312500D01*
G75*
G02*
X63525000Y-95580044I0J-267544D01*
G01*
X63525000Y-96569956D01*
G75*
G02*
X63257456Y-96837500I-267544J0D01*
G01*
G37*
%TD*%
%TO.C,C3*%
G36*
G01*
X61942544Y-89125000D02*
X63257456Y-89125000D01*
G75*
G02*
X63525000Y-89392544I0J-267544D01*
G01*
X63525000Y-90382456D01*
G75*
G02*
X63257456Y-90650000I-267544J0D01*
G01*
X61942544Y-90650000D01*
G75*
G02*
X61675000Y-90382456I0J267544D01*
G01*
X61675000Y-89392544D01*
G75*
G02*
X61942544Y-89125000I267544J0D01*
G01*
G37*
G36*
G01*
X61942544Y-86150000D02*
X63257456Y-86150000D01*
G75*
G02*
X63525000Y-86417544I0J-267544D01*
G01*
X63525000Y-87407456D01*
G75*
G02*
X63257456Y-87675000I-267544J0D01*
G01*
X61942544Y-87675000D01*
G75*
G02*
X61675000Y-87407456I0J267544D01*
G01*
X61675000Y-86417544D01*
G75*
G02*
X61942544Y-86150000I267544J0D01*
G01*
G37*
%TD*%
%TO.C,C2*%
G36*
G01*
X71575000Y-84342544D02*
X71575000Y-85657456D01*
G75*
G02*
X71307456Y-85925000I-267544J0D01*
G01*
X70317544Y-85925000D01*
G75*
G02*
X70050000Y-85657456I0J267544D01*
G01*
X70050000Y-84342544D01*
G75*
G02*
X70317544Y-84075000I267544J0D01*
G01*
X71307456Y-84075000D01*
G75*
G02*
X71575000Y-84342544I0J-267544D01*
G01*
G37*
G36*
G01*
X74550000Y-84342544D02*
X74550000Y-85657456D01*
G75*
G02*
X74282456Y-85925000I-267544J0D01*
G01*
X73292544Y-85925000D01*
G75*
G02*
X73025000Y-85657456I0J267544D01*
G01*
X73025000Y-84342544D01*
G75*
G02*
X73292544Y-84075000I267544J0D01*
G01*
X74282456Y-84075000D01*
G75*
G02*
X74550000Y-84342544I0J-267544D01*
G01*
G37*
%TD*%
%TO.C,C1*%
G36*
G01*
X85325000Y-96957456D02*
X85325000Y-95642544D01*
G75*
G02*
X85592544Y-95375000I267544J0D01*
G01*
X86582456Y-95375000D01*
G75*
G02*
X86850000Y-95642544I0J-267544D01*
G01*
X86850000Y-96957456D01*
G75*
G02*
X86582456Y-97225000I-267544J0D01*
G01*
X85592544Y-97225000D01*
G75*
G02*
X85325000Y-96957456I0J267544D01*
G01*
G37*
G36*
G01*
X82350000Y-96957456D02*
X82350000Y-95642544D01*
G75*
G02*
X82617544Y-95375000I267544J0D01*
G01*
X83607456Y-95375000D01*
G75*
G02*
X83875000Y-95642544I0J-267544D01*
G01*
X83875000Y-96957456D01*
G75*
G02*
X83607456Y-97225000I-267544J0D01*
G01*
X82617544Y-97225000D01*
G75*
G02*
X82350000Y-96957456I0J267544D01*
G01*
G37*
%TD*%
M02*
