%TF.GenerationSoftware,KiCad,Pcbnew,(5.1.6)-1*%
%TF.CreationDate,2020-10-26T14:55:52-07:00*%
%TF.ProjectId,DigitController2,44696769-7443-46f6-9e74-726f6c6c6572,rev?*%
%TF.SameCoordinates,Original*%
%TF.FileFunction,Paste,Top*%
%TF.FilePolarity,Positive*%
%FSLAX46Y46*%
G04 Gerber Fmt 4.6, Leading zero omitted, Abs format (unit mm)*
G04 Created by KiCad (PCBNEW (5.1.6)-1) date 2020-10-26 14:55:52*
%MOMM*%
%LPD*%
G01*
G04 APERTURE LIST*
G04 APERTURE END LIST*
%TO.C,R4*%
G36*
G01*
X139055000Y-97269000D02*
X137805000Y-97269000D01*
G75*
G02*
X137555000Y-97019000I0J250000D01*
G01*
X137555000Y-96094000D01*
G75*
G02*
X137805000Y-95844000I250000J0D01*
G01*
X139055000Y-95844000D01*
G75*
G02*
X139305000Y-96094000I0J-250000D01*
G01*
X139305000Y-97019000D01*
G75*
G02*
X139055000Y-97269000I-250000J0D01*
G01*
G37*
G36*
G01*
X139055000Y-100244000D02*
X137805000Y-100244000D01*
G75*
G02*
X137555000Y-99994000I0J250000D01*
G01*
X137555000Y-99069000D01*
G75*
G02*
X137805000Y-98819000I250000J0D01*
G01*
X139055000Y-98819000D01*
G75*
G02*
X139305000Y-99069000I0J-250000D01*
G01*
X139305000Y-99994000D01*
G75*
G02*
X139055000Y-100244000I-250000J0D01*
G01*
G37*
%TD*%
%TO.C,R3*%
G36*
G01*
X135747000Y-97269000D02*
X134497000Y-97269000D01*
G75*
G02*
X134247000Y-97019000I0J250000D01*
G01*
X134247000Y-96094000D01*
G75*
G02*
X134497000Y-95844000I250000J0D01*
G01*
X135747000Y-95844000D01*
G75*
G02*
X135997000Y-96094000I0J-250000D01*
G01*
X135997000Y-97019000D01*
G75*
G02*
X135747000Y-97269000I-250000J0D01*
G01*
G37*
G36*
G01*
X135747000Y-100244000D02*
X134497000Y-100244000D01*
G75*
G02*
X134247000Y-99994000I0J250000D01*
G01*
X134247000Y-99069000D01*
G75*
G02*
X134497000Y-98819000I250000J0D01*
G01*
X135747000Y-98819000D01*
G75*
G02*
X135997000Y-99069000I0J-250000D01*
G01*
X135997000Y-99994000D01*
G75*
G02*
X135747000Y-100244000I-250000J0D01*
G01*
G37*
%TD*%
%TO.C,R2*%
G36*
G01*
X118347000Y-97015000D02*
X117097000Y-97015000D01*
G75*
G02*
X116847000Y-96765000I0J250000D01*
G01*
X116847000Y-95840000D01*
G75*
G02*
X117097000Y-95590000I250000J0D01*
G01*
X118347000Y-95590000D01*
G75*
G02*
X118597000Y-95840000I0J-250000D01*
G01*
X118597000Y-96765000D01*
G75*
G02*
X118347000Y-97015000I-250000J0D01*
G01*
G37*
G36*
G01*
X118347000Y-99990000D02*
X117097000Y-99990000D01*
G75*
G02*
X116847000Y-99740000I0J250000D01*
G01*
X116847000Y-98815000D01*
G75*
G02*
X117097000Y-98565000I250000J0D01*
G01*
X118347000Y-98565000D01*
G75*
G02*
X118597000Y-98815000I0J-250000D01*
G01*
X118597000Y-99740000D01*
G75*
G02*
X118347000Y-99990000I-250000J0D01*
G01*
G37*
%TD*%
%TO.C,R1*%
G36*
G01*
X115179000Y-97015000D02*
X113929000Y-97015000D01*
G75*
G02*
X113679000Y-96765000I0J250000D01*
G01*
X113679000Y-95840000D01*
G75*
G02*
X113929000Y-95590000I250000J0D01*
G01*
X115179000Y-95590000D01*
G75*
G02*
X115429000Y-95840000I0J-250000D01*
G01*
X115429000Y-96765000D01*
G75*
G02*
X115179000Y-97015000I-250000J0D01*
G01*
G37*
G36*
G01*
X115179000Y-99990000D02*
X113929000Y-99990000D01*
G75*
G02*
X113679000Y-99740000I0J250000D01*
G01*
X113679000Y-98815000D01*
G75*
G02*
X113929000Y-98565000I250000J0D01*
G01*
X115179000Y-98565000D01*
G75*
G02*
X115429000Y-98815000I0J-250000D01*
G01*
X115429000Y-99740000D01*
G75*
G02*
X115179000Y-99990000I-250000J0D01*
G01*
G37*
%TD*%
M02*
