%TF.GenerationSoftware,KiCad,Pcbnew,(5.1.6)-1*%
%TF.CreationDate,2020-10-26T14:55:52-07:00*%
%TF.ProjectId,DigitController2,44696769-7443-46f6-9e74-726f6c6c6572,rev?*%
%TF.SameCoordinates,Original*%
%TF.FileFunction,Legend,Bot*%
%TF.FilePolarity,Positive*%
%FSLAX46Y46*%
G04 Gerber Fmt 4.6, Leading zero omitted, Abs format (unit mm)*
G04 Created by KiCad (PCBNEW (5.1.6)-1) date 2020-10-26 14:55:52*
%MOMM*%
%LPD*%
G01*
G04 APERTURE LIST*
%ADD10C,0.150000*%
G04 APERTURE END LIST*
D10*
X140239714Y-127706380D02*
X140239714Y-126706380D01*
X140239714Y-127182571D02*
X139668285Y-127182571D01*
X139668285Y-127706380D02*
X139668285Y-126706380D01*
X128638095Y-126900000D02*
X128733333Y-126852380D01*
X128876190Y-126852380D01*
X129019047Y-126900000D01*
X129114285Y-126995238D01*
X129161904Y-127090476D01*
X129209523Y-127280952D01*
X129209523Y-127423809D01*
X129161904Y-127614285D01*
X129114285Y-127709523D01*
X129019047Y-127804761D01*
X128876190Y-127852380D01*
X128780952Y-127852380D01*
X128638095Y-127804761D01*
X128590476Y-127757142D01*
X128590476Y-127423809D01*
X128780952Y-127423809D01*
X114457142Y-117228571D02*
X114790476Y-117228571D01*
X114790476Y-117752380D02*
X114790476Y-116752380D01*
X114314285Y-116752380D01*
X114814285Y-120828571D02*
X114480952Y-120828571D01*
X114338095Y-121352380D02*
X114814285Y-121352380D01*
X114814285Y-120352380D01*
X114338095Y-120352380D01*
X134881904Y-127706380D02*
X134881904Y-126706380D01*
X134643809Y-126706380D01*
X134500952Y-126754000D01*
X134405714Y-126849238D01*
X134358095Y-126944476D01*
X134310476Y-127134952D01*
X134310476Y-127277809D01*
X134358095Y-127468285D01*
X134405714Y-127563523D01*
X134500952Y-127658761D01*
X134643809Y-127706380D01*
X134881904Y-127706380D01*
X154490476Y-117057142D02*
X154538095Y-117104761D01*
X154680952Y-117152380D01*
X154776190Y-117152380D01*
X154919047Y-117104761D01*
X155014285Y-117009523D01*
X155061904Y-116914285D01*
X155109523Y-116723809D01*
X155109523Y-116580952D01*
X155061904Y-116390476D01*
X155014285Y-116295238D01*
X154919047Y-116200000D01*
X154776190Y-116152380D01*
X154680952Y-116152380D01*
X154538095Y-116200000D01*
X154490476Y-116247619D01*
X154628571Y-108628571D02*
X154485714Y-108676190D01*
X154438095Y-108723809D01*
X154390476Y-108819047D01*
X154390476Y-108961904D01*
X154438095Y-109057142D01*
X154485714Y-109104761D01*
X154580952Y-109152380D01*
X154961904Y-109152380D01*
X154961904Y-108152380D01*
X154628571Y-108152380D01*
X154533333Y-108200000D01*
X154485714Y-108247619D01*
X154438095Y-108342857D01*
X154438095Y-108438095D01*
X154485714Y-108533333D01*
X154533333Y-108580952D01*
X154628571Y-108628571D01*
X154961904Y-108628571D01*
X141838095Y-87166666D02*
X141361904Y-87166666D01*
X141933333Y-87452380D02*
X141600000Y-86452380D01*
X141266666Y-87452380D01*
X131541047Y-94442380D02*
X131541047Y-95156666D01*
X131588666Y-95299523D01*
X131683904Y-95394761D01*
X131826761Y-95442380D01*
X131922000Y-95442380D01*
X130588666Y-95442380D02*
X131064857Y-95442380D01*
X131064857Y-94442380D01*
X129683904Y-95347142D02*
X129731523Y-95394761D01*
X129874380Y-95442380D01*
X129969619Y-95442380D01*
X130112476Y-95394761D01*
X130207714Y-95299523D01*
X130255333Y-95204285D01*
X130302952Y-95013809D01*
X130302952Y-94870952D01*
X130255333Y-94680476D01*
X130207714Y-94585238D01*
X130112476Y-94490000D01*
X129969619Y-94442380D01*
X129874380Y-94442380D01*
X129731523Y-94490000D01*
X129683904Y-94537619D01*
X128969619Y-94442380D02*
X128969619Y-95156666D01*
X129017238Y-95299523D01*
X129112476Y-95394761D01*
X129255333Y-95442380D01*
X129350571Y-95442380D01*
X128017238Y-95442380D02*
X128493428Y-95442380D01*
X128493428Y-94442380D01*
X127112476Y-95347142D02*
X127160095Y-95394761D01*
X127302952Y-95442380D01*
X127398190Y-95442380D01*
X127541047Y-95394761D01*
X127636285Y-95299523D01*
X127683904Y-95204285D01*
X127731523Y-95013809D01*
X127731523Y-94870952D01*
X127683904Y-94680476D01*
X127636285Y-94585238D01*
X127541047Y-94490000D01*
X127398190Y-94442380D01*
X127302952Y-94442380D01*
X127160095Y-94490000D01*
X127112476Y-94537619D01*
X126398190Y-94442380D02*
X126398190Y-95156666D01*
X126445809Y-95299523D01*
X126541047Y-95394761D01*
X126683904Y-95442380D01*
X126779142Y-95442380D01*
X125445809Y-95442380D02*
X125922000Y-95442380D01*
X125922000Y-94442380D01*
X124541047Y-95347142D02*
X124588666Y-95394761D01*
X124731523Y-95442380D01*
X124826761Y-95442380D01*
X124969619Y-95394761D01*
X125064857Y-95299523D01*
X125112476Y-95204285D01*
X125160095Y-95013809D01*
X125160095Y-94870952D01*
X125112476Y-94680476D01*
X125064857Y-94585238D01*
X124969619Y-94490000D01*
X124826761Y-94442380D01*
X124731523Y-94442380D01*
X124588666Y-94490000D01*
X124541047Y-94537619D01*
X123826761Y-94442380D02*
X123826761Y-95156666D01*
X123874380Y-95299523D01*
X123969619Y-95394761D01*
X124112476Y-95442380D01*
X124207714Y-95442380D01*
X122874380Y-95442380D02*
X123350571Y-95442380D01*
X123350571Y-94442380D01*
X121969619Y-95347142D02*
X122017238Y-95394761D01*
X122160095Y-95442380D01*
X122255333Y-95442380D01*
X122398190Y-95394761D01*
X122493428Y-95299523D01*
X122541047Y-95204285D01*
X122588666Y-95013809D01*
X122588666Y-94870952D01*
X122541047Y-94680476D01*
X122493428Y-94585238D01*
X122398190Y-94490000D01*
X122255333Y-94442380D01*
X122160095Y-94442380D01*
X122017238Y-94490000D01*
X121969619Y-94537619D01*
X137254000Y-107132380D02*
X137254000Y-106132380D01*
X136873047Y-106132380D01*
X136777809Y-106180000D01*
X136730190Y-106227619D01*
X136682571Y-106322857D01*
X136682571Y-106465714D01*
X136730190Y-106560952D01*
X136777809Y-106608571D01*
X136873047Y-106656190D01*
X137254000Y-106656190D01*
X135825428Y-107132380D02*
X135825428Y-106608571D01*
X135873047Y-106513333D01*
X135968285Y-106465714D01*
X136158761Y-106465714D01*
X136254000Y-106513333D01*
X135825428Y-107084761D02*
X135920666Y-107132380D01*
X136158761Y-107132380D01*
X136254000Y-107084761D01*
X136301619Y-106989523D01*
X136301619Y-106894285D01*
X136254000Y-106799047D01*
X136158761Y-106751428D01*
X135920666Y-106751428D01*
X135825428Y-106703809D01*
X135396857Y-107084761D02*
X135301619Y-107132380D01*
X135111142Y-107132380D01*
X135015904Y-107084761D01*
X134968285Y-106989523D01*
X134968285Y-106941904D01*
X135015904Y-106846666D01*
X135111142Y-106799047D01*
X135254000Y-106799047D01*
X135349238Y-106751428D01*
X135396857Y-106656190D01*
X135396857Y-106608571D01*
X135349238Y-106513333D01*
X135254000Y-106465714D01*
X135111142Y-106465714D01*
X135015904Y-106513333D01*
X134587333Y-107084761D02*
X134492095Y-107132380D01*
X134301619Y-107132380D01*
X134206380Y-107084761D01*
X134158761Y-106989523D01*
X134158761Y-106941904D01*
X134206380Y-106846666D01*
X134301619Y-106799047D01*
X134444476Y-106799047D01*
X134539714Y-106751428D01*
X134587333Y-106656190D01*
X134587333Y-106608571D01*
X134539714Y-106513333D01*
X134444476Y-106465714D01*
X134301619Y-106465714D01*
X134206380Y-106513333D01*
X133730190Y-107132380D02*
X133730190Y-106465714D01*
X133730190Y-106132380D02*
X133777809Y-106180000D01*
X133730190Y-106227619D01*
X133682571Y-106180000D01*
X133730190Y-106132380D01*
X133730190Y-106227619D01*
X133349238Y-106465714D02*
X133111142Y-107132380D01*
X132873047Y-106465714D01*
X132111142Y-107084761D02*
X132206380Y-107132380D01*
X132396857Y-107132380D01*
X132492095Y-107084761D01*
X132539714Y-106989523D01*
X132539714Y-106608571D01*
X132492095Y-106513333D01*
X132396857Y-106465714D01*
X132206380Y-106465714D01*
X132111142Y-106513333D01*
X132063523Y-106608571D01*
X132063523Y-106703809D01*
X132539714Y-106799047D01*
X130873047Y-107132380D02*
X130873047Y-106132380D01*
X130634952Y-106132380D01*
X130492095Y-106180000D01*
X130396857Y-106275238D01*
X130349238Y-106370476D01*
X130301619Y-106560952D01*
X130301619Y-106703809D01*
X130349238Y-106894285D01*
X130396857Y-106989523D01*
X130492095Y-107084761D01*
X130634952Y-107132380D01*
X130873047Y-107132380D01*
X129873047Y-107132380D02*
X129873047Y-106465714D01*
X129873047Y-106132380D02*
X129920666Y-106180000D01*
X129873047Y-106227619D01*
X129825428Y-106180000D01*
X129873047Y-106132380D01*
X129873047Y-106227619D01*
X128968285Y-106465714D02*
X128968285Y-107275238D01*
X129015904Y-107370476D01*
X129063523Y-107418095D01*
X129158761Y-107465714D01*
X129301619Y-107465714D01*
X129396857Y-107418095D01*
X128968285Y-107084761D02*
X129063523Y-107132380D01*
X129254000Y-107132380D01*
X129349238Y-107084761D01*
X129396857Y-107037142D01*
X129444476Y-106941904D01*
X129444476Y-106656190D01*
X129396857Y-106560952D01*
X129349238Y-106513333D01*
X129254000Y-106465714D01*
X129063523Y-106465714D01*
X128968285Y-106513333D01*
X128492095Y-107132380D02*
X128492095Y-106465714D01*
X128492095Y-106132380D02*
X128539714Y-106180000D01*
X128492095Y-106227619D01*
X128444476Y-106180000D01*
X128492095Y-106132380D01*
X128492095Y-106227619D01*
X128158761Y-106465714D02*
X127777809Y-106465714D01*
X128015904Y-106132380D02*
X128015904Y-106989523D01*
X127968285Y-107084761D01*
X127873047Y-107132380D01*
X127777809Y-107132380D01*
X126111142Y-107037142D02*
X126158761Y-107084761D01*
X126301619Y-107132380D01*
X126396857Y-107132380D01*
X126539714Y-107084761D01*
X126634952Y-106989523D01*
X126682571Y-106894285D01*
X126730190Y-106703809D01*
X126730190Y-106560952D01*
X126682571Y-106370476D01*
X126634952Y-106275238D01*
X126539714Y-106180000D01*
X126396857Y-106132380D01*
X126301619Y-106132380D01*
X126158761Y-106180000D01*
X126111142Y-106227619D01*
X125539714Y-107132380D02*
X125634952Y-107084761D01*
X125682571Y-107037142D01*
X125730190Y-106941904D01*
X125730190Y-106656190D01*
X125682571Y-106560952D01*
X125634952Y-106513333D01*
X125539714Y-106465714D01*
X125396857Y-106465714D01*
X125301619Y-106513333D01*
X125254000Y-106560952D01*
X125206380Y-106656190D01*
X125206380Y-106941904D01*
X125254000Y-107037142D01*
X125301619Y-107084761D01*
X125396857Y-107132380D01*
X125539714Y-107132380D01*
X124777809Y-106465714D02*
X124777809Y-107132380D01*
X124777809Y-106560952D02*
X124730190Y-106513333D01*
X124634952Y-106465714D01*
X124492095Y-106465714D01*
X124396857Y-106513333D01*
X124349238Y-106608571D01*
X124349238Y-107132380D01*
X124015904Y-106465714D02*
X123634952Y-106465714D01*
X123873047Y-106132380D02*
X123873047Y-106989523D01*
X123825428Y-107084761D01*
X123730190Y-107132380D01*
X123634952Y-107132380D01*
X123301619Y-107132380D02*
X123301619Y-106465714D01*
X123301619Y-106656190D02*
X123254000Y-106560952D01*
X123206380Y-106513333D01*
X123111142Y-106465714D01*
X123015904Y-106465714D01*
X122539714Y-107132380D02*
X122634952Y-107084761D01*
X122682571Y-107037142D01*
X122730190Y-106941904D01*
X122730190Y-106656190D01*
X122682571Y-106560952D01*
X122634952Y-106513333D01*
X122539714Y-106465714D01*
X122396857Y-106465714D01*
X122301619Y-106513333D01*
X122254000Y-106560952D01*
X122206380Y-106656190D01*
X122206380Y-106941904D01*
X122254000Y-107037142D01*
X122301619Y-107084761D01*
X122396857Y-107132380D01*
X122539714Y-107132380D01*
X121634952Y-107132380D02*
X121730190Y-107084761D01*
X121777809Y-106989523D01*
X121777809Y-106132380D01*
X121111142Y-107132380D02*
X121206380Y-107084761D01*
X121254000Y-106989523D01*
X121254000Y-106132380D01*
X120349238Y-107084761D02*
X120444476Y-107132380D01*
X120634952Y-107132380D01*
X120730190Y-107084761D01*
X120777809Y-106989523D01*
X120777809Y-106608571D01*
X120730190Y-106513333D01*
X120634952Y-106465714D01*
X120444476Y-106465714D01*
X120349238Y-106513333D01*
X120301619Y-106608571D01*
X120301619Y-106703809D01*
X120777809Y-106799047D01*
X119873047Y-107132380D02*
X119873047Y-106465714D01*
X119873047Y-106656190D02*
X119825428Y-106560952D01*
X119777809Y-106513333D01*
X119682571Y-106465714D01*
X119587333Y-106465714D01*
X118587333Y-106465714D02*
X118349238Y-107132380D01*
X118111142Y-106465714D01*
X117777809Y-106227619D02*
X117730190Y-106180000D01*
X117634952Y-106132380D01*
X117396857Y-106132380D01*
X117301619Y-106180000D01*
X117254000Y-106227619D01*
X117206380Y-106322857D01*
X117206380Y-106418095D01*
X117254000Y-106560952D01*
X117825428Y-107132380D01*
X117206380Y-107132380D01*
M02*
