%TF.GenerationSoftware,KiCad,Pcbnew,(5.1.6)-1*%
%TF.CreationDate,2020-10-26T14:55:52-07:00*%
%TF.ProjectId,DigitController2,44696769-7443-46f6-9e74-726f6c6c6572,rev?*%
%TF.SameCoordinates,Original*%
%TF.FileFunction,Soldermask,Bot*%
%TF.FilePolarity,Negative*%
%FSLAX46Y46*%
G04 Gerber Fmt 4.6, Leading zero omitted, Abs format (unit mm)*
G04 Created by KiCad (PCBNEW (5.1.6)-1) date 2020-10-26 14:55:52*
%MOMM*%
%LPD*%
G01*
G04 APERTURE LIST*
%ADD10O,1.700000X2.500000*%
%ADD11R,1.700000X2.500000*%
%ADD12R,1.700000X1.700000*%
%ADD13O,1.700000X1.700000*%
%ADD14O,2.500000X1.700000*%
%ADD15R,2.500000X1.700000*%
%ADD16R,1.800000X1.800000*%
%ADD17O,1.800000X1.800000*%
G04 APERTURE END LIST*
D10*
%TO.C,U3*%
X120904000Y-114808000D03*
X138684000Y-122428000D03*
X123444000Y-114808000D03*
X136144000Y-122428000D03*
X125984000Y-114808000D03*
X133604000Y-122428000D03*
X128524000Y-114808000D03*
X131064000Y-122428000D03*
X131064000Y-114808000D03*
X128524000Y-122428000D03*
X133604000Y-114808000D03*
X125984000Y-122428000D03*
X136144000Y-114808000D03*
X123444000Y-122428000D03*
X138684000Y-114808000D03*
D11*
X120904000Y-122428000D03*
%TD*%
D12*
%TO.C,SW1*%
X130322000Y-91190000D03*
D13*
X122702000Y-98810000D03*
X127782000Y-91190000D03*
X125242000Y-98810000D03*
X125242000Y-91190000D03*
X127782000Y-98810000D03*
X122702000Y-91190000D03*
X130322000Y-98810000D03*
%TD*%
D10*
%TO.C,U2*%
X137922000Y-110236000D03*
X115062000Y-102616000D03*
X135382000Y-110236000D03*
X117602000Y-102616000D03*
X132842000Y-110236000D03*
X120142000Y-102616000D03*
X130302000Y-110236000D03*
X122682000Y-102616000D03*
X127762000Y-110236000D03*
X125222000Y-102616000D03*
X125222000Y-110236000D03*
X127762000Y-102616000D03*
X122682000Y-110236000D03*
X130302000Y-102616000D03*
X120142000Y-110236000D03*
X132842000Y-102616000D03*
X117602000Y-110236000D03*
X135382000Y-102616000D03*
X115062000Y-110236000D03*
D11*
X137922000Y-102616000D03*
%TD*%
D14*
%TO.C,U1*%
X146812000Y-103378000D03*
X154432000Y-88138000D03*
X146812000Y-100838000D03*
X154432000Y-90678000D03*
X146812000Y-98298000D03*
X154432000Y-93218000D03*
X146812000Y-95758000D03*
X154432000Y-95758000D03*
X146812000Y-93218000D03*
X154432000Y-98298000D03*
X146812000Y-90678000D03*
X154432000Y-100838000D03*
X146812000Y-88138000D03*
D15*
X154432000Y-103378000D03*
%TD*%
D14*
%TO.C,IC1*%
X151130000Y-107950000D03*
X143510000Y-123190000D03*
X151130000Y-110490000D03*
X143510000Y-120650000D03*
X151130000Y-113030000D03*
X143510000Y-118110000D03*
X151130000Y-115570000D03*
X143510000Y-115570000D03*
X151130000Y-118110000D03*
X143510000Y-113030000D03*
X151130000Y-120650000D03*
X143510000Y-110490000D03*
X151130000Y-123190000D03*
D15*
X143510000Y-107950000D03*
%TD*%
D16*
%TO.C,J6*%
X132588000Y-127254000D03*
%TD*%
%TO.C,J1*%
X137922000Y-127254000D03*
%TD*%
%TO.C,J2*%
X127000000Y-127254000D03*
%TD*%
%TO.C,J3*%
X116500000Y-117100000D03*
%TD*%
%TO.C,J4*%
X135800000Y-87400000D03*
D17*
X133260000Y-87400000D03*
X130720000Y-87400000D03*
X128180000Y-87400000D03*
X125640000Y-87400000D03*
X123100000Y-87400000D03*
X120560000Y-87400000D03*
X118020000Y-87400000D03*
X115480000Y-87400000D03*
%TD*%
D16*
%TO.C,J5*%
X116500000Y-120800000D03*
%TD*%
%TO.C,J7*%
X154600000Y-118600000D03*
%TD*%
%TO.C,J8*%
X154600000Y-110600000D03*
%TD*%
%TO.C,J9*%
X139800000Y-87400000D03*
%TD*%
M02*
