M48
; DRILL file {KiCad (5.1.6)-1} date 10/26/20 14:55:53
; FORMAT={-:-/ absolute / inch / decimal}
; #@! TF.CreationDate,2020-10-26T14:55:53-07:00
; #@! TF.GenerationSoftware,Kicad,Pcbnew,(5.1.6)-1
FMAT,2
INCH
T1C0.0315
T2C0.0394
%
G90
G05
T1
X4.57Y-3.72
X5.39Y-3.73
X5.49Y-4.22
X5.54Y-3.58
X5.54Y-4.15
X5.92Y-3.47
X4.8308Y-3.5902
X4.8308Y-3.8902
X4.9308Y-3.5902
X4.9308Y-3.8902
X5.0308Y-3.5902
X5.0308Y-3.8902
X5.1308Y-3.5902
X5.1308Y-3.8902
X4.76Y-4.52
X4.76Y-4.82
X4.86Y-4.52
X4.86Y-4.82
X4.96Y-4.52
X4.96Y-4.82
X5.06Y-4.52
X5.06Y-4.82
X5.16Y-4.52
X5.16Y-4.82
X5.26Y-4.52
X5.26Y-4.82
X5.36Y-4.52
X5.36Y-4.82
X5.46Y-4.52
X5.46Y-4.82
X4.53Y-4.04
X4.53Y-4.34
X4.63Y-4.04
X4.63Y-4.34
X4.73Y-4.04
X4.73Y-4.34
X4.83Y-4.04
X4.83Y-4.34
X4.93Y-4.04
X4.93Y-4.34
X5.03Y-4.04
X5.03Y-4.34
X5.13Y-4.04
X5.13Y-4.34
X5.23Y-4.04
X5.23Y-4.34
X5.33Y-4.04
X5.33Y-4.34
X5.43Y-4.04
X5.43Y-4.34
X5.78Y-3.47
X5.78Y-3.57
X5.78Y-3.67
X5.78Y-3.77
X5.78Y-3.87
X5.78Y-3.97
X5.78Y-4.07
X6.08Y-3.47
X6.08Y-3.57
X6.08Y-3.67
X6.08Y-3.77
X6.08Y-3.87
X6.08Y-3.97
X6.08Y-4.07
X5.65Y-4.25
X5.65Y-4.35
X5.65Y-4.45
X5.65Y-4.55
X5.65Y-4.65
X5.65Y-4.75
X5.65Y-4.85
X5.95Y-4.25
X5.95Y-4.35
X5.95Y-4.45
X5.95Y-4.55
X5.95Y-4.65
X5.95Y-4.75
X5.95Y-4.85
T2
X5.0Y-5.01
X4.5465Y-3.4409
X4.6465Y-3.4409
X4.7465Y-3.4409
X4.8465Y-3.4409
X4.9465Y-3.4409
X5.0465Y-3.4409
X5.1465Y-3.4409
X5.2465Y-3.4409
X5.3465Y-3.4409
X5.5039Y-3.4409
X5.22Y-5.01
X4.5866Y-4.6102
X4.5866Y-4.7559
X6.0866Y-4.3543
X5.43Y-5.01
X6.0866Y-4.6693
T0
M30
