%TF.GenerationSoftware,KiCad,Pcbnew,(5.1.6)-1*%
%TF.CreationDate,2020-10-26T14:55:51-07:00*%
%TF.ProjectId,DigitController2,44696769-7443-46f6-9e74-726f6c6c6572,rev?*%
%TF.SameCoordinates,Original*%
%TF.FileFunction,Copper,L1,Top*%
%TF.FilePolarity,Positive*%
%FSLAX46Y46*%
G04 Gerber Fmt 4.6, Leading zero omitted, Abs format (unit mm)*
G04 Created by KiCad (PCBNEW (5.1.6)-1) date 2020-10-26 14:55:51*
%MOMM*%
%LPD*%
G01*
G04 APERTURE LIST*
%TA.AperFunction,ComponentPad*%
%ADD10O,1.600000X2.400000*%
%TD*%
%TA.AperFunction,ComponentPad*%
%ADD11R,1.600000X2.400000*%
%TD*%
%TA.AperFunction,ComponentPad*%
%ADD12R,1.600000X1.600000*%
%TD*%
%TA.AperFunction,ComponentPad*%
%ADD13O,1.600000X1.600000*%
%TD*%
%TA.AperFunction,ComponentPad*%
%ADD14O,2.400000X1.600000*%
%TD*%
%TA.AperFunction,ComponentPad*%
%ADD15R,2.400000X1.600000*%
%TD*%
%TA.AperFunction,ComponentPad*%
%ADD16R,1.700000X1.700000*%
%TD*%
%TA.AperFunction,ComponentPad*%
%ADD17O,1.700000X1.700000*%
%TD*%
%TA.AperFunction,ViaPad*%
%ADD18C,1.200000*%
%TD*%
%TA.AperFunction,Conductor*%
%ADD19C,0.200000*%
%TD*%
G04 APERTURE END LIST*
D10*
%TO.P,U3,16*%
%TO.N,/VCC*%
X120904000Y-114808000D03*
%TO.P,U3,8*%
%TO.N,/GND*%
X138684000Y-122428000D03*
%TO.P,U3,15*%
%TO.N,/SEG_A*%
X123444000Y-114808000D03*
%TO.P,U3,7*%
%TO.N,/SEG_H*%
X136144000Y-122428000D03*
%TO.P,U3,14*%
%TO.N,Net-(IC1-Pad12)*%
X125984000Y-114808000D03*
%TO.P,U3,6*%
%TO.N,/SEG_G*%
X133604000Y-122428000D03*
%TO.P,U3,13*%
%TO.N,/GND*%
X128524000Y-114808000D03*
%TO.P,U3,5*%
%TO.N,/SEG_F*%
X131064000Y-122428000D03*
%TO.P,U3,12*%
%TO.N,Net-(IC1-Pad6)*%
X131064000Y-114808000D03*
%TO.P,U3,4*%
%TO.N,/SEG_E*%
X128524000Y-122428000D03*
%TO.P,U3,11*%
%TO.N,Net-(IC1-Pad8)*%
X133604000Y-114808000D03*
%TO.P,U3,3*%
%TO.N,/SEG_D*%
X125984000Y-122428000D03*
%TO.P,U3,10*%
%TO.N,/VCC*%
X136144000Y-114808000D03*
%TO.P,U3,2*%
%TO.N,/SEG_C*%
X123444000Y-122428000D03*
%TO.P,U3,9*%
%TO.N,Net-(U3-Pad9)*%
X138684000Y-114808000D03*
D11*
%TO.P,U3,1*%
%TO.N,/SEG_B*%
X120904000Y-122428000D03*
%TD*%
D12*
%TO.P,SW1,1*%
%TO.N,/VCC*%
X130322000Y-91190000D03*
D13*
%TO.P,SW1,5*%
%TO.N,Net-(R1-Pad1)*%
X122702000Y-98810000D03*
%TO.P,SW1,2*%
%TO.N,/VCC*%
X127782000Y-91190000D03*
%TO.P,SW1,6*%
%TO.N,Net-(R2-Pad1)*%
X125242000Y-98810000D03*
%TO.P,SW1,3*%
%TO.N,/VCC*%
X125242000Y-91190000D03*
%TO.P,SW1,7*%
%TO.N,Net-(R3-Pad1)*%
X127782000Y-98810000D03*
%TO.P,SW1,4*%
%TO.N,/VCC*%
X122702000Y-91190000D03*
%TO.P,SW1,8*%
%TO.N,Net-(R4-Pad1)*%
X130322000Y-98810000D03*
%TD*%
D10*
%TO.P,U2,20*%
%TO.N,/VCC*%
X137922000Y-110236000D03*
%TO.P,U2,10*%
%TO.N,/GND*%
X115062000Y-102616000D03*
%TO.P,U2,19*%
%TO.N,/DIGIT_SELECT*%
X135382000Y-110236000D03*
%TO.P,U2,9*%
%TO.N,/ADDR3_IN*%
X117602000Y-102616000D03*
%TO.P,U2,18*%
%TO.N,/GND*%
X132842000Y-110236000D03*
%TO.P,U2,8*%
%TO.N,Net-(R1-Pad1)*%
X120142000Y-102616000D03*
%TO.P,U2,17*%
%TO.N,/GND*%
X130302000Y-110236000D03*
%TO.P,U2,7*%
%TO.N,/ADDR2_IN*%
X122682000Y-102616000D03*
%TO.P,U2,16*%
%TO.N,/GND*%
X127762000Y-110236000D03*
%TO.P,U2,6*%
%TO.N,Net-(R2-Pad1)*%
X125222000Y-102616000D03*
%TO.P,U2,15*%
%TO.N,/GND*%
X125222000Y-110236000D03*
%TO.P,U2,5*%
%TO.N,/ADDR1_IN*%
X127762000Y-102616000D03*
%TO.P,U2,14*%
%TO.N,/GND*%
X122682000Y-110236000D03*
%TO.P,U2,4*%
%TO.N,Net-(R3-Pad1)*%
X130302000Y-102616000D03*
%TO.P,U2,13*%
%TO.N,/GND*%
X120142000Y-110236000D03*
%TO.P,U2,3*%
%TO.N,/ADDR0_IN*%
X132842000Y-102616000D03*
%TO.P,U2,12*%
%TO.N,/GND*%
X117602000Y-110236000D03*
%TO.P,U2,2*%
%TO.N,Net-(R4-Pad1)*%
X135382000Y-102616000D03*
%TO.P,U2,11*%
%TO.N,/GND*%
X115062000Y-110236000D03*
D11*
%TO.P,U2,1*%
X137922000Y-102616000D03*
%TD*%
D14*
%TO.P,U1,14*%
%TO.N,/VCC*%
X146812000Y-103378000D03*
%TO.P,U1,7*%
%TO.N,/GND*%
X154432000Y-88138000D03*
%TO.P,U1,13*%
%TO.N,/SRCLK_IN*%
X146812000Y-100838000D03*
%TO.P,U1,6*%
%TO.N,/GND*%
X154432000Y-90678000D03*
%TO.P,U1,12*%
%TO.N,Net-(IC1-Pad2)*%
X146812000Y-98298000D03*
%TO.P,U1,5*%
%TO.N,/GND*%
X154432000Y-93218000D03*
%TO.P,U1,11*%
%TO.N,/RCLK_IN*%
X146812000Y-95758000D03*
%TO.P,U1,4*%
%TO.N,/GND*%
X154432000Y-95758000D03*
%TO.P,U1,10*%
%TO.N,Net-(IC1-Pad4)*%
X146812000Y-93218000D03*
%TO.P,U1,3*%
%TO.N,/GND*%
X154432000Y-98298000D03*
%TO.P,U1,9*%
%TO.N,/SER_IN*%
X146812000Y-90678000D03*
%TO.P,U1,2*%
%TO.N,/GND*%
X154432000Y-100838000D03*
%TO.P,U1,8*%
%TO.N,Net-(IC1-Pad10)*%
X146812000Y-88138000D03*
D15*
%TO.P,U1,1*%
%TO.N,/GND*%
X154432000Y-103378000D03*
%TD*%
%TO.P,R4,2*%
%TO.N,/GND*%
%TA.AperFunction,SMDPad,CuDef*%
G36*
G01*
X139055000Y-97269000D02*
X137805000Y-97269000D01*
G75*
G02*
X137555000Y-97019000I0J250000D01*
G01*
X137555000Y-96094000D01*
G75*
G02*
X137805000Y-95844000I250000J0D01*
G01*
X139055000Y-95844000D01*
G75*
G02*
X139305000Y-96094000I0J-250000D01*
G01*
X139305000Y-97019000D01*
G75*
G02*
X139055000Y-97269000I-250000J0D01*
G01*
G37*
%TD.AperFunction*%
%TO.P,R4,1*%
%TO.N,Net-(R4-Pad1)*%
%TA.AperFunction,SMDPad,CuDef*%
G36*
G01*
X139055000Y-100244000D02*
X137805000Y-100244000D01*
G75*
G02*
X137555000Y-99994000I0J250000D01*
G01*
X137555000Y-99069000D01*
G75*
G02*
X137805000Y-98819000I250000J0D01*
G01*
X139055000Y-98819000D01*
G75*
G02*
X139305000Y-99069000I0J-250000D01*
G01*
X139305000Y-99994000D01*
G75*
G02*
X139055000Y-100244000I-250000J0D01*
G01*
G37*
%TD.AperFunction*%
%TD*%
%TO.P,R3,2*%
%TO.N,/GND*%
%TA.AperFunction,SMDPad,CuDef*%
G36*
G01*
X135747000Y-97269000D02*
X134497000Y-97269000D01*
G75*
G02*
X134247000Y-97019000I0J250000D01*
G01*
X134247000Y-96094000D01*
G75*
G02*
X134497000Y-95844000I250000J0D01*
G01*
X135747000Y-95844000D01*
G75*
G02*
X135997000Y-96094000I0J-250000D01*
G01*
X135997000Y-97019000D01*
G75*
G02*
X135747000Y-97269000I-250000J0D01*
G01*
G37*
%TD.AperFunction*%
%TO.P,R3,1*%
%TO.N,Net-(R3-Pad1)*%
%TA.AperFunction,SMDPad,CuDef*%
G36*
G01*
X135747000Y-100244000D02*
X134497000Y-100244000D01*
G75*
G02*
X134247000Y-99994000I0J250000D01*
G01*
X134247000Y-99069000D01*
G75*
G02*
X134497000Y-98819000I250000J0D01*
G01*
X135747000Y-98819000D01*
G75*
G02*
X135997000Y-99069000I0J-250000D01*
G01*
X135997000Y-99994000D01*
G75*
G02*
X135747000Y-100244000I-250000J0D01*
G01*
G37*
%TD.AperFunction*%
%TD*%
%TO.P,R2,2*%
%TO.N,/GND*%
%TA.AperFunction,SMDPad,CuDef*%
G36*
G01*
X118347000Y-97015000D02*
X117097000Y-97015000D01*
G75*
G02*
X116847000Y-96765000I0J250000D01*
G01*
X116847000Y-95840000D01*
G75*
G02*
X117097000Y-95590000I250000J0D01*
G01*
X118347000Y-95590000D01*
G75*
G02*
X118597000Y-95840000I0J-250000D01*
G01*
X118597000Y-96765000D01*
G75*
G02*
X118347000Y-97015000I-250000J0D01*
G01*
G37*
%TD.AperFunction*%
%TO.P,R2,1*%
%TO.N,Net-(R2-Pad1)*%
%TA.AperFunction,SMDPad,CuDef*%
G36*
G01*
X118347000Y-99990000D02*
X117097000Y-99990000D01*
G75*
G02*
X116847000Y-99740000I0J250000D01*
G01*
X116847000Y-98815000D01*
G75*
G02*
X117097000Y-98565000I250000J0D01*
G01*
X118347000Y-98565000D01*
G75*
G02*
X118597000Y-98815000I0J-250000D01*
G01*
X118597000Y-99740000D01*
G75*
G02*
X118347000Y-99990000I-250000J0D01*
G01*
G37*
%TD.AperFunction*%
%TD*%
%TO.P,R1,2*%
%TO.N,/GND*%
%TA.AperFunction,SMDPad,CuDef*%
G36*
G01*
X115179000Y-97015000D02*
X113929000Y-97015000D01*
G75*
G02*
X113679000Y-96765000I0J250000D01*
G01*
X113679000Y-95840000D01*
G75*
G02*
X113929000Y-95590000I250000J0D01*
G01*
X115179000Y-95590000D01*
G75*
G02*
X115429000Y-95840000I0J-250000D01*
G01*
X115429000Y-96765000D01*
G75*
G02*
X115179000Y-97015000I-250000J0D01*
G01*
G37*
%TD.AperFunction*%
%TO.P,R1,1*%
%TO.N,Net-(R1-Pad1)*%
%TA.AperFunction,SMDPad,CuDef*%
G36*
G01*
X115179000Y-99990000D02*
X113929000Y-99990000D01*
G75*
G02*
X113679000Y-99740000I0J250000D01*
G01*
X113679000Y-98815000D01*
G75*
G02*
X113929000Y-98565000I250000J0D01*
G01*
X115179000Y-98565000D01*
G75*
G02*
X115429000Y-98815000I0J-250000D01*
G01*
X115429000Y-99740000D01*
G75*
G02*
X115179000Y-99990000I-250000J0D01*
G01*
G37*
%TD.AperFunction*%
%TD*%
D14*
%TO.P,IC1,14*%
%TO.N,/VCC*%
X151130000Y-107950000D03*
%TO.P,IC1,7*%
%TO.N,/GND*%
X143510000Y-123190000D03*
%TO.P,IC1,13*%
X151130000Y-110490000D03*
%TO.P,IC1,6*%
%TO.N,Net-(IC1-Pad6)*%
X143510000Y-120650000D03*
%TO.P,IC1,12*%
%TO.N,Net-(IC1-Pad12)*%
X151130000Y-113030000D03*
%TO.P,IC1,5*%
%TO.N,/GND*%
X143510000Y-118110000D03*
%TO.P,IC1,11*%
X151130000Y-115570000D03*
%TO.P,IC1,4*%
%TO.N,Net-(IC1-Pad4)*%
X143510000Y-115570000D03*
%TO.P,IC1,10*%
%TO.N,Net-(IC1-Pad10)*%
X151130000Y-118110000D03*
%TO.P,IC1,3*%
%TO.N,/DIGIT_SELECT*%
X143510000Y-113030000D03*
%TO.P,IC1,9*%
X151130000Y-120650000D03*
%TO.P,IC1,2*%
%TO.N,Net-(IC1-Pad2)*%
X143510000Y-110490000D03*
%TO.P,IC1,8*%
%TO.N,Net-(IC1-Pad8)*%
X151130000Y-123190000D03*
D15*
%TO.P,IC1,1*%
%TO.N,/DIGIT_SELECT*%
X143510000Y-107950000D03*
%TD*%
D16*
%TO.P,J6,1*%
%TO.N,/SEG_D*%
X132588000Y-127254000D03*
%TD*%
%TO.P,J1,1*%
%TO.N,/SEG_H*%
X137922000Y-127254000D03*
%TD*%
%TO.P,J2,1*%
%TO.N,/SEG_G*%
X127000000Y-127254000D03*
%TD*%
%TO.P,J3,1*%
%TO.N,/SEG_F*%
X116500000Y-117100000D03*
%TD*%
%TO.P,J4,1*%
%TO.N,/VCC*%
X135800000Y-87400000D03*
D17*
%TO.P,J4,2*%
%TO.N,/GND*%
X133260000Y-87400000D03*
%TO.P,J4,3*%
%TO.N,/SER_IN*%
X130720000Y-87400000D03*
%TO.P,J4,4*%
%TO.N,/RCLK_IN*%
X128180000Y-87400000D03*
%TO.P,J4,5*%
%TO.N,/SRCLK_IN*%
X125640000Y-87400000D03*
%TO.P,J4,6*%
%TO.N,/ADDR0_IN*%
X123100000Y-87400000D03*
%TO.P,J4,7*%
%TO.N,/ADDR1_IN*%
X120560000Y-87400000D03*
%TO.P,J4,8*%
%TO.N,/ADDR2_IN*%
X118020000Y-87400000D03*
%TO.P,J4,9*%
%TO.N,/ADDR3_IN*%
X115480000Y-87400000D03*
%TD*%
D16*
%TO.P,J5,1*%
%TO.N,/SEG_E*%
X116500000Y-120800000D03*
%TD*%
%TO.P,J7,1*%
%TO.N,/SEG_C*%
X154600000Y-118600000D03*
%TD*%
%TO.P,J8,1*%
%TO.N,/SEG_B*%
X154600000Y-110600000D03*
%TD*%
%TO.P,J9,1*%
%TO.N,/SEG_A*%
X139800000Y-87400000D03*
%TD*%
D18*
%TO.N,Net-(IC1-Pad10)*%
X150368000Y-88138000D03*
%TO.N,/DIGIT_SELECT*%
X139446000Y-107188000D03*
%TO.N,/GND*%
X136906000Y-94742000D03*
X116078000Y-94488000D03*
%TO.N,/VCC*%
X140716000Y-105410000D03*
X140716000Y-90932000D03*
%TD*%
D19*
%TO.N,/SEG_H*%
X137922000Y-124206000D02*
X136144000Y-122428000D01*
X137922000Y-127254000D02*
X137922000Y-124206000D01*
%TO.N,/SEG_G*%
X127040000Y-127360000D02*
X127000000Y-127400000D01*
X128778000Y-127254000D02*
X133604000Y-122428000D01*
X127000000Y-127254000D02*
X128778000Y-127254000D01*
%TO.N,/SEG_F*%
X116500000Y-118150000D02*
X118746000Y-120396000D01*
X116500000Y-117100000D02*
X116500000Y-118150000D01*
X129032000Y-120396000D02*
X131064000Y-122428000D01*
X118746000Y-120396000D02*
X129032000Y-120396000D01*
%TO.N,/VCC*%
X132010000Y-91190000D02*
X130322000Y-91190000D01*
X135800000Y-87400000D02*
X132010000Y-91190000D01*
X130322000Y-91190000D02*
X122702000Y-91190000D01*
X151130000Y-107696000D02*
X146812000Y-103378000D01*
X151130000Y-107950000D02*
X151130000Y-107696000D01*
X136144000Y-112014000D02*
X137922000Y-110236000D01*
X136144000Y-114808000D02*
X136144000Y-112014000D01*
X122404010Y-116308010D02*
X120904000Y-114808000D01*
X123899639Y-116308010D02*
X122404010Y-116308010D01*
X124544010Y-114273688D02*
X124544010Y-115663639D01*
X126295698Y-112522000D02*
X124544010Y-114273688D01*
X124544010Y-115663639D02*
X123899639Y-116308010D01*
X133858000Y-112522000D02*
X126295698Y-112522000D01*
X136144000Y-114808000D02*
X133858000Y-112522000D01*
X137922000Y-110236000D02*
X140716000Y-107442000D01*
X140716000Y-107442000D02*
X140716000Y-105410000D01*
X140716000Y-105410000D02*
X140716000Y-105410000D01*
X140716000Y-105410000D02*
X140716000Y-93472000D01*
X140716000Y-93472000D02*
X140716000Y-90932000D01*
X140716000Y-90932000D02*
X140716000Y-90932000D01*
%TO.N,/GND*%
X138430000Y-96266000D02*
X138430000Y-96556500D01*
X136906000Y-94742000D02*
X138430000Y-96266000D01*
X135122000Y-96526000D02*
X135122000Y-96556500D01*
X136906000Y-94742000D02*
X135122000Y-96526000D01*
X117722000Y-96132000D02*
X117722000Y-96302500D01*
X116078000Y-94488000D02*
X117722000Y-96132000D01*
X114554000Y-96012000D02*
X114554000Y-96302500D01*
X116078000Y-94488000D02*
X114554000Y-96012000D01*
%TO.N,/SEG_E*%
X126896000Y-120800000D02*
X128524000Y-122428000D01*
X116500000Y-120800000D02*
X126896000Y-120800000D01*
%TO.N,/SEG_C*%
X154600000Y-118600000D02*
X154600000Y-121675649D01*
X147871648Y-128404001D02*
X125864001Y-128404001D01*
X154600000Y-121675649D02*
X147871648Y-128404001D01*
X125864001Y-128404001D02*
X123698000Y-126238000D01*
X123698000Y-122682000D02*
X123444000Y-122428000D01*
X123698000Y-126238000D02*
X123698000Y-122682000D01*
%TO.N,/SEG_B*%
X120904000Y-124206000D02*
X120904000Y-122428000D01*
X155750001Y-111750001D02*
X155750001Y-121091347D01*
X148037337Y-128804011D02*
X125502011Y-128804011D01*
X154600000Y-110600000D02*
X155750001Y-111750001D01*
X155750001Y-121091347D02*
X148037337Y-128804011D01*
X125502011Y-128804011D02*
X120904000Y-124206000D01*
%TO.N,/SEG_A*%
X139800000Y-103278002D02*
X139800000Y-87400000D01*
X138561982Y-104516020D02*
X139800000Y-103278002D01*
X131526331Y-104516020D02*
X138561982Y-104516020D01*
X126661990Y-111590010D02*
X126661990Y-109380361D01*
X126661990Y-109380361D02*
X131526331Y-104516020D01*
X123444000Y-114808000D02*
X126661990Y-111590010D01*
%TO.N,Net-(R1-Pad1)*%
X120142000Y-101370000D02*
X122702000Y-98810000D01*
X120142000Y-102616000D02*
X120142000Y-101370000D01*
X120142000Y-102616000D02*
X118364000Y-100838000D01*
X118364000Y-100838000D02*
X116078000Y-100838000D01*
X116078000Y-100801500D02*
X114554000Y-99277500D01*
X116078000Y-100838000D02*
X116078000Y-100801500D01*
%TO.N,Net-(R2-Pad1)*%
X124141999Y-97709999D02*
X125242000Y-98810000D01*
X119289501Y-97709999D02*
X124141999Y-97709999D01*
X117722000Y-99277500D02*
X119289501Y-97709999D01*
X125222000Y-98830000D02*
X125242000Y-98810000D01*
X125222000Y-102616000D02*
X125222000Y-98830000D01*
%TO.N,Net-(R3-Pad1)*%
X130302000Y-101330000D02*
X127782000Y-98810000D01*
X130302000Y-102616000D02*
X130302000Y-101330000D01*
X134281990Y-100371510D02*
X135122000Y-99531500D01*
X134281990Y-103131659D02*
X134281990Y-100371510D01*
X133297639Y-104116010D02*
X134281990Y-103131659D01*
X131802010Y-104116010D02*
X133297639Y-104116010D01*
X130302000Y-102616000D02*
X131802010Y-104116010D01*
%TO.N,Net-(R4-Pad1)*%
X135382000Y-102579500D02*
X138430000Y-99531500D01*
X135382000Y-102616000D02*
X135382000Y-102579500D01*
X130613010Y-98518990D02*
X130322000Y-98810000D01*
X137417490Y-98518990D02*
X130613010Y-98518990D01*
X138430000Y-99531500D02*
X137417490Y-98518990D01*
%TO.N,Net-(IC1-Pad6)*%
X131648351Y-114808000D02*
X131064000Y-114808000D01*
X137490351Y-120650000D02*
X131648351Y-114808000D01*
X143510000Y-120650000D02*
X137490351Y-120650000D01*
%TO.N,Net-(IC1-Pad12)*%
X151130000Y-113030000D02*
X148590000Y-113030000D01*
X148590000Y-113030000D02*
X146812000Y-114808000D01*
X134704010Y-113952361D02*
X134035649Y-113284000D01*
X146227649Y-114808000D02*
X144365639Y-116670010D01*
X136050361Y-116670010D02*
X134704010Y-115323659D01*
X144365639Y-116670010D02*
X136050361Y-116670010D01*
X146812000Y-114808000D02*
X146227649Y-114808000D01*
X134704010Y-115323659D02*
X134704010Y-113952361D01*
X127508000Y-113284000D02*
X125984000Y-114808000D01*
X134035649Y-113284000D02*
X127508000Y-113284000D01*
%TO.N,Net-(IC1-Pad4)*%
X141609980Y-113669980D02*
X143510000Y-115570000D01*
X141609980Y-109284321D02*
X141609980Y-113669980D01*
X142009999Y-98020001D02*
X142009999Y-108884303D01*
X142009999Y-108884303D02*
X141609980Y-109284321D01*
X146812000Y-93218000D02*
X142009999Y-98020001D01*
%TO.N,Net-(IC1-Pad10)*%
X150368000Y-101854002D02*
X153162000Y-104648002D01*
X150368000Y-88138000D02*
X150368000Y-101854002D01*
X153162000Y-116078000D02*
X151130000Y-118110000D01*
X153162000Y-104648002D02*
X153162000Y-116078000D01*
%TO.N,/DIGIT_SELECT*%
X142009990Y-111529990D02*
X143510000Y-113030000D01*
X142009990Y-109450010D02*
X142009990Y-111529990D01*
X143510000Y-107950000D02*
X142009990Y-109450010D01*
X149629990Y-119149990D02*
X149629990Y-115114361D01*
X151130000Y-120650000D02*
X149629990Y-119149990D01*
X151985639Y-111929990D02*
X144610010Y-111929990D01*
X152630010Y-112574361D02*
X151985639Y-111929990D01*
X152630010Y-113485639D02*
X152630010Y-112574361D01*
X144610010Y-111929990D02*
X143510000Y-113030000D01*
X151985639Y-114130010D02*
X152630010Y-113485639D01*
X150614341Y-114130010D02*
X151985639Y-114130010D01*
X149629990Y-115114361D02*
X150614341Y-114130010D01*
X138430000Y-107188000D02*
X139446000Y-107188000D01*
X135382000Y-110236000D02*
X138430000Y-107188000D01*
%TO.N,Net-(IC1-Pad2)*%
X145010001Y-100684350D02*
X145010001Y-108989999D01*
X146812000Y-98882351D02*
X145010001Y-100684350D01*
X145010001Y-108989999D02*
X143510000Y-110490000D01*
X146812000Y-98298000D02*
X146812000Y-98882351D01*
%TO.N,Net-(IC1-Pad8)*%
X147150010Y-119210010D02*
X151130000Y-123190000D01*
X138006010Y-119210010D02*
X147150010Y-119210010D01*
X133604000Y-114808000D02*
X138006010Y-119210010D01*
%TO.N,/SER_IN*%
X148312010Y-87682361D02*
X148312010Y-89177990D01*
X146879648Y-86249999D02*
X148312010Y-87682361D01*
X131870001Y-86249999D02*
X146879648Y-86249999D01*
X148312010Y-89177990D02*
X146812000Y-90678000D01*
X130720000Y-87400000D02*
X131870001Y-86249999D01*
%TO.N,/RCLK_IN*%
X148712020Y-93857980D02*
X146812000Y-95758000D01*
X148712020Y-87516672D02*
X148712020Y-93857980D01*
X147045337Y-85849989D02*
X148712020Y-87516672D01*
X129730011Y-85849989D02*
X147045337Y-85849989D01*
X128180000Y-87400000D02*
X129730011Y-85849989D01*
%TO.N,/SRCLK_IN*%
X149112030Y-87350983D02*
X149112030Y-98537970D01*
X149112030Y-98537970D02*
X146812000Y-100838000D01*
X147211026Y-85449979D02*
X149112030Y-87350983D01*
X128428019Y-85449979D02*
X147211026Y-85449979D01*
X127029999Y-86847999D02*
X128428019Y-85449979D01*
X127029999Y-87952001D02*
X127029999Y-86847999D01*
X127627999Y-88550001D02*
X127029999Y-87952001D01*
X126790001Y-88550001D02*
X127627999Y-88550001D01*
X125640000Y-87400000D02*
X126790001Y-88550001D01*
%TO.N,/ADDR0_IN*%
X129221999Y-98621997D02*
X129221999Y-99338001D01*
X123100000Y-87400000D02*
X121601999Y-88898001D01*
X129221999Y-99338001D02*
X130721998Y-100838000D01*
X121601999Y-92057999D02*
X127253999Y-97709999D01*
X121601999Y-88898001D02*
X121601999Y-92057999D01*
X127253999Y-97709999D02*
X128310001Y-97709999D01*
X128310001Y-97709999D02*
X129221999Y-98621997D01*
X131064000Y-100838000D02*
X132842000Y-102616000D01*
X130721998Y-100838000D02*
X131064000Y-100838000D01*
%TO.N,/ADDR1_IN*%
X112978980Y-102488629D02*
X114884351Y-104394000D01*
X114927999Y-86249999D02*
X112978980Y-88199018D01*
X120560000Y-87400000D02*
X119409999Y-86249999D01*
X112978980Y-88199018D02*
X112978980Y-102488629D01*
X119409999Y-86249999D02*
X114927999Y-86249999D01*
X125861980Y-104516020D02*
X127762000Y-102616000D01*
X123894301Y-104394000D02*
X124016321Y-104516020D01*
X124016321Y-104516020D02*
X125861980Y-104516020D01*
X114884351Y-104394000D02*
X123894301Y-104394000D01*
%TO.N,/ADDR2_IN*%
X124182010Y-104116010D02*
X122682000Y-102616000D01*
X125677639Y-104116010D02*
X124182010Y-104116010D01*
X126342001Y-98281999D02*
X126342001Y-103451648D01*
X126342001Y-103451648D02*
X125677639Y-104116010D01*
X118020000Y-89959998D02*
X126342001Y-98281999D01*
X118020000Y-87400000D02*
X118020000Y-89959998D01*
%TO.N,/ADDR3_IN*%
X115677990Y-101003689D02*
X117290301Y-102616000D01*
X114414855Y-101003689D02*
X115677990Y-101003689D01*
X113378990Y-99967824D02*
X114414855Y-101003689D01*
X117290301Y-102616000D02*
X117602000Y-102616000D01*
X113378990Y-89501010D02*
X113378990Y-99967824D01*
X115480000Y-87400000D02*
X113378990Y-89501010D01*
%TD*%
M02*
